G04 #@! TF.GenerationSoftware,KiCad,Pcbnew,9.0.3*
G04 #@! TF.CreationDate,2026-01-29T22:49:22+09:00*
G04 #@! TF.ProjectId,xiaobao,7869616f-6261-46f2-9e6b-696361645f70,rev?*
G04 #@! TF.SameCoordinates,Original*
G04 #@! TF.FileFunction,Copper,L3,Inr*
G04 #@! TF.FilePolarity,Positive*
%FSLAX46Y46*%
G04 Gerber Fmt 4.6, Leading zero omitted, Abs format (unit mm)*
G04 Created by KiCad (PCBNEW 9.0.3) date 2026-01-29 22:49:22*
%MOMM*%
%LPD*%
G01*
G04 APERTURE LIST*
G04 #@! TA.AperFunction,ComponentPad*
%ADD10O,1.000000X2.100000*%
G04 #@! TD*
G04 #@! TA.AperFunction,ComponentPad*
%ADD11O,1.000000X1.800000*%
G04 #@! TD*
G04 #@! TA.AperFunction,ComponentPad*
%ADD12C,0.900000*%
G04 #@! TD*
G04 #@! TA.AperFunction,ComponentPad*
%ADD13C,1.400000*%
G04 #@! TD*
G04 #@! TA.AperFunction,ViaPad*
%ADD14C,0.406400*%
G04 #@! TD*
G04 #@! TA.AperFunction,ViaPad*
%ADD15C,0.355600*%
G04 #@! TD*
G04 #@! TA.AperFunction,ViaPad*
%ADD16C,0.500000*%
G04 #@! TD*
G04 #@! TA.AperFunction,Conductor*
%ADD17C,0.254000*%
G04 #@! TD*
G04 #@! TA.AperFunction,Conductor*
%ADD18C,0.101600*%
G04 #@! TD*
G04 #@! TA.AperFunction,Conductor*
%ADD19C,0.088900*%
G04 #@! TD*
G04 APERTURE END LIST*
D10*
G04 #@! TO.N,GND*
G04 #@! TO.C,J1*
X136350000Y-65030000D03*
D11*
X136350000Y-60850000D03*
D10*
X127710000Y-65030000D03*
D11*
X127710000Y-60850000D03*
G04 #@! TD*
D12*
G04 #@! TO.N,/PA4*
G04 #@! TO.C,U4*
X123110000Y-62285950D03*
D13*
X124380000Y-62285950D03*
D12*
G04 #@! TO.N,/PA5*
X123110000Y-64825950D03*
D13*
X124380000Y-64825950D03*
D12*
G04 #@! TO.N,/PA6*
X123110000Y-67365950D03*
D13*
X124380000Y-67365950D03*
D12*
G04 #@! TO.N,/PC14*
X123110000Y-69905950D03*
D13*
X124380000Y-69905950D03*
D12*
G04 #@! TO.N,/PB12*
X123110000Y-72445950D03*
D13*
X124380000Y-72445950D03*
D12*
G04 #@! TO.N,/PB11*
X123110000Y-74985950D03*
D13*
X124380000Y-74985950D03*
D12*
G04 #@! TO.N,/PB14*
X123110000Y-77525950D03*
D13*
X124380000Y-77525950D03*
G04 #@! TO.N,/PB13*
X139620000Y-77525950D03*
D12*
X140890000Y-77525950D03*
D13*
G04 #@! TO.N,/PC0*
X139620000Y-74985950D03*
D12*
X140890000Y-74985950D03*
D13*
G04 #@! TO.N,/PC2*
X139620000Y-72445950D03*
D12*
X140890000Y-72445950D03*
D13*
G04 #@! TO.N,/PC1*
X139620000Y-69905950D03*
D12*
X140890000Y-69905950D03*
D13*
G04 #@! TO.N,+3.3V*
X139620000Y-67365950D03*
D12*
X140890000Y-67365950D03*
D13*
G04 #@! TO.N,GND*
X139620000Y-64825950D03*
D12*
X140890000Y-64825950D03*
D13*
G04 #@! TO.N,VBUS*
X139620000Y-62285950D03*
D12*
X140890000Y-62285950D03*
G04 #@! TO.N,/PC6*
X123110000Y-63555950D03*
G04 #@! TO.N,/PC5*
X123110000Y-66095950D03*
G04 #@! TO.N,/PC3*
X123110000Y-68635950D03*
G04 #@! TO.N,/PC9*
X123110000Y-71175950D03*
G04 #@! TO.N,/PC8*
X123110000Y-73715950D03*
G04 #@! TO.N,/PC7*
X123110000Y-76255950D03*
G04 #@! TO.N,/PB9*
X140890000Y-76255950D03*
G04 #@! TO.N,/PB1*
X140890000Y-73715950D03*
G04 #@! TO.N,/PC4*
X140890000Y-71175950D03*
G04 #@! TD*
D14*
G04 #@! TO.N,GND*
X138200000Y-68400000D03*
X125775568Y-67902565D03*
D15*
X130000000Y-71820000D03*
D14*
X132600000Y-73720000D03*
X130740000Y-69400000D03*
X135600000Y-74820000D03*
X124300000Y-79000000D03*
X139400000Y-79000000D03*
X138200200Y-72080000D03*
X132754700Y-67320000D03*
X132200000Y-72120000D03*
D15*
X129200000Y-72620000D03*
X125900000Y-76400000D03*
D14*
X131345300Y-67320000D03*
X134600000Y-68390000D03*
D15*
X127500000Y-77000000D03*
X128000000Y-73020000D03*
D14*
X138200000Y-67700000D03*
X136000000Y-74190000D03*
X125955600Y-73802325D03*
X132720000Y-76740000D03*
X132900000Y-72120000D03*
X133920000Y-70820000D03*
X134760000Y-78700000D03*
X130700000Y-67800000D03*
X132000000Y-73720000D03*
X130700000Y-68620000D03*
X136200000Y-74820000D03*
D15*
X130000000Y-76920000D03*
D14*
X130200000Y-69620000D03*
X128000000Y-79000000D03*
X135340000Y-69520000D03*
X134120000Y-73744400D03*
X138200000Y-70440000D03*
X132200000Y-71420000D03*
D15*
X124800000Y-71330200D03*
D14*
X138200000Y-69100000D03*
X136000000Y-79000000D03*
X132900000Y-71420000D03*
X138200000Y-69800000D03*
X130200000Y-68620000D03*
D15*
G04 #@! TO.N,+3.3V*
X130000000Y-73820000D03*
X131500000Y-72100000D03*
X128820000Y-70320000D03*
D14*
X133600000Y-71420000D03*
D15*
X139000000Y-60400000D03*
X130400001Y-72220000D03*
D14*
X134300000Y-71720000D03*
X133600000Y-72020000D03*
D15*
X129600000Y-73420000D03*
X133380000Y-67280000D03*
D14*
X126620000Y-75700000D03*
X127155087Y-72633328D03*
X131220000Y-76964400D03*
D15*
X129680000Y-75781400D03*
G04 #@! TO.N,/RST_N*
X125219698Y-73193027D03*
X132260000Y-77280000D03*
D14*
G04 #@! TO.N,VBUS*
X133900000Y-70120000D03*
X135975000Y-68820000D03*
G04 #@! TO.N,/PB12*
X129264000Y-75095600D03*
D15*
G04 #@! TO.N,/PC6*
X125140000Y-63600000D03*
X128400000Y-72620000D03*
G04 #@! TO.N,/PC8*
X124620000Y-73840000D03*
G04 #@! TO.N,Net-(D1-VDD)*
X126220000Y-61140000D03*
D14*
X132500000Y-70780000D03*
G04 #@! TO.N,/PC7*
X124580000Y-76260000D03*
D15*
G04 #@! TO.N,/PC0*
X128600000Y-75985600D03*
G04 #@! TO.N,/PC2*
X127100000Y-75120000D03*
G04 #@! TO.N,/PB13*
X129200000Y-76720000D03*
G04 #@! TO.N,/PC9*
X127138209Y-71998549D03*
D14*
G04 #@! TO.N,/PB1*
X132000000Y-74320000D03*
D15*
X138013903Y-74264472D03*
G04 #@! TO.N,/PC10*
X127935467Y-71060388D03*
G04 #@! TO.N,/PC1*
X127600000Y-75120000D03*
G04 #@! TO.N,/PC11*
X128308615Y-70796201D03*
G04 #@! TO.N,/PC12*
X128800000Y-70920000D03*
D14*
X129899000Y-67219500D03*
G04 #@! TO.N,/PB11*
X129772707Y-75095600D03*
D15*
G04 #@! TO.N,+0.9V*
X128000000Y-73820000D03*
D14*
X133250000Y-73720000D03*
X131500000Y-73100000D03*
D15*
X128100000Y-75120000D03*
D16*
G04 #@! TO.N,/USBCONN_P*
X132270000Y-64330000D03*
X131280000Y-64330000D03*
G04 #@! TO.N,/USBCONN_N*
X132770000Y-63900000D03*
X131770000Y-63900000D03*
D14*
G04 #@! TO.N,VBAT*
X130760000Y-78400000D03*
X136700000Y-71220000D03*
G04 #@! TO.N,VSYS*
X133002547Y-69979800D03*
D15*
X135000000Y-74520000D03*
D14*
X134560000Y-68940000D03*
X135361927Y-70965200D03*
D15*
X136200000Y-72320000D03*
D14*
X134560000Y-69460000D03*
D15*
X135080000Y-73820000D03*
D14*
X134740000Y-76720000D03*
D15*
G04 #@! TO.N,/PA6*
X128400000Y-73420000D03*
G04 #@! TO.N,/PC5*
X128800000Y-72220000D03*
G04 #@! TO.N,/PA4*
X128000000Y-72220000D03*
G04 #@! TO.N,/PA5*
X130000000Y-73020000D03*
G04 #@! TO.N,/PB4{slash}BAT_ADC_EN*
X131042037Y-73459667D03*
X137240000Y-71260000D03*
G04 #@! TO.N,/PC14*
X129200000Y-71820000D03*
D14*
G04 #@! TO.N,/PA7{slash}ADC3*
X129500000Y-77675600D03*
D15*
X129200000Y-73820000D03*
D14*
X138460000Y-77120000D03*
D15*
G04 #@! TO.N,/PC4*
X128800000Y-74220000D03*
X138800000Y-70900000D03*
G04 #@! TO.N,/PC3*
X125300000Y-69500000D03*
D14*
X125879358Y-74870642D03*
D15*
G04 #@! TO.N,/PA1{slash}WS2812B_LED*
X128400000Y-71820000D03*
X125781613Y-67420000D03*
X125375000Y-61125000D03*
D14*
X125800000Y-64800000D03*
D15*
G04 #@! TO.N,/PB2{slash}LED*
X131220000Y-74264600D03*
X137700000Y-61800000D03*
G04 #@! TO.N,/PB5*
X130770200Y-73033800D03*
G04 #@! TO.N,/PB9*
X129600000Y-74220000D03*
D14*
X136225368Y-75327368D03*
D15*
G04 #@! TO.N,/PC13{slash}BOOT*
X129361979Y-70803284D03*
X132800000Y-67860000D03*
D14*
X126620000Y-76340000D03*
X129240000Y-78700000D03*
D15*
G04 #@! TO.N,/PB3{slash}WS2812_PWR_EN*
X130828257Y-73934400D03*
X133420601Y-69349898D03*
G04 #@! TD*
D17*
G04 #@! TO.N,GND*
X139620000Y-64825950D02*
X140635000Y-64825950D01*
G04 #@! TO.N,+3.3V*
X139620000Y-67365950D02*
X140635000Y-67365950D01*
D18*
G04 #@! TO.N,/RST_N*
X125600000Y-74088388D02*
X128831612Y-77320000D01*
X132220000Y-77320000D02*
X132260000Y-77280000D01*
X125600000Y-73541922D02*
X125600000Y-74088388D01*
X125219698Y-73193027D02*
X125251105Y-73193027D01*
X125251105Y-73193027D02*
X125600000Y-73541922D01*
X128831612Y-77320000D02*
X132220000Y-77320000D01*
D17*
G04 #@! TO.N,VBUS*
X139620000Y-62285950D02*
X140635000Y-62285950D01*
D18*
G04 #@! TO.N,/PB12*
X125148386Y-72445950D02*
X124380000Y-72445950D01*
X129076818Y-75095600D02*
X128336618Y-74355400D01*
X124380000Y-72445950D02*
X123314750Y-72445950D01*
X127057836Y-74355400D02*
X125148386Y-72445950D01*
X128336618Y-74355400D02*
X127057836Y-74355400D01*
X129264000Y-75095600D02*
X129076818Y-75095600D01*
G04 #@! TO.N,/PC8*
X124620000Y-73840000D02*
X124577201Y-73882799D01*
X124577201Y-73882799D02*
X123288800Y-73882799D01*
D19*
G04 #@! TO.N,Net-(D1-VDD)*
X126880000Y-65900000D02*
X127380000Y-66400000D01*
D18*
X133543328Y-69816672D02*
X134000000Y-69360000D01*
D19*
X127380000Y-66400000D02*
X133300000Y-66400000D01*
X126880000Y-61360000D02*
X126880000Y-65900000D01*
D18*
X132500000Y-70780000D02*
X133220000Y-70780000D01*
X134000000Y-69360000D02*
X134000000Y-67100000D01*
X133220000Y-70780000D02*
X133543328Y-70456672D01*
X134000000Y-67100000D02*
X133300000Y-66400000D01*
D19*
X126220000Y-61140000D02*
X126660000Y-61140000D01*
D18*
X133543328Y-70456672D02*
X133543328Y-69816672D01*
D19*
X126660000Y-61140000D02*
X126880000Y-61360000D01*
D18*
G04 #@! TO.N,/PC7*
X124544050Y-76255950D02*
X123288800Y-76255950D01*
G04 #@! TO.N,/PC0*
X129004600Y-76384600D02*
X128605600Y-75985600D01*
X137776182Y-76312600D02*
X135153000Y-76312600D01*
X139405950Y-75200000D02*
X138891218Y-75200000D01*
X135153000Y-76312600D02*
X134700000Y-75859600D01*
X134700000Y-75859600D02*
X130380000Y-75859600D01*
X129855000Y-76384600D02*
X129004600Y-76384600D01*
X139620000Y-74985950D02*
X140711200Y-74985950D01*
X137888782Y-76200000D02*
X137776182Y-76312600D01*
X128605600Y-75985600D02*
X128600000Y-75985600D01*
X138891218Y-75200000D02*
X137891218Y-76200000D01*
X130380000Y-75859600D02*
X129855000Y-76384600D01*
X137891218Y-76200000D02*
X137888782Y-76200000D01*
G04 #@! TO.N,/PC2*
X139054050Y-72445950D02*
X138766600Y-72733400D01*
X128737188Y-75654400D02*
X128462812Y-75654400D01*
X129240000Y-76140000D02*
X128755400Y-75655400D01*
X135279164Y-76108400D02*
X134826164Y-75655400D01*
X130295418Y-75655400D02*
X129810818Y-76140000D01*
X139620000Y-72445950D02*
X140711200Y-72445950D01*
X134826164Y-75655400D02*
X130295418Y-75655400D01*
X128755400Y-75655400D02*
X128738188Y-75655400D01*
X138766600Y-75033400D02*
X137691600Y-76108400D01*
X128462812Y-75654400D02*
X128461812Y-75655400D01*
X137691600Y-76108400D02*
X135279164Y-76108400D01*
X127635400Y-75655400D02*
X127100000Y-75120000D01*
X138766600Y-72733400D02*
X138766600Y-75033400D01*
X128738188Y-75655400D02*
X128737188Y-75654400D01*
X128461812Y-75655400D02*
X127635400Y-75655400D01*
X129810818Y-76140000D02*
X129240000Y-76140000D01*
G04 #@! TO.N,/PB14*
X124380000Y-77525950D02*
X123288800Y-77525950D01*
G04 #@! TO.N,/PB13*
X135041109Y-76516800D02*
X134588109Y-76063800D01*
X129331200Y-76588800D02*
X129200000Y-76720000D01*
X130464582Y-76063800D02*
X129939582Y-76588800D01*
X139620000Y-77525950D02*
X138610850Y-76516800D01*
X129939582Y-76588800D02*
X129331200Y-76588800D01*
X138610850Y-76516800D02*
X135041109Y-76516800D01*
X139620000Y-77525950D02*
X140711200Y-77525950D01*
X134588109Y-76063800D02*
X130464582Y-76063800D01*
G04 #@! TO.N,/PB1*
X134280000Y-74100000D02*
X134900000Y-73480000D01*
X132220000Y-74100000D02*
X134280000Y-74100000D01*
X132000000Y-74320000D02*
X132220000Y-74100000D01*
X134900000Y-73480000D02*
X137229431Y-73480000D01*
X137229431Y-73480000D02*
X138013903Y-74264472D01*
G04 #@! TO.N,/PC1*
X138760000Y-71840000D02*
X138760000Y-72440000D01*
X138562400Y-72637600D02*
X138562400Y-74948818D01*
X137607018Y-75904200D02*
X135363746Y-75904200D01*
X139620000Y-70980000D02*
X138760000Y-71840000D01*
X128822770Y-75451200D02*
X128821770Y-75450200D01*
X134910746Y-75451200D02*
X128822770Y-75451200D01*
X128821770Y-75450200D02*
X128378230Y-75450200D01*
X139620000Y-69905950D02*
X140711200Y-69905950D01*
X128377230Y-75451200D02*
X127931200Y-75451200D01*
X138760000Y-72440000D02*
X138562400Y-72637600D01*
X135363746Y-75904200D02*
X134910746Y-75451200D01*
X138562400Y-74948818D02*
X137607018Y-75904200D01*
X139620000Y-69905950D02*
X139620000Y-70980000D01*
X128378230Y-75450200D02*
X128377230Y-75451200D01*
X127931200Y-75451200D02*
X127600000Y-75120000D01*
D19*
G04 #@! TO.N,/PC12*
X129820500Y-67219500D02*
X129600000Y-67440000D01*
X129600000Y-67440000D02*
X129600000Y-70105855D01*
X128800000Y-70905855D02*
X128800000Y-70920000D01*
X129600000Y-70105855D02*
X128800000Y-70905855D01*
X129899000Y-67219500D02*
X129820500Y-67219500D01*
D18*
G04 #@! TO.N,/PB11*
X124380000Y-74985950D02*
X123288800Y-74985950D01*
G04 #@! TO.N,/PA6*
X124380000Y-67380000D02*
X126015114Y-69015114D01*
X124380000Y-67365950D02*
X123288800Y-67365950D01*
X126700000Y-73420000D02*
X128400000Y-73420000D01*
X126015114Y-69015114D02*
X126015114Y-72735114D01*
X126015114Y-72735114D02*
X126700000Y-73420000D01*
G04 #@! TO.N,/PC5*
X126904200Y-68400000D02*
X126904200Y-70950983D01*
X126904200Y-68400000D02*
X126904200Y-67615418D01*
X128135812Y-71615800D02*
X127569017Y-71615800D01*
X126904200Y-68120000D02*
X126904200Y-68400000D01*
X128537188Y-71488800D02*
X128262812Y-71488800D01*
X128800000Y-72220000D02*
X128800000Y-71751612D01*
X128262812Y-71488800D02*
X128135812Y-71615800D01*
X126904200Y-70950983D02*
X126904200Y-68085418D01*
X128800000Y-71751612D02*
X128537188Y-71488800D01*
X126904200Y-67615418D02*
X125308782Y-66020000D01*
X125308782Y-66020000D02*
X123288800Y-66020000D01*
X126904200Y-70950983D02*
X127569017Y-71615800D01*
G04 #@! TO.N,/PA4*
X124380000Y-62285950D02*
X123288800Y-62285950D01*
G04 #@! TO.N,/PA5*
X129361415Y-71441415D02*
X128778585Y-71441415D01*
X127108400Y-67508400D02*
X124665950Y-65065950D01*
X129740000Y-72700000D02*
X129740000Y-72028388D01*
X129740000Y-72028388D02*
X129531612Y-71820000D01*
X129531200Y-71820000D02*
X129531200Y-71611200D01*
X128621770Y-71284600D02*
X128178230Y-71284600D01*
X128178230Y-71284600D02*
X128051230Y-71411600D01*
X128051230Y-71411600D02*
X127653599Y-71411600D01*
X129531612Y-71820000D02*
X129531200Y-71820000D01*
X127108400Y-70866401D02*
X127108400Y-67508400D01*
X130000000Y-72960000D02*
X129740000Y-72700000D01*
X129531200Y-71611200D02*
X129361415Y-71441415D01*
X124380000Y-64825950D02*
X123288800Y-64825950D01*
X130000000Y-73020000D02*
X130000000Y-72960000D01*
X127653599Y-71411600D02*
X127108400Y-70866401D01*
X128778585Y-71441415D02*
X128621770Y-71284600D01*
G04 #@! TO.N,/PB4{slash}BAT_ADC_EN*
X131435691Y-72660000D02*
X131143400Y-72952291D01*
X131143400Y-72952291D02*
X131143400Y-73358304D01*
X132075800Y-73015800D02*
X131720000Y-72660000D01*
X137495800Y-72535418D02*
X137015418Y-73015800D01*
X131720000Y-72660000D02*
X131435691Y-72660000D01*
X137015418Y-73015800D02*
X132075800Y-73015800D01*
X137240000Y-71260000D02*
X137495800Y-71515800D01*
X131143400Y-73358304D02*
X131042037Y-73459667D01*
X137495800Y-71515800D02*
X137495800Y-72535418D01*
G04 #@! TO.N,/PC14*
X129531200Y-72151200D02*
X129531200Y-72988800D01*
X125810914Y-70719696D02*
X124997168Y-69905950D01*
X127142418Y-74151200D02*
X125810914Y-72819696D01*
X125810914Y-72819696D02*
X125810914Y-70719696D01*
X129200000Y-71820000D02*
X129531200Y-72151200D01*
X124380000Y-69905950D02*
X123390051Y-69905950D01*
X128368800Y-74151200D02*
X127142418Y-74151200D01*
X129531200Y-72988800D02*
X128368800Y-74151200D01*
G04 #@! TO.N,/PA7{slash}ADC3*
X129500000Y-77675600D02*
X137904400Y-77675600D01*
X137904400Y-77675600D02*
X138460000Y-77120000D01*
G04 #@! TO.N,/PC4*
X134980000Y-75220000D02*
X130400000Y-75220000D01*
X137522436Y-75700000D02*
X135460000Y-75700000D01*
X138555800Y-71144200D02*
X138555800Y-72325027D01*
X129131200Y-74551200D02*
X128800000Y-74220000D01*
X130400000Y-75220000D02*
X129731200Y-74551200D01*
X129731200Y-74551200D02*
X129131200Y-74551200D01*
X135460000Y-75700000D02*
X134980000Y-75220000D01*
X138358200Y-74864236D02*
X137522436Y-75700000D01*
X138800000Y-70900000D02*
X138555800Y-71144200D01*
X138555800Y-72325027D02*
X138358200Y-72522627D01*
X138358200Y-72522627D02*
X138358200Y-74864236D01*
G04 #@! TO.N,/PC3*
X123288800Y-68635950D02*
X124800000Y-68635950D01*
X125300000Y-69500000D02*
X125300000Y-69135950D01*
X125300000Y-69135950D02*
X124800000Y-68635950D01*
G04 #@! TO.N,/PA1{slash}WS2812B_LED*
X125375000Y-61125000D02*
X125500000Y-61250000D01*
X125500000Y-64476150D02*
X125823850Y-64800000D01*
X127484435Y-71820000D02*
X126700000Y-71035565D01*
X128400000Y-71820000D02*
X127484435Y-71820000D01*
X126700000Y-71035565D02*
X126700000Y-67700000D01*
X126700000Y-67700000D02*
X126420000Y-67420000D01*
X125500000Y-61250000D02*
X125500000Y-64476150D01*
X126420000Y-67420000D02*
X125781613Y-67420000D01*
G04 #@! TO.N,/PB2{slash}LED*
X137700000Y-61800000D02*
X137700000Y-72620000D01*
X137100000Y-73220000D02*
X131900000Y-73220000D01*
X131220000Y-73900000D02*
X131220000Y-74264600D01*
X137700000Y-72620000D02*
X137100000Y-73220000D01*
X131900000Y-73220000D02*
X131220000Y-73900000D01*
G04 #@! TO.N,/PB9*
X135157982Y-75015800D02*
X130484582Y-75015800D01*
X136225368Y-75327368D02*
X136223827Y-75328909D01*
X129688782Y-74220000D02*
X129600000Y-74220000D01*
X130484582Y-75015800D02*
X129688782Y-74220000D01*
X136223827Y-75328909D02*
X135471091Y-75328909D01*
X135471091Y-75328909D02*
X135157982Y-75015800D01*
G04 #@! TO.N,/PC13{slash}BOOT*
X129240000Y-78060000D02*
X127520000Y-76340000D01*
X129240000Y-78700000D02*
X129240000Y-78060000D01*
X127520000Y-76340000D02*
X126620000Y-76340000D01*
X129856716Y-70803284D02*
X132800000Y-67860000D01*
X129361979Y-70803284D02*
X129856716Y-70803284D01*
G04 #@! TO.N,/PB3{slash}WS2812_PWR_EN*
X130440000Y-72880000D02*
X131109019Y-72210981D01*
X130439000Y-72896612D02*
X130440000Y-72895612D01*
X130440000Y-72895612D02*
X130440000Y-72880000D01*
X131109019Y-72210981D02*
X131109019Y-71369019D01*
X130440000Y-73546144D02*
X130440000Y-73171988D01*
X133128140Y-69349898D02*
X133420601Y-69349898D01*
X130828257Y-73934400D02*
X130440000Y-73546144D01*
X130439000Y-73170988D02*
X130439000Y-72896612D01*
X131109019Y-71369019D02*
X133128140Y-69349898D01*
X130440000Y-73171988D02*
X130439000Y-73170988D01*
G04 #@! TD*
G04 #@! TA.AperFunction,Conductor*
G04 #@! TO.N,GND*
G36*
X123627807Y-72752878D02*
G01*
X123648917Y-72776949D01*
X123669187Y-72825886D01*
X123756964Y-72957255D01*
X123868694Y-73068985D01*
X123941327Y-73117516D01*
X124000063Y-73156762D01*
X124000064Y-73156762D01*
X124000066Y-73156764D01*
X124045392Y-73175538D01*
X124146036Y-73217226D01*
X124146043Y-73217227D01*
X124146045Y-73217228D01*
X124199072Y-73227775D01*
X124301000Y-73248050D01*
X124301004Y-73248050D01*
X124458996Y-73248050D01*
X124459000Y-73248050D01*
X124613964Y-73217226D01*
X124730230Y-73169066D01*
X124759933Y-73156764D01*
X124759933Y-73156763D01*
X124759937Y-73156762D01*
X124868815Y-73084011D01*
X124906198Y-73076576D01*
X124937889Y-73097752D01*
X124945325Y-73135135D01*
X124944585Y-73138307D01*
X124939798Y-73156172D01*
X124939798Y-73229877D01*
X124958872Y-73301061D01*
X124958875Y-73301068D01*
X124987343Y-73350377D01*
X124995722Y-73364889D01*
X125047836Y-73417003D01*
X125111661Y-73453852D01*
X125182848Y-73472927D01*
X125256549Y-73472927D01*
X125256549Y-73472926D01*
X125274691Y-73468065D01*
X125312481Y-73473038D01*
X125322797Y-73480953D01*
X125432514Y-73590670D01*
X125447100Y-73625884D01*
X125447100Y-74118803D01*
X125451908Y-74130409D01*
X125451908Y-74130413D01*
X125451910Y-74130413D01*
X125470377Y-74174999D01*
X125795173Y-74499795D01*
X125809759Y-74535008D01*
X125795173Y-74570222D01*
X125772851Y-74583110D01*
X125761524Y-74586145D01*
X125761513Y-74586150D01*
X125691900Y-74626341D01*
X125635057Y-74683184D01*
X125594866Y-74752797D01*
X125594863Y-74752803D01*
X125574058Y-74830449D01*
X125574058Y-74910834D01*
X125594863Y-74988480D01*
X125594866Y-74988486D01*
X125626266Y-75042873D01*
X125635058Y-75058100D01*
X125691900Y-75114942D01*
X125761517Y-75155136D01*
X125839165Y-75175942D01*
X125839166Y-75175942D01*
X125919550Y-75175942D01*
X125919551Y-75175942D01*
X125997199Y-75155136D01*
X126066816Y-75114942D01*
X126123658Y-75058100D01*
X126163852Y-74988483D01*
X126166888Y-74977151D01*
X126190090Y-74946912D01*
X126227879Y-74941937D01*
X126250205Y-74954826D01*
X126605842Y-75310464D01*
X126620428Y-75345678D01*
X126605842Y-75380892D01*
X126582567Y-75392386D01*
X126582961Y-75393855D01*
X126502161Y-75415505D01*
X126502155Y-75415508D01*
X126432542Y-75455699D01*
X126375699Y-75512542D01*
X126335508Y-75582155D01*
X126335505Y-75582161D01*
X126325718Y-75618686D01*
X126314700Y-75659807D01*
X126314700Y-75740193D01*
X126319263Y-75757223D01*
X126335505Y-75817838D01*
X126335508Y-75817844D01*
X126375699Y-75887457D01*
X126432542Y-75944300D01*
X126488957Y-75976872D01*
X126512160Y-76007111D01*
X126507185Y-76044900D01*
X126488957Y-76063128D01*
X126432542Y-76095699D01*
X126375699Y-76152542D01*
X126335508Y-76222155D01*
X126335505Y-76222161D01*
X126323530Y-76266852D01*
X126314700Y-76299807D01*
X126314700Y-76380193D01*
X126322379Y-76408850D01*
X126332723Y-76447457D01*
X126335506Y-76457841D01*
X126345817Y-76475700D01*
X126375698Y-76527456D01*
X126375700Y-76527458D01*
X126432542Y-76584300D01*
X126502159Y-76624494D01*
X126579807Y-76645300D01*
X126579808Y-76645300D01*
X126660192Y-76645300D01*
X126660193Y-76645300D01*
X126737841Y-76624494D01*
X126807458Y-76584300D01*
X126864300Y-76527458D01*
X126865528Y-76525331D01*
X126869876Y-76517801D01*
X126900114Y-76494597D01*
X126913004Y-76492900D01*
X127436038Y-76492900D01*
X127471252Y-76507486D01*
X129072514Y-78108747D01*
X129087100Y-78143961D01*
X129087100Y-78406995D01*
X129072514Y-78442209D01*
X129062202Y-78450122D01*
X129052542Y-78455699D01*
X128995699Y-78512542D01*
X128955508Y-78582155D01*
X128955505Y-78582161D01*
X128934700Y-78659807D01*
X128934700Y-78740192D01*
X128955505Y-78817838D01*
X128955508Y-78817844D01*
X128990715Y-78878825D01*
X128995700Y-78887458D01*
X129052542Y-78944300D01*
X129122159Y-78984494D01*
X129199807Y-79005300D01*
X129199808Y-79005300D01*
X129280192Y-79005300D01*
X129280193Y-79005300D01*
X129357841Y-78984494D01*
X129427458Y-78944300D01*
X129484300Y-78887458D01*
X129524494Y-78817841D01*
X129545300Y-78740193D01*
X129545300Y-78659807D01*
X129524494Y-78582159D01*
X129484300Y-78512542D01*
X129427458Y-78455700D01*
X129427457Y-78455699D01*
X129417798Y-78450122D01*
X129413702Y-78444783D01*
X129407486Y-78442209D01*
X129402510Y-78430197D01*
X129394596Y-78419882D01*
X129392900Y-78406995D01*
X129392900Y-78359807D01*
X130454700Y-78359807D01*
X130454700Y-78440193D01*
X130455930Y-78444783D01*
X130475505Y-78517838D01*
X130475508Y-78517844D01*
X130512641Y-78582161D01*
X130515700Y-78587458D01*
X130572542Y-78644300D01*
X130642159Y-78684494D01*
X130719807Y-78705300D01*
X130719808Y-78705300D01*
X130800192Y-78705300D01*
X130800193Y-78705300D01*
X130877841Y-78684494D01*
X130947458Y-78644300D01*
X131004300Y-78587458D01*
X131044494Y-78517841D01*
X131065300Y-78440193D01*
X131065300Y-78359807D01*
X131044494Y-78282159D01*
X131004300Y-78212542D01*
X130947458Y-78155700D01*
X130947457Y-78155699D01*
X130904852Y-78131101D01*
X130877841Y-78115506D01*
X130877838Y-78115505D01*
X130845022Y-78106712D01*
X130800193Y-78094700D01*
X130719807Y-78094700D01*
X130694153Y-78101574D01*
X130642161Y-78115505D01*
X130642155Y-78115508D01*
X130572542Y-78155699D01*
X130515699Y-78212542D01*
X130475508Y-78282155D01*
X130475505Y-78282161D01*
X130463209Y-78328050D01*
X130454700Y-78359807D01*
X129392900Y-78359807D01*
X129392900Y-78027872D01*
X129407486Y-77992658D01*
X129442700Y-77978072D01*
X129455584Y-77979768D01*
X129459807Y-77980900D01*
X129459810Y-77980900D01*
X129540192Y-77980900D01*
X129540193Y-77980900D01*
X129617841Y-77960094D01*
X129687458Y-77919900D01*
X129744300Y-77863058D01*
X129745528Y-77860931D01*
X129749876Y-77853401D01*
X129780114Y-77830197D01*
X129793004Y-77828500D01*
X137934814Y-77828500D01*
X137945192Y-77824200D01*
X137951272Y-77821683D01*
X137951273Y-77821682D01*
X137991011Y-77805223D01*
X138360931Y-77435301D01*
X138396144Y-77420716D01*
X138409032Y-77422412D01*
X138419807Y-77425300D01*
X138419808Y-77425300D01*
X138500192Y-77425300D01*
X138500193Y-77425300D01*
X138577841Y-77404494D01*
X138647458Y-77364300D01*
X138704300Y-77307458D01*
X138744494Y-77237841D01*
X138765300Y-77160193D01*
X138765300Y-77079807D01*
X138744494Y-77002159D01*
X138744493Y-77002157D01*
X138743649Y-76999007D01*
X138744503Y-76998777D01*
X138744501Y-76964070D01*
X138771451Y-76937116D01*
X138809566Y-76937113D01*
X138825726Y-76947910D01*
X138926206Y-77048390D01*
X138940792Y-77083604D01*
X138932400Y-77111270D01*
X138909187Y-77146012D01*
X138848726Y-77291981D01*
X138848721Y-77291995D01*
X138817900Y-77446947D01*
X138817900Y-77604952D01*
X138848721Y-77759904D01*
X138848723Y-77759910D01*
X138848724Y-77759914D01*
X138861028Y-77789620D01*
X138909185Y-77905883D01*
X138909187Y-77905885D01*
X138996964Y-78037255D01*
X139108694Y-78148985D01*
X139187301Y-78201507D01*
X139240063Y-78236762D01*
X139240064Y-78236762D01*
X139240066Y-78236764D01*
X139305622Y-78263917D01*
X139386036Y-78297226D01*
X139386043Y-78297227D01*
X139386045Y-78297228D01*
X139439072Y-78307775D01*
X139541000Y-78328050D01*
X139541004Y-78328050D01*
X139698996Y-78328050D01*
X139699000Y-78328050D01*
X139853964Y-78297226D01*
X139970230Y-78249066D01*
X139999933Y-78236764D01*
X139999933Y-78236763D01*
X139999937Y-78236762D01*
X140121255Y-78155700D01*
X140131305Y-78148985D01*
X140131308Y-78148983D01*
X140243033Y-78037258D01*
X140243035Y-78037255D01*
X140281445Y-77979770D01*
X140330812Y-77905887D01*
X140351082Y-77856949D01*
X140378033Y-77829998D01*
X140416148Y-77829998D01*
X140440218Y-77851105D01*
X140448210Y-77864947D01*
X140551003Y-77967740D01*
X140676897Y-78040425D01*
X140725589Y-78053471D01*
X140755828Y-78076673D01*
X140762500Y-78101574D01*
X140762500Y-78340540D01*
X140761828Y-78342028D01*
X140762500Y-78369562D01*
X140762500Y-78371021D01*
X140762458Y-78373066D01*
X140752166Y-78623494D01*
X140751473Y-78629971D01*
X140708809Y-78875609D01*
X140707277Y-78881940D01*
X140632917Y-79119907D01*
X140630572Y-79125985D01*
X140525780Y-79352221D01*
X140522661Y-79357940D01*
X140389243Y-79568552D01*
X140385405Y-79573815D01*
X140225632Y-79765218D01*
X140221139Y-79769935D01*
X140037759Y-79938839D01*
X140032689Y-79942930D01*
X139828820Y-80086458D01*
X139823260Y-80089851D01*
X139602409Y-80205539D01*
X139596453Y-80208178D01*
X139362389Y-80294049D01*
X139356140Y-80295888D01*
X139112865Y-80350474D01*
X139106429Y-80351481D01*
X138969929Y-80363775D01*
X138862763Y-80373427D01*
X138857522Y-80373899D01*
X138853055Y-80374100D01*
X125271141Y-80374100D01*
X125269652Y-80373427D01*
X125242115Y-80374100D01*
X125240654Y-80374100D01*
X125238611Y-80374058D01*
X124988177Y-80363775D01*
X124981700Y-80363083D01*
X124736043Y-80320424D01*
X124729711Y-80318892D01*
X124491722Y-80244530D01*
X124485644Y-80242184D01*
X124259407Y-80137397D01*
X124253688Y-80134279D01*
X124043057Y-80000853D01*
X124037793Y-79997014D01*
X123846381Y-79837235D01*
X123841664Y-79832742D01*
X123672752Y-79649352D01*
X123668661Y-79644282D01*
X123644894Y-79610523D01*
X123525128Y-79440403D01*
X123521735Y-79434843D01*
X123406042Y-79213971D01*
X123403404Y-79208015D01*
X123317536Y-78973944D01*
X123315697Y-78967695D01*
X123295037Y-78875609D01*
X123261114Y-78724404D01*
X123260108Y-78717970D01*
X123254871Y-78659807D01*
X123237701Y-78469091D01*
X123237500Y-78464625D01*
X123237500Y-78101574D01*
X123252086Y-78066360D01*
X123274410Y-78053472D01*
X123323103Y-78040425D01*
X123448997Y-77967740D01*
X123551790Y-77864947D01*
X123559780Y-77851106D01*
X123590017Y-77827904D01*
X123627807Y-77832878D01*
X123648917Y-77856949D01*
X123669187Y-77905886D01*
X123756964Y-78037255D01*
X123868694Y-78148985D01*
X123947301Y-78201507D01*
X124000063Y-78236762D01*
X124000064Y-78236762D01*
X124000066Y-78236764D01*
X124065622Y-78263917D01*
X124146036Y-78297226D01*
X124146043Y-78297227D01*
X124146045Y-78297228D01*
X124199072Y-78307775D01*
X124301000Y-78328050D01*
X124301004Y-78328050D01*
X124458996Y-78328050D01*
X124459000Y-78328050D01*
X124613964Y-78297226D01*
X124730230Y-78249066D01*
X124759933Y-78236764D01*
X124759933Y-78236763D01*
X124759937Y-78236762D01*
X124881255Y-78155700D01*
X124891305Y-78148985D01*
X124891308Y-78148983D01*
X125003033Y-78037258D01*
X125003035Y-78037255D01*
X125041445Y-77979770D01*
X125090812Y-77905887D01*
X125151276Y-77759914D01*
X125182100Y-77604950D01*
X125182100Y-77446950D01*
X125156222Y-77316850D01*
X125151278Y-77291995D01*
X125151277Y-77291993D01*
X125151276Y-77291986D01*
X125112651Y-77198737D01*
X125090814Y-77146016D01*
X125090812Y-77146014D01*
X125090812Y-77146013D01*
X125049483Y-77084160D01*
X125003035Y-77014644D01*
X124891305Y-76902914D01*
X124774249Y-76824701D01*
X124759937Y-76815138D01*
X124759935Y-76815137D01*
X124759933Y-76815135D01*
X124627288Y-76760193D01*
X124613964Y-76754674D01*
X124613960Y-76754673D01*
X124613954Y-76754671D01*
X124459002Y-76723850D01*
X124459000Y-76723850D01*
X124301000Y-76723850D01*
X124300997Y-76723850D01*
X124146045Y-76754671D01*
X124146037Y-76754673D01*
X124146036Y-76754674D01*
X124146032Y-76754675D01*
X124146031Y-76754676D01*
X124000066Y-76815135D01*
X124000064Y-76815137D01*
X123868694Y-76902914D01*
X123868692Y-76902917D01*
X123756967Y-77014642D01*
X123756964Y-77014644D01*
X123669187Y-77146013D01*
X123648917Y-77194950D01*
X123621965Y-77221901D01*
X123583850Y-77221901D01*
X123559780Y-77200792D01*
X123551790Y-77186953D01*
X123448996Y-77084159D01*
X123371950Y-77039677D01*
X123323103Y-77011475D01*
X123297420Y-77004593D01*
X123274410Y-76998427D01*
X123244171Y-76975223D01*
X123237500Y-76950324D01*
X123237500Y-76831574D01*
X123252086Y-76796360D01*
X123274410Y-76783472D01*
X123323103Y-76770425D01*
X123448997Y-76697740D01*
X123551790Y-76594947D01*
X123624475Y-76469053D01*
X123630716Y-76445761D01*
X123653919Y-76415522D01*
X123678819Y-76408850D01*
X124284657Y-76408850D01*
X124319871Y-76423436D01*
X124327784Y-76433749D01*
X124335698Y-76447456D01*
X124335699Y-76447457D01*
X124335700Y-76447458D01*
X124392542Y-76504300D01*
X124462159Y-76544494D01*
X124539807Y-76565300D01*
X124539808Y-76565300D01*
X124620192Y-76565300D01*
X124620193Y-76565300D01*
X124697841Y-76544494D01*
X124767458Y-76504300D01*
X124824300Y-76447458D01*
X124864494Y-76377841D01*
X124885300Y-76300193D01*
X124885300Y-76219807D01*
X124864494Y-76142159D01*
X124824300Y-76072542D01*
X124767458Y-76015700D01*
X124767457Y-76015699D01*
X124697844Y-75975508D01*
X124697841Y-75975506D01*
X124697838Y-75975505D01*
X124665022Y-75966712D01*
X124620193Y-75954700D01*
X124539807Y-75954700D01*
X124511386Y-75962315D01*
X124462161Y-75975505D01*
X124462155Y-75975508D01*
X124392542Y-76015699D01*
X124335699Y-76072542D01*
X124332462Y-76078150D01*
X124302223Y-76101353D01*
X124289334Y-76103050D01*
X123678819Y-76103050D01*
X123643605Y-76088464D01*
X123630716Y-76066139D01*
X123624476Y-76042851D01*
X123624475Y-76042847D01*
X123551790Y-75916953D01*
X123448997Y-75814160D01*
X123448996Y-75814159D01*
X123350388Y-75757228D01*
X123323103Y-75741475D01*
X123306548Y-75737039D01*
X123274410Y-75728427D01*
X123244171Y-75705223D01*
X123237500Y-75680324D01*
X123237500Y-75561574D01*
X123252086Y-75526360D01*
X123274410Y-75513472D01*
X123323103Y-75500425D01*
X123448997Y-75427740D01*
X123551790Y-75324947D01*
X123559780Y-75311106D01*
X123590017Y-75287904D01*
X123627807Y-75292878D01*
X123648917Y-75316949D01*
X123669187Y-75365886D01*
X123756964Y-75497255D01*
X123868694Y-75608985D01*
X123944756Y-75659807D01*
X124000063Y-75696762D01*
X124000064Y-75696762D01*
X124000066Y-75696764D01*
X124042058Y-75714157D01*
X124146036Y-75757226D01*
X124146043Y-75757227D01*
X124146045Y-75757228D01*
X124199072Y-75767775D01*
X124301000Y-75788050D01*
X124301004Y-75788050D01*
X124458996Y-75788050D01*
X124459000Y-75788050D01*
X124613964Y-75757226D01*
X124730230Y-75709066D01*
X124759933Y-75696764D01*
X124759933Y-75696763D01*
X124759937Y-75696762D01*
X124891309Y-75608982D01*
X125003032Y-75497259D01*
X125090812Y-75365887D01*
X125151276Y-75219914D01*
X125182100Y-75064950D01*
X125182100Y-74906950D01*
X125156428Y-74777886D01*
X125151278Y-74751995D01*
X125151277Y-74751993D01*
X125151276Y-74751986D01*
X125113502Y-74660792D01*
X125090814Y-74606016D01*
X125090812Y-74606014D01*
X125090812Y-74606013D01*
X125049483Y-74544160D01*
X125003035Y-74474644D01*
X124891305Y-74362914D01*
X124784535Y-74291574D01*
X124759937Y-74275138D01*
X124759935Y-74275137D01*
X124759933Y-74275135D01*
X124631105Y-74221774D01*
X124616461Y-74215708D01*
X124589510Y-74188758D01*
X124589510Y-74150643D01*
X124616461Y-74123691D01*
X124635519Y-74119900D01*
X124656850Y-74119900D01*
X124728037Y-74100825D01*
X124791862Y-74063976D01*
X124843976Y-74011862D01*
X124880825Y-73948037D01*
X124899900Y-73876850D01*
X124899900Y-73803150D01*
X124880825Y-73731963D01*
X124843976Y-73668138D01*
X124791862Y-73616024D01*
X124791861Y-73616023D01*
X124728041Y-73579177D01*
X124728038Y-73579176D01*
X124728037Y-73579175D01*
X124728035Y-73579174D01*
X124728034Y-73579174D01*
X124656850Y-73560100D01*
X124583150Y-73560100D01*
X124511965Y-73579174D01*
X124511958Y-73579177D01*
X124448138Y-73616023D01*
X124396027Y-73668135D01*
X124396023Y-73668139D01*
X124374743Y-73704999D01*
X124344504Y-73728202D01*
X124331615Y-73729899D01*
X123711900Y-73729899D01*
X123676686Y-73715313D01*
X123662100Y-73680099D01*
X123662100Y-73643265D01*
X123662099Y-73643263D01*
X123661298Y-73640275D01*
X123624475Y-73502847D01*
X123551790Y-73376953D01*
X123448997Y-73274160D01*
X123448996Y-73274159D01*
X123350388Y-73217228D01*
X123323103Y-73201475D01*
X123314308Y-73199118D01*
X123274410Y-73188427D01*
X123244171Y-73165223D01*
X123237500Y-73140324D01*
X123237500Y-73021574D01*
X123252086Y-72986360D01*
X123274410Y-72973472D01*
X123323103Y-72960425D01*
X123448997Y-72887740D01*
X123551790Y-72784947D01*
X123559780Y-72771106D01*
X123590017Y-72747904D01*
X123627807Y-72752878D01*
G37*
G04 #@! TD.AperFunction*
G04 #@! TA.AperFunction,Conductor*
G36*
X128328548Y-75822886D02*
G01*
X128343134Y-75858100D01*
X128339895Y-75874377D01*
X128340020Y-75874411D01*
X128339512Y-75876304D01*
X128339343Y-75877157D01*
X128339176Y-75877559D01*
X128320100Y-75948749D01*
X128320100Y-76022450D01*
X128339174Y-76093634D01*
X128339177Y-76093641D01*
X128367186Y-76142155D01*
X128376024Y-76157462D01*
X128428138Y-76209576D01*
X128491963Y-76246425D01*
X128563150Y-76265500D01*
X128636853Y-76265500D01*
X128640090Y-76265074D01*
X128640324Y-76266852D01*
X128672387Y-76271040D01*
X128682746Y-76278980D01*
X128781605Y-76377838D01*
X128874978Y-76471211D01*
X128917989Y-76514222D01*
X128935211Y-76521356D01*
X128941063Y-76526252D01*
X128946622Y-76536895D01*
X128955114Y-76545387D01*
X128955114Y-76553153D01*
X128958709Y-76560036D01*
X128955114Y-76571493D01*
X128955114Y-76583503D01*
X128952234Y-76589344D01*
X128939176Y-76611961D01*
X128939174Y-76611965D01*
X128920100Y-76683149D01*
X128920100Y-76756850D01*
X128939174Y-76828034D01*
X128939177Y-76828041D01*
X128949869Y-76846561D01*
X128976024Y-76891862D01*
X129028138Y-76943976D01*
X129091963Y-76980825D01*
X129163150Y-76999900D01*
X129236850Y-76999900D01*
X129308037Y-76980825D01*
X129371862Y-76943976D01*
X129423976Y-76891862D01*
X129460825Y-76828037D01*
X129474069Y-76778609D01*
X129497272Y-76748372D01*
X129522172Y-76741700D01*
X129969994Y-76741700D01*
X129969995Y-76741700D01*
X129969996Y-76741700D01*
X129987982Y-76734250D01*
X130026193Y-76718423D01*
X130513329Y-76231285D01*
X130548543Y-76216700D01*
X134504147Y-76216700D01*
X134539361Y-76231286D01*
X134656929Y-76348854D01*
X134671515Y-76384068D01*
X134656929Y-76419282D01*
X134634606Y-76432170D01*
X134622159Y-76435506D01*
X134622156Y-76435507D01*
X134622155Y-76435508D01*
X134552542Y-76475699D01*
X134495699Y-76532542D01*
X134455508Y-76602155D01*
X134455505Y-76602161D01*
X134452879Y-76611963D01*
X134434700Y-76679807D01*
X134434700Y-76760193D01*
X134455506Y-76837841D01*
X134460541Y-76846561D01*
X134493078Y-76902918D01*
X134495700Y-76907458D01*
X134552542Y-76964300D01*
X134622159Y-77004494D01*
X134699807Y-77025300D01*
X134699808Y-77025300D01*
X134780192Y-77025300D01*
X134780193Y-77025300D01*
X134857841Y-77004494D01*
X134927458Y-76964300D01*
X134984300Y-76907458D01*
X135024494Y-76837841D01*
X135045300Y-76760193D01*
X135045300Y-76719500D01*
X135059886Y-76684286D01*
X135095100Y-76669700D01*
X138526888Y-76669700D01*
X138562102Y-76684286D01*
X138632089Y-76754273D01*
X138646675Y-76789487D01*
X138632089Y-76824701D01*
X138596875Y-76839287D01*
X138581049Y-76836139D01*
X138580993Y-76836351D01*
X138577842Y-76835506D01*
X138577841Y-76835506D01*
X138500193Y-76814700D01*
X138419807Y-76814700D01*
X138391386Y-76822315D01*
X138342161Y-76835505D01*
X138342155Y-76835508D01*
X138272542Y-76875699D01*
X138215699Y-76932542D01*
X138175508Y-77002155D01*
X138175505Y-77002161D01*
X138154700Y-77079807D01*
X138154700Y-77160194D01*
X138157586Y-77170964D01*
X138152611Y-77208753D01*
X138144697Y-77219067D01*
X137855652Y-77508114D01*
X137820438Y-77522700D01*
X132529334Y-77522700D01*
X132494120Y-77508114D01*
X132479534Y-77472900D01*
X132486206Y-77448000D01*
X132505275Y-77414971D01*
X132520825Y-77388037D01*
X132539900Y-77316850D01*
X132539900Y-77243150D01*
X132538477Y-77237841D01*
X132527999Y-77198737D01*
X132520825Y-77171963D01*
X132483976Y-77108138D01*
X132431862Y-77056024D01*
X132431861Y-77056023D01*
X132368041Y-77019177D01*
X132368038Y-77019176D01*
X132368037Y-77019175D01*
X132368035Y-77019174D01*
X132368034Y-77019174D01*
X132296850Y-77000100D01*
X132223150Y-77000100D01*
X132151965Y-77019174D01*
X132151958Y-77019177D01*
X132088138Y-77056023D01*
X132036027Y-77108135D01*
X132036023Y-77108139D01*
X132016359Y-77142200D01*
X131986120Y-77165403D01*
X131973231Y-77167100D01*
X131541756Y-77167100D01*
X131506542Y-77152514D01*
X131491956Y-77117300D01*
X131498629Y-77092399D01*
X131504494Y-77082241D01*
X131525300Y-77004593D01*
X131525300Y-76924207D01*
X131504494Y-76846559D01*
X131464300Y-76776942D01*
X131407458Y-76720100D01*
X131407457Y-76720099D01*
X131345427Y-76684286D01*
X131337841Y-76679906D01*
X131337838Y-76679905D01*
X131299752Y-76669700D01*
X131260193Y-76659100D01*
X131179807Y-76659100D01*
X131151386Y-76666715D01*
X131102161Y-76679905D01*
X131102155Y-76679908D01*
X131032542Y-76720099D01*
X130975699Y-76776942D01*
X130935508Y-76846555D01*
X130935505Y-76846561D01*
X130920405Y-76902917D01*
X130914700Y-76924207D01*
X130914700Y-77004593D01*
X130935506Y-77082241D01*
X130936613Y-77084159D01*
X130941371Y-77092399D01*
X130946348Y-77130188D01*
X130923145Y-77160427D01*
X130898244Y-77167100D01*
X128915573Y-77167100D01*
X128880359Y-77152514D01*
X127621160Y-75893314D01*
X127606574Y-75858100D01*
X127621160Y-75822886D01*
X127656374Y-75808300D01*
X127665813Y-75808300D01*
X128293334Y-75808300D01*
X128328548Y-75822886D01*
G37*
G04 #@! TD.AperFunction*
G04 #@! TA.AperFunction,Conductor*
G36*
X133089954Y-73387486D02*
G01*
X133104540Y-73422700D01*
X133089954Y-73457914D01*
X133079640Y-73465828D01*
X133062542Y-73475699D01*
X133005699Y-73532542D01*
X132965508Y-73602155D01*
X132965505Y-73602161D01*
X132947827Y-73668138D01*
X132944700Y-73679807D01*
X132944700Y-73760193D01*
X132952321Y-73788635D01*
X132959689Y-73816134D01*
X132965506Y-73837841D01*
X132976481Y-73856850D01*
X132985459Y-73872400D01*
X132990434Y-73910189D01*
X132967231Y-73940428D01*
X132942331Y-73947100D01*
X132189586Y-73947100D01*
X132189584Y-73947100D01*
X132189582Y-73947101D01*
X132173127Y-73953915D01*
X132173128Y-73953916D01*
X132133389Y-73970377D01*
X132099067Y-74004698D01*
X132063853Y-74019283D01*
X132050965Y-74017586D01*
X132040194Y-74014700D01*
X132040193Y-74014700D01*
X131959807Y-74014700D01*
X131932922Y-74021904D01*
X131882161Y-74035505D01*
X131882155Y-74035508D01*
X131812542Y-74075699D01*
X131755699Y-74132542D01*
X131715508Y-74202155D01*
X131715505Y-74202161D01*
X131704436Y-74243471D01*
X131694700Y-74279807D01*
X131694700Y-74360193D01*
X131715506Y-74437841D01*
X131727392Y-74458427D01*
X131754634Y-74505613D01*
X131755700Y-74507458D01*
X131812542Y-74564300D01*
X131882159Y-74604494D01*
X131959807Y-74625300D01*
X131959808Y-74625300D01*
X132040192Y-74625300D01*
X132040193Y-74625300D01*
X132117841Y-74604494D01*
X132187458Y-74564300D01*
X132244300Y-74507458D01*
X132284494Y-74437841D01*
X132305300Y-74360193D01*
X132305300Y-74302700D01*
X132319886Y-74267486D01*
X132355100Y-74252900D01*
X134310414Y-74252900D01*
X134320792Y-74248600D01*
X134326872Y-74246083D01*
X134326873Y-74246082D01*
X134366611Y-74229623D01*
X134726277Y-73869955D01*
X134761490Y-73855370D01*
X134796704Y-73869956D01*
X134809593Y-73892279D01*
X134810939Y-73897300D01*
X134819175Y-73928037D01*
X134819176Y-73928039D01*
X134819177Y-73928041D01*
X134851319Y-73983714D01*
X134856024Y-73991862D01*
X134908138Y-74043976D01*
X134971963Y-74080825D01*
X135043150Y-74099900D01*
X135116850Y-74099900D01*
X135188037Y-74080825D01*
X135251862Y-74043976D01*
X135303976Y-73991862D01*
X135340825Y-73928037D01*
X135359900Y-73856850D01*
X135359900Y-73783150D01*
X135359899Y-73783148D01*
X135351753Y-73752746D01*
X135340825Y-73711963D01*
X135340822Y-73711958D01*
X135340821Y-73711955D01*
X135338306Y-73707599D01*
X135333331Y-73669810D01*
X135356535Y-73639572D01*
X135381434Y-73632900D01*
X137145469Y-73632900D01*
X137180683Y-73647486D01*
X137719757Y-74186560D01*
X137734343Y-74221774D01*
X137734003Y-74226959D01*
X137734003Y-74301322D01*
X137753077Y-74372506D01*
X137753080Y-74372513D01*
X137789285Y-74435223D01*
X137789927Y-74436334D01*
X137842041Y-74488448D01*
X137905866Y-74525297D01*
X137977053Y-74544372D01*
X138050753Y-74544372D01*
X138121940Y-74525297D01*
X138130600Y-74520296D01*
X138168389Y-74515322D01*
X138198628Y-74538525D01*
X138205300Y-74563425D01*
X138205300Y-74780274D01*
X138190714Y-74815488D01*
X137473688Y-75532514D01*
X137438474Y-75547100D01*
X136537291Y-75547100D01*
X136502077Y-75532514D01*
X136487491Y-75497300D01*
X136494163Y-75472400D01*
X136509862Y-75445209D01*
X136530668Y-75367561D01*
X136530668Y-75287175D01*
X136509862Y-75209527D01*
X136469668Y-75139910D01*
X136412826Y-75083068D01*
X136412825Y-75083067D01*
X136343212Y-75042876D01*
X136343209Y-75042874D01*
X136343206Y-75042873D01*
X136310390Y-75034080D01*
X136265561Y-75022068D01*
X136185175Y-75022068D01*
X136157349Y-75029524D01*
X136107529Y-75042873D01*
X136107523Y-75042876D01*
X136037910Y-75083067D01*
X135981067Y-75139910D01*
X135974602Y-75151109D01*
X135944363Y-75174312D01*
X135931474Y-75176009D01*
X135555053Y-75176009D01*
X135519839Y-75161423D01*
X135244592Y-74886176D01*
X135204856Y-74869717D01*
X135204855Y-74869717D01*
X135188396Y-74862900D01*
X135188395Y-74862900D01*
X135151735Y-74862900D01*
X135116521Y-74848314D01*
X135101935Y-74813100D01*
X135116521Y-74777886D01*
X135126835Y-74769972D01*
X135144164Y-74759967D01*
X135171862Y-74743976D01*
X135223976Y-74691862D01*
X135260825Y-74628037D01*
X135279900Y-74556850D01*
X135279900Y-74483150D01*
X135279506Y-74481681D01*
X135270625Y-74448537D01*
X135260825Y-74411963D01*
X135223976Y-74348138D01*
X135171862Y-74296024D01*
X135171861Y-74296023D01*
X135108041Y-74259177D01*
X135108038Y-74259176D01*
X135108037Y-74259175D01*
X135108035Y-74259174D01*
X135108034Y-74259174D01*
X135036850Y-74240100D01*
X134963150Y-74240100D01*
X134891965Y-74259174D01*
X134891958Y-74259177D01*
X134828138Y-74296023D01*
X134776023Y-74348138D01*
X134739177Y-74411958D01*
X134739174Y-74411965D01*
X134720100Y-74483149D01*
X134720100Y-74556850D01*
X134739174Y-74628034D01*
X134739177Y-74628041D01*
X134776022Y-74691860D01*
X134776024Y-74691862D01*
X134828138Y-74743976D01*
X134842027Y-74751995D01*
X134873165Y-74769972D01*
X134896368Y-74800210D01*
X134891393Y-74838000D01*
X134861155Y-74861203D01*
X134848265Y-74862900D01*
X130568543Y-74862900D01*
X130533329Y-74848314D01*
X129893630Y-74208614D01*
X129880741Y-74186290D01*
X129879899Y-74183148D01*
X129871752Y-74152743D01*
X129876726Y-74114956D01*
X129906965Y-74091752D01*
X129932742Y-74091752D01*
X129963150Y-74099900D01*
X129963151Y-74099900D01*
X130036850Y-74099900D01*
X130108037Y-74080825D01*
X130171862Y-74043976D01*
X130223976Y-73991862D01*
X130260825Y-73928037D01*
X130279900Y-73856850D01*
X130279900Y-73783150D01*
X130279899Y-73783148D01*
X130265176Y-73728202D01*
X130261798Y-73715594D01*
X130266773Y-73677805D01*
X130297011Y-73654602D01*
X130334801Y-73659577D01*
X130345111Y-73667488D01*
X130437496Y-73759872D01*
X130534111Y-73856487D01*
X130548697Y-73891701D01*
X130548357Y-73896896D01*
X130548357Y-73971250D01*
X130567431Y-74042434D01*
X130567434Y-74042441D01*
X130595903Y-74091752D01*
X130604281Y-74106262D01*
X130656395Y-74158376D01*
X130720220Y-74195225D01*
X130791407Y-74214300D01*
X130865106Y-74214300D01*
X130865107Y-74214300D01*
X130877410Y-74211003D01*
X130915198Y-74215977D01*
X130938403Y-74246215D01*
X130940100Y-74259106D01*
X130940100Y-74301450D01*
X130959174Y-74372634D01*
X130959177Y-74372641D01*
X130995949Y-74436333D01*
X130996024Y-74436462D01*
X131048138Y-74488576D01*
X131111963Y-74525425D01*
X131183150Y-74544500D01*
X131256850Y-74544500D01*
X131328037Y-74525425D01*
X131391862Y-74488576D01*
X131443976Y-74436462D01*
X131480825Y-74372637D01*
X131499900Y-74301450D01*
X131499900Y-74227750D01*
X131496787Y-74216134D01*
X131488863Y-74186560D01*
X131480825Y-74156563D01*
X131443976Y-74092738D01*
X131391862Y-74040624D01*
X131389554Y-74038316D01*
X131390070Y-74037799D01*
X131387486Y-74036729D01*
X131381345Y-74021904D01*
X131373326Y-74008013D01*
X131372900Y-74001515D01*
X131372900Y-73983961D01*
X131387486Y-73948747D01*
X131948747Y-73387486D01*
X131983961Y-73372900D01*
X133054740Y-73372900D01*
X133089954Y-73387486D01*
G37*
G04 #@! TD.AperFunction*
G04 #@! TA.AperFunction,Conductor*
G36*
X125553793Y-73082711D02*
G01*
X125568440Y-73084639D01*
X125574974Y-73089652D01*
X125575980Y-73089982D01*
X125576346Y-73090704D01*
X125578756Y-73092554D01*
X126971225Y-74485023D01*
X127007143Y-74499900D01*
X127027422Y-74508300D01*
X127027423Y-74508300D01*
X127088249Y-74508300D01*
X128252656Y-74508300D01*
X128287870Y-74522886D01*
X128976346Y-75211362D01*
X128984258Y-75221673D01*
X128985369Y-75223597D01*
X128990347Y-75261386D01*
X128967146Y-75291626D01*
X128942243Y-75298300D01*
X128862116Y-75298300D01*
X128852400Y-75297343D01*
X128852184Y-75297300D01*
X128408643Y-75297300D01*
X128406666Y-75297300D01*
X128371452Y-75282714D01*
X128356866Y-75247500D01*
X128360104Y-75231222D01*
X128359980Y-75231189D01*
X128360487Y-75229295D01*
X128360657Y-75228443D01*
X128360823Y-75228040D01*
X128360822Y-75228040D01*
X128360825Y-75228037D01*
X128379900Y-75156850D01*
X128379900Y-75083150D01*
X128360825Y-75011963D01*
X128323976Y-74948138D01*
X128271862Y-74896024D01*
X128271861Y-74896023D01*
X128208041Y-74859177D01*
X128208038Y-74859176D01*
X128208037Y-74859175D01*
X128208035Y-74859174D01*
X128208034Y-74859174D01*
X128136850Y-74840100D01*
X128063150Y-74840100D01*
X127991965Y-74859174D01*
X127991958Y-74859177D01*
X127928138Y-74896023D01*
X127885214Y-74938948D01*
X127850000Y-74953534D01*
X127814786Y-74938948D01*
X127771861Y-74896023D01*
X127708041Y-74859177D01*
X127708038Y-74859176D01*
X127708037Y-74859175D01*
X127708035Y-74859174D01*
X127708034Y-74859174D01*
X127636850Y-74840100D01*
X127563150Y-74840100D01*
X127491965Y-74859174D01*
X127491958Y-74859177D01*
X127428138Y-74896023D01*
X127385214Y-74938948D01*
X127350000Y-74953534D01*
X127314786Y-74938948D01*
X127271861Y-74896023D01*
X127208041Y-74859177D01*
X127208038Y-74859176D01*
X127208037Y-74859175D01*
X127208035Y-74859174D01*
X127208034Y-74859174D01*
X127136850Y-74840100D01*
X127063150Y-74840100D01*
X126991965Y-74859174D01*
X126991958Y-74859177D01*
X126928138Y-74896023D01*
X126876023Y-74948138D01*
X126839176Y-75011961D01*
X126838593Y-75013369D01*
X126838049Y-75013912D01*
X126837543Y-75014790D01*
X126837307Y-75014654D01*
X126811640Y-75040320D01*
X126773525Y-75040319D01*
X126757370Y-75029524D01*
X125767486Y-74039640D01*
X125752900Y-74004426D01*
X125752900Y-73511509D01*
X125752900Y-73511508D01*
X125736919Y-73472927D01*
X125729623Y-73455311D01*
X125514184Y-73239872D01*
X125499742Y-73208440D01*
X125499598Y-73206549D01*
X125499598Y-73156177D01*
X125494238Y-73136174D01*
X125493886Y-73131550D01*
X125498485Y-73117516D01*
X125500413Y-73102870D01*
X125504249Y-73099925D01*
X125505756Y-73095330D01*
X125518931Y-73088658D01*
X125530651Y-73079665D01*
X125535446Y-73080296D01*
X125539760Y-73078112D01*
X125553793Y-73082711D01*
G37*
G04 #@! TD.AperFunction*
G04 #@! TA.AperFunction,Conductor*
G36*
X138780600Y-59532432D02*
G01*
X138823099Y-59552899D01*
X138823100Y-59552899D01*
X138823102Y-59552900D01*
X138823104Y-59552900D01*
X138892898Y-59552900D01*
X138892901Y-59552899D01*
X138923341Y-59538239D01*
X138948205Y-59533413D01*
X139103294Y-59543575D01*
X139109738Y-59544423D01*
X139313827Y-59585014D01*
X139347680Y-59591747D01*
X139353975Y-59593433D01*
X139583699Y-59671409D01*
X139589705Y-59673896D01*
X139793903Y-59774591D01*
X139807293Y-59781194D01*
X139812935Y-59784451D01*
X140014652Y-59919230D01*
X140019820Y-59923196D01*
X140202214Y-60083147D01*
X140206820Y-60087753D01*
X140366776Y-60270142D01*
X140370742Y-60275310D01*
X140505526Y-60477024D01*
X140508783Y-60482666D01*
X140616079Y-60700240D01*
X140618572Y-60706258D01*
X140696554Y-60935980D01*
X140698240Y-60942272D01*
X140745569Y-61180210D01*
X140746419Y-61186669D01*
X140762393Y-61430367D01*
X140762500Y-61433624D01*
X140762500Y-61710324D01*
X140747914Y-61745538D01*
X140725590Y-61758427D01*
X140676900Y-61771474D01*
X140676898Y-61771474D01*
X140676897Y-61771475D01*
X140676895Y-61771476D01*
X140676893Y-61771477D01*
X140551003Y-61844159D01*
X140448209Y-61946953D01*
X140440218Y-61960794D01*
X140409978Y-61983996D01*
X140372189Y-61979019D01*
X140351082Y-61954949D01*
X140330813Y-61906016D01*
X140330812Y-61906014D01*
X140330812Y-61906013D01*
X140289483Y-61844160D01*
X140243035Y-61774644D01*
X140131305Y-61662914D01*
X140001261Y-61576023D01*
X139999937Y-61575138D01*
X139999935Y-61575137D01*
X139999933Y-61575135D01*
X139883670Y-61526978D01*
X139853964Y-61514674D01*
X139853960Y-61514673D01*
X139853954Y-61514671D01*
X139699002Y-61483850D01*
X139699000Y-61483850D01*
X139541000Y-61483850D01*
X139540997Y-61483850D01*
X139386045Y-61514671D01*
X139386037Y-61514673D01*
X139386036Y-61514674D01*
X139386032Y-61514675D01*
X139386031Y-61514676D01*
X139240066Y-61575135D01*
X139240064Y-61575137D01*
X139108694Y-61662914D01*
X139108692Y-61662917D01*
X138996967Y-61774642D01*
X138996964Y-61774644D01*
X138909187Y-61906014D01*
X138909185Y-61906016D01*
X138848726Y-62051981D01*
X138848721Y-62051995D01*
X138817900Y-62206947D01*
X138817900Y-62364952D01*
X138848721Y-62519904D01*
X138848723Y-62519910D01*
X138848724Y-62519914D01*
X138861028Y-62549620D01*
X138909185Y-62665883D01*
X138909187Y-62665885D01*
X138996964Y-62797255D01*
X139108694Y-62908985D01*
X139187301Y-62961507D01*
X139240063Y-62996762D01*
X139240064Y-62996762D01*
X139240066Y-62996764D01*
X139292632Y-63018537D01*
X139386036Y-63057226D01*
X139386043Y-63057227D01*
X139386045Y-63057228D01*
X139439072Y-63067775D01*
X139541000Y-63088050D01*
X139541004Y-63088050D01*
X139698996Y-63088050D01*
X139699000Y-63088050D01*
X139853964Y-63057226D01*
X139970230Y-63009066D01*
X139999933Y-62996764D01*
X139999933Y-62996763D01*
X139999937Y-62996762D01*
X140131309Y-62908982D01*
X140243032Y-62797259D01*
X140330812Y-62665887D01*
X140351082Y-62616949D01*
X140378033Y-62589998D01*
X140416148Y-62589998D01*
X140440218Y-62611105D01*
X140448210Y-62624947D01*
X140551003Y-62727740D01*
X140676897Y-62800425D01*
X140725589Y-62813471D01*
X140755828Y-62836673D01*
X140762500Y-62861574D01*
X140762500Y-64145259D01*
X140747914Y-64180473D01*
X140722417Y-64194102D01*
X140699708Y-64198619D01*
X140699697Y-64198623D01*
X140580976Y-64247798D01*
X140580974Y-64247799D01*
X140474122Y-64319194D01*
X140452636Y-64340680D01*
X140417422Y-64355265D01*
X140382208Y-64340678D01*
X140376016Y-64333132D01*
X140320943Y-64250707D01*
X140195242Y-64125006D01*
X140047445Y-64026253D01*
X140047443Y-64026251D01*
X139883224Y-63958231D01*
X139883212Y-63958227D01*
X139721200Y-63926000D01*
X139721200Y-64413074D01*
X139675952Y-64400950D01*
X139564048Y-64400950D01*
X139518800Y-64413074D01*
X139518800Y-63926000D01*
X139356787Y-63958227D01*
X139356775Y-63958231D01*
X139192556Y-64026251D01*
X139192554Y-64026253D01*
X139044757Y-64125006D01*
X139044755Y-64125009D01*
X138919059Y-64250705D01*
X138919056Y-64250707D01*
X138820303Y-64398504D01*
X138820301Y-64398506D01*
X138752281Y-64562725D01*
X138752276Y-64562739D01*
X138720051Y-64724750D01*
X139207124Y-64724750D01*
X139195000Y-64769998D01*
X139195000Y-64881902D01*
X139207124Y-64927150D01*
X138720051Y-64927150D01*
X138752276Y-65089160D01*
X138752281Y-65089174D01*
X138820301Y-65253393D01*
X138820303Y-65253395D01*
X138919056Y-65401192D01*
X139044757Y-65526893D01*
X139192554Y-65625646D01*
X139192556Y-65625648D01*
X139356775Y-65693668D01*
X139356789Y-65693673D01*
X139518800Y-65725898D01*
X139518800Y-65238825D01*
X139564048Y-65250950D01*
X139675952Y-65250950D01*
X139721200Y-65238825D01*
X139721200Y-65725898D01*
X139883210Y-65693673D01*
X139883224Y-65693668D01*
X140047443Y-65625648D01*
X140047445Y-65625646D01*
X140195242Y-65526893D01*
X140195245Y-65526891D01*
X140320939Y-65401196D01*
X140320940Y-65401194D01*
X140376016Y-65318767D01*
X140407707Y-65297591D01*
X140445090Y-65305027D01*
X140452637Y-65311220D01*
X140474122Y-65332705D01*
X140580974Y-65404100D01*
X140580976Y-65404101D01*
X140699697Y-65453276D01*
X140699711Y-65453281D01*
X140722415Y-65457797D01*
X140754107Y-65478972D01*
X140762500Y-65506640D01*
X140762500Y-66790324D01*
X140747914Y-66825538D01*
X140725590Y-66838427D01*
X140676900Y-66851474D01*
X140676898Y-66851474D01*
X140676897Y-66851475D01*
X140676895Y-66851476D01*
X140676893Y-66851477D01*
X140551003Y-66924159D01*
X140448209Y-67026953D01*
X140440218Y-67040794D01*
X140409978Y-67063996D01*
X140372189Y-67059019D01*
X140351082Y-67034949D01*
X140330813Y-66986016D01*
X140330812Y-66986014D01*
X140330812Y-66986013D01*
X140289483Y-66924160D01*
X140243035Y-66854644D01*
X140131305Y-66742914D01*
X140024535Y-66671574D01*
X139999937Y-66655138D01*
X139999935Y-66655137D01*
X139999933Y-66655135D01*
X139883670Y-66606978D01*
X139853964Y-66594674D01*
X139853960Y-66594673D01*
X139853954Y-66594671D01*
X139699002Y-66563850D01*
X139699000Y-66563850D01*
X139541000Y-66563850D01*
X139540997Y-66563850D01*
X139386045Y-66594671D01*
X139386037Y-66594673D01*
X139386036Y-66594674D01*
X139386032Y-66594675D01*
X139386031Y-66594676D01*
X139240066Y-66655135D01*
X139240064Y-66655137D01*
X139108694Y-66742914D01*
X139108692Y-66742917D01*
X138996967Y-66854642D01*
X138996964Y-66854644D01*
X138909187Y-66986014D01*
X138909185Y-66986016D01*
X138848726Y-67131981D01*
X138848721Y-67131995D01*
X138817900Y-67286947D01*
X138817900Y-67444952D01*
X138848721Y-67599904D01*
X138848723Y-67599910D01*
X138848724Y-67599914D01*
X138861028Y-67629620D01*
X138909185Y-67745883D01*
X138909187Y-67745885D01*
X138996964Y-67877255D01*
X139108694Y-67988985D01*
X139172864Y-68031861D01*
X139240063Y-68076762D01*
X139240064Y-68076762D01*
X139240066Y-68076764D01*
X139292632Y-68098537D01*
X139386036Y-68137226D01*
X139386043Y-68137227D01*
X139386045Y-68137228D01*
X139439072Y-68147775D01*
X139541000Y-68168050D01*
X139541004Y-68168050D01*
X139698996Y-68168050D01*
X139699000Y-68168050D01*
X139853964Y-68137226D01*
X139970230Y-68089066D01*
X139999933Y-68076764D01*
X139999933Y-68076763D01*
X139999937Y-68076762D01*
X140131309Y-67988982D01*
X140243032Y-67877259D01*
X140330812Y-67745887D01*
X140351082Y-67696949D01*
X140378033Y-67669998D01*
X140416148Y-67669998D01*
X140440218Y-67691105D01*
X140448210Y-67704947D01*
X140551003Y-67807740D01*
X140676897Y-67880425D01*
X140725589Y-67893471D01*
X140755828Y-67916673D01*
X140762500Y-67941574D01*
X140762500Y-69330324D01*
X140747914Y-69365538D01*
X140725590Y-69378427D01*
X140676900Y-69391474D01*
X140676898Y-69391474D01*
X140676897Y-69391475D01*
X140676895Y-69391476D01*
X140676893Y-69391477D01*
X140551003Y-69464159D01*
X140448209Y-69566953D01*
X140440218Y-69580794D01*
X140409978Y-69603996D01*
X140372189Y-69599019D01*
X140351082Y-69574949D01*
X140330813Y-69526016D01*
X140330812Y-69526014D01*
X140330812Y-69526013D01*
X140289483Y-69464160D01*
X140243035Y-69394644D01*
X140131305Y-69282914D01*
X140006142Y-69199284D01*
X139999937Y-69195138D01*
X139999935Y-69195137D01*
X139999933Y-69195135D01*
X139883670Y-69146978D01*
X139853964Y-69134674D01*
X139853960Y-69134673D01*
X139853954Y-69134671D01*
X139699002Y-69103850D01*
X139699000Y-69103850D01*
X139541000Y-69103850D01*
X139540997Y-69103850D01*
X139386045Y-69134671D01*
X139386037Y-69134673D01*
X139386036Y-69134674D01*
X139386032Y-69134675D01*
X139386031Y-69134676D01*
X139240066Y-69195135D01*
X139240064Y-69195137D01*
X139108694Y-69282914D01*
X139108692Y-69282917D01*
X138996967Y-69394642D01*
X138996964Y-69394644D01*
X138909187Y-69526014D01*
X138909185Y-69526016D01*
X138848726Y-69671981D01*
X138848721Y-69671995D01*
X138817900Y-69826947D01*
X138817900Y-69984952D01*
X138848721Y-70139904D01*
X138848723Y-70139910D01*
X138848724Y-70139914D01*
X138857124Y-70160193D01*
X138909185Y-70285883D01*
X138909187Y-70285885D01*
X138909188Y-70285887D01*
X138923601Y-70307457D01*
X138996964Y-70417255D01*
X139108694Y-70528985D01*
X139187222Y-70581455D01*
X139240063Y-70616762D01*
X139240064Y-70616762D01*
X139240066Y-70616764D01*
X139296406Y-70640100D01*
X139386036Y-70677226D01*
X139386043Y-70677227D01*
X139386045Y-70677228D01*
X139427015Y-70685377D01*
X139458707Y-70706552D01*
X139467100Y-70734220D01*
X139467100Y-70896038D01*
X139452514Y-70931252D01*
X138793714Y-71590052D01*
X138758500Y-71604638D01*
X138723286Y-71590052D01*
X138708700Y-71554838D01*
X138708700Y-71229517D01*
X138723286Y-71194303D01*
X138758500Y-71179717D01*
X138761283Y-71179900D01*
X138763150Y-71179900D01*
X138836850Y-71179900D01*
X138908037Y-71160825D01*
X138971862Y-71123976D01*
X139023976Y-71071862D01*
X139060825Y-71008037D01*
X139079900Y-70936850D01*
X139079900Y-70863150D01*
X139060825Y-70791963D01*
X139023976Y-70728138D01*
X138971862Y-70676024D01*
X138971861Y-70676023D01*
X138908041Y-70639177D01*
X138908038Y-70639176D01*
X138908037Y-70639175D01*
X138908035Y-70639174D01*
X138908034Y-70639174D01*
X138836850Y-70620100D01*
X138763150Y-70620100D01*
X138691965Y-70639174D01*
X138691958Y-70639177D01*
X138628138Y-70676023D01*
X138576023Y-70728138D01*
X138539177Y-70791958D01*
X138539174Y-70791965D01*
X138520100Y-70863149D01*
X138520100Y-70940114D01*
X138518965Y-70940114D01*
X138510148Y-70973014D01*
X138505854Y-70977911D01*
X138426175Y-71057590D01*
X138413523Y-71088138D01*
X138402900Y-71113783D01*
X138402900Y-72241065D01*
X138388314Y-72276279D01*
X138228577Y-72436015D01*
X138212116Y-72475755D01*
X138212115Y-72475754D01*
X138205301Y-72492209D01*
X138205300Y-72492214D01*
X138205300Y-73965518D01*
X138190714Y-74000732D01*
X138155500Y-74015318D01*
X138130603Y-74008648D01*
X138121943Y-74003649D01*
X138121940Y-74003647D01*
X138121937Y-74003646D01*
X138050753Y-73984572D01*
X137977053Y-73984572D01*
X137973789Y-73984572D01*
X137973789Y-73983437D01*
X137940886Y-73974619D01*
X137935991Y-73970326D01*
X137316042Y-73350377D01*
X137292844Y-73340768D01*
X137265893Y-73313816D01*
X137265893Y-73275701D01*
X137276686Y-73259547D01*
X137829622Y-72706611D01*
X137836331Y-72690414D01*
X137852900Y-72650414D01*
X137852900Y-62063084D01*
X137867486Y-62027870D01*
X137871396Y-62024441D01*
X137871859Y-62023977D01*
X137871862Y-62023976D01*
X137923976Y-61971862D01*
X137960825Y-61908037D01*
X137979900Y-61836850D01*
X137979900Y-61763150D01*
X137978634Y-61758427D01*
X137965745Y-61710324D01*
X137960825Y-61691963D01*
X137923976Y-61628138D01*
X137871862Y-61576024D01*
X137871861Y-61576023D01*
X137808041Y-61539177D01*
X137808038Y-61539176D01*
X137808037Y-61539175D01*
X137808035Y-61539174D01*
X137808034Y-61539174D01*
X137736850Y-61520100D01*
X137663150Y-61520100D01*
X137591965Y-61539174D01*
X137591958Y-61539177D01*
X137528138Y-61576023D01*
X137476023Y-61628138D01*
X137439177Y-61691958D01*
X137439174Y-61691965D01*
X137420100Y-61763149D01*
X137420100Y-61836850D01*
X137439174Y-61908034D01*
X137439177Y-61908041D01*
X137476023Y-61971861D01*
X137530446Y-62026284D01*
X137529640Y-62027089D01*
X137546672Y-62056571D01*
X137547100Y-62063084D01*
X137547100Y-71051034D01*
X137532514Y-71086248D01*
X137497300Y-71100834D01*
X137462086Y-71086248D01*
X137411861Y-71036023D01*
X137348041Y-70999177D01*
X137348038Y-70999176D01*
X137348037Y-70999175D01*
X137348035Y-70999174D01*
X137348034Y-70999174D01*
X137276850Y-70980100D01*
X137203150Y-70980100D01*
X137131965Y-70999174D01*
X137131958Y-70999177D01*
X137068136Y-71036024D01*
X137036793Y-71067367D01*
X137001579Y-71081953D01*
X136966366Y-71067366D01*
X136958452Y-71057053D01*
X136944300Y-71032542D01*
X136887457Y-70975699D01*
X136825822Y-70940114D01*
X136817841Y-70935506D01*
X136817838Y-70935505D01*
X136769463Y-70922543D01*
X136740193Y-70914700D01*
X136659807Y-70914700D01*
X136637900Y-70920570D01*
X136582161Y-70935505D01*
X136582155Y-70935508D01*
X136512542Y-70975699D01*
X136455699Y-71032542D01*
X136415508Y-71102155D01*
X136415505Y-71102161D01*
X136394700Y-71179807D01*
X136394700Y-71260192D01*
X136415505Y-71337838D01*
X136415508Y-71337844D01*
X136452678Y-71402225D01*
X136455700Y-71407458D01*
X136512542Y-71464300D01*
X136582159Y-71504494D01*
X136659807Y-71525300D01*
X136659808Y-71525300D01*
X136740192Y-71525300D01*
X136740193Y-71525300D01*
X136817841Y-71504494D01*
X136887458Y-71464300D01*
X136934947Y-71416810D01*
X136970159Y-71402225D01*
X137005374Y-71416811D01*
X137013286Y-71427121D01*
X137016023Y-71431861D01*
X137016024Y-71431862D01*
X137068138Y-71483976D01*
X137131963Y-71520825D01*
X137203150Y-71539900D01*
X137280115Y-71539900D01*
X137280115Y-71540629D01*
X137282698Y-71539560D01*
X137297521Y-71545700D01*
X137313015Y-71549852D01*
X137317912Y-71554146D01*
X137328314Y-71564548D01*
X137342900Y-71599762D01*
X137342900Y-72451456D01*
X137328314Y-72486670D01*
X136966670Y-72848314D01*
X136931456Y-72862900D01*
X132159761Y-72862900D01*
X132124547Y-72848314D01*
X131966647Y-72690414D01*
X131806611Y-72530377D01*
X131806610Y-72530376D01*
X131754806Y-72508919D01*
X131750414Y-72507100D01*
X131405277Y-72507100D01*
X131405276Y-72507100D01*
X131400885Y-72508919D01*
X131349079Y-72530377D01*
X131041061Y-72838395D01*
X131005847Y-72852981D01*
X130970633Y-72838395D01*
X130942061Y-72809823D01*
X130878241Y-72772977D01*
X130878239Y-72772976D01*
X130878237Y-72772975D01*
X130870872Y-72771001D01*
X130840634Y-72747799D01*
X130835659Y-72710010D01*
X130848546Y-72687687D01*
X131234984Y-72301248D01*
X131270197Y-72286663D01*
X131305411Y-72301249D01*
X131328138Y-72323976D01*
X131391963Y-72360825D01*
X131463150Y-72379900D01*
X131536850Y-72379900D01*
X131608037Y-72360825D01*
X131671862Y-72323976D01*
X131723976Y-72271862D01*
X131760825Y-72208037D01*
X131779900Y-72136850D01*
X131779900Y-72063150D01*
X131779178Y-72060457D01*
X131769061Y-72022700D01*
X131760825Y-71991963D01*
X131723976Y-71928138D01*
X131671862Y-71876024D01*
X131671861Y-71876023D01*
X131608041Y-71839177D01*
X131608038Y-71839176D01*
X131608037Y-71839175D01*
X131608035Y-71839174D01*
X131608034Y-71839174D01*
X131536850Y-71820100D01*
X131463150Y-71820100D01*
X131391965Y-71839174D01*
X131391955Y-71839178D01*
X131336618Y-71871127D01*
X131298829Y-71876102D01*
X131268591Y-71852898D01*
X131261919Y-71827999D01*
X131261919Y-71452980D01*
X131276505Y-71417766D01*
X131314464Y-71379807D01*
X133294700Y-71379807D01*
X133294700Y-71460193D01*
X133298855Y-71475699D01*
X133312145Y-71525300D01*
X133315506Y-71537841D01*
X133322441Y-71549852D01*
X133354071Y-71604638D01*
X133355700Y-71607458D01*
X133412542Y-71664300D01*
X133431189Y-71675066D01*
X133434317Y-71676872D01*
X133457519Y-71707112D01*
X133452544Y-71744901D01*
X133434317Y-71763128D01*
X133412541Y-71775700D01*
X133355699Y-71832542D01*
X133315508Y-71902155D01*
X133315505Y-71902161D01*
X133304890Y-71941777D01*
X133294700Y-71979807D01*
X133294700Y-72060193D01*
X133315506Y-72137841D01*
X133324112Y-72152746D01*
X133341665Y-72183150D01*
X133355700Y-72207458D01*
X133412542Y-72264300D01*
X133482159Y-72304494D01*
X133559807Y-72325300D01*
X133559808Y-72325300D01*
X133640192Y-72325300D01*
X133640193Y-72325300D01*
X133717841Y-72304494D01*
X133754811Y-72283149D01*
X135920100Y-72283149D01*
X135920100Y-72356850D01*
X135939174Y-72428034D01*
X135939177Y-72428041D01*
X135976013Y-72491844D01*
X135976024Y-72491862D01*
X136028138Y-72543976D01*
X136091963Y-72580825D01*
X136163150Y-72599900D01*
X136236850Y-72599900D01*
X136308037Y-72580825D01*
X136371862Y-72543976D01*
X136423976Y-72491862D01*
X136460825Y-72428037D01*
X136479900Y-72356850D01*
X136479900Y-72283150D01*
X136478640Y-72278449D01*
X136469653Y-72244909D01*
X136460825Y-72211963D01*
X136423976Y-72148138D01*
X136371862Y-72096024D01*
X136371861Y-72096023D01*
X136308041Y-72059177D01*
X136308038Y-72059176D01*
X136308037Y-72059175D01*
X136308035Y-72059174D01*
X136308034Y-72059174D01*
X136236850Y-72040100D01*
X136163150Y-72040100D01*
X136091965Y-72059174D01*
X136091958Y-72059177D01*
X136028138Y-72096023D01*
X135976023Y-72148138D01*
X135939177Y-72211958D01*
X135939174Y-72211965D01*
X135920100Y-72283149D01*
X133754811Y-72283149D01*
X133787458Y-72264300D01*
X133844300Y-72207458D01*
X133884494Y-72137841D01*
X133905300Y-72060193D01*
X133905300Y-71979807D01*
X133884494Y-71902159D01*
X133844300Y-71832542D01*
X133787458Y-71775700D01*
X133787457Y-71775699D01*
X133765683Y-71763128D01*
X133742480Y-71732889D01*
X133747455Y-71695100D01*
X133759730Y-71680909D01*
X133761126Y-71679807D01*
X133994700Y-71679807D01*
X133994700Y-71760193D01*
X134015506Y-71837841D01*
X134016278Y-71839178D01*
X134052641Y-71902161D01*
X134055700Y-71907458D01*
X134112542Y-71964300D01*
X134182159Y-72004494D01*
X134259807Y-72025300D01*
X134259808Y-72025300D01*
X134340192Y-72025300D01*
X134340193Y-72025300D01*
X134417841Y-72004494D01*
X134487458Y-71964300D01*
X134544300Y-71907458D01*
X134584494Y-71837841D01*
X134605300Y-71760193D01*
X134605300Y-71679807D01*
X134584494Y-71602159D01*
X134544300Y-71532542D01*
X134487458Y-71475700D01*
X134487457Y-71475699D01*
X134417844Y-71435508D01*
X134417841Y-71435506D01*
X134417838Y-71435505D01*
X134351635Y-71417766D01*
X134340193Y-71414700D01*
X134259807Y-71414700D01*
X134251929Y-71416811D01*
X134182161Y-71435505D01*
X134182155Y-71435508D01*
X134112542Y-71475699D01*
X134055699Y-71532542D01*
X134015508Y-71602155D01*
X134015505Y-71602161D01*
X134004344Y-71643816D01*
X133994700Y-71679807D01*
X133761126Y-71679807D01*
X133762561Y-71678674D01*
X133787458Y-71664300D01*
X133844300Y-71607458D01*
X133884494Y-71537841D01*
X133905300Y-71460193D01*
X133905300Y-71379807D01*
X133884494Y-71302159D01*
X133844300Y-71232542D01*
X133787458Y-71175700D01*
X133787457Y-71175699D01*
X133717844Y-71135508D01*
X133717841Y-71135506D01*
X133717838Y-71135505D01*
X133668093Y-71122176D01*
X133640193Y-71114700D01*
X133559807Y-71114700D01*
X133531907Y-71122176D01*
X133482161Y-71135505D01*
X133482155Y-71135508D01*
X133412542Y-71175699D01*
X133355699Y-71232542D01*
X133315508Y-71302155D01*
X133315505Y-71302161D01*
X133305945Y-71337841D01*
X133294700Y-71379807D01*
X131314464Y-71379807D01*
X131352942Y-71341329D01*
X131987719Y-70706552D01*
X132631402Y-70062868D01*
X132666615Y-70048283D01*
X132701829Y-70062869D01*
X132714718Y-70085194D01*
X132718051Y-70097636D01*
X132718052Y-70097638D01*
X132718053Y-70097641D01*
X132758247Y-70167258D01*
X132815089Y-70224100D01*
X132884706Y-70264294D01*
X132962354Y-70285100D01*
X132962355Y-70285100D01*
X133042739Y-70285100D01*
X133042740Y-70285100D01*
X133120388Y-70264294D01*
X133190005Y-70224100D01*
X133246847Y-70167258D01*
X133287041Y-70097641D01*
X133292525Y-70077173D01*
X133315728Y-70046935D01*
X133353517Y-70041960D01*
X133383756Y-70065163D01*
X133390428Y-70090063D01*
X133390428Y-70372710D01*
X133375842Y-70407924D01*
X133171252Y-70612514D01*
X133136038Y-70627100D01*
X132793004Y-70627100D01*
X132757790Y-70612514D01*
X132749876Y-70602199D01*
X132744301Y-70592543D01*
X132687457Y-70535699D01*
X132644852Y-70511101D01*
X132617841Y-70495506D01*
X132617838Y-70495505D01*
X132576147Y-70484334D01*
X132540193Y-70474700D01*
X132459807Y-70474700D01*
X132451959Y-70476803D01*
X132382161Y-70495505D01*
X132382155Y-70495508D01*
X132312542Y-70535699D01*
X132255699Y-70592542D01*
X132215508Y-70662155D01*
X132215505Y-70662161D01*
X132203209Y-70708050D01*
X132194700Y-70739807D01*
X132194700Y-70820193D01*
X132201978Y-70847355D01*
X132211592Y-70883236D01*
X132215506Y-70897841D01*
X132223289Y-70911321D01*
X132255698Y-70967456D01*
X132255700Y-70967458D01*
X132312542Y-71024300D01*
X132382159Y-71064494D01*
X132459807Y-71085300D01*
X132459808Y-71085300D01*
X132540192Y-71085300D01*
X132540193Y-71085300D01*
X132617841Y-71064494D01*
X132687458Y-71024300D01*
X132744300Y-70967458D01*
X132746962Y-70962847D01*
X132749876Y-70957801D01*
X132780114Y-70934597D01*
X132793004Y-70932900D01*
X133250412Y-70932900D01*
X133250413Y-70932900D01*
X133250414Y-70932900D01*
X133269469Y-70925007D01*
X135056627Y-70925007D01*
X135056627Y-71005393D01*
X135061489Y-71023537D01*
X135077432Y-71083038D01*
X135077435Y-71083044D01*
X135117225Y-71151963D01*
X135117627Y-71152658D01*
X135174469Y-71209500D01*
X135244086Y-71249694D01*
X135321734Y-71270500D01*
X135321735Y-71270500D01*
X135402119Y-71270500D01*
X135402120Y-71270500D01*
X135479768Y-71249694D01*
X135549385Y-71209500D01*
X135606227Y-71152658D01*
X135646421Y-71083041D01*
X135667227Y-71005393D01*
X135667227Y-70925007D01*
X135646421Y-70847359D01*
X135606227Y-70777742D01*
X135549385Y-70720900D01*
X135549384Y-70720899D01*
X135479771Y-70680708D01*
X135479768Y-70680706D01*
X135479765Y-70680705D01*
X135446949Y-70671912D01*
X135402120Y-70659900D01*
X135321734Y-70659900D01*
X135293313Y-70667515D01*
X135244088Y-70680705D01*
X135244082Y-70680708D01*
X135174469Y-70720899D01*
X135117626Y-70777742D01*
X135077435Y-70847355D01*
X135077432Y-70847361D01*
X135066402Y-70888526D01*
X135056627Y-70925007D01*
X133269469Y-70925007D01*
X133280181Y-70920570D01*
X133306611Y-70909623D01*
X133672951Y-70543283D01*
X133692740Y-70495506D01*
X133696228Y-70487086D01*
X133696228Y-70438674D01*
X133696471Y-70436224D01*
X133704390Y-70421429D01*
X133710814Y-70405923D01*
X133713227Y-70404923D01*
X133714460Y-70402621D01*
X133730521Y-70397760D01*
X133746028Y-70391337D01*
X133749059Y-70392149D01*
X133750941Y-70391580D01*
X133754956Y-70393729D01*
X133770928Y-70398009D01*
X133782159Y-70404494D01*
X133859807Y-70425300D01*
X133859808Y-70425300D01*
X133940192Y-70425300D01*
X133940193Y-70425300D01*
X134017841Y-70404494D01*
X134087458Y-70364300D01*
X134144300Y-70307458D01*
X134184494Y-70237841D01*
X134205300Y-70160193D01*
X134205300Y-70079807D01*
X134184494Y-70002159D01*
X134144300Y-69932542D01*
X134087458Y-69875700D01*
X134087457Y-69875699D01*
X134017844Y-69835508D01*
X134017841Y-69835506D01*
X134017838Y-69835505D01*
X133985022Y-69826712D01*
X133940193Y-69814700D01*
X133881761Y-69814700D01*
X133846547Y-69800114D01*
X133831961Y-69764900D01*
X133846547Y-69729686D01*
X133977214Y-69599019D01*
X134129623Y-69446610D01*
X134152258Y-69391963D01*
X134152900Y-69390414D01*
X134152900Y-68899807D01*
X134254700Y-68899807D01*
X134254700Y-68980193D01*
X134262006Y-69007458D01*
X134275505Y-69057838D01*
X134275508Y-69057844D01*
X134315699Y-69127457D01*
X134353028Y-69164786D01*
X134367614Y-69200000D01*
X134353028Y-69235214D01*
X134315699Y-69272542D01*
X134275508Y-69342155D01*
X134275505Y-69342161D01*
X134262291Y-69391477D01*
X134254700Y-69419807D01*
X134254700Y-69500193D01*
X134260479Y-69521760D01*
X134275505Y-69577838D01*
X134275508Y-69577844D01*
X134306185Y-69630979D01*
X134315700Y-69647458D01*
X134372542Y-69704300D01*
X134442159Y-69744494D01*
X134519807Y-69765300D01*
X134519808Y-69765300D01*
X134600192Y-69765300D01*
X134600193Y-69765300D01*
X134677841Y-69744494D01*
X134747458Y-69704300D01*
X134804300Y-69647458D01*
X134844494Y-69577841D01*
X134865300Y-69500193D01*
X134865300Y-69419807D01*
X134844494Y-69342159D01*
X134804300Y-69272542D01*
X134766972Y-69235214D01*
X134752386Y-69200000D01*
X134766972Y-69164786D01*
X134781336Y-69150422D01*
X134804300Y-69127458D01*
X134844494Y-69057841D01*
X134865300Y-68980193D01*
X134865300Y-68899807D01*
X134844494Y-68822159D01*
X134820042Y-68779807D01*
X135669700Y-68779807D01*
X135669700Y-68860192D01*
X135688003Y-68928502D01*
X135690506Y-68937841D01*
X135730700Y-69007458D01*
X135787542Y-69064300D01*
X135857159Y-69104494D01*
X135934807Y-69125300D01*
X135934808Y-69125300D01*
X136015192Y-69125300D01*
X136015193Y-69125300D01*
X136092841Y-69104494D01*
X136162458Y-69064300D01*
X136219300Y-69007458D01*
X136259494Y-68937841D01*
X136280300Y-68860193D01*
X136280300Y-68779807D01*
X136259494Y-68702159D01*
X136219300Y-68632542D01*
X136162458Y-68575700D01*
X136162457Y-68575699D01*
X136092844Y-68535508D01*
X136092841Y-68535506D01*
X136092838Y-68535505D01*
X136060022Y-68526712D01*
X136015193Y-68514700D01*
X135934807Y-68514700D01*
X135906386Y-68522315D01*
X135857161Y-68535505D01*
X135857155Y-68535508D01*
X135787542Y-68575699D01*
X135730699Y-68632542D01*
X135690508Y-68702155D01*
X135690505Y-68702161D01*
X135669700Y-68779807D01*
X134820042Y-68779807D01*
X134804300Y-68752542D01*
X134747458Y-68695700D01*
X134747457Y-68695699D01*
X134677844Y-68655508D01*
X134677841Y-68655506D01*
X134677838Y-68655505D01*
X134645022Y-68646712D01*
X134600193Y-68634700D01*
X134519807Y-68634700D01*
X134491386Y-68642315D01*
X134442161Y-68655505D01*
X134442155Y-68655508D01*
X134372542Y-68695699D01*
X134315699Y-68752542D01*
X134275508Y-68822155D01*
X134275505Y-68822161D01*
X134258536Y-68885492D01*
X134254700Y-68899807D01*
X134152900Y-68899807D01*
X134152900Y-67069586D01*
X134129622Y-67013389D01*
X134086611Y-66970378D01*
X133386611Y-66270377D01*
X133386610Y-66270376D01*
X133330415Y-66247100D01*
X133330413Y-66247100D01*
X133269587Y-66247100D01*
X133269584Y-66247100D01*
X133263405Y-66249660D01*
X133244350Y-66253450D01*
X128130566Y-66253450D01*
X128095352Y-66238864D01*
X128080766Y-66203650D01*
X128095352Y-66168436D01*
X128102899Y-66162243D01*
X128157750Y-66125593D01*
X128157753Y-66125591D01*
X128255591Y-66027753D01*
X128255593Y-66027750D01*
X128332459Y-65912710D01*
X128385407Y-65784883D01*
X128385410Y-65784873D01*
X128412399Y-65649182D01*
X128412400Y-65649176D01*
X128412400Y-65131200D01*
X128010000Y-65131200D01*
X128010000Y-64928800D01*
X128412400Y-64928800D01*
X128412400Y-64467030D01*
X128661700Y-64467030D01*
X128661700Y-64592969D01*
X128694294Y-64714612D01*
X128694295Y-64714614D01*
X128694296Y-64714617D01*
X128712962Y-64746947D01*
X128748450Y-64808416D01*
X128757265Y-64823683D01*
X128846317Y-64912735D01*
X128955383Y-64975704D01*
X129077031Y-65008300D01*
X129202969Y-65008300D01*
X129324617Y-64975704D01*
X129433683Y-64912735D01*
X129522735Y-64823683D01*
X129585704Y-64714617D01*
X129618300Y-64592969D01*
X129618300Y-64467031D01*
X129585704Y-64345383D01*
X129534146Y-64256081D01*
X130529500Y-64256081D01*
X130529500Y-64403918D01*
X130551696Y-64515506D01*
X130558342Y-64548913D01*
X130564063Y-64562725D01*
X130614913Y-64685491D01*
X130614915Y-64685493D01*
X130614916Y-64685495D01*
X130626246Y-64702452D01*
X130697045Y-64808412D01*
X130801587Y-64912954D01*
X130875137Y-64962097D01*
X130924505Y-64995084D01*
X130924506Y-64995084D01*
X130924508Y-64995086D01*
X130973586Y-65015414D01*
X131061087Y-65051658D01*
X131206082Y-65080500D01*
X131206087Y-65080500D01*
X131353913Y-65080500D01*
X131353918Y-65080500D01*
X131498913Y-65051658D01*
X131607699Y-65006597D01*
X131635491Y-64995086D01*
X131635491Y-64995085D01*
X131635495Y-64995084D01*
X131715321Y-64941746D01*
X131747333Y-64920357D01*
X131784716Y-64912921D01*
X131802667Y-64920357D01*
X131834679Y-64941746D01*
X131914505Y-64995084D01*
X131914506Y-64995084D01*
X131914508Y-64995086D01*
X131963586Y-65015414D01*
X132051087Y-65051658D01*
X132196082Y-65080500D01*
X132196087Y-65080500D01*
X132343913Y-65080500D01*
X132343918Y-65080500D01*
X132488913Y-65051658D01*
X132597699Y-65006597D01*
X132625491Y-64995086D01*
X132625491Y-64995085D01*
X132625495Y-64995084D01*
X132748416Y-64912951D01*
X132852951Y-64808416D01*
X132867626Y-64786454D01*
X132935079Y-64685503D01*
X132935079Y-64685501D01*
X132935084Y-64685495D01*
X132948880Y-64652185D01*
X132975831Y-64625235D01*
X132985169Y-64622402D01*
X132988913Y-64621658D01*
X133125495Y-64565084D01*
X133230458Y-64494950D01*
X133248412Y-64482954D01*
X133248415Y-64482952D01*
X133264337Y-64467030D01*
X134441700Y-64467030D01*
X134441700Y-64592969D01*
X134474294Y-64714612D01*
X134474295Y-64714614D01*
X134474296Y-64714617D01*
X134492962Y-64746947D01*
X134528450Y-64808416D01*
X134537265Y-64823683D01*
X134626317Y-64912735D01*
X134735383Y-64975704D01*
X134857031Y-65008300D01*
X134982969Y-65008300D01*
X135104617Y-64975704D01*
X135213683Y-64912735D01*
X135302735Y-64823683D01*
X135365704Y-64714617D01*
X135398300Y-64592969D01*
X135398300Y-64467031D01*
X135383237Y-64410817D01*
X135647600Y-64410817D01*
X135647600Y-64928800D01*
X136050000Y-64928800D01*
X136050000Y-65131200D01*
X135647600Y-65131200D01*
X135647600Y-65649182D01*
X135674589Y-65784873D01*
X135674592Y-65784883D01*
X135727540Y-65912710D01*
X135804406Y-66027750D01*
X135902249Y-66125593D01*
X136017290Y-66202459D01*
X136017289Y-66202459D01*
X136145116Y-66255407D01*
X136145126Y-66255410D01*
X136248799Y-66276031D01*
X136248800Y-66276031D01*
X136248800Y-65863466D01*
X136310504Y-65880000D01*
X136389496Y-65880000D01*
X136451200Y-65863466D01*
X136451200Y-66276031D01*
X136554873Y-66255410D01*
X136554883Y-66255407D01*
X136682710Y-66202459D01*
X136797750Y-66125593D01*
X136797753Y-66125591D01*
X136895591Y-66027753D01*
X136895593Y-66027750D01*
X136972459Y-65912710D01*
X137025407Y-65784883D01*
X137025410Y-65784873D01*
X137052399Y-65649182D01*
X137052400Y-65649176D01*
X137052400Y-65131200D01*
X136650000Y-65131200D01*
X136650000Y-64928800D01*
X137052400Y-64928800D01*
X137052400Y-64410824D01*
X137052399Y-64410817D01*
X137025410Y-64275126D01*
X137025407Y-64275116D01*
X136972459Y-64147289D01*
X136895593Y-64032249D01*
X136797750Y-63934406D01*
X136682709Y-63857540D01*
X136682710Y-63857540D01*
X136554880Y-63804591D01*
X136451200Y-63783968D01*
X136451200Y-64196533D01*
X136389496Y-64180000D01*
X136310504Y-64180000D01*
X136248800Y-64196533D01*
X136248800Y-63783968D01*
X136145119Y-63804591D01*
X136017289Y-63857540D01*
X135902249Y-63934406D01*
X135902247Y-63934409D01*
X135804409Y-64032247D01*
X135804406Y-64032249D01*
X135727540Y-64147289D01*
X135674592Y-64275116D01*
X135674589Y-64275126D01*
X135647600Y-64410817D01*
X135383237Y-64410817D01*
X135365704Y-64345383D01*
X135302735Y-64236317D01*
X135213683Y-64147265D01*
X135213682Y-64147264D01*
X135135397Y-64102067D01*
X135104617Y-64084296D01*
X135104614Y-64084295D01*
X135104612Y-64084294D01*
X134982969Y-64051700D01*
X134857031Y-64051700D01*
X134857030Y-64051700D01*
X134735387Y-64084294D01*
X134735379Y-64084298D01*
X134626317Y-64147264D01*
X134537264Y-64236317D01*
X134474298Y-64345379D01*
X134474294Y-64345387D01*
X134441700Y-64467030D01*
X133264337Y-64467030D01*
X133352952Y-64378415D01*
X133352954Y-64378412D01*
X133375023Y-64345383D01*
X133435084Y-64255495D01*
X133437068Y-64250707D01*
X133456862Y-64202917D01*
X133491658Y-64118913D01*
X133520500Y-63973918D01*
X133520500Y-63826082D01*
X133491658Y-63681087D01*
X133459965Y-63604572D01*
X133435086Y-63544508D01*
X133435084Y-63544506D01*
X133435084Y-63544505D01*
X133394165Y-63483265D01*
X133352954Y-63421587D01*
X133248412Y-63317045D01*
X133150344Y-63251519D01*
X133125495Y-63234916D01*
X133125493Y-63234915D01*
X133125491Y-63234913D01*
X133016708Y-63189855D01*
X132988913Y-63178342D01*
X132988908Y-63178341D01*
X132988905Y-63178340D01*
X132843918Y-63149500D01*
X132696082Y-63149500D01*
X132696081Y-63149500D01*
X132551094Y-63178340D01*
X132551089Y-63178341D01*
X132551087Y-63178342D01*
X132551082Y-63178343D01*
X132551082Y-63178344D01*
X132414508Y-63234913D01*
X132414506Y-63234915D01*
X132297667Y-63312983D01*
X132260284Y-63320419D01*
X132242333Y-63312983D01*
X132147146Y-63249383D01*
X132125495Y-63234916D01*
X132125493Y-63234915D01*
X132125491Y-63234913D01*
X132016708Y-63189855D01*
X131988913Y-63178342D01*
X131988908Y-63178341D01*
X131988905Y-63178340D01*
X131843918Y-63149500D01*
X131696082Y-63149500D01*
X131696081Y-63149500D01*
X131551094Y-63178340D01*
X131551089Y-63178341D01*
X131551087Y-63178342D01*
X131551082Y-63178343D01*
X131551082Y-63178344D01*
X131414508Y-63234913D01*
X131414506Y-63234915D01*
X131291587Y-63317045D01*
X131291585Y-63317048D01*
X131187048Y-63421585D01*
X131187045Y-63421587D01*
X131104915Y-63544505D01*
X131089968Y-63580591D01*
X131063017Y-63607542D01*
X130924505Y-63664915D01*
X130801587Y-63747045D01*
X130801585Y-63747048D01*
X130697048Y-63851585D01*
X130697045Y-63851587D01*
X130614915Y-63974506D01*
X130614913Y-63974508D01*
X130558344Y-64111082D01*
X130558340Y-64111094D01*
X130529500Y-64256081D01*
X129534146Y-64256081D01*
X129522735Y-64236317D01*
X129433683Y-64147265D01*
X129433682Y-64147264D01*
X129355397Y-64102067D01*
X129324617Y-64084296D01*
X129324614Y-64084295D01*
X129324612Y-64084294D01*
X129202969Y-64051700D01*
X129077031Y-64051700D01*
X129077030Y-64051700D01*
X128955387Y-64084294D01*
X128955379Y-64084298D01*
X128846317Y-64147264D01*
X128757264Y-64236317D01*
X128694298Y-64345379D01*
X128694294Y-64345387D01*
X128661700Y-64467030D01*
X128412400Y-64467030D01*
X128412400Y-64410824D01*
X128412399Y-64410817D01*
X128385410Y-64275126D01*
X128385407Y-64275116D01*
X128332459Y-64147289D01*
X128255593Y-64032249D01*
X128157750Y-63934406D01*
X128042709Y-63857540D01*
X128042710Y-63857540D01*
X127914880Y-63804591D01*
X127811200Y-63783968D01*
X127811200Y-64196533D01*
X127749496Y-64180000D01*
X127670504Y-64180000D01*
X127608800Y-64196533D01*
X127608800Y-63783968D01*
X127505119Y-63804591D01*
X127377289Y-63857540D01*
X127262249Y-63934406D01*
X127262247Y-63934409D01*
X127164409Y-64032247D01*
X127164406Y-64032249D01*
X127117757Y-64102067D01*
X127086066Y-64123243D01*
X127048683Y-64115807D01*
X127027507Y-64084116D01*
X127026550Y-64074400D01*
X127026550Y-61655599D01*
X127041136Y-61620385D01*
X127076350Y-61605799D01*
X127111564Y-61620385D01*
X127117758Y-61627932D01*
X127164410Y-61697754D01*
X127262249Y-61795593D01*
X127377290Y-61872459D01*
X127377289Y-61872459D01*
X127505116Y-61925407D01*
X127505126Y-61925410D01*
X127608799Y-61946031D01*
X127608800Y-61946031D01*
X127608800Y-61533466D01*
X127670504Y-61550000D01*
X127749496Y-61550000D01*
X127811200Y-61533466D01*
X127811200Y-61946031D01*
X127914873Y-61925410D01*
X127914883Y-61925407D01*
X128042710Y-61872459D01*
X128157750Y-61795593D01*
X128157753Y-61795591D01*
X128255591Y-61697753D01*
X128255593Y-61697750D01*
X128332459Y-61582710D01*
X128385407Y-61454883D01*
X128385410Y-61454873D01*
X128412399Y-61319182D01*
X128412400Y-61319176D01*
X128412400Y-60951200D01*
X128010000Y-60951200D01*
X128010000Y-60748800D01*
X128412400Y-60748800D01*
X128412400Y-60380824D01*
X128412399Y-60380817D01*
X135647600Y-60380817D01*
X135647600Y-60748800D01*
X136050000Y-60748800D01*
X136050000Y-60951200D01*
X135647600Y-60951200D01*
X135647600Y-61319182D01*
X135674589Y-61454873D01*
X135674592Y-61454883D01*
X135727540Y-61582710D01*
X135804406Y-61697750D01*
X135902249Y-61795593D01*
X136017290Y-61872459D01*
X136017289Y-61872459D01*
X136145116Y-61925407D01*
X136145126Y-61925410D01*
X136248799Y-61946031D01*
X136248800Y-61946031D01*
X136248800Y-61533466D01*
X136310504Y-61550000D01*
X136389496Y-61550000D01*
X136451200Y-61533466D01*
X136451200Y-61946031D01*
X136554873Y-61925410D01*
X136554883Y-61925407D01*
X136682710Y-61872459D01*
X136797750Y-61795593D01*
X136797753Y-61795591D01*
X136895591Y-61697753D01*
X136895593Y-61697750D01*
X136972459Y-61582710D01*
X137025407Y-61454883D01*
X137025410Y-61454873D01*
X137052399Y-61319182D01*
X137052400Y-61319176D01*
X137052400Y-60951200D01*
X136650000Y-60951200D01*
X136650000Y-60748800D01*
X137052400Y-60748800D01*
X137052400Y-60380824D01*
X137052399Y-60380820D01*
X137050168Y-60369602D01*
X137050168Y-60369601D01*
X137048885Y-60363149D01*
X138720100Y-60363149D01*
X138720100Y-60436850D01*
X138739174Y-60508034D01*
X138739177Y-60508041D01*
X138760013Y-60544131D01*
X138776024Y-60571862D01*
X138828138Y-60623976D01*
X138891963Y-60660825D01*
X138963150Y-60679900D01*
X139036850Y-60679900D01*
X139108037Y-60660825D01*
X139171862Y-60623976D01*
X139223976Y-60571862D01*
X139260825Y-60508037D01*
X139279900Y-60436850D01*
X139279900Y-60363150D01*
X139260825Y-60291963D01*
X139223976Y-60228138D01*
X139171862Y-60176024D01*
X139171861Y-60176023D01*
X139108041Y-60139177D01*
X139108038Y-60139176D01*
X139108037Y-60139175D01*
X139108035Y-60139174D01*
X139108034Y-60139174D01*
X139036850Y-60120100D01*
X138963150Y-60120100D01*
X138891965Y-60139174D01*
X138891958Y-60139177D01*
X138828138Y-60176023D01*
X138776023Y-60228138D01*
X138739177Y-60291958D01*
X138739174Y-60291965D01*
X138720100Y-60363149D01*
X137048885Y-60363149D01*
X137025410Y-60245126D01*
X137025407Y-60245116D01*
X136972459Y-60117289D01*
X136895593Y-60002249D01*
X136797750Y-59904406D01*
X136682709Y-59827540D01*
X136682710Y-59827540D01*
X136554880Y-59774591D01*
X136451200Y-59753968D01*
X136451200Y-60166533D01*
X136389496Y-60150000D01*
X136310504Y-60150000D01*
X136248800Y-60166533D01*
X136248800Y-59753968D01*
X136145119Y-59774591D01*
X136017289Y-59827540D01*
X135902249Y-59904406D01*
X135902247Y-59904409D01*
X135804409Y-60002247D01*
X135804406Y-60002249D01*
X135727540Y-60117289D01*
X135674592Y-60245116D01*
X135674589Y-60245126D01*
X135647600Y-60380817D01*
X128412399Y-60380817D01*
X128385410Y-60245126D01*
X128385407Y-60245116D01*
X128332459Y-60117289D01*
X128255593Y-60002249D01*
X128157750Y-59904406D01*
X128042709Y-59827540D01*
X128042710Y-59827540D01*
X127914880Y-59774591D01*
X127811200Y-59753968D01*
X127811200Y-60166533D01*
X127749496Y-60150000D01*
X127670504Y-60150000D01*
X127608800Y-60166533D01*
X127608800Y-59753968D01*
X127505119Y-59774591D01*
X127377289Y-59827540D01*
X127262249Y-59904406D01*
X127262247Y-59904409D01*
X127164409Y-60002247D01*
X127164406Y-60002249D01*
X127087540Y-60117289D01*
X127034592Y-60245116D01*
X127034589Y-60245126D01*
X127007600Y-60380817D01*
X127007600Y-60748800D01*
X127410000Y-60748800D01*
X127410000Y-60951200D01*
X127007600Y-60951200D01*
X127007600Y-61160119D01*
X126993014Y-61195333D01*
X126957800Y-61209919D01*
X126922586Y-61195333D01*
X126743014Y-61015761D01*
X126689151Y-60993450D01*
X126689150Y-60993450D01*
X126487342Y-60993450D01*
X126452128Y-60978864D01*
X126444214Y-60968550D01*
X126443976Y-60968138D01*
X126391861Y-60916023D01*
X126328041Y-60879177D01*
X126328038Y-60879176D01*
X126328037Y-60879175D01*
X126328035Y-60879174D01*
X126328034Y-60879174D01*
X126256850Y-60860100D01*
X126183150Y-60860100D01*
X126111965Y-60879174D01*
X126111958Y-60879177D01*
X126048138Y-60916023D01*
X125996023Y-60968138D01*
X125959177Y-61031958D01*
X125959174Y-61031965D01*
X125940100Y-61103149D01*
X125940100Y-61176850D01*
X125959174Y-61248034D01*
X125959177Y-61248041D01*
X125993420Y-61307353D01*
X125996024Y-61311862D01*
X126048138Y-61363976D01*
X126111963Y-61400825D01*
X126183150Y-61419900D01*
X126256850Y-61419900D01*
X126328037Y-61400825D01*
X126391862Y-61363976D01*
X126443976Y-61311862D01*
X126444214Y-61311450D01*
X126444404Y-61311303D01*
X126445963Y-61309273D01*
X126446507Y-61309690D01*
X126449552Y-61307353D01*
X126452128Y-61301136D01*
X126464138Y-61296161D01*
X126474452Y-61288247D01*
X126487342Y-61286550D01*
X126578669Y-61286550D01*
X126613883Y-61301136D01*
X126718864Y-61406117D01*
X126733450Y-61441331D01*
X126733450Y-65929151D01*
X126755761Y-65983014D01*
X127296987Y-66524240D01*
X127296989Y-66524241D01*
X127296991Y-66524242D01*
X127312763Y-66530774D01*
X127328535Y-66537306D01*
X127328538Y-66537309D01*
X127328539Y-66537308D01*
X127350849Y-66546550D01*
X127350850Y-66546550D01*
X127409151Y-66546550D01*
X133209688Y-66546550D01*
X133244902Y-66561136D01*
X133832514Y-67148747D01*
X133847100Y-67183961D01*
X133847100Y-69276038D01*
X133832514Y-69311252D01*
X133785515Y-69358251D01*
X133750301Y-69372837D01*
X133715087Y-69358251D01*
X133700501Y-69323037D01*
X133700501Y-69313047D01*
X133689962Y-69273716D01*
X133681426Y-69241861D01*
X133644577Y-69178036D01*
X133592463Y-69125922D01*
X133592462Y-69125921D01*
X133528642Y-69089075D01*
X133528639Y-69089074D01*
X133528638Y-69089073D01*
X133528636Y-69089072D01*
X133528635Y-69089072D01*
X133457451Y-69069998D01*
X133383751Y-69069998D01*
X133312566Y-69089072D01*
X133312559Y-69089075D01*
X133248739Y-69125921D01*
X133194317Y-69180344D01*
X133193514Y-69179541D01*
X133164014Y-69196572D01*
X133157516Y-69196998D01*
X133097726Y-69196998D01*
X133090479Y-69200000D01*
X133041528Y-69220276D01*
X130979395Y-71282408D01*
X130965891Y-71315013D01*
X130965891Y-71315014D01*
X130956119Y-71338604D01*
X130956119Y-72127019D01*
X130941533Y-72162233D01*
X130750188Y-72353577D01*
X130714974Y-72368163D01*
X130679760Y-72353577D01*
X130665174Y-72318363D01*
X130666869Y-72305482D01*
X130679901Y-72256850D01*
X130679901Y-72183150D01*
X130679900Y-72183148D01*
X130671754Y-72152746D01*
X130660826Y-72111963D01*
X130623977Y-72048138D01*
X130571863Y-71996024D01*
X130571862Y-71996023D01*
X130508042Y-71959177D01*
X130508039Y-71959176D01*
X130508038Y-71959175D01*
X130508036Y-71959174D01*
X130508035Y-71959174D01*
X130436851Y-71940100D01*
X130363151Y-71940100D01*
X130291966Y-71959174D01*
X130291959Y-71959177D01*
X130228139Y-71996023D01*
X130176024Y-72048138D01*
X130139178Y-72111958D01*
X130139175Y-72111965D01*
X130120101Y-72183149D01*
X130120101Y-72256850D01*
X130139175Y-72328034D01*
X130139178Y-72328041D01*
X130174388Y-72389028D01*
X130176025Y-72391862D01*
X130228139Y-72443976D01*
X130291964Y-72480825D01*
X130363151Y-72499900D01*
X130436850Y-72499900D01*
X130436851Y-72499900D01*
X130485476Y-72486870D01*
X130523263Y-72491844D01*
X130546467Y-72522082D01*
X130541493Y-72559872D01*
X130533578Y-72570187D01*
X130310376Y-72793389D01*
X130297557Y-72824339D01*
X130270606Y-72851291D01*
X130232491Y-72851291D01*
X130216334Y-72840496D01*
X130171861Y-72796023D01*
X130108041Y-72759177D01*
X130108038Y-72759176D01*
X130108037Y-72759175D01*
X130108035Y-72759174D01*
X130108034Y-72759174D01*
X130036850Y-72740100D01*
X130016961Y-72740100D01*
X129981747Y-72725514D01*
X129907486Y-72651252D01*
X129892900Y-72616038D01*
X129892900Y-71997975D01*
X129892900Y-71997974D01*
X129869622Y-71941777D01*
X129826611Y-71898766D01*
X129765683Y-71837838D01*
X129698686Y-71770840D01*
X129684100Y-71735626D01*
X129684100Y-71580787D01*
X129684100Y-71580786D01*
X129660822Y-71524589D01*
X129617811Y-71481578D01*
X129448026Y-71311792D01*
X129448025Y-71311791D01*
X129408289Y-71295332D01*
X129408288Y-71295332D01*
X129391829Y-71288515D01*
X129391828Y-71288515D01*
X128884402Y-71288515D01*
X128849188Y-71273929D01*
X128834602Y-71238715D01*
X128849188Y-71203501D01*
X128871512Y-71190612D01*
X128908037Y-71180825D01*
X128971862Y-71143976D01*
X129023976Y-71091862D01*
X129060825Y-71028037D01*
X129065987Y-71008771D01*
X129089190Y-70978533D01*
X129126979Y-70973558D01*
X129149304Y-70986447D01*
X129190117Y-71027260D01*
X129253942Y-71064109D01*
X129325129Y-71083184D01*
X129398829Y-71083184D01*
X129470016Y-71064109D01*
X129533841Y-71027260D01*
X129585955Y-70975146D01*
X129585955Y-70975145D01*
X129588263Y-70972838D01*
X129589065Y-70973640D01*
X129618566Y-70956610D01*
X129625064Y-70956184D01*
X129887130Y-70956184D01*
X129904584Y-70948954D01*
X129943327Y-70932907D01*
X132722087Y-68154144D01*
X132757300Y-68139559D01*
X132762489Y-68139900D01*
X132763150Y-68139900D01*
X132836850Y-68139900D01*
X132908037Y-68120825D01*
X132971862Y-68083976D01*
X133023976Y-68031862D01*
X133060825Y-67968037D01*
X133079900Y-67896850D01*
X133079900Y-67823150D01*
X133060825Y-67751963D01*
X133023976Y-67688138D01*
X132971862Y-67636024D01*
X132971861Y-67636023D01*
X132908041Y-67599177D01*
X132908038Y-67599176D01*
X132908037Y-67599175D01*
X132908035Y-67599174D01*
X132908034Y-67599174D01*
X132836850Y-67580100D01*
X132763150Y-67580100D01*
X132691965Y-67599174D01*
X132691958Y-67599177D01*
X132628138Y-67636023D01*
X132576023Y-67688138D01*
X132539177Y-67751958D01*
X132539174Y-67751965D01*
X132520100Y-67823149D01*
X132520100Y-67900114D01*
X132518965Y-67900114D01*
X132510148Y-67933014D01*
X132505854Y-67937911D01*
X129807968Y-70635798D01*
X129772754Y-70650384D01*
X129625064Y-70650384D01*
X129589850Y-70635798D01*
X129586425Y-70631892D01*
X129533840Y-70579307D01*
X129470009Y-70542455D01*
X129468604Y-70541873D01*
X129468062Y-70541331D01*
X129467189Y-70540827D01*
X129467324Y-70540592D01*
X129441656Y-70514918D01*
X129441662Y-70476803D01*
X129452451Y-70460656D01*
X129724239Y-70188869D01*
X129746550Y-70135006D01*
X129746550Y-67559621D01*
X129761136Y-67524407D01*
X129796350Y-67509821D01*
X129809237Y-67511517D01*
X129858807Y-67524800D01*
X129858808Y-67524800D01*
X129939192Y-67524800D01*
X129939193Y-67524800D01*
X130016841Y-67503994D01*
X130086458Y-67463800D01*
X130143300Y-67406958D01*
X130183494Y-67337341D01*
X130204300Y-67259693D01*
X130204300Y-67243149D01*
X133100100Y-67243149D01*
X133100100Y-67316850D01*
X133119174Y-67388034D01*
X133119177Y-67388041D01*
X133152034Y-67444952D01*
X133156024Y-67451862D01*
X133208138Y-67503976D01*
X133271963Y-67540825D01*
X133343150Y-67559900D01*
X133416850Y-67559900D01*
X133488037Y-67540825D01*
X133551862Y-67503976D01*
X133603976Y-67451862D01*
X133640825Y-67388037D01*
X133659900Y-67316850D01*
X133659900Y-67243150D01*
X133640825Y-67171963D01*
X133603976Y-67108138D01*
X133551862Y-67056024D01*
X133551861Y-67056023D01*
X133488041Y-67019177D01*
X133488038Y-67019176D01*
X133488037Y-67019175D01*
X133488035Y-67019174D01*
X133488034Y-67019174D01*
X133416850Y-67000100D01*
X133343150Y-67000100D01*
X133271965Y-67019174D01*
X133271958Y-67019177D01*
X133208138Y-67056023D01*
X133156023Y-67108138D01*
X133119177Y-67171958D01*
X133119174Y-67171965D01*
X133100100Y-67243149D01*
X130204300Y-67243149D01*
X130204300Y-67179307D01*
X130183494Y-67101659D01*
X130143300Y-67032042D01*
X130086458Y-66975200D01*
X130086457Y-66975199D01*
X130016844Y-66935008D01*
X130016841Y-66935006D01*
X130016838Y-66935005D01*
X129976360Y-66924159D01*
X129939193Y-66914200D01*
X129858807Y-66914200D01*
X129830386Y-66921815D01*
X129781161Y-66935005D01*
X129781155Y-66935008D01*
X129711542Y-66975199D01*
X129654699Y-67032042D01*
X129614508Y-67101655D01*
X129614505Y-67101661D01*
X129593700Y-67179307D01*
X129593700Y-67218419D01*
X129579114Y-67253633D01*
X129475761Y-67356985D01*
X129453450Y-67410848D01*
X129453450Y-70024523D01*
X129438864Y-70059737D01*
X129184749Y-70313851D01*
X129149535Y-70328437D01*
X129114321Y-70313851D01*
X129100160Y-70285130D01*
X129099899Y-70283149D01*
X129080825Y-70211963D01*
X129043976Y-70148138D01*
X128991862Y-70096024D01*
X128991861Y-70096023D01*
X128928041Y-70059177D01*
X128928038Y-70059176D01*
X128928037Y-70059175D01*
X128928035Y-70059174D01*
X128928034Y-70059174D01*
X128856850Y-70040100D01*
X128783150Y-70040100D01*
X128711965Y-70059174D01*
X128711958Y-70059177D01*
X128648138Y-70096023D01*
X128596023Y-70148138D01*
X128559177Y-70211958D01*
X128559174Y-70211965D01*
X128540100Y-70283149D01*
X128540100Y-70356850D01*
X128559174Y-70428034D01*
X128559177Y-70428041D01*
X128596023Y-70491861D01*
X128648139Y-70543977D01*
X128695169Y-70571129D01*
X128703093Y-70581455D01*
X128713416Y-70589389D01*
X128714287Y-70596042D01*
X128718373Y-70601367D01*
X128716673Y-70614272D01*
X128718364Y-70627182D01*
X128714375Y-70631732D01*
X128713398Y-70639156D01*
X128695138Y-70657403D01*
X128692150Y-70659124D01*
X128691963Y-70659175D01*
X128633780Y-70692766D01*
X128631555Y-70694049D01*
X128630644Y-70694576D01*
X128630642Y-70694576D01*
X128630613Y-70694593D01*
X128612206Y-70697002D01*
X128592855Y-70699550D01*
X128592839Y-70699538D01*
X128592820Y-70699541D01*
X128577420Y-70687705D01*
X128562617Y-70676346D01*
X128532592Y-70624340D01*
X128480476Y-70572224D01*
X128416656Y-70535378D01*
X128416653Y-70535377D01*
X128416652Y-70535376D01*
X128416650Y-70535375D01*
X128416649Y-70535375D01*
X128345465Y-70516301D01*
X128271765Y-70516301D01*
X128200580Y-70535375D01*
X128200573Y-70535378D01*
X128136753Y-70572224D01*
X128084638Y-70624339D01*
X128047792Y-70688159D01*
X128047790Y-70688162D01*
X128047790Y-70688164D01*
X128044739Y-70699550D01*
X128032541Y-70745070D01*
X128009337Y-70775308D01*
X127975708Y-70779734D01*
X127975553Y-70780914D01*
X127972317Y-70780488D01*
X127898617Y-70780488D01*
X127827432Y-70799562D01*
X127827425Y-70799565D01*
X127763605Y-70836411D01*
X127711490Y-70888526D01*
X127674644Y-70952346D01*
X127674641Y-70952353D01*
X127655567Y-71023537D01*
X127655567Y-71077106D01*
X127640981Y-71112320D01*
X127605767Y-71126906D01*
X127570553Y-71112320D01*
X127275886Y-70817653D01*
X127261300Y-70782439D01*
X127261300Y-67477987D01*
X127261300Y-67477986D01*
X127252545Y-67456850D01*
X127238023Y-67421789D01*
X125092197Y-65275963D01*
X125077611Y-65240749D01*
X125086004Y-65213081D01*
X125090812Y-65205887D01*
X125151276Y-65059914D01*
X125182100Y-64904950D01*
X125182100Y-64746950D01*
X125157890Y-64625235D01*
X125151278Y-64591995D01*
X125151277Y-64591993D01*
X125151276Y-64591986D01*
X125117967Y-64511572D01*
X125090814Y-64446016D01*
X125090812Y-64446014D01*
X125090812Y-64446013D01*
X125049483Y-64384160D01*
X125003035Y-64314644D01*
X124891305Y-64202914D01*
X124772067Y-64123243D01*
X124759937Y-64115138D01*
X124759935Y-64115137D01*
X124759933Y-64115135D01*
X124643670Y-64066978D01*
X124613964Y-64054674D01*
X124613960Y-64054673D01*
X124613954Y-64054671D01*
X124459002Y-64023850D01*
X124459000Y-64023850D01*
X124301000Y-64023850D01*
X124300997Y-64023850D01*
X124146045Y-64054671D01*
X124146037Y-64054673D01*
X124146036Y-64054674D01*
X124146032Y-64054675D01*
X124146031Y-64054676D01*
X124000066Y-64115135D01*
X124000064Y-64115137D01*
X123868694Y-64202914D01*
X123868692Y-64202917D01*
X123756967Y-64314642D01*
X123756964Y-64314644D01*
X123669187Y-64446013D01*
X123648917Y-64494950D01*
X123621965Y-64521901D01*
X123583850Y-64521901D01*
X123559780Y-64500792D01*
X123551790Y-64486953D01*
X123448996Y-64384159D01*
X123360614Y-64333132D01*
X123323103Y-64311475D01*
X123314308Y-64309118D01*
X123274410Y-64298427D01*
X123244171Y-64275223D01*
X123237500Y-64250324D01*
X123237500Y-64131574D01*
X123252086Y-64096360D01*
X123274410Y-64083472D01*
X123323103Y-64070425D01*
X123448997Y-63997740D01*
X123551790Y-63894947D01*
X123624475Y-63769053D01*
X123662100Y-63628635D01*
X123662100Y-63563149D01*
X124860100Y-63563149D01*
X124860100Y-63636850D01*
X124879174Y-63708034D01*
X124879177Y-63708041D01*
X124901697Y-63747048D01*
X124916024Y-63771862D01*
X124968138Y-63823976D01*
X125031963Y-63860825D01*
X125103150Y-63879900D01*
X125176850Y-63879900D01*
X125248037Y-63860825D01*
X125272400Y-63846758D01*
X125310189Y-63841784D01*
X125340428Y-63864987D01*
X125347100Y-63889887D01*
X125347100Y-64506565D01*
X125370376Y-64562760D01*
X125489737Y-64682121D01*
X125504323Y-64717335D01*
X125502626Y-64730223D01*
X125494700Y-64759803D01*
X125494700Y-64840192D01*
X125515505Y-64917838D01*
X125515508Y-64917844D01*
X125551509Y-64980200D01*
X125555700Y-64987458D01*
X125612542Y-65044300D01*
X125682159Y-65084494D01*
X125759807Y-65105300D01*
X125759808Y-65105300D01*
X125840192Y-65105300D01*
X125840193Y-65105300D01*
X125917841Y-65084494D01*
X125987458Y-65044300D01*
X126044300Y-64987458D01*
X126084494Y-64917841D01*
X126105300Y-64840193D01*
X126105300Y-64759807D01*
X126084494Y-64682159D01*
X126044300Y-64612542D01*
X125987458Y-64555700D01*
X125987457Y-64555699D01*
X125917844Y-64515508D01*
X125917841Y-64515506D01*
X125917838Y-64515505D01*
X125862928Y-64500792D01*
X125840193Y-64494700D01*
X125759807Y-64494700D01*
X125756543Y-64494700D01*
X125756543Y-64494416D01*
X125755543Y-64494831D01*
X125740709Y-64488686D01*
X125725201Y-64484521D01*
X125720329Y-64480245D01*
X125667486Y-64427402D01*
X125652900Y-64392188D01*
X125652900Y-61219586D01*
X125651190Y-61215460D01*
X125649096Y-61183508D01*
X125654900Y-61161850D01*
X125654900Y-61088150D01*
X125635825Y-61016963D01*
X125598976Y-60953138D01*
X125546862Y-60901024D01*
X125546861Y-60901023D01*
X125483041Y-60864177D01*
X125483038Y-60864176D01*
X125483037Y-60864175D01*
X125483035Y-60864174D01*
X125483034Y-60864174D01*
X125411850Y-60845100D01*
X125338150Y-60845100D01*
X125266965Y-60864174D01*
X125266958Y-60864177D01*
X125203138Y-60901023D01*
X125151023Y-60953138D01*
X125114177Y-61016958D01*
X125114174Y-61016965D01*
X125095100Y-61088149D01*
X125095100Y-61161850D01*
X125114174Y-61233034D01*
X125114177Y-61233041D01*
X125139548Y-61276986D01*
X125151024Y-61296862D01*
X125203138Y-61348976D01*
X125266963Y-61385825D01*
X125310190Y-61397408D01*
X125340428Y-61420610D01*
X125347100Y-61445510D01*
X125347100Y-63310112D01*
X125332514Y-63345326D01*
X125297300Y-63359912D01*
X125272401Y-63353241D01*
X125248040Y-63339177D01*
X125248037Y-63339175D01*
X125248034Y-63339174D01*
X125176850Y-63320100D01*
X125103150Y-63320100D01*
X125031965Y-63339174D01*
X125031958Y-63339177D01*
X124968138Y-63376023D01*
X124916023Y-63428138D01*
X124879177Y-63491958D01*
X124879174Y-63491965D01*
X124860100Y-63563149D01*
X123662100Y-63563149D01*
X123662100Y-63483265D01*
X123624475Y-63342847D01*
X123551790Y-63216953D01*
X123448997Y-63114160D01*
X123448996Y-63114159D01*
X123350388Y-63057228D01*
X123323103Y-63041475D01*
X123314308Y-63039118D01*
X123274410Y-63028427D01*
X123244171Y-63005223D01*
X123237500Y-62980324D01*
X123237500Y-62861574D01*
X123252086Y-62826360D01*
X123274410Y-62813472D01*
X123323103Y-62800425D01*
X123448997Y-62727740D01*
X123551790Y-62624947D01*
X123559780Y-62611106D01*
X123590017Y-62587904D01*
X123627807Y-62592878D01*
X123648917Y-62616949D01*
X123669187Y-62665886D01*
X123756964Y-62797255D01*
X123868694Y-62908985D01*
X123947301Y-62961507D01*
X124000063Y-62996762D01*
X124000064Y-62996762D01*
X124000066Y-62996764D01*
X124052632Y-63018537D01*
X124146036Y-63057226D01*
X124146043Y-63057227D01*
X124146045Y-63057228D01*
X124199072Y-63067775D01*
X124301000Y-63088050D01*
X124301004Y-63088050D01*
X124458996Y-63088050D01*
X124459000Y-63088050D01*
X124613964Y-63057226D01*
X124730230Y-63009066D01*
X124759933Y-62996764D01*
X124759933Y-62996763D01*
X124759937Y-62996762D01*
X124891309Y-62908982D01*
X125003032Y-62797259D01*
X125090812Y-62665887D01*
X125151276Y-62519914D01*
X125182100Y-62364950D01*
X125182100Y-62206950D01*
X125161825Y-62105022D01*
X125151278Y-62051995D01*
X125151277Y-62051993D01*
X125151276Y-62051986D01*
X125113502Y-61960792D01*
X125090814Y-61906016D01*
X125090812Y-61906014D01*
X125090812Y-61906013D01*
X125049483Y-61844160D01*
X125003035Y-61774644D01*
X124891305Y-61662914D01*
X124761261Y-61576023D01*
X124759937Y-61575138D01*
X124759935Y-61575137D01*
X124759933Y-61575135D01*
X124643670Y-61526978D01*
X124613964Y-61514674D01*
X124613960Y-61514673D01*
X124613954Y-61514671D01*
X124459002Y-61483850D01*
X124459000Y-61483850D01*
X124301000Y-61483850D01*
X124300997Y-61483850D01*
X124146045Y-61514671D01*
X124146037Y-61514673D01*
X124146036Y-61514674D01*
X124146032Y-61514675D01*
X124146031Y-61514676D01*
X124000066Y-61575135D01*
X124000064Y-61575137D01*
X123868694Y-61662914D01*
X123868692Y-61662917D01*
X123756967Y-61774642D01*
X123756964Y-61774644D01*
X123669187Y-61906013D01*
X123648917Y-61954950D01*
X123621965Y-61981901D01*
X123583850Y-61981901D01*
X123559780Y-61960792D01*
X123551790Y-61946953D01*
X123448996Y-61844159D01*
X123371950Y-61799677D01*
X123323103Y-61771475D01*
X123292035Y-61763150D01*
X123274410Y-61758427D01*
X123244171Y-61735223D01*
X123237500Y-61710324D01*
X123237500Y-61433673D01*
X123237607Y-61430415D01*
X123244900Y-61319182D01*
X123253585Y-61186715D01*
X123254433Y-61180269D01*
X123301770Y-60942317D01*
X123303455Y-60936032D01*
X123310247Y-60916024D01*
X123381441Y-60706302D01*
X123383932Y-60700290D01*
X123383957Y-60700240D01*
X123491237Y-60482703D01*
X123494479Y-60477086D01*
X123629277Y-60275350D01*
X123633229Y-60270200D01*
X123793198Y-60087790D01*
X123797790Y-60083198D01*
X123980200Y-59923229D01*
X123985350Y-59919277D01*
X124187086Y-59784479D01*
X124192703Y-59781237D01*
X124410295Y-59673929D01*
X124416302Y-59671441D01*
X124646036Y-59593453D01*
X124652317Y-59591770D01*
X124890269Y-59544433D01*
X124896713Y-59543585D01*
X125051801Y-59533416D01*
X125076661Y-59538240D01*
X125107102Y-59552900D01*
X125107104Y-59552900D01*
X125176896Y-59552900D01*
X125176898Y-59552900D01*
X125196263Y-59543574D01*
X125219400Y-59532432D01*
X125241008Y-59527500D01*
X138758992Y-59527500D01*
X138780600Y-59532432D01*
G37*
G04 #@! TD.AperFunction*
G04 #@! TA.AperFunction,Conductor*
G36*
X134705853Y-73387486D02*
G01*
X134720439Y-73422700D01*
X134705853Y-73457913D01*
X134467040Y-73696726D01*
X134231252Y-73932514D01*
X134196038Y-73947100D01*
X133557669Y-73947100D01*
X133522455Y-73932514D01*
X133507869Y-73897300D01*
X133514541Y-73872400D01*
X133515952Y-73869956D01*
X133534494Y-73837841D01*
X133555300Y-73760193D01*
X133555300Y-73679807D01*
X133534494Y-73602159D01*
X133494300Y-73532542D01*
X133437458Y-73475700D01*
X133437457Y-73475699D01*
X133420360Y-73465828D01*
X133397157Y-73435589D01*
X133402132Y-73397800D01*
X133432371Y-73374597D01*
X133445260Y-73372900D01*
X134670639Y-73372900D01*
X134705853Y-73387486D01*
G37*
G04 #@! TD.AperFunction*
G04 #@! TA.AperFunction,Conductor*
G36*
X125260034Y-66187486D02*
G01*
X126254634Y-67182086D01*
X126269220Y-67217300D01*
X126254634Y-67252514D01*
X126219420Y-67267100D01*
X126044698Y-67267100D01*
X126009484Y-67252514D01*
X126006059Y-67248608D01*
X125953474Y-67196023D01*
X125889654Y-67159177D01*
X125889651Y-67159176D01*
X125889650Y-67159175D01*
X125889648Y-67159174D01*
X125889647Y-67159174D01*
X125818463Y-67140100D01*
X125744763Y-67140100D01*
X125673578Y-67159174D01*
X125673571Y-67159177D01*
X125609751Y-67196023D01*
X125557636Y-67248138D01*
X125520790Y-67311958D01*
X125520787Y-67311965D01*
X125501713Y-67383149D01*
X125501713Y-67456850D01*
X125520787Y-67528034D01*
X125520790Y-67528041D01*
X125556767Y-67590356D01*
X125557637Y-67591862D01*
X125609751Y-67643976D01*
X125673576Y-67680825D01*
X125744763Y-67699900D01*
X125818463Y-67699900D01*
X125889650Y-67680825D01*
X125953475Y-67643976D01*
X126005589Y-67591862D01*
X126005589Y-67591861D01*
X126007897Y-67589554D01*
X126008699Y-67590356D01*
X126038200Y-67573326D01*
X126044698Y-67572900D01*
X126336038Y-67572900D01*
X126371252Y-67587486D01*
X126532514Y-67748748D01*
X126547100Y-67783962D01*
X126547100Y-71065979D01*
X126547675Y-71067366D01*
X126551292Y-71076098D01*
X126551292Y-71076100D01*
X126557821Y-71091862D01*
X126570377Y-71122176D01*
X126865967Y-71417766D01*
X127092018Y-71643816D01*
X127106604Y-71679030D01*
X127092018Y-71714244D01*
X127069695Y-71727133D01*
X127048216Y-71732889D01*
X127030172Y-71737724D01*
X127030170Y-71737724D01*
X127030167Y-71737726D01*
X126966347Y-71774572D01*
X126914232Y-71826687D01*
X126877386Y-71890507D01*
X126877383Y-71890514D01*
X126858309Y-71961698D01*
X126858309Y-72035399D01*
X126877383Y-72106583D01*
X126877386Y-72106590D01*
X126901373Y-72148138D01*
X126914233Y-72170411D01*
X126966347Y-72222525D01*
X127030172Y-72259374D01*
X127030177Y-72259375D01*
X127031216Y-72259806D01*
X127031619Y-72260209D01*
X127032999Y-72261006D01*
X127032785Y-72261375D01*
X127058167Y-72286759D01*
X127058166Y-72324874D01*
X127037057Y-72348943D01*
X126967629Y-72389027D01*
X126910786Y-72445870D01*
X126870595Y-72515483D01*
X126870592Y-72515489D01*
X126849787Y-72593135D01*
X126849787Y-72673520D01*
X126862809Y-72722121D01*
X126870593Y-72751169D01*
X126882044Y-72771002D01*
X126907738Y-72815506D01*
X126910787Y-72820786D01*
X126967629Y-72877628D01*
X127037246Y-72917822D01*
X127114894Y-72938628D01*
X127114895Y-72938628D01*
X127195279Y-72938628D01*
X127195280Y-72938628D01*
X127272928Y-72917822D01*
X127342545Y-72877628D01*
X127399387Y-72820786D01*
X127439581Y-72751169D01*
X127460387Y-72673521D01*
X127460387Y-72593135D01*
X127439581Y-72515487D01*
X127399387Y-72445870D01*
X127342545Y-72389028D01*
X127342544Y-72389027D01*
X127293697Y-72360825D01*
X127272928Y-72348834D01*
X127264999Y-72346709D01*
X127234762Y-72323506D01*
X127229788Y-72285716D01*
X127252992Y-72255479D01*
X127288185Y-72235161D01*
X127310071Y-72222525D01*
X127362185Y-72170411D01*
X127399034Y-72106586D01*
X127418109Y-72035399D01*
X127418109Y-72022700D01*
X127432695Y-71987486D01*
X127467909Y-71972900D01*
X127514849Y-71972900D01*
X127733206Y-71972900D01*
X127768420Y-71987486D01*
X127783006Y-72022700D01*
X127776334Y-72047599D01*
X127739178Y-72111955D01*
X127739174Y-72111965D01*
X127720100Y-72183149D01*
X127720100Y-72256850D01*
X127739174Y-72328034D01*
X127739177Y-72328041D01*
X127774387Y-72389028D01*
X127776024Y-72391862D01*
X127828138Y-72443976D01*
X127891963Y-72480825D01*
X127963150Y-72499900D01*
X128036849Y-72499900D01*
X128036850Y-72499900D01*
X128067256Y-72491752D01*
X128105042Y-72496726D01*
X128128247Y-72526964D01*
X128128247Y-72552744D01*
X128120100Y-72583148D01*
X128120100Y-72656850D01*
X128139174Y-72728034D01*
X128139177Y-72728041D01*
X128172031Y-72784947D01*
X128176024Y-72791862D01*
X128228138Y-72843976D01*
X128291963Y-72880825D01*
X128363150Y-72899900D01*
X128436850Y-72899900D01*
X128508037Y-72880825D01*
X128571862Y-72843976D01*
X128623976Y-72791862D01*
X128660825Y-72728037D01*
X128679900Y-72656850D01*
X128679900Y-72583150D01*
X128671752Y-72552743D01*
X128676726Y-72514956D01*
X128706964Y-72491752D01*
X128732742Y-72491752D01*
X128763150Y-72499900D01*
X128763151Y-72499900D01*
X128836850Y-72499900D01*
X128908037Y-72480825D01*
X128971862Y-72443976D01*
X129023976Y-72391862D01*
X129060825Y-72328037D01*
X129079900Y-72256850D01*
X129079900Y-72183150D01*
X129071752Y-72152743D01*
X129076726Y-72114956D01*
X129106964Y-72091752D01*
X129132742Y-72091752D01*
X129163150Y-72099900D01*
X129163151Y-72099900D01*
X129240115Y-72099900D01*
X129240115Y-72101039D01*
X129273000Y-72109839D01*
X129277912Y-72114145D01*
X129363714Y-72199947D01*
X129378300Y-72235161D01*
X129378300Y-72904838D01*
X129363714Y-72940052D01*
X128750187Y-73553578D01*
X128714973Y-73568164D01*
X128679759Y-73553578D01*
X128665173Y-73518364D01*
X128666869Y-73505480D01*
X128679900Y-73456850D01*
X128679900Y-73383150D01*
X128678239Y-73376953D01*
X128668543Y-73340768D01*
X128660825Y-73311963D01*
X128623976Y-73248138D01*
X128571862Y-73196024D01*
X128571861Y-73196023D01*
X128508041Y-73159177D01*
X128508038Y-73159176D01*
X128508037Y-73159175D01*
X128508035Y-73159174D01*
X128508034Y-73159174D01*
X128436850Y-73140100D01*
X128363150Y-73140100D01*
X128291965Y-73159174D01*
X128291958Y-73159177D01*
X128228138Y-73196023D01*
X128173716Y-73250446D01*
X128172913Y-73249643D01*
X128143413Y-73266674D01*
X128136915Y-73267100D01*
X126783962Y-73267100D01*
X126748748Y-73252514D01*
X126182600Y-72686366D01*
X126168014Y-72651152D01*
X126168014Y-68984701D01*
X126168014Y-68984700D01*
X126144736Y-68928503D01*
X126101725Y-68885492D01*
X125068164Y-67851930D01*
X125053578Y-67816716D01*
X125061970Y-67789051D01*
X125090812Y-67745887D01*
X125151276Y-67599914D01*
X125182100Y-67444950D01*
X125182100Y-67286950D01*
X125156684Y-67159174D01*
X125151278Y-67131995D01*
X125151277Y-67131993D01*
X125151276Y-67131986D01*
X125113502Y-67040792D01*
X125090814Y-66986016D01*
X125090812Y-66986014D01*
X125090812Y-66986013D01*
X125049483Y-66924160D01*
X125003035Y-66854644D01*
X124891305Y-66742914D01*
X124784535Y-66671574D01*
X124759937Y-66655138D01*
X124759935Y-66655137D01*
X124759933Y-66655135D01*
X124643670Y-66606978D01*
X124613964Y-66594674D01*
X124613960Y-66594673D01*
X124613954Y-66594671D01*
X124459002Y-66563850D01*
X124459000Y-66563850D01*
X124301000Y-66563850D01*
X124300997Y-66563850D01*
X124146045Y-66594671D01*
X124146037Y-66594673D01*
X124146036Y-66594674D01*
X124146032Y-66594675D01*
X124146031Y-66594676D01*
X124000066Y-66655135D01*
X124000064Y-66655137D01*
X123868694Y-66742914D01*
X123868692Y-66742917D01*
X123756967Y-66854642D01*
X123756964Y-66854644D01*
X123669187Y-66986013D01*
X123648917Y-67034950D01*
X123621965Y-67061901D01*
X123583850Y-67061901D01*
X123559780Y-67040792D01*
X123551790Y-67026953D01*
X123448996Y-66924159D01*
X123371950Y-66879677D01*
X123323103Y-66851475D01*
X123314308Y-66849118D01*
X123274410Y-66838427D01*
X123244171Y-66815223D01*
X123237500Y-66790324D01*
X123237500Y-66671574D01*
X123252086Y-66636360D01*
X123274410Y-66623472D01*
X123323103Y-66610425D01*
X123448997Y-66537740D01*
X123551790Y-66434947D01*
X123624475Y-66309053D01*
X123651067Y-66209811D01*
X123674270Y-66179572D01*
X123699170Y-66172900D01*
X125224820Y-66172900D01*
X125260034Y-66187486D01*
G37*
G04 #@! TD.AperFunction*
G04 #@! TA.AperFunction,Conductor*
G36*
X123627807Y-70212878D02*
G01*
X123648917Y-70236949D01*
X123669187Y-70285886D01*
X123756964Y-70417255D01*
X123868694Y-70528985D01*
X123947222Y-70581455D01*
X124000063Y-70616762D01*
X124000064Y-70616762D01*
X124000066Y-70616764D01*
X124056406Y-70640100D01*
X124146036Y-70677226D01*
X124146043Y-70677227D01*
X124146045Y-70677228D01*
X124163526Y-70680705D01*
X124301000Y-70708050D01*
X124301004Y-70708050D01*
X124458996Y-70708050D01*
X124459000Y-70708050D01*
X124613964Y-70677226D01*
X124734979Y-70627100D01*
X124759933Y-70616764D01*
X124759933Y-70616763D01*
X124759937Y-70616762D01*
X124872016Y-70541873D01*
X124891305Y-70528985D01*
X124891308Y-70528983D01*
X125003033Y-70417258D01*
X125003035Y-70417255D01*
X125085161Y-70294345D01*
X125116852Y-70273169D01*
X125154235Y-70280605D01*
X125161782Y-70286798D01*
X125643428Y-70768443D01*
X125658014Y-70803657D01*
X125658014Y-72619116D01*
X125643428Y-72654330D01*
X125608214Y-72668916D01*
X125573000Y-72654330D01*
X125234998Y-72316328D01*
X125234997Y-72316327D01*
X125190966Y-72298089D01*
X125164017Y-72271141D01*
X125161183Y-72261796D01*
X125161099Y-72261375D01*
X125151276Y-72211986D01*
X125111085Y-72114956D01*
X125090814Y-72066016D01*
X125090812Y-72066014D01*
X125090812Y-72066013D01*
X125049483Y-72004160D01*
X125003035Y-71934644D01*
X124891305Y-71822914D01*
X124760667Y-71735626D01*
X124759937Y-71735138D01*
X124759935Y-71735137D01*
X124759933Y-71735135D01*
X124643670Y-71686978D01*
X124613964Y-71674674D01*
X124613960Y-71674673D01*
X124613954Y-71674671D01*
X124459002Y-71643850D01*
X124459000Y-71643850D01*
X124301000Y-71643850D01*
X124300997Y-71643850D01*
X124146045Y-71674671D01*
X124146037Y-71674673D01*
X124146036Y-71674674D01*
X124146032Y-71674675D01*
X124146031Y-71674676D01*
X124000066Y-71735135D01*
X124000064Y-71735137D01*
X123868694Y-71822914D01*
X123868692Y-71822917D01*
X123756967Y-71934642D01*
X123756964Y-71934644D01*
X123669187Y-72066013D01*
X123648917Y-72114950D01*
X123621965Y-72141901D01*
X123583850Y-72141901D01*
X123559780Y-72120792D01*
X123551790Y-72106953D01*
X123448996Y-72004159D01*
X123358322Y-71951809D01*
X123323103Y-71931475D01*
X123310650Y-71928138D01*
X123274410Y-71918427D01*
X123244171Y-71895223D01*
X123237500Y-71870324D01*
X123237500Y-71751574D01*
X123252086Y-71716360D01*
X123274410Y-71703472D01*
X123323103Y-71690425D01*
X123448997Y-71617740D01*
X123551790Y-71514947D01*
X123624475Y-71389053D01*
X123662100Y-71248635D01*
X123662100Y-71103265D01*
X123624475Y-70962847D01*
X123551790Y-70836953D01*
X123448997Y-70734160D01*
X123448996Y-70734159D01*
X123364502Y-70685377D01*
X123323103Y-70661475D01*
X123307907Y-70657403D01*
X123274410Y-70648427D01*
X123244171Y-70625223D01*
X123237500Y-70600324D01*
X123237500Y-70481574D01*
X123252086Y-70446360D01*
X123274410Y-70433472D01*
X123323103Y-70420425D01*
X123448997Y-70347740D01*
X123551790Y-70244947D01*
X123559780Y-70231106D01*
X123590017Y-70207904D01*
X123627807Y-70212878D01*
G37*
G04 #@! TD.AperFunction*
G04 #@! TA.AperFunction,Conductor*
G36*
X140590000Y-64786454D02*
G01*
X140590000Y-64865446D01*
X140606533Y-64927150D01*
X140032876Y-64927150D01*
X140045000Y-64881902D01*
X140045000Y-64769998D01*
X140032876Y-64724750D01*
X140606533Y-64724750D01*
X140590000Y-64786454D01*
G37*
G04 #@! TD.AperFunction*
G04 #@! TD*
M02*
