M48
; DRILL file {KiCad 9.0.3} date 2026-01-29T22:49:22+0900
; FORMAT={-:-/ absolute / metric / decimal}
; #@! TF.CreationDate,2026-01-29T22:49:22+09:00
; #@! TF.GenerationSoftware,Kicad,Pcbnew,9.0.3
; #@! TF.FileFunction,Plated,1,6,PTH
FMAT,2
METRIC
; #@! TA.AperFunction,Plated,PTH,ViaDrill
T1C0.203
; #@! TA.AperFunction,Plated,PTH,ViaDrill
T2C0.250
; #@! TA.AperFunction,Plated,PTH,ComponentDrill
T3C0.600
; #@! TA.AperFunction,Plated,PTH,ComponentDrill
T4C0.850
%
G90
G05
T1
X124.3Y-79.0
X124.58Y-76.26
X124.62Y-73.84
X124.8Y-71.33
X125.14Y-63.6
X125.22Y-73.193
X125.3Y-69.5
X125.375Y-61.125
X125.776Y-67.903
X125.782Y-67.42
X125.8Y-64.8
X125.879Y-74.871
X125.9Y-76.4
X125.956Y-73.802
X126.22Y-61.14
X126.62Y-75.7
X126.62Y-76.34
X127.1Y-75.12
X127.138Y-71.999
X127.155Y-72.633
X127.5Y-77.0
X127.6Y-75.12
X127.935Y-71.06
X128.0Y-72.22
X128.0Y-73.02
X128.0Y-73.82
X128.0Y-79.0
X128.1Y-75.12
X128.309Y-70.796
X128.4Y-71.82
X128.4Y-72.62
X128.4Y-73.42
X128.6Y-75.986
X128.8Y-70.92
X128.8Y-72.22
X128.8Y-74.22
X128.82Y-70.32
X129.2Y-71.82
X129.2Y-72.62
X129.2Y-73.82
X129.2Y-76.72
X129.24Y-78.7
X129.264Y-75.096
X129.362Y-70.803
X129.5Y-77.676
X129.6Y-73.42
X129.6Y-74.22
X129.68Y-75.781
X129.773Y-75.096
X129.899Y-67.219
X130.0Y-71.82
X130.0Y-73.02
X130.0Y-73.82
X130.0Y-76.92
X130.2Y-68.62
X130.2Y-69.62
X130.4Y-72.22
X130.7Y-67.8
X130.7Y-68.62
X130.74Y-69.4
X130.76Y-78.4
X130.77Y-73.034
X130.828Y-73.934
X131.042Y-73.46
X131.22Y-74.265
X131.22Y-76.964
X131.345Y-67.32
X131.5Y-72.1
X131.5Y-73.1
X132.0Y-73.72
X132.0Y-74.32
X132.2Y-71.42
X132.2Y-72.12
X132.26Y-77.28
X132.5Y-70.78
X132.6Y-73.72
X132.72Y-76.74
X132.755Y-67.32
X132.8Y-67.86
X132.9Y-71.42
X132.9Y-72.12
X133.003Y-69.98
X133.25Y-73.72
X133.38Y-67.28
X133.421Y-69.35
X133.6Y-71.42
X133.6Y-72.02
X133.9Y-70.12
X133.92Y-70.82
X134.12Y-73.744
X134.3Y-71.72
X134.56Y-68.94
X134.56Y-69.46
X134.6Y-68.39
X134.74Y-76.72
X134.76Y-78.7
X135.0Y-74.52
X135.08Y-73.82
X135.34Y-69.52
X135.362Y-70.965
X135.6Y-74.82
X135.975Y-68.82
X136.0Y-74.19
X136.0Y-79.0
X136.2Y-72.32
X136.2Y-74.82
X136.225Y-75.327
X136.7Y-71.22
X137.24Y-71.26
X137.7Y-61.8
X138.014Y-74.264
X138.2Y-67.7
X138.2Y-68.4
X138.2Y-69.1
X138.2Y-69.8
X138.2Y-70.44
X138.2Y-72.08
X138.46Y-77.12
X138.8Y-70.9
X139.0Y-60.4
X139.4Y-79.0
T2
X131.28Y-64.33
X131.77Y-63.9
X132.27Y-64.33
X132.77Y-63.9
T3
X123.11Y-62.286
X123.11Y-63.556
X123.11Y-64.826
X123.11Y-66.096
X123.11Y-67.366
X123.11Y-68.636
X123.11Y-69.906
X123.11Y-71.176
X123.11Y-72.446
X123.11Y-73.716
X123.11Y-74.986
X123.11Y-76.256
X123.11Y-77.526
X140.89Y-62.286
X140.89Y-64.826
X140.89Y-67.366
X140.89Y-69.906
X140.89Y-71.176
X140.89Y-72.446
X140.89Y-73.716
X140.89Y-74.986
X140.89Y-76.256
X140.89Y-77.526
T4
X124.38Y-62.286
X124.38Y-64.826
X124.38Y-67.366
X124.38Y-69.906
X124.38Y-72.446
X124.38Y-74.986
X124.38Y-77.526
X139.62Y-62.286
X139.62Y-64.826
X139.62Y-67.366
X139.62Y-69.906
X139.62Y-72.446
X139.62Y-74.986
X139.62Y-77.526
T3
G00X127.71Y-61.25
M15
G01X127.71Y-60.45
M16
G05
G00X127.71Y-65.58
M15
G01X127.71Y-64.48
M16
G05
G00X136.35Y-61.25
M15
G01X136.35Y-60.45
M16
G05
G00X136.35Y-65.58
M15
G01X136.35Y-64.48
M16
G05
M30
