%TF.GenerationSoftware,KiCad,Pcbnew,9.0.3*%
%TF.CreationDate,2026-01-29T22:49:22+09:00*%
%TF.ProjectId,xiaobao,7869616f-6261-46f2-9e6b-696361645f70,rev?*%
%TF.SameCoordinates,Original*%
%TF.FileFunction,Drillmap*%
%TF.FilePolarity,Positive*%
%FSLAX45Y45*%
G04 Gerber Fmt 4.5, Leading zero omitted, Abs format (unit mm)*
G04 Created by KiCad (PCBNEW 9.0.3) date 2026-01-29 22:49:22*
%MOMM*%
%LPD*%
G01*
G04 APERTURE LIST*
%ADD10C,0.025400*%
%ADD11C,0.200000*%
%ADD12C,0.100000*%
G04 APERTURE END LIST*
D10*
X13885795Y-5940000D02*
G75*
G02*
X14089000Y-6143200I5J-203200D01*
G01*
X13885800Y-5937460D02*
G75*
G02*
X13885800Y-5942540I0J-2540D01*
G01*
X12514200Y-5942540D02*
G75*
G02*
X12514200Y-5937460I0J2540D01*
G01*
X13885800Y-5942540D02*
G75*
G02*
X13885800Y-5937460I0J2540D01*
G01*
X12524367Y-8050160D02*
G75*
G02*
X12311000Y-7846949I-5087J208280D01*
G01*
X14089000Y-7836801D02*
G75*
G02*
X13885797Y-8050160I-208280J-5079D01*
G01*
X12524367Y-8050160D02*
X13885797Y-8050160D01*
X12514200Y-5937460D02*
G75*
G02*
X12514200Y-5942540I0J-2540D01*
G01*
X13885795Y-5940000D02*
X12514205Y-5940000D01*
X12311000Y-6143205D02*
X12311000Y-7846949D01*
X14089000Y-7836801D02*
X14089000Y-6143200D01*
X12311000Y-6143205D02*
G75*
G02*
X12514205Y-5940000I203210J-5D01*
G01*
D11*
D12*
X12419840Y-7889840D02*
X12440160Y-7910160D01*
X12440160Y-7889840D02*
X12419840Y-7910160D01*
X12447840Y-7615840D02*
X12468160Y-7636160D01*
X12468160Y-7615840D02*
X12447840Y-7636160D01*
X12451840Y-7373840D02*
X12472160Y-7394160D01*
X12472160Y-7373840D02*
X12451840Y-7394160D01*
X12469840Y-7122860D02*
X12490160Y-7143180D01*
X12490160Y-7122860D02*
X12469840Y-7143180D01*
X12503840Y-6349840D02*
X12524160Y-6370160D01*
X12524160Y-6349840D02*
X12503840Y-6370160D01*
X12511810Y-7309143D02*
X12532130Y-7329463D01*
X12532130Y-7309143D02*
X12511810Y-7329463D01*
X12519840Y-6939840D02*
X12540160Y-6960160D01*
X12540160Y-6939840D02*
X12519840Y-6960160D01*
X12527340Y-6102340D02*
X12547660Y-6122660D01*
X12547660Y-6102340D02*
X12527340Y-6122660D01*
X12567397Y-6780096D02*
X12587717Y-6800416D01*
X12587717Y-6780096D02*
X12567397Y-6800416D01*
X12568001Y-6731840D02*
X12588321Y-6752160D01*
X12588321Y-6731840D02*
X12568001Y-6752160D01*
X12569840Y-6469840D02*
X12590160Y-6490160D01*
X12590160Y-6469840D02*
X12569840Y-6490160D01*
X12577776Y-7476904D02*
X12598096Y-7497224D01*
X12598096Y-7476904D02*
X12577776Y-7497224D01*
X12579840Y-7629840D02*
X12600160Y-7650160D01*
X12600160Y-7629840D02*
X12579840Y-7650160D01*
X12585400Y-7370072D02*
X12605720Y-7390392D01*
X12605720Y-7370072D02*
X12585400Y-7390392D01*
X12611840Y-6103840D02*
X12632160Y-6124160D01*
X12632160Y-6103840D02*
X12611840Y-6124160D01*
X12651840Y-7559840D02*
X12672160Y-7580160D01*
X12672160Y-7559840D02*
X12651840Y-7580160D01*
X12651840Y-7623840D02*
X12672160Y-7644160D01*
X12672160Y-7623840D02*
X12651840Y-7644160D01*
X12699840Y-7501840D02*
X12720160Y-7522160D01*
X12720160Y-7501840D02*
X12699840Y-7522160D01*
X12703661Y-7189695D02*
X12723981Y-7210015D01*
X12723981Y-7189695D02*
X12703661Y-7210015D01*
X12705349Y-7253173D02*
X12725669Y-7273493D01*
X12725669Y-7253173D02*
X12705349Y-7273493D01*
X12739840Y-7689840D02*
X12760160Y-7710160D01*
X12760160Y-7689840D02*
X12739840Y-7710160D01*
X12749840Y-7501840D02*
X12770160Y-7522160D01*
X12770160Y-7501840D02*
X12749840Y-7522160D01*
X12783387Y-7095879D02*
X12803707Y-7116199D01*
X12803707Y-7095879D02*
X12783387Y-7116199D01*
X12789840Y-7211840D02*
X12810160Y-7232160D01*
X12810160Y-7211840D02*
X12789840Y-7232160D01*
X12789840Y-7291840D02*
X12810160Y-7312160D01*
X12810160Y-7291840D02*
X12789840Y-7312160D01*
X12789840Y-7371840D02*
X12810160Y-7392160D01*
X12810160Y-7371840D02*
X12789840Y-7392160D01*
X12789840Y-7889840D02*
X12810160Y-7910160D01*
X12810160Y-7889840D02*
X12789840Y-7910160D01*
X12799840Y-7501840D02*
X12820160Y-7522160D01*
X12820160Y-7501840D02*
X12799840Y-7522160D01*
X12820701Y-7069460D02*
X12841021Y-7089780D01*
X12841021Y-7069460D02*
X12820701Y-7089780D01*
X12829840Y-7171840D02*
X12850160Y-7192160D01*
X12850160Y-7171840D02*
X12829840Y-7192160D01*
X12829840Y-7251840D02*
X12850160Y-7272160D01*
X12850160Y-7251840D02*
X12829840Y-7272160D01*
X12829840Y-7331840D02*
X12850160Y-7352160D01*
X12850160Y-7331840D02*
X12829840Y-7352160D01*
X12849840Y-7588400D02*
X12870160Y-7608720D01*
X12870160Y-7588400D02*
X12849840Y-7608720D01*
X12869840Y-7081840D02*
X12890160Y-7102160D01*
X12890160Y-7081840D02*
X12869840Y-7102160D01*
X12869840Y-7211840D02*
X12890160Y-7232160D01*
X12890160Y-7211840D02*
X12869840Y-7232160D01*
X12869840Y-7411840D02*
X12890160Y-7432160D01*
X12890160Y-7411840D02*
X12869840Y-7432160D01*
X12871840Y-7021840D02*
X12892160Y-7042160D01*
X12892160Y-7021840D02*
X12871840Y-7042160D01*
X12909840Y-7171840D02*
X12930160Y-7192160D01*
X12930160Y-7171840D02*
X12909840Y-7192160D01*
X12909840Y-7251840D02*
X12930160Y-7272160D01*
X12930160Y-7251840D02*
X12909840Y-7272160D01*
X12909840Y-7371840D02*
X12930160Y-7392160D01*
X12930160Y-7371840D02*
X12909840Y-7392160D01*
X12909840Y-7661840D02*
X12930160Y-7682160D01*
X12930160Y-7661840D02*
X12909840Y-7682160D01*
X12913840Y-7859840D02*
X12934160Y-7880160D01*
X12934160Y-7859840D02*
X12913840Y-7880160D01*
X12916240Y-7499400D02*
X12936560Y-7519720D01*
X12936560Y-7499400D02*
X12916240Y-7519720D01*
X12926038Y-7070168D02*
X12946358Y-7090488D01*
X12946358Y-7070168D02*
X12926038Y-7090488D01*
X12939840Y-7757400D02*
X12960160Y-7777720D01*
X12960160Y-7757400D02*
X12939840Y-7777720D01*
X12949840Y-7331840D02*
X12970160Y-7352160D01*
X12970160Y-7331840D02*
X12949840Y-7352160D01*
X12949840Y-7411840D02*
X12970160Y-7432160D01*
X12970160Y-7411840D02*
X12949840Y-7432160D01*
X12957840Y-7567980D02*
X12978160Y-7588300D01*
X12978160Y-7567980D02*
X12957840Y-7588300D01*
X12967111Y-7499400D02*
X12987431Y-7519720D01*
X12987431Y-7499400D02*
X12967111Y-7519720D01*
X12979740Y-6711790D02*
X13000060Y-6732110D01*
X13000060Y-6711790D02*
X12979740Y-6732110D01*
X12989840Y-7171840D02*
X13010160Y-7192160D01*
X13010160Y-7171840D02*
X12989840Y-7192160D01*
X12989840Y-7291840D02*
X13010160Y-7312160D01*
X13010160Y-7291840D02*
X12989840Y-7312160D01*
X12989840Y-7371840D02*
X13010160Y-7392160D01*
X13010160Y-7371840D02*
X12989840Y-7392160D01*
X12989840Y-7681840D02*
X13010160Y-7702160D01*
X13010160Y-7681840D02*
X12989840Y-7702160D01*
X13009840Y-6851840D02*
X13030160Y-6872160D01*
X13030160Y-6851840D02*
X13009840Y-6872160D01*
X13009840Y-6951840D02*
X13030160Y-6972160D01*
X13030160Y-6951840D02*
X13009840Y-6972160D01*
X13029840Y-7211840D02*
X13050160Y-7232160D01*
X13050160Y-7211840D02*
X13029840Y-7232160D01*
X13059840Y-6769840D02*
X13080160Y-6790160D01*
X13080160Y-6769840D02*
X13059840Y-6790160D01*
X13059840Y-6851840D02*
X13080160Y-6872160D01*
X13080160Y-6851840D02*
X13059840Y-6872160D01*
X13063840Y-6929840D02*
X13084160Y-6950160D01*
X13084160Y-6929840D02*
X13063840Y-6950160D01*
X13065840Y-7829840D02*
X13086160Y-7850160D01*
X13086160Y-7829840D02*
X13065840Y-7850160D01*
X13066860Y-7293220D02*
X13087180Y-7313540D01*
X13087180Y-7293220D02*
X13066860Y-7313540D01*
X13072666Y-7383280D02*
X13092986Y-7403600D01*
X13092986Y-7383280D02*
X13072666Y-7403600D01*
X13094044Y-7335807D02*
X13114364Y-7356127D01*
X13114364Y-7335807D02*
X13094044Y-7356127D01*
X13111840Y-7416300D02*
X13132160Y-7436620D01*
X13132160Y-7416300D02*
X13111840Y-7436620D01*
X13111840Y-7686280D02*
X13132160Y-7706600D01*
X13132160Y-7686280D02*
X13111840Y-7706600D01*
X13124370Y-6721840D02*
X13144690Y-6742160D01*
X13144690Y-6721840D02*
X13124370Y-6742160D01*
X13139840Y-7199840D02*
X13160160Y-7220160D01*
X13160160Y-7199840D02*
X13139840Y-7220160D01*
X13139840Y-7299840D02*
X13160160Y-7320160D01*
X13160160Y-7299840D02*
X13139840Y-7320160D01*
X13189840Y-7361840D02*
X13210160Y-7382160D01*
X13210160Y-7361840D02*
X13189840Y-7382160D01*
X13189840Y-7421840D02*
X13210160Y-7442160D01*
X13210160Y-7421840D02*
X13189840Y-7442160D01*
X13209840Y-7131840D02*
X13230160Y-7152160D01*
X13230160Y-7131840D02*
X13209840Y-7152160D01*
X13209840Y-7201840D02*
X13230160Y-7222160D01*
X13230160Y-7201840D02*
X13209840Y-7222160D01*
X13215840Y-7717840D02*
X13236160Y-7738160D01*
X13236160Y-7717840D02*
X13215840Y-7738160D01*
X13239840Y-7067840D02*
X13260160Y-7088160D01*
X13260160Y-7067840D02*
X13239840Y-7088160D01*
X13249840Y-7361840D02*
X13270160Y-7382160D01*
X13270160Y-7361840D02*
X13249840Y-7382160D01*
X13261840Y-7663840D02*
X13282160Y-7684160D01*
X13282160Y-7663840D02*
X13261840Y-7684160D01*
X13265310Y-6721840D02*
X13285630Y-6742160D01*
X13285630Y-6721840D02*
X13265310Y-6742160D01*
X13269840Y-6775840D02*
X13290160Y-6796160D01*
X13290160Y-6775840D02*
X13269840Y-6796160D01*
X13279840Y-7131840D02*
X13300160Y-7152160D01*
X13300160Y-7131840D02*
X13279840Y-7152160D01*
X13279840Y-7201840D02*
X13300160Y-7222160D01*
X13300160Y-7201840D02*
X13279840Y-7222160D01*
X13290095Y-6987820D02*
X13310415Y-7008140D01*
X13310415Y-6987820D02*
X13290095Y-7008140D01*
X13314840Y-7361840D02*
X13335160Y-7382160D01*
X13335160Y-7361840D02*
X13314840Y-7382160D01*
X13327840Y-6717840D02*
X13348160Y-6738160D01*
X13348160Y-6717840D02*
X13327840Y-6738160D01*
X13331900Y-6924830D02*
X13352220Y-6945150D01*
X13352220Y-6924830D02*
X13331900Y-6945150D01*
X13349840Y-7131840D02*
X13370160Y-7152160D01*
X13370160Y-7131840D02*
X13349840Y-7152160D01*
X13349840Y-7191840D02*
X13370160Y-7212160D01*
X13370160Y-7191840D02*
X13349840Y-7212160D01*
X13379840Y-7001840D02*
X13400160Y-7022160D01*
X13400160Y-7001840D02*
X13379840Y-7022160D01*
X13381840Y-7071840D02*
X13402160Y-7092160D01*
X13402160Y-7071840D02*
X13381840Y-7092160D01*
X13401840Y-7364280D02*
X13422160Y-7384600D01*
X13422160Y-7364280D02*
X13401840Y-7384600D01*
X13419840Y-7161840D02*
X13440160Y-7182160D01*
X13440160Y-7161840D02*
X13419840Y-7182160D01*
X13445840Y-6883840D02*
X13466160Y-6904160D01*
X13466160Y-6883840D02*
X13445840Y-6904160D01*
X13445840Y-6935840D02*
X13466160Y-6956160D01*
X13466160Y-6935840D02*
X13445840Y-6956160D01*
X13449840Y-6828840D02*
X13470160Y-6849160D01*
X13470160Y-6828840D02*
X13449840Y-6849160D01*
X13463840Y-7661840D02*
X13484160Y-7682160D01*
X13484160Y-7661840D02*
X13463840Y-7682160D01*
X13465840Y-7859840D02*
X13486160Y-7880160D01*
X13486160Y-7859840D02*
X13465840Y-7880160D01*
X13489840Y-7441840D02*
X13510160Y-7462160D01*
X13510160Y-7441840D02*
X13489840Y-7462160D01*
X13497840Y-7371840D02*
X13518160Y-7392160D01*
X13518160Y-7371840D02*
X13497840Y-7392160D01*
X13523840Y-6941840D02*
X13544160Y-6962160D01*
X13544160Y-6941840D02*
X13523840Y-6962160D01*
X13526033Y-7086360D02*
X13546353Y-7106680D01*
X13546353Y-7086360D02*
X13526033Y-7106680D01*
X13549840Y-7471840D02*
X13570160Y-7492160D01*
X13570160Y-7471840D02*
X13549840Y-7492160D01*
X13587340Y-6871840D02*
X13607660Y-6892160D01*
X13607660Y-6871840D02*
X13587340Y-6892160D01*
X13589840Y-7408840D02*
X13610160Y-7429160D01*
X13610160Y-7408840D02*
X13589840Y-7429160D01*
X13589840Y-7889840D02*
X13610160Y-7910160D01*
X13610160Y-7889840D02*
X13589840Y-7910160D01*
X13609840Y-7221840D02*
X13630160Y-7242160D01*
X13630160Y-7221840D02*
X13609840Y-7242160D01*
X13609840Y-7471840D02*
X13630160Y-7492160D01*
X13630160Y-7471840D02*
X13609840Y-7492160D01*
X13612377Y-7522577D02*
X13632697Y-7542897D01*
X13632697Y-7522577D02*
X13612377Y-7542897D01*
X13659840Y-7111840D02*
X13680160Y-7132160D01*
X13680160Y-7111840D02*
X13659840Y-7132160D01*
X13713840Y-7115840D02*
X13734160Y-7136160D01*
X13734160Y-7115840D02*
X13713840Y-7136160D01*
X13759840Y-6169840D02*
X13780160Y-6190160D01*
X13780160Y-6169840D02*
X13759840Y-6190160D01*
X13791230Y-7416287D02*
X13811550Y-7436607D01*
X13811550Y-7416287D02*
X13791230Y-7436607D01*
X13809840Y-6759840D02*
X13830160Y-6780160D01*
X13830160Y-6759840D02*
X13809840Y-6780160D01*
X13809840Y-6829840D02*
X13830160Y-6850160D01*
X13830160Y-6829840D02*
X13809840Y-6850160D01*
X13809840Y-6899840D02*
X13830160Y-6920160D01*
X13830160Y-6899840D02*
X13809840Y-6920160D01*
X13809840Y-6969840D02*
X13830160Y-6990160D01*
X13830160Y-6969840D02*
X13809840Y-6990160D01*
X13809840Y-7033840D02*
X13830160Y-7054160D01*
X13830160Y-7033840D02*
X13809840Y-7054160D01*
X13809860Y-7197840D02*
X13830180Y-7218160D01*
X13830180Y-7197840D02*
X13809860Y-7218160D01*
X13835840Y-7701840D02*
X13856160Y-7722160D01*
X13856160Y-7701840D02*
X13835840Y-7722160D01*
X13869840Y-7079840D02*
X13890160Y-7100160D01*
X13890160Y-7079840D02*
X13869840Y-7100160D01*
X13889840Y-6029840D02*
X13910160Y-6050160D01*
X13910160Y-6029840D02*
X13889840Y-6050160D01*
X13929840Y-7889840D02*
X13950160Y-7910160D01*
X13950160Y-7889840D02*
X13929840Y-7910160D01*
X13140500Y-6433000D02*
G75*
G02*
X13115500Y-6433000I-12500J0D01*
G01*
X13115500Y-6433000D02*
G75*
G02*
X13140500Y-6433000I12500J0D01*
G01*
X13189500Y-6390000D02*
G75*
G02*
X13164500Y-6390000I-12500J0D01*
G01*
X13164500Y-6390000D02*
G75*
G02*
X13189500Y-6390000I12500J0D01*
G01*
X13239500Y-6433000D02*
G75*
G02*
X13214500Y-6433000I-12500J0D01*
G01*
X13214500Y-6433000D02*
G75*
G02*
X13239500Y-6433000I12500J0D01*
G01*
X13289500Y-6390000D02*
G75*
G02*
X13264500Y-6390000I-12500J0D01*
G01*
X13264500Y-6390000D02*
G75*
G02*
X13289500Y-6390000I12500J0D01*
G01*
X12311000Y-6198595D02*
X12311000Y-6258595D01*
X12281000Y-6228595D02*
X12341000Y-6228595D01*
X12311000Y-6325595D02*
X12311000Y-6385595D01*
X12281000Y-6355595D02*
X12341000Y-6355595D01*
X12311000Y-6452595D02*
X12311000Y-6512595D01*
X12281000Y-6482595D02*
X12341000Y-6482595D01*
X12311000Y-6579595D02*
X12311000Y-6639595D01*
X12281000Y-6609595D02*
X12341000Y-6609595D01*
X12311000Y-6706595D02*
X12311000Y-6766595D01*
X12281000Y-6736595D02*
X12341000Y-6736595D01*
X12311000Y-6833595D02*
X12311000Y-6893595D01*
X12281000Y-6863595D02*
X12341000Y-6863595D01*
X12311000Y-6960595D02*
X12311000Y-7020595D01*
X12281000Y-6990595D02*
X12341000Y-6990595D01*
X12311000Y-7087595D02*
X12311000Y-7147595D01*
X12281000Y-7117595D02*
X12341000Y-7117595D01*
X12311000Y-7214595D02*
X12311000Y-7274595D01*
X12281000Y-7244595D02*
X12341000Y-7244595D01*
X12311000Y-7341595D02*
X12311000Y-7401595D01*
X12281000Y-7371595D02*
X12341000Y-7371595D01*
X12311000Y-7468595D02*
X12311000Y-7528595D01*
X12281000Y-7498595D02*
X12341000Y-7498595D01*
X12311000Y-7595595D02*
X12311000Y-7655595D01*
X12281000Y-7625595D02*
X12341000Y-7625595D01*
X12311000Y-7722595D02*
X12311000Y-7782595D01*
X12281000Y-7752595D02*
X12341000Y-7752595D01*
X12771000Y-6055000D02*
X12771000Y-6115000D01*
X12741000Y-6085000D02*
X12801000Y-6085000D01*
X12801000Y-6125000D02*
X12801000Y-6045000D01*
X12741000Y-6045000D02*
G75*
G02*
X12801000Y-6045000I30000J0D01*
G01*
X12741000Y-6045000D02*
X12741000Y-6125000D01*
X12741000Y-6125000D02*
G75*
G03*
X12801000Y-6125000I30000J0D01*
G01*
X12771000Y-6473000D02*
X12771000Y-6533000D01*
X12741000Y-6503000D02*
X12801000Y-6503000D01*
X12801000Y-6558000D02*
X12801000Y-6448000D01*
X12741000Y-6448000D02*
G75*
G02*
X12801000Y-6448000I30000J0D01*
G01*
X12741000Y-6448000D02*
X12741000Y-6558000D01*
X12741000Y-6558000D02*
G75*
G03*
X12801000Y-6558000I30000J0D01*
G01*
X13635000Y-6055000D02*
X13635000Y-6115000D01*
X13605000Y-6085000D02*
X13665000Y-6085000D01*
X13665000Y-6125000D02*
X13665000Y-6045000D01*
X13605000Y-6045000D02*
G75*
G02*
X13665000Y-6045000I30000J0D01*
G01*
X13605000Y-6045000D02*
X13605000Y-6125000D01*
X13605000Y-6125000D02*
G75*
G03*
X13665000Y-6125000I30000J0D01*
G01*
X13635000Y-6473000D02*
X13635000Y-6533000D01*
X13605000Y-6503000D02*
X13665000Y-6503000D01*
X13665000Y-6558000D02*
X13665000Y-6448000D01*
X13605000Y-6448000D02*
G75*
G02*
X13665000Y-6448000I30000J0D01*
G01*
X13605000Y-6448000D02*
X13605000Y-6558000D01*
X13605000Y-6558000D02*
G75*
G03*
X13665000Y-6558000I30000J0D01*
G01*
X14089000Y-6198595D02*
X14089000Y-6258595D01*
X14059000Y-6228595D02*
X14119000Y-6228595D01*
X14089000Y-6452595D02*
X14089000Y-6512595D01*
X14059000Y-6482595D02*
X14119000Y-6482595D01*
X14089000Y-6706595D02*
X14089000Y-6766595D01*
X14059000Y-6736595D02*
X14119000Y-6736595D01*
X14089000Y-6960595D02*
X14089000Y-7020595D01*
X14059000Y-6990595D02*
X14119000Y-6990595D01*
X14089000Y-7087595D02*
X14089000Y-7147595D01*
X14059000Y-7117595D02*
X14119000Y-7117595D01*
X14089000Y-7214595D02*
X14089000Y-7274595D01*
X14059000Y-7244595D02*
X14119000Y-7244595D01*
X14089000Y-7341595D02*
X14089000Y-7401595D01*
X14059000Y-7371595D02*
X14119000Y-7371595D01*
X14089000Y-7468595D02*
X14089000Y-7528595D01*
X14059000Y-7498595D02*
X14119000Y-7498595D01*
X14089000Y-7595595D02*
X14089000Y-7655595D01*
X14059000Y-7625595D02*
X14119000Y-7625595D01*
X14089000Y-7722595D02*
X14089000Y-7782595D01*
X14059000Y-7752595D02*
X14119000Y-7752595D01*
X12468052Y-6258647D02*
X12468052Y-6198543D01*
X12407948Y-6198543D01*
X12407948Y-6258647D01*
X12468052Y-6258647D01*
X12468052Y-6512647D02*
X12468052Y-6452543D01*
X12407948Y-6452543D01*
X12407948Y-6512647D01*
X12468052Y-6512647D01*
X12468052Y-6766647D02*
X12468052Y-6706543D01*
X12407948Y-6706543D01*
X12407948Y-6766647D01*
X12468052Y-6766647D01*
X12468052Y-7020647D02*
X12468052Y-6960543D01*
X12407948Y-6960543D01*
X12407948Y-7020647D01*
X12468052Y-7020647D01*
X12468052Y-7274647D02*
X12468052Y-7214543D01*
X12407948Y-7214543D01*
X12407948Y-7274647D01*
X12468052Y-7274647D01*
X12468052Y-7528647D02*
X12468052Y-7468543D01*
X12407948Y-7468543D01*
X12407948Y-7528647D01*
X12468052Y-7528647D01*
X12468052Y-7782647D02*
X12468052Y-7722543D01*
X12407948Y-7722543D01*
X12407948Y-7782647D01*
X12468052Y-7782647D01*
X13992052Y-6258647D02*
X13992052Y-6198543D01*
X13931948Y-6198543D01*
X13931948Y-6258647D01*
X13992052Y-6258647D01*
X13992052Y-6512647D02*
X13992052Y-6452543D01*
X13931948Y-6452543D01*
X13931948Y-6512647D01*
X13992052Y-6512647D01*
X13992052Y-6766647D02*
X13992052Y-6706543D01*
X13931948Y-6706543D01*
X13931948Y-6766647D01*
X13992052Y-6766647D01*
X13992052Y-7020647D02*
X13992052Y-6960543D01*
X13931948Y-6960543D01*
X13931948Y-7020647D01*
X13992052Y-7020647D01*
X13992052Y-7274647D02*
X13992052Y-7214543D01*
X13931948Y-7214543D01*
X13931948Y-7274647D01*
X13992052Y-7274647D01*
X13992052Y-7528647D02*
X13992052Y-7468543D01*
X13931948Y-7468543D01*
X13931948Y-7528647D01*
X13992052Y-7528647D01*
X13992052Y-7782647D02*
X13992052Y-7722543D01*
X13931948Y-7722543D01*
X13931948Y-7782647D01*
X13992052Y-7782647D01*
D11*
X12570507Y-8362976D02*
X12570507Y-8162976D01*
X12570507Y-8162976D02*
X12618126Y-8162976D01*
X12618126Y-8162976D02*
X12646697Y-8172500D01*
X12646697Y-8172500D02*
X12665745Y-8191547D01*
X12665745Y-8191547D02*
X12675269Y-8210595D01*
X12675269Y-8210595D02*
X12684792Y-8248690D01*
X12684792Y-8248690D02*
X12684792Y-8277262D01*
X12684792Y-8277262D02*
X12675269Y-8315357D01*
X12675269Y-8315357D02*
X12665745Y-8334404D01*
X12665745Y-8334404D02*
X12646697Y-8353452D01*
X12646697Y-8353452D02*
X12618126Y-8362976D01*
X12618126Y-8362976D02*
X12570507Y-8362976D01*
X12770507Y-8362976D02*
X12770507Y-8229642D01*
X12770507Y-8267738D02*
X12780031Y-8248690D01*
X12780031Y-8248690D02*
X12789554Y-8239166D01*
X12789554Y-8239166D02*
X12808602Y-8229642D01*
X12808602Y-8229642D02*
X12827650Y-8229642D01*
X12894316Y-8362976D02*
X12894316Y-8229642D01*
X12894316Y-8162976D02*
X12884792Y-8172500D01*
X12884792Y-8172500D02*
X12894316Y-8182023D01*
X12894316Y-8182023D02*
X12903840Y-8172500D01*
X12903840Y-8172500D02*
X12894316Y-8162976D01*
X12894316Y-8162976D02*
X12894316Y-8182023D01*
X13018126Y-8362976D02*
X12999078Y-8353452D01*
X12999078Y-8353452D02*
X12989554Y-8334404D01*
X12989554Y-8334404D02*
X12989554Y-8162976D01*
X13122888Y-8362976D02*
X13103840Y-8353452D01*
X13103840Y-8353452D02*
X13094316Y-8334404D01*
X13094316Y-8334404D02*
X13094316Y-8162976D01*
X13351459Y-8362976D02*
X13351459Y-8162976D01*
X13351459Y-8162976D02*
X13418126Y-8305833D01*
X13418126Y-8305833D02*
X13484792Y-8162976D01*
X13484792Y-8162976D02*
X13484792Y-8362976D01*
X13665745Y-8362976D02*
X13665745Y-8258214D01*
X13665745Y-8258214D02*
X13656221Y-8239166D01*
X13656221Y-8239166D02*
X13637173Y-8229642D01*
X13637173Y-8229642D02*
X13599078Y-8229642D01*
X13599078Y-8229642D02*
X13580031Y-8239166D01*
X13665745Y-8353452D02*
X13646697Y-8362976D01*
X13646697Y-8362976D02*
X13599078Y-8362976D01*
X13599078Y-8362976D02*
X13580031Y-8353452D01*
X13580031Y-8353452D02*
X13570507Y-8334404D01*
X13570507Y-8334404D02*
X13570507Y-8315357D01*
X13570507Y-8315357D02*
X13580031Y-8296309D01*
X13580031Y-8296309D02*
X13599078Y-8286785D01*
X13599078Y-8286785D02*
X13646697Y-8286785D01*
X13646697Y-8286785D02*
X13665745Y-8277262D01*
X13760983Y-8229642D02*
X13760983Y-8429643D01*
X13760983Y-8239166D02*
X13780031Y-8229642D01*
X13780031Y-8229642D02*
X13818126Y-8229642D01*
X13818126Y-8229642D02*
X13837173Y-8239166D01*
X13837173Y-8239166D02*
X13846697Y-8248690D01*
X13846697Y-8248690D02*
X13856221Y-8267738D01*
X13856221Y-8267738D02*
X13856221Y-8324881D01*
X13856221Y-8324881D02*
X13846697Y-8343928D01*
X13846697Y-8343928D02*
X13837173Y-8353452D01*
X13837173Y-8353452D02*
X13818126Y-8362976D01*
X13818126Y-8362976D02*
X13780031Y-8362976D01*
X13780031Y-8362976D02*
X13760983Y-8353452D01*
X13941935Y-8343928D02*
X13951459Y-8353452D01*
X13951459Y-8353452D02*
X13941935Y-8362976D01*
X13941935Y-8362976D02*
X13932412Y-8353452D01*
X13932412Y-8353452D02*
X13941935Y-8343928D01*
X13941935Y-8343928D02*
X13941935Y-8362976D01*
X13941935Y-8239166D02*
X13951459Y-8248690D01*
X13951459Y-8248690D02*
X13941935Y-8258214D01*
X13941935Y-8258214D02*
X13932412Y-8248690D01*
X13932412Y-8248690D02*
X13941935Y-8239166D01*
X13941935Y-8239166D02*
X13941935Y-8258214D01*
D12*
X12289410Y-8681332D02*
X12309730Y-8701652D01*
X12309730Y-8681332D02*
X12289410Y-8701652D01*
D11*
X12608602Y-8582976D02*
X12627650Y-8582976D01*
X12627650Y-8582976D02*
X12646697Y-8592500D01*
X12646697Y-8592500D02*
X12656221Y-8602024D01*
X12656221Y-8602024D02*
X12665745Y-8621071D01*
X12665745Y-8621071D02*
X12675269Y-8659166D01*
X12675269Y-8659166D02*
X12675269Y-8706785D01*
X12675269Y-8706785D02*
X12665745Y-8744881D01*
X12665745Y-8744881D02*
X12656221Y-8763928D01*
X12656221Y-8763928D02*
X12646697Y-8773452D01*
X12646697Y-8773452D02*
X12627650Y-8782976D01*
X12627650Y-8782976D02*
X12608602Y-8782976D01*
X12608602Y-8782976D02*
X12589554Y-8773452D01*
X12589554Y-8773452D02*
X12580031Y-8763928D01*
X12580031Y-8763928D02*
X12570507Y-8744881D01*
X12570507Y-8744881D02*
X12560983Y-8706785D01*
X12560983Y-8706785D02*
X12560983Y-8659166D01*
X12560983Y-8659166D02*
X12570507Y-8621071D01*
X12570507Y-8621071D02*
X12580031Y-8602024D01*
X12580031Y-8602024D02*
X12589554Y-8592500D01*
X12589554Y-8592500D02*
X12608602Y-8582976D01*
X12760983Y-8763928D02*
X12770507Y-8773452D01*
X12770507Y-8773452D02*
X12760983Y-8782976D01*
X12760983Y-8782976D02*
X12751459Y-8773452D01*
X12751459Y-8773452D02*
X12760983Y-8763928D01*
X12760983Y-8763928D02*
X12760983Y-8782976D01*
X12846697Y-8602024D02*
X12856221Y-8592500D01*
X12856221Y-8592500D02*
X12875269Y-8582976D01*
X12875269Y-8582976D02*
X12922888Y-8582976D01*
X12922888Y-8582976D02*
X12941935Y-8592500D01*
X12941935Y-8592500D02*
X12951459Y-8602024D01*
X12951459Y-8602024D02*
X12960983Y-8621071D01*
X12960983Y-8621071D02*
X12960983Y-8640119D01*
X12960983Y-8640119D02*
X12951459Y-8668690D01*
X12951459Y-8668690D02*
X12837173Y-8782976D01*
X12837173Y-8782976D02*
X12960983Y-8782976D01*
X13084792Y-8582976D02*
X13103840Y-8582976D01*
X13103840Y-8582976D02*
X13122888Y-8592500D01*
X13122888Y-8592500D02*
X13132412Y-8602024D01*
X13132412Y-8602024D02*
X13141935Y-8621071D01*
X13141935Y-8621071D02*
X13151459Y-8659166D01*
X13151459Y-8659166D02*
X13151459Y-8706785D01*
X13151459Y-8706785D02*
X13141935Y-8744881D01*
X13141935Y-8744881D02*
X13132412Y-8763928D01*
X13132412Y-8763928D02*
X13122888Y-8773452D01*
X13122888Y-8773452D02*
X13103840Y-8782976D01*
X13103840Y-8782976D02*
X13084792Y-8782976D01*
X13084792Y-8782976D02*
X13065745Y-8773452D01*
X13065745Y-8773452D02*
X13056221Y-8763928D01*
X13056221Y-8763928D02*
X13046697Y-8744881D01*
X13046697Y-8744881D02*
X13037173Y-8706785D01*
X13037173Y-8706785D02*
X13037173Y-8659166D01*
X13037173Y-8659166D02*
X13046697Y-8621071D01*
X13046697Y-8621071D02*
X13056221Y-8602024D01*
X13056221Y-8602024D02*
X13065745Y-8592500D01*
X13065745Y-8592500D02*
X13084792Y-8582976D01*
X13218126Y-8582976D02*
X13341935Y-8582976D01*
X13341935Y-8582976D02*
X13275269Y-8659166D01*
X13275269Y-8659166D02*
X13303840Y-8659166D01*
X13303840Y-8659166D02*
X13322888Y-8668690D01*
X13322888Y-8668690D02*
X13332412Y-8678214D01*
X13332412Y-8678214D02*
X13341935Y-8697262D01*
X13341935Y-8697262D02*
X13341935Y-8744881D01*
X13341935Y-8744881D02*
X13332412Y-8763928D01*
X13332412Y-8763928D02*
X13322888Y-8773452D01*
X13322888Y-8773452D02*
X13303840Y-8782976D01*
X13303840Y-8782976D02*
X13246697Y-8782976D01*
X13246697Y-8782976D02*
X13227650Y-8773452D01*
X13227650Y-8773452D02*
X13218126Y-8763928D01*
X13427650Y-8782976D02*
X13427650Y-8649643D01*
X13427650Y-8668690D02*
X13437173Y-8659166D01*
X13437173Y-8659166D02*
X13456221Y-8649643D01*
X13456221Y-8649643D02*
X13484793Y-8649643D01*
X13484793Y-8649643D02*
X13503840Y-8659166D01*
X13503840Y-8659166D02*
X13513364Y-8678214D01*
X13513364Y-8678214D02*
X13513364Y-8782976D01*
X13513364Y-8678214D02*
X13522888Y-8659166D01*
X13522888Y-8659166D02*
X13541935Y-8649643D01*
X13541935Y-8649643D02*
X13570507Y-8649643D01*
X13570507Y-8649643D02*
X13589554Y-8659166D01*
X13589554Y-8659166D02*
X13599078Y-8678214D01*
X13599078Y-8678214D02*
X13599078Y-8782976D01*
X13694316Y-8782976D02*
X13694316Y-8649643D01*
X13694316Y-8668690D02*
X13703840Y-8659166D01*
X13703840Y-8659166D02*
X13722888Y-8649643D01*
X13722888Y-8649643D02*
X13751459Y-8649643D01*
X13751459Y-8649643D02*
X13770507Y-8659166D01*
X13770507Y-8659166D02*
X13780031Y-8678214D01*
X13780031Y-8678214D02*
X13780031Y-8782976D01*
X13780031Y-8678214D02*
X13789554Y-8659166D01*
X13789554Y-8659166D02*
X13808602Y-8649643D01*
X13808602Y-8649643D02*
X13837173Y-8649643D01*
X13837173Y-8649643D02*
X13856221Y-8659166D01*
X13856221Y-8659166D02*
X13865745Y-8678214D01*
X13865745Y-8678214D02*
X13865745Y-8782976D01*
X14256221Y-8573452D02*
X14084793Y-8830595D01*
X14513364Y-8582976D02*
X14532412Y-8582976D01*
X14532412Y-8582976D02*
X14551459Y-8592500D01*
X14551459Y-8592500D02*
X14560983Y-8602024D01*
X14560983Y-8602024D02*
X14570507Y-8621071D01*
X14570507Y-8621071D02*
X14580031Y-8659166D01*
X14580031Y-8659166D02*
X14580031Y-8706785D01*
X14580031Y-8706785D02*
X14570507Y-8744881D01*
X14570507Y-8744881D02*
X14560983Y-8763928D01*
X14560983Y-8763928D02*
X14551459Y-8773452D01*
X14551459Y-8773452D02*
X14532412Y-8782976D01*
X14532412Y-8782976D02*
X14513364Y-8782976D01*
X14513364Y-8782976D02*
X14494316Y-8773452D01*
X14494316Y-8773452D02*
X14484793Y-8763928D01*
X14484793Y-8763928D02*
X14475269Y-8744881D01*
X14475269Y-8744881D02*
X14465745Y-8706785D01*
X14465745Y-8706785D02*
X14465745Y-8659166D01*
X14465745Y-8659166D02*
X14475269Y-8621071D01*
X14475269Y-8621071D02*
X14484793Y-8602024D01*
X14484793Y-8602024D02*
X14494316Y-8592500D01*
X14494316Y-8592500D02*
X14513364Y-8582976D01*
X14665745Y-8763928D02*
X14675269Y-8773452D01*
X14675269Y-8773452D02*
X14665745Y-8782976D01*
X14665745Y-8782976D02*
X14656221Y-8773452D01*
X14656221Y-8773452D02*
X14665745Y-8763928D01*
X14665745Y-8763928D02*
X14665745Y-8782976D01*
X14799078Y-8582976D02*
X14818126Y-8582976D01*
X14818126Y-8582976D02*
X14837174Y-8592500D01*
X14837174Y-8592500D02*
X14846697Y-8602024D01*
X14846697Y-8602024D02*
X14856221Y-8621071D01*
X14856221Y-8621071D02*
X14865745Y-8659166D01*
X14865745Y-8659166D02*
X14865745Y-8706785D01*
X14865745Y-8706785D02*
X14856221Y-8744881D01*
X14856221Y-8744881D02*
X14846697Y-8763928D01*
X14846697Y-8763928D02*
X14837174Y-8773452D01*
X14837174Y-8773452D02*
X14818126Y-8782976D01*
X14818126Y-8782976D02*
X14799078Y-8782976D01*
X14799078Y-8782976D02*
X14780031Y-8773452D01*
X14780031Y-8773452D02*
X14770507Y-8763928D01*
X14770507Y-8763928D02*
X14760983Y-8744881D01*
X14760983Y-8744881D02*
X14751459Y-8706785D01*
X14751459Y-8706785D02*
X14751459Y-8659166D01*
X14751459Y-8659166D02*
X14760983Y-8621071D01*
X14760983Y-8621071D02*
X14770507Y-8602024D01*
X14770507Y-8602024D02*
X14780031Y-8592500D01*
X14780031Y-8592500D02*
X14799078Y-8582976D01*
X14989555Y-8582976D02*
X15008602Y-8582976D01*
X15008602Y-8582976D02*
X15027650Y-8592500D01*
X15027650Y-8592500D02*
X15037174Y-8602024D01*
X15037174Y-8602024D02*
X15046697Y-8621071D01*
X15046697Y-8621071D02*
X15056221Y-8659166D01*
X15056221Y-8659166D02*
X15056221Y-8706785D01*
X15056221Y-8706785D02*
X15046697Y-8744881D01*
X15046697Y-8744881D02*
X15037174Y-8763928D01*
X15037174Y-8763928D02*
X15027650Y-8773452D01*
X15027650Y-8773452D02*
X15008602Y-8782976D01*
X15008602Y-8782976D02*
X14989555Y-8782976D01*
X14989555Y-8782976D02*
X14970507Y-8773452D01*
X14970507Y-8773452D02*
X14960983Y-8763928D01*
X14960983Y-8763928D02*
X14951459Y-8744881D01*
X14951459Y-8744881D02*
X14941936Y-8706785D01*
X14941936Y-8706785D02*
X14941936Y-8659166D01*
X14941936Y-8659166D02*
X14951459Y-8621071D01*
X14951459Y-8621071D02*
X14960983Y-8602024D01*
X14960983Y-8602024D02*
X14970507Y-8592500D01*
X14970507Y-8592500D02*
X14989555Y-8582976D01*
X15170507Y-8668690D02*
X15151459Y-8659166D01*
X15151459Y-8659166D02*
X15141936Y-8649643D01*
X15141936Y-8649643D02*
X15132412Y-8630595D01*
X15132412Y-8630595D02*
X15132412Y-8621071D01*
X15132412Y-8621071D02*
X15141936Y-8602024D01*
X15141936Y-8602024D02*
X15151459Y-8592500D01*
X15151459Y-8592500D02*
X15170507Y-8582976D01*
X15170507Y-8582976D02*
X15208602Y-8582976D01*
X15208602Y-8582976D02*
X15227650Y-8592500D01*
X15227650Y-8592500D02*
X15237174Y-8602024D01*
X15237174Y-8602024D02*
X15246697Y-8621071D01*
X15246697Y-8621071D02*
X15246697Y-8630595D01*
X15246697Y-8630595D02*
X15237174Y-8649643D01*
X15237174Y-8649643D02*
X15227650Y-8659166D01*
X15227650Y-8659166D02*
X15208602Y-8668690D01*
X15208602Y-8668690D02*
X15170507Y-8668690D01*
X15170507Y-8668690D02*
X15151459Y-8678214D01*
X15151459Y-8678214D02*
X15141936Y-8687738D01*
X15141936Y-8687738D02*
X15132412Y-8706785D01*
X15132412Y-8706785D02*
X15132412Y-8744881D01*
X15132412Y-8744881D02*
X15141936Y-8763928D01*
X15141936Y-8763928D02*
X15151459Y-8773452D01*
X15151459Y-8773452D02*
X15170507Y-8782976D01*
X15170507Y-8782976D02*
X15208602Y-8782976D01*
X15208602Y-8782976D02*
X15227650Y-8773452D01*
X15227650Y-8773452D02*
X15237174Y-8763928D01*
X15237174Y-8763928D02*
X15246697Y-8744881D01*
X15246697Y-8744881D02*
X15246697Y-8706785D01*
X15246697Y-8706785D02*
X15237174Y-8687738D01*
X15237174Y-8687738D02*
X15227650Y-8678214D01*
X15227650Y-8678214D02*
X15208602Y-8668690D01*
X15370507Y-8582976D02*
X15389555Y-8582976D01*
X15389555Y-8582976D02*
X15408602Y-8592500D01*
X15408602Y-8592500D02*
X15418126Y-8602024D01*
X15418126Y-8602024D02*
X15427650Y-8621071D01*
X15427650Y-8621071D02*
X15437174Y-8659166D01*
X15437174Y-8659166D02*
X15437174Y-8706785D01*
X15437174Y-8706785D02*
X15427650Y-8744881D01*
X15427650Y-8744881D02*
X15418126Y-8763928D01*
X15418126Y-8763928D02*
X15408602Y-8773452D01*
X15408602Y-8773452D02*
X15389555Y-8782976D01*
X15389555Y-8782976D02*
X15370507Y-8782976D01*
X15370507Y-8782976D02*
X15351459Y-8773452D01*
X15351459Y-8773452D02*
X15341936Y-8763928D01*
X15341936Y-8763928D02*
X15332412Y-8744881D01*
X15332412Y-8744881D02*
X15322888Y-8706785D01*
X15322888Y-8706785D02*
X15322888Y-8659166D01*
X15322888Y-8659166D02*
X15332412Y-8621071D01*
X15332412Y-8621071D02*
X15341936Y-8602024D01*
X15341936Y-8602024D02*
X15351459Y-8592500D01*
X15351459Y-8592500D02*
X15370507Y-8582976D01*
X15513364Y-8582976D02*
X15513364Y-8621071D01*
X15589555Y-8582976D02*
X15589555Y-8621071D01*
X15884793Y-8859166D02*
X15875269Y-8849643D01*
X15875269Y-8849643D02*
X15856221Y-8821071D01*
X15856221Y-8821071D02*
X15846698Y-8802024D01*
X15846698Y-8802024D02*
X15837174Y-8773452D01*
X15837174Y-8773452D02*
X15827650Y-8725833D01*
X15827650Y-8725833D02*
X15827650Y-8687738D01*
X15827650Y-8687738D02*
X15837174Y-8640119D01*
X15837174Y-8640119D02*
X15846698Y-8611547D01*
X15846698Y-8611547D02*
X15856221Y-8592500D01*
X15856221Y-8592500D02*
X15875269Y-8563928D01*
X15875269Y-8563928D02*
X15884793Y-8554404D01*
X16065745Y-8782976D02*
X15951459Y-8782976D01*
X16008602Y-8782976D02*
X16008602Y-8582976D01*
X16008602Y-8582976D02*
X15989555Y-8611547D01*
X15989555Y-8611547D02*
X15970507Y-8630595D01*
X15970507Y-8630595D02*
X15951459Y-8640119D01*
X16141936Y-8602024D02*
X16151459Y-8592500D01*
X16151459Y-8592500D02*
X16170507Y-8582976D01*
X16170507Y-8582976D02*
X16218126Y-8582976D01*
X16218126Y-8582976D02*
X16237174Y-8592500D01*
X16237174Y-8592500D02*
X16246698Y-8602024D01*
X16246698Y-8602024D02*
X16256221Y-8621071D01*
X16256221Y-8621071D02*
X16256221Y-8640119D01*
X16256221Y-8640119D02*
X16246698Y-8668690D01*
X16246698Y-8668690D02*
X16132412Y-8782976D01*
X16132412Y-8782976D02*
X16256221Y-8782976D01*
X16446698Y-8782976D02*
X16332412Y-8782976D01*
X16389555Y-8782976D02*
X16389555Y-8582976D01*
X16389555Y-8582976D02*
X16370507Y-8611547D01*
X16370507Y-8611547D02*
X16351459Y-8630595D01*
X16351459Y-8630595D02*
X16332412Y-8640119D01*
X16684793Y-8782976D02*
X16684793Y-8582976D01*
X16770507Y-8782976D02*
X16770507Y-8678214D01*
X16770507Y-8678214D02*
X16760983Y-8659166D01*
X16760983Y-8659166D02*
X16741936Y-8649643D01*
X16741936Y-8649643D02*
X16713364Y-8649643D01*
X16713364Y-8649643D02*
X16694317Y-8659166D01*
X16694317Y-8659166D02*
X16684793Y-8668690D01*
X16894317Y-8782976D02*
X16875269Y-8773452D01*
X16875269Y-8773452D02*
X16865745Y-8763928D01*
X16865745Y-8763928D02*
X16856222Y-8744881D01*
X16856222Y-8744881D02*
X16856222Y-8687738D01*
X16856222Y-8687738D02*
X16865745Y-8668690D01*
X16865745Y-8668690D02*
X16875269Y-8659166D01*
X16875269Y-8659166D02*
X16894317Y-8649643D01*
X16894317Y-8649643D02*
X16922888Y-8649643D01*
X16922888Y-8649643D02*
X16941936Y-8659166D01*
X16941936Y-8659166D02*
X16951460Y-8668690D01*
X16951460Y-8668690D02*
X16960983Y-8687738D01*
X16960983Y-8687738D02*
X16960983Y-8744881D01*
X16960983Y-8744881D02*
X16951460Y-8763928D01*
X16951460Y-8763928D02*
X16941936Y-8773452D01*
X16941936Y-8773452D02*
X16922888Y-8782976D01*
X16922888Y-8782976D02*
X16894317Y-8782976D01*
X17075269Y-8782976D02*
X17056222Y-8773452D01*
X17056222Y-8773452D02*
X17046698Y-8754404D01*
X17046698Y-8754404D02*
X17046698Y-8582976D01*
X17227650Y-8773452D02*
X17208603Y-8782976D01*
X17208603Y-8782976D02*
X17170507Y-8782976D01*
X17170507Y-8782976D02*
X17151460Y-8773452D01*
X17151460Y-8773452D02*
X17141936Y-8754404D01*
X17141936Y-8754404D02*
X17141936Y-8678214D01*
X17141936Y-8678214D02*
X17151460Y-8659166D01*
X17151460Y-8659166D02*
X17170507Y-8649643D01*
X17170507Y-8649643D02*
X17208603Y-8649643D01*
X17208603Y-8649643D02*
X17227650Y-8659166D01*
X17227650Y-8659166D02*
X17237174Y-8678214D01*
X17237174Y-8678214D02*
X17237174Y-8697262D01*
X17237174Y-8697262D02*
X17141936Y-8716309D01*
X17313364Y-8773452D02*
X17332412Y-8782976D01*
X17332412Y-8782976D02*
X17370507Y-8782976D01*
X17370507Y-8782976D02*
X17389555Y-8773452D01*
X17389555Y-8773452D02*
X17399079Y-8754404D01*
X17399079Y-8754404D02*
X17399079Y-8744881D01*
X17399079Y-8744881D02*
X17389555Y-8725833D01*
X17389555Y-8725833D02*
X17370507Y-8716309D01*
X17370507Y-8716309D02*
X17341936Y-8716309D01*
X17341936Y-8716309D02*
X17322888Y-8706785D01*
X17322888Y-8706785D02*
X17313364Y-8687738D01*
X17313364Y-8687738D02*
X17313364Y-8678214D01*
X17313364Y-8678214D02*
X17322888Y-8659166D01*
X17322888Y-8659166D02*
X17341936Y-8649643D01*
X17341936Y-8649643D02*
X17370507Y-8649643D01*
X17370507Y-8649643D02*
X17389555Y-8659166D01*
X17465745Y-8859166D02*
X17475269Y-8849643D01*
X17475269Y-8849643D02*
X17494317Y-8821071D01*
X17494317Y-8821071D02*
X17503841Y-8802024D01*
X17503841Y-8802024D02*
X17513364Y-8773452D01*
X17513364Y-8773452D02*
X17522888Y-8725833D01*
X17522888Y-8725833D02*
X17522888Y-8687738D01*
X17522888Y-8687738D02*
X17513364Y-8640119D01*
X17513364Y-8640119D02*
X17503841Y-8611547D01*
X17503841Y-8611547D02*
X17494317Y-8592500D01*
X17494317Y-8592500D02*
X17475269Y-8563928D01*
X17475269Y-8563928D02*
X17465745Y-8554404D01*
D12*
X12309730Y-8955492D02*
G75*
G02*
X12284730Y-8955492I-12500J0D01*
G01*
X12284730Y-8955492D02*
G75*
G02*
X12309730Y-8955492I12500J0D01*
G01*
D11*
X12608602Y-8846976D02*
X12627650Y-8846976D01*
X12627650Y-8846976D02*
X12646697Y-8856500D01*
X12646697Y-8856500D02*
X12656221Y-8866024D01*
X12656221Y-8866024D02*
X12665745Y-8885071D01*
X12665745Y-8885071D02*
X12675269Y-8923166D01*
X12675269Y-8923166D02*
X12675269Y-8970785D01*
X12675269Y-8970785D02*
X12665745Y-9008881D01*
X12665745Y-9008881D02*
X12656221Y-9027928D01*
X12656221Y-9027928D02*
X12646697Y-9037452D01*
X12646697Y-9037452D02*
X12627650Y-9046976D01*
X12627650Y-9046976D02*
X12608602Y-9046976D01*
X12608602Y-9046976D02*
X12589554Y-9037452D01*
X12589554Y-9037452D02*
X12580031Y-9027928D01*
X12580031Y-9027928D02*
X12570507Y-9008881D01*
X12570507Y-9008881D02*
X12560983Y-8970785D01*
X12560983Y-8970785D02*
X12560983Y-8923166D01*
X12560983Y-8923166D02*
X12570507Y-8885071D01*
X12570507Y-8885071D02*
X12580031Y-8866024D01*
X12580031Y-8866024D02*
X12589554Y-8856500D01*
X12589554Y-8856500D02*
X12608602Y-8846976D01*
X12760983Y-9027928D02*
X12770507Y-9037452D01*
X12770507Y-9037452D02*
X12760983Y-9046976D01*
X12760983Y-9046976D02*
X12751459Y-9037452D01*
X12751459Y-9037452D02*
X12760983Y-9027928D01*
X12760983Y-9027928D02*
X12760983Y-9046976D01*
X12846697Y-8866024D02*
X12856221Y-8856500D01*
X12856221Y-8856500D02*
X12875269Y-8846976D01*
X12875269Y-8846976D02*
X12922888Y-8846976D01*
X12922888Y-8846976D02*
X12941935Y-8856500D01*
X12941935Y-8856500D02*
X12951459Y-8866024D01*
X12951459Y-8866024D02*
X12960983Y-8885071D01*
X12960983Y-8885071D02*
X12960983Y-8904119D01*
X12960983Y-8904119D02*
X12951459Y-8932690D01*
X12951459Y-8932690D02*
X12837173Y-9046976D01*
X12837173Y-9046976D02*
X12960983Y-9046976D01*
X13141935Y-8846976D02*
X13046697Y-8846976D01*
X13046697Y-8846976D02*
X13037173Y-8942214D01*
X13037173Y-8942214D02*
X13046697Y-8932690D01*
X13046697Y-8932690D02*
X13065745Y-8923166D01*
X13065745Y-8923166D02*
X13113364Y-8923166D01*
X13113364Y-8923166D02*
X13132412Y-8932690D01*
X13132412Y-8932690D02*
X13141935Y-8942214D01*
X13141935Y-8942214D02*
X13151459Y-8961262D01*
X13151459Y-8961262D02*
X13151459Y-9008881D01*
X13151459Y-9008881D02*
X13141935Y-9027928D01*
X13141935Y-9027928D02*
X13132412Y-9037452D01*
X13132412Y-9037452D02*
X13113364Y-9046976D01*
X13113364Y-9046976D02*
X13065745Y-9046976D01*
X13065745Y-9046976D02*
X13046697Y-9037452D01*
X13046697Y-9037452D02*
X13037173Y-9027928D01*
X13275269Y-8846976D02*
X13294316Y-8846976D01*
X13294316Y-8846976D02*
X13313364Y-8856500D01*
X13313364Y-8856500D02*
X13322888Y-8866024D01*
X13322888Y-8866024D02*
X13332412Y-8885071D01*
X13332412Y-8885071D02*
X13341935Y-8923166D01*
X13341935Y-8923166D02*
X13341935Y-8970785D01*
X13341935Y-8970785D02*
X13332412Y-9008881D01*
X13332412Y-9008881D02*
X13322888Y-9027928D01*
X13322888Y-9027928D02*
X13313364Y-9037452D01*
X13313364Y-9037452D02*
X13294316Y-9046976D01*
X13294316Y-9046976D02*
X13275269Y-9046976D01*
X13275269Y-9046976D02*
X13256221Y-9037452D01*
X13256221Y-9037452D02*
X13246697Y-9027928D01*
X13246697Y-9027928D02*
X13237173Y-9008881D01*
X13237173Y-9008881D02*
X13227650Y-8970785D01*
X13227650Y-8970785D02*
X13227650Y-8923166D01*
X13227650Y-8923166D02*
X13237173Y-8885071D01*
X13237173Y-8885071D02*
X13246697Y-8866024D01*
X13246697Y-8866024D02*
X13256221Y-8856500D01*
X13256221Y-8856500D02*
X13275269Y-8846976D01*
X13427650Y-9046976D02*
X13427650Y-8913643D01*
X13427650Y-8932690D02*
X13437173Y-8923166D01*
X13437173Y-8923166D02*
X13456221Y-8913643D01*
X13456221Y-8913643D02*
X13484793Y-8913643D01*
X13484793Y-8913643D02*
X13503840Y-8923166D01*
X13503840Y-8923166D02*
X13513364Y-8942214D01*
X13513364Y-8942214D02*
X13513364Y-9046976D01*
X13513364Y-8942214D02*
X13522888Y-8923166D01*
X13522888Y-8923166D02*
X13541935Y-8913643D01*
X13541935Y-8913643D02*
X13570507Y-8913643D01*
X13570507Y-8913643D02*
X13589554Y-8923166D01*
X13589554Y-8923166D02*
X13599078Y-8942214D01*
X13599078Y-8942214D02*
X13599078Y-9046976D01*
X13694316Y-9046976D02*
X13694316Y-8913643D01*
X13694316Y-8932690D02*
X13703840Y-8923166D01*
X13703840Y-8923166D02*
X13722888Y-8913643D01*
X13722888Y-8913643D02*
X13751459Y-8913643D01*
X13751459Y-8913643D02*
X13770507Y-8923166D01*
X13770507Y-8923166D02*
X13780031Y-8942214D01*
X13780031Y-8942214D02*
X13780031Y-9046976D01*
X13780031Y-8942214D02*
X13789554Y-8923166D01*
X13789554Y-8923166D02*
X13808602Y-8913643D01*
X13808602Y-8913643D02*
X13837173Y-8913643D01*
X13837173Y-8913643D02*
X13856221Y-8923166D01*
X13856221Y-8923166D02*
X13865745Y-8942214D01*
X13865745Y-8942214D02*
X13865745Y-9046976D01*
X14256221Y-8837452D02*
X14084793Y-9094595D01*
X14513364Y-8846976D02*
X14532412Y-8846976D01*
X14532412Y-8846976D02*
X14551459Y-8856500D01*
X14551459Y-8856500D02*
X14560983Y-8866024D01*
X14560983Y-8866024D02*
X14570507Y-8885071D01*
X14570507Y-8885071D02*
X14580031Y-8923166D01*
X14580031Y-8923166D02*
X14580031Y-8970785D01*
X14580031Y-8970785D02*
X14570507Y-9008881D01*
X14570507Y-9008881D02*
X14560983Y-9027928D01*
X14560983Y-9027928D02*
X14551459Y-9037452D01*
X14551459Y-9037452D02*
X14532412Y-9046976D01*
X14532412Y-9046976D02*
X14513364Y-9046976D01*
X14513364Y-9046976D02*
X14494316Y-9037452D01*
X14494316Y-9037452D02*
X14484793Y-9027928D01*
X14484793Y-9027928D02*
X14475269Y-9008881D01*
X14475269Y-9008881D02*
X14465745Y-8970785D01*
X14465745Y-8970785D02*
X14465745Y-8923166D01*
X14465745Y-8923166D02*
X14475269Y-8885071D01*
X14475269Y-8885071D02*
X14484793Y-8866024D01*
X14484793Y-8866024D02*
X14494316Y-8856500D01*
X14494316Y-8856500D02*
X14513364Y-8846976D01*
X14665745Y-9027928D02*
X14675269Y-9037452D01*
X14675269Y-9037452D02*
X14665745Y-9046976D01*
X14665745Y-9046976D02*
X14656221Y-9037452D01*
X14656221Y-9037452D02*
X14665745Y-9027928D01*
X14665745Y-9027928D02*
X14665745Y-9046976D01*
X14799078Y-8846976D02*
X14818126Y-8846976D01*
X14818126Y-8846976D02*
X14837174Y-8856500D01*
X14837174Y-8856500D02*
X14846697Y-8866024D01*
X14846697Y-8866024D02*
X14856221Y-8885071D01*
X14856221Y-8885071D02*
X14865745Y-8923166D01*
X14865745Y-8923166D02*
X14865745Y-8970785D01*
X14865745Y-8970785D02*
X14856221Y-9008881D01*
X14856221Y-9008881D02*
X14846697Y-9027928D01*
X14846697Y-9027928D02*
X14837174Y-9037452D01*
X14837174Y-9037452D02*
X14818126Y-9046976D01*
X14818126Y-9046976D02*
X14799078Y-9046976D01*
X14799078Y-9046976D02*
X14780031Y-9037452D01*
X14780031Y-9037452D02*
X14770507Y-9027928D01*
X14770507Y-9027928D02*
X14760983Y-9008881D01*
X14760983Y-9008881D02*
X14751459Y-8970785D01*
X14751459Y-8970785D02*
X14751459Y-8923166D01*
X14751459Y-8923166D02*
X14760983Y-8885071D01*
X14760983Y-8885071D02*
X14770507Y-8866024D01*
X14770507Y-8866024D02*
X14780031Y-8856500D01*
X14780031Y-8856500D02*
X14799078Y-8846976D01*
X14989555Y-8846976D02*
X15008602Y-8846976D01*
X15008602Y-8846976D02*
X15027650Y-8856500D01*
X15027650Y-8856500D02*
X15037174Y-8866024D01*
X15037174Y-8866024D02*
X15046697Y-8885071D01*
X15046697Y-8885071D02*
X15056221Y-8923166D01*
X15056221Y-8923166D02*
X15056221Y-8970785D01*
X15056221Y-8970785D02*
X15046697Y-9008881D01*
X15046697Y-9008881D02*
X15037174Y-9027928D01*
X15037174Y-9027928D02*
X15027650Y-9037452D01*
X15027650Y-9037452D02*
X15008602Y-9046976D01*
X15008602Y-9046976D02*
X14989555Y-9046976D01*
X14989555Y-9046976D02*
X14970507Y-9037452D01*
X14970507Y-9037452D02*
X14960983Y-9027928D01*
X14960983Y-9027928D02*
X14951459Y-9008881D01*
X14951459Y-9008881D02*
X14941936Y-8970785D01*
X14941936Y-8970785D02*
X14941936Y-8923166D01*
X14941936Y-8923166D02*
X14951459Y-8885071D01*
X14951459Y-8885071D02*
X14960983Y-8866024D01*
X14960983Y-8866024D02*
X14970507Y-8856500D01*
X14970507Y-8856500D02*
X14989555Y-8846976D01*
X15151459Y-9046976D02*
X15189555Y-9046976D01*
X15189555Y-9046976D02*
X15208602Y-9037452D01*
X15208602Y-9037452D02*
X15218126Y-9027928D01*
X15218126Y-9027928D02*
X15237174Y-8999357D01*
X15237174Y-8999357D02*
X15246697Y-8961262D01*
X15246697Y-8961262D02*
X15246697Y-8885071D01*
X15246697Y-8885071D02*
X15237174Y-8866024D01*
X15237174Y-8866024D02*
X15227650Y-8856500D01*
X15227650Y-8856500D02*
X15208602Y-8846976D01*
X15208602Y-8846976D02*
X15170507Y-8846976D01*
X15170507Y-8846976D02*
X15151459Y-8856500D01*
X15151459Y-8856500D02*
X15141936Y-8866024D01*
X15141936Y-8866024D02*
X15132412Y-8885071D01*
X15132412Y-8885071D02*
X15132412Y-8932690D01*
X15132412Y-8932690D02*
X15141936Y-8951738D01*
X15141936Y-8951738D02*
X15151459Y-8961262D01*
X15151459Y-8961262D02*
X15170507Y-8970785D01*
X15170507Y-8970785D02*
X15208602Y-8970785D01*
X15208602Y-8970785D02*
X15227650Y-8961262D01*
X15227650Y-8961262D02*
X15237174Y-8951738D01*
X15237174Y-8951738D02*
X15246697Y-8932690D01*
X15360983Y-8932690D02*
X15341936Y-8923166D01*
X15341936Y-8923166D02*
X15332412Y-8913643D01*
X15332412Y-8913643D02*
X15322888Y-8894595D01*
X15322888Y-8894595D02*
X15322888Y-8885071D01*
X15322888Y-8885071D02*
X15332412Y-8866024D01*
X15332412Y-8866024D02*
X15341936Y-8856500D01*
X15341936Y-8856500D02*
X15360983Y-8846976D01*
X15360983Y-8846976D02*
X15399078Y-8846976D01*
X15399078Y-8846976D02*
X15418126Y-8856500D01*
X15418126Y-8856500D02*
X15427650Y-8866024D01*
X15427650Y-8866024D02*
X15437174Y-8885071D01*
X15437174Y-8885071D02*
X15437174Y-8894595D01*
X15437174Y-8894595D02*
X15427650Y-8913643D01*
X15427650Y-8913643D02*
X15418126Y-8923166D01*
X15418126Y-8923166D02*
X15399078Y-8932690D01*
X15399078Y-8932690D02*
X15360983Y-8932690D01*
X15360983Y-8932690D02*
X15341936Y-8942214D01*
X15341936Y-8942214D02*
X15332412Y-8951738D01*
X15332412Y-8951738D02*
X15322888Y-8970785D01*
X15322888Y-8970785D02*
X15322888Y-9008881D01*
X15322888Y-9008881D02*
X15332412Y-9027928D01*
X15332412Y-9027928D02*
X15341936Y-9037452D01*
X15341936Y-9037452D02*
X15360983Y-9046976D01*
X15360983Y-9046976D02*
X15399078Y-9046976D01*
X15399078Y-9046976D02*
X15418126Y-9037452D01*
X15418126Y-9037452D02*
X15427650Y-9027928D01*
X15427650Y-9027928D02*
X15437174Y-9008881D01*
X15437174Y-9008881D02*
X15437174Y-8970785D01*
X15437174Y-8970785D02*
X15427650Y-8951738D01*
X15427650Y-8951738D02*
X15418126Y-8942214D01*
X15418126Y-8942214D02*
X15399078Y-8932690D01*
X15513364Y-8846976D02*
X15513364Y-8885071D01*
X15589555Y-8846976D02*
X15589555Y-8885071D01*
X15884793Y-9123166D02*
X15875269Y-9113643D01*
X15875269Y-9113643D02*
X15856221Y-9085071D01*
X15856221Y-9085071D02*
X15846698Y-9066024D01*
X15846698Y-9066024D02*
X15837174Y-9037452D01*
X15837174Y-9037452D02*
X15827650Y-8989833D01*
X15827650Y-8989833D02*
X15827650Y-8951738D01*
X15827650Y-8951738D02*
X15837174Y-8904119D01*
X15837174Y-8904119D02*
X15846698Y-8875547D01*
X15846698Y-8875547D02*
X15856221Y-8856500D01*
X15856221Y-8856500D02*
X15875269Y-8827928D01*
X15875269Y-8827928D02*
X15884793Y-8818404D01*
X16046698Y-8913643D02*
X16046698Y-9046976D01*
X15999078Y-8837452D02*
X15951459Y-8980309D01*
X15951459Y-8980309D02*
X16075269Y-8980309D01*
X16303840Y-9046976D02*
X16303840Y-8846976D01*
X16389555Y-9046976D02*
X16389555Y-8942214D01*
X16389555Y-8942214D02*
X16380031Y-8923166D01*
X16380031Y-8923166D02*
X16360983Y-8913643D01*
X16360983Y-8913643D02*
X16332412Y-8913643D01*
X16332412Y-8913643D02*
X16313364Y-8923166D01*
X16313364Y-8923166D02*
X16303840Y-8932690D01*
X16513364Y-9046976D02*
X16494317Y-9037452D01*
X16494317Y-9037452D02*
X16484793Y-9027928D01*
X16484793Y-9027928D02*
X16475269Y-9008881D01*
X16475269Y-9008881D02*
X16475269Y-8951738D01*
X16475269Y-8951738D02*
X16484793Y-8932690D01*
X16484793Y-8932690D02*
X16494317Y-8923166D01*
X16494317Y-8923166D02*
X16513364Y-8913643D01*
X16513364Y-8913643D02*
X16541936Y-8913643D01*
X16541936Y-8913643D02*
X16560983Y-8923166D01*
X16560983Y-8923166D02*
X16570507Y-8932690D01*
X16570507Y-8932690D02*
X16580031Y-8951738D01*
X16580031Y-8951738D02*
X16580031Y-9008881D01*
X16580031Y-9008881D02*
X16570507Y-9027928D01*
X16570507Y-9027928D02*
X16560983Y-9037452D01*
X16560983Y-9037452D02*
X16541936Y-9046976D01*
X16541936Y-9046976D02*
X16513364Y-9046976D01*
X16694317Y-9046976D02*
X16675269Y-9037452D01*
X16675269Y-9037452D02*
X16665745Y-9018404D01*
X16665745Y-9018404D02*
X16665745Y-8846976D01*
X16846698Y-9037452D02*
X16827650Y-9046976D01*
X16827650Y-9046976D02*
X16789555Y-9046976D01*
X16789555Y-9046976D02*
X16770507Y-9037452D01*
X16770507Y-9037452D02*
X16760983Y-9018404D01*
X16760983Y-9018404D02*
X16760983Y-8942214D01*
X16760983Y-8942214D02*
X16770507Y-8923166D01*
X16770507Y-8923166D02*
X16789555Y-8913643D01*
X16789555Y-8913643D02*
X16827650Y-8913643D01*
X16827650Y-8913643D02*
X16846698Y-8923166D01*
X16846698Y-8923166D02*
X16856222Y-8942214D01*
X16856222Y-8942214D02*
X16856222Y-8961262D01*
X16856222Y-8961262D02*
X16760983Y-8980309D01*
X16932412Y-9037452D02*
X16951460Y-9046976D01*
X16951460Y-9046976D02*
X16989555Y-9046976D01*
X16989555Y-9046976D02*
X17008603Y-9037452D01*
X17008603Y-9037452D02*
X17018126Y-9018404D01*
X17018126Y-9018404D02*
X17018126Y-9008881D01*
X17018126Y-9008881D02*
X17008603Y-8989833D01*
X17008603Y-8989833D02*
X16989555Y-8980309D01*
X16989555Y-8980309D02*
X16960983Y-8980309D01*
X16960983Y-8980309D02*
X16941936Y-8970785D01*
X16941936Y-8970785D02*
X16932412Y-8951738D01*
X16932412Y-8951738D02*
X16932412Y-8942214D01*
X16932412Y-8942214D02*
X16941936Y-8923166D01*
X16941936Y-8923166D02*
X16960983Y-8913643D01*
X16960983Y-8913643D02*
X16989555Y-8913643D01*
X16989555Y-8913643D02*
X17008603Y-8923166D01*
X17084793Y-9123166D02*
X17094317Y-9113643D01*
X17094317Y-9113643D02*
X17113364Y-9085071D01*
X17113364Y-9085071D02*
X17122888Y-9066024D01*
X17122888Y-9066024D02*
X17132412Y-9037452D01*
X17132412Y-9037452D02*
X17141936Y-8989833D01*
X17141936Y-8989833D02*
X17141936Y-8951738D01*
X17141936Y-8951738D02*
X17132412Y-8904119D01*
X17132412Y-8904119D02*
X17122888Y-8875547D01*
X17122888Y-8875547D02*
X17113364Y-8856500D01*
X17113364Y-8856500D02*
X17094317Y-8827928D01*
X17094317Y-8827928D02*
X17084793Y-8818404D01*
D12*
X12279730Y-9189492D02*
X12279730Y-9249492D01*
X12249730Y-9219492D02*
X12309730Y-9219492D01*
D11*
X12608602Y-9110976D02*
X12627650Y-9110976D01*
X12627650Y-9110976D02*
X12646697Y-9120500D01*
X12646697Y-9120500D02*
X12656221Y-9130024D01*
X12656221Y-9130024D02*
X12665745Y-9149071D01*
X12665745Y-9149071D02*
X12675269Y-9187166D01*
X12675269Y-9187166D02*
X12675269Y-9234785D01*
X12675269Y-9234785D02*
X12665745Y-9272881D01*
X12665745Y-9272881D02*
X12656221Y-9291928D01*
X12656221Y-9291928D02*
X12646697Y-9301452D01*
X12646697Y-9301452D02*
X12627650Y-9310976D01*
X12627650Y-9310976D02*
X12608602Y-9310976D01*
X12608602Y-9310976D02*
X12589554Y-9301452D01*
X12589554Y-9301452D02*
X12580031Y-9291928D01*
X12580031Y-9291928D02*
X12570507Y-9272881D01*
X12570507Y-9272881D02*
X12560983Y-9234785D01*
X12560983Y-9234785D02*
X12560983Y-9187166D01*
X12560983Y-9187166D02*
X12570507Y-9149071D01*
X12570507Y-9149071D02*
X12580031Y-9130024D01*
X12580031Y-9130024D02*
X12589554Y-9120500D01*
X12589554Y-9120500D02*
X12608602Y-9110976D01*
X12760983Y-9291928D02*
X12770507Y-9301452D01*
X12770507Y-9301452D02*
X12760983Y-9310976D01*
X12760983Y-9310976D02*
X12751459Y-9301452D01*
X12751459Y-9301452D02*
X12760983Y-9291928D01*
X12760983Y-9291928D02*
X12760983Y-9310976D01*
X12941935Y-9110976D02*
X12903840Y-9110976D01*
X12903840Y-9110976D02*
X12884792Y-9120500D01*
X12884792Y-9120500D02*
X12875269Y-9130024D01*
X12875269Y-9130024D02*
X12856221Y-9158595D01*
X12856221Y-9158595D02*
X12846697Y-9196690D01*
X12846697Y-9196690D02*
X12846697Y-9272881D01*
X12846697Y-9272881D02*
X12856221Y-9291928D01*
X12856221Y-9291928D02*
X12865745Y-9301452D01*
X12865745Y-9301452D02*
X12884792Y-9310976D01*
X12884792Y-9310976D02*
X12922888Y-9310976D01*
X12922888Y-9310976D02*
X12941935Y-9301452D01*
X12941935Y-9301452D02*
X12951459Y-9291928D01*
X12951459Y-9291928D02*
X12960983Y-9272881D01*
X12960983Y-9272881D02*
X12960983Y-9225262D01*
X12960983Y-9225262D02*
X12951459Y-9206214D01*
X12951459Y-9206214D02*
X12941935Y-9196690D01*
X12941935Y-9196690D02*
X12922888Y-9187166D01*
X12922888Y-9187166D02*
X12884792Y-9187166D01*
X12884792Y-9187166D02*
X12865745Y-9196690D01*
X12865745Y-9196690D02*
X12856221Y-9206214D01*
X12856221Y-9206214D02*
X12846697Y-9225262D01*
X13084792Y-9110976D02*
X13103840Y-9110976D01*
X13103840Y-9110976D02*
X13122888Y-9120500D01*
X13122888Y-9120500D02*
X13132412Y-9130024D01*
X13132412Y-9130024D02*
X13141935Y-9149071D01*
X13141935Y-9149071D02*
X13151459Y-9187166D01*
X13151459Y-9187166D02*
X13151459Y-9234785D01*
X13151459Y-9234785D02*
X13141935Y-9272881D01*
X13141935Y-9272881D02*
X13132412Y-9291928D01*
X13132412Y-9291928D02*
X13122888Y-9301452D01*
X13122888Y-9301452D02*
X13103840Y-9310976D01*
X13103840Y-9310976D02*
X13084792Y-9310976D01*
X13084792Y-9310976D02*
X13065745Y-9301452D01*
X13065745Y-9301452D02*
X13056221Y-9291928D01*
X13056221Y-9291928D02*
X13046697Y-9272881D01*
X13046697Y-9272881D02*
X13037173Y-9234785D01*
X13037173Y-9234785D02*
X13037173Y-9187166D01*
X13037173Y-9187166D02*
X13046697Y-9149071D01*
X13046697Y-9149071D02*
X13056221Y-9130024D01*
X13056221Y-9130024D02*
X13065745Y-9120500D01*
X13065745Y-9120500D02*
X13084792Y-9110976D01*
X13275269Y-9110976D02*
X13294316Y-9110976D01*
X13294316Y-9110976D02*
X13313364Y-9120500D01*
X13313364Y-9120500D02*
X13322888Y-9130024D01*
X13322888Y-9130024D02*
X13332412Y-9149071D01*
X13332412Y-9149071D02*
X13341935Y-9187166D01*
X13341935Y-9187166D02*
X13341935Y-9234785D01*
X13341935Y-9234785D02*
X13332412Y-9272881D01*
X13332412Y-9272881D02*
X13322888Y-9291928D01*
X13322888Y-9291928D02*
X13313364Y-9301452D01*
X13313364Y-9301452D02*
X13294316Y-9310976D01*
X13294316Y-9310976D02*
X13275269Y-9310976D01*
X13275269Y-9310976D02*
X13256221Y-9301452D01*
X13256221Y-9301452D02*
X13246697Y-9291928D01*
X13246697Y-9291928D02*
X13237173Y-9272881D01*
X13237173Y-9272881D02*
X13227650Y-9234785D01*
X13227650Y-9234785D02*
X13227650Y-9187166D01*
X13227650Y-9187166D02*
X13237173Y-9149071D01*
X13237173Y-9149071D02*
X13246697Y-9130024D01*
X13246697Y-9130024D02*
X13256221Y-9120500D01*
X13256221Y-9120500D02*
X13275269Y-9110976D01*
X13427650Y-9310976D02*
X13427650Y-9177643D01*
X13427650Y-9196690D02*
X13437173Y-9187166D01*
X13437173Y-9187166D02*
X13456221Y-9177643D01*
X13456221Y-9177643D02*
X13484793Y-9177643D01*
X13484793Y-9177643D02*
X13503840Y-9187166D01*
X13503840Y-9187166D02*
X13513364Y-9206214D01*
X13513364Y-9206214D02*
X13513364Y-9310976D01*
X13513364Y-9206214D02*
X13522888Y-9187166D01*
X13522888Y-9187166D02*
X13541935Y-9177643D01*
X13541935Y-9177643D02*
X13570507Y-9177643D01*
X13570507Y-9177643D02*
X13589554Y-9187166D01*
X13589554Y-9187166D02*
X13599078Y-9206214D01*
X13599078Y-9206214D02*
X13599078Y-9310976D01*
X13694316Y-9310976D02*
X13694316Y-9177643D01*
X13694316Y-9196690D02*
X13703840Y-9187166D01*
X13703840Y-9187166D02*
X13722888Y-9177643D01*
X13722888Y-9177643D02*
X13751459Y-9177643D01*
X13751459Y-9177643D02*
X13770507Y-9187166D01*
X13770507Y-9187166D02*
X13780031Y-9206214D01*
X13780031Y-9206214D02*
X13780031Y-9310976D01*
X13780031Y-9206214D02*
X13789554Y-9187166D01*
X13789554Y-9187166D02*
X13808602Y-9177643D01*
X13808602Y-9177643D02*
X13837173Y-9177643D01*
X13837173Y-9177643D02*
X13856221Y-9187166D01*
X13856221Y-9187166D02*
X13865745Y-9206214D01*
X13865745Y-9206214D02*
X13865745Y-9310976D01*
X14256221Y-9101452D02*
X14084793Y-9358595D01*
X14513364Y-9110976D02*
X14532412Y-9110976D01*
X14532412Y-9110976D02*
X14551459Y-9120500D01*
X14551459Y-9120500D02*
X14560983Y-9130024D01*
X14560983Y-9130024D02*
X14570507Y-9149071D01*
X14570507Y-9149071D02*
X14580031Y-9187166D01*
X14580031Y-9187166D02*
X14580031Y-9234785D01*
X14580031Y-9234785D02*
X14570507Y-9272881D01*
X14570507Y-9272881D02*
X14560983Y-9291928D01*
X14560983Y-9291928D02*
X14551459Y-9301452D01*
X14551459Y-9301452D02*
X14532412Y-9310976D01*
X14532412Y-9310976D02*
X14513364Y-9310976D01*
X14513364Y-9310976D02*
X14494316Y-9301452D01*
X14494316Y-9301452D02*
X14484793Y-9291928D01*
X14484793Y-9291928D02*
X14475269Y-9272881D01*
X14475269Y-9272881D02*
X14465745Y-9234785D01*
X14465745Y-9234785D02*
X14465745Y-9187166D01*
X14465745Y-9187166D02*
X14475269Y-9149071D01*
X14475269Y-9149071D02*
X14484793Y-9130024D01*
X14484793Y-9130024D02*
X14494316Y-9120500D01*
X14494316Y-9120500D02*
X14513364Y-9110976D01*
X14665745Y-9291928D02*
X14675269Y-9301452D01*
X14675269Y-9301452D02*
X14665745Y-9310976D01*
X14665745Y-9310976D02*
X14656221Y-9301452D01*
X14656221Y-9301452D02*
X14665745Y-9291928D01*
X14665745Y-9291928D02*
X14665745Y-9310976D01*
X14799078Y-9110976D02*
X14818126Y-9110976D01*
X14818126Y-9110976D02*
X14837174Y-9120500D01*
X14837174Y-9120500D02*
X14846697Y-9130024D01*
X14846697Y-9130024D02*
X14856221Y-9149071D01*
X14856221Y-9149071D02*
X14865745Y-9187166D01*
X14865745Y-9187166D02*
X14865745Y-9234785D01*
X14865745Y-9234785D02*
X14856221Y-9272881D01*
X14856221Y-9272881D02*
X14846697Y-9291928D01*
X14846697Y-9291928D02*
X14837174Y-9301452D01*
X14837174Y-9301452D02*
X14818126Y-9310976D01*
X14818126Y-9310976D02*
X14799078Y-9310976D01*
X14799078Y-9310976D02*
X14780031Y-9301452D01*
X14780031Y-9301452D02*
X14770507Y-9291928D01*
X14770507Y-9291928D02*
X14760983Y-9272881D01*
X14760983Y-9272881D02*
X14751459Y-9234785D01*
X14751459Y-9234785D02*
X14751459Y-9187166D01*
X14751459Y-9187166D02*
X14760983Y-9149071D01*
X14760983Y-9149071D02*
X14770507Y-9130024D01*
X14770507Y-9130024D02*
X14780031Y-9120500D01*
X14780031Y-9120500D02*
X14799078Y-9110976D01*
X14941936Y-9130024D02*
X14951459Y-9120500D01*
X14951459Y-9120500D02*
X14970507Y-9110976D01*
X14970507Y-9110976D02*
X15018126Y-9110976D01*
X15018126Y-9110976D02*
X15037174Y-9120500D01*
X15037174Y-9120500D02*
X15046697Y-9130024D01*
X15046697Y-9130024D02*
X15056221Y-9149071D01*
X15056221Y-9149071D02*
X15056221Y-9168119D01*
X15056221Y-9168119D02*
X15046697Y-9196690D01*
X15046697Y-9196690D02*
X14932412Y-9310976D01*
X14932412Y-9310976D02*
X15056221Y-9310976D01*
X15122888Y-9110976D02*
X15246697Y-9110976D01*
X15246697Y-9110976D02*
X15180031Y-9187166D01*
X15180031Y-9187166D02*
X15208602Y-9187166D01*
X15208602Y-9187166D02*
X15227650Y-9196690D01*
X15227650Y-9196690D02*
X15237174Y-9206214D01*
X15237174Y-9206214D02*
X15246697Y-9225262D01*
X15246697Y-9225262D02*
X15246697Y-9272881D01*
X15246697Y-9272881D02*
X15237174Y-9291928D01*
X15237174Y-9291928D02*
X15227650Y-9301452D01*
X15227650Y-9301452D02*
X15208602Y-9310976D01*
X15208602Y-9310976D02*
X15151459Y-9310976D01*
X15151459Y-9310976D02*
X15132412Y-9301452D01*
X15132412Y-9301452D02*
X15122888Y-9291928D01*
X15418126Y-9110976D02*
X15380031Y-9110976D01*
X15380031Y-9110976D02*
X15360983Y-9120500D01*
X15360983Y-9120500D02*
X15351459Y-9130024D01*
X15351459Y-9130024D02*
X15332412Y-9158595D01*
X15332412Y-9158595D02*
X15322888Y-9196690D01*
X15322888Y-9196690D02*
X15322888Y-9272881D01*
X15322888Y-9272881D02*
X15332412Y-9291928D01*
X15332412Y-9291928D02*
X15341936Y-9301452D01*
X15341936Y-9301452D02*
X15360983Y-9310976D01*
X15360983Y-9310976D02*
X15399078Y-9310976D01*
X15399078Y-9310976D02*
X15418126Y-9301452D01*
X15418126Y-9301452D02*
X15427650Y-9291928D01*
X15427650Y-9291928D02*
X15437174Y-9272881D01*
X15437174Y-9272881D02*
X15437174Y-9225262D01*
X15437174Y-9225262D02*
X15427650Y-9206214D01*
X15427650Y-9206214D02*
X15418126Y-9196690D01*
X15418126Y-9196690D02*
X15399078Y-9187166D01*
X15399078Y-9187166D02*
X15360983Y-9187166D01*
X15360983Y-9187166D02*
X15341936Y-9196690D01*
X15341936Y-9196690D02*
X15332412Y-9206214D01*
X15332412Y-9206214D02*
X15322888Y-9225262D01*
X15513364Y-9110976D02*
X15513364Y-9149071D01*
X15589555Y-9110976D02*
X15589555Y-9149071D01*
X15884793Y-9387166D02*
X15875269Y-9377643D01*
X15875269Y-9377643D02*
X15856221Y-9349071D01*
X15856221Y-9349071D02*
X15846698Y-9330024D01*
X15846698Y-9330024D02*
X15837174Y-9301452D01*
X15837174Y-9301452D02*
X15827650Y-9253833D01*
X15827650Y-9253833D02*
X15827650Y-9215738D01*
X15827650Y-9215738D02*
X15837174Y-9168119D01*
X15837174Y-9168119D02*
X15846698Y-9139547D01*
X15846698Y-9139547D02*
X15856221Y-9120500D01*
X15856221Y-9120500D02*
X15875269Y-9091928D01*
X15875269Y-9091928D02*
X15884793Y-9082404D01*
X15951459Y-9130024D02*
X15960983Y-9120500D01*
X15960983Y-9120500D02*
X15980031Y-9110976D01*
X15980031Y-9110976D02*
X16027650Y-9110976D01*
X16027650Y-9110976D02*
X16046698Y-9120500D01*
X16046698Y-9120500D02*
X16056221Y-9130024D01*
X16056221Y-9130024D02*
X16065745Y-9149071D01*
X16065745Y-9149071D02*
X16065745Y-9168119D01*
X16065745Y-9168119D02*
X16056221Y-9196690D01*
X16056221Y-9196690D02*
X15941936Y-9310976D01*
X15941936Y-9310976D02*
X16065745Y-9310976D01*
X16132412Y-9110976D02*
X16256221Y-9110976D01*
X16256221Y-9110976D02*
X16189555Y-9187166D01*
X16189555Y-9187166D02*
X16218126Y-9187166D01*
X16218126Y-9187166D02*
X16237174Y-9196690D01*
X16237174Y-9196690D02*
X16246698Y-9206214D01*
X16246698Y-9206214D02*
X16256221Y-9225262D01*
X16256221Y-9225262D02*
X16256221Y-9272881D01*
X16256221Y-9272881D02*
X16246698Y-9291928D01*
X16246698Y-9291928D02*
X16237174Y-9301452D01*
X16237174Y-9301452D02*
X16218126Y-9310976D01*
X16218126Y-9310976D02*
X16160983Y-9310976D01*
X16160983Y-9310976D02*
X16141936Y-9301452D01*
X16141936Y-9301452D02*
X16132412Y-9291928D01*
X16494317Y-9310976D02*
X16494317Y-9110976D01*
X16580031Y-9310976D02*
X16580031Y-9206214D01*
X16580031Y-9206214D02*
X16570507Y-9187166D01*
X16570507Y-9187166D02*
X16551460Y-9177643D01*
X16551460Y-9177643D02*
X16522888Y-9177643D01*
X16522888Y-9177643D02*
X16503840Y-9187166D01*
X16503840Y-9187166D02*
X16494317Y-9196690D01*
X16703840Y-9310976D02*
X16684793Y-9301452D01*
X16684793Y-9301452D02*
X16675269Y-9291928D01*
X16675269Y-9291928D02*
X16665745Y-9272881D01*
X16665745Y-9272881D02*
X16665745Y-9215738D01*
X16665745Y-9215738D02*
X16675269Y-9196690D01*
X16675269Y-9196690D02*
X16684793Y-9187166D01*
X16684793Y-9187166D02*
X16703840Y-9177643D01*
X16703840Y-9177643D02*
X16732412Y-9177643D01*
X16732412Y-9177643D02*
X16751460Y-9187166D01*
X16751460Y-9187166D02*
X16760983Y-9196690D01*
X16760983Y-9196690D02*
X16770507Y-9215738D01*
X16770507Y-9215738D02*
X16770507Y-9272881D01*
X16770507Y-9272881D02*
X16760983Y-9291928D01*
X16760983Y-9291928D02*
X16751460Y-9301452D01*
X16751460Y-9301452D02*
X16732412Y-9310976D01*
X16732412Y-9310976D02*
X16703840Y-9310976D01*
X16884793Y-9310976D02*
X16865745Y-9301452D01*
X16865745Y-9301452D02*
X16856222Y-9282404D01*
X16856222Y-9282404D02*
X16856222Y-9110976D01*
X17037174Y-9301452D02*
X17018126Y-9310976D01*
X17018126Y-9310976D02*
X16980031Y-9310976D01*
X16980031Y-9310976D02*
X16960983Y-9301452D01*
X16960983Y-9301452D02*
X16951460Y-9282404D01*
X16951460Y-9282404D02*
X16951460Y-9206214D01*
X16951460Y-9206214D02*
X16960983Y-9187166D01*
X16960983Y-9187166D02*
X16980031Y-9177643D01*
X16980031Y-9177643D02*
X17018126Y-9177643D01*
X17018126Y-9177643D02*
X17037174Y-9187166D01*
X17037174Y-9187166D02*
X17046698Y-9206214D01*
X17046698Y-9206214D02*
X17046698Y-9225262D01*
X17046698Y-9225262D02*
X16951460Y-9244309D01*
X17122888Y-9301452D02*
X17141936Y-9310976D01*
X17141936Y-9310976D02*
X17180031Y-9310976D01*
X17180031Y-9310976D02*
X17199079Y-9301452D01*
X17199079Y-9301452D02*
X17208603Y-9282404D01*
X17208603Y-9282404D02*
X17208603Y-9272881D01*
X17208603Y-9272881D02*
X17199079Y-9253833D01*
X17199079Y-9253833D02*
X17180031Y-9244309D01*
X17180031Y-9244309D02*
X17151460Y-9244309D01*
X17151460Y-9244309D02*
X17132412Y-9234785D01*
X17132412Y-9234785D02*
X17122888Y-9215738D01*
X17122888Y-9215738D02*
X17122888Y-9206214D01*
X17122888Y-9206214D02*
X17132412Y-9187166D01*
X17132412Y-9187166D02*
X17151460Y-9177643D01*
X17151460Y-9177643D02*
X17180031Y-9177643D01*
X17180031Y-9177643D02*
X17199079Y-9187166D01*
X17446698Y-9234785D02*
X17599079Y-9234785D01*
X17522888Y-9310976D02*
X17522888Y-9158595D01*
X17932412Y-9177643D02*
X17932412Y-9310976D01*
X17884793Y-9101452D02*
X17837174Y-9244309D01*
X17837174Y-9244309D02*
X17960984Y-9244309D01*
X18180031Y-9301452D02*
X18199079Y-9310976D01*
X18199079Y-9310976D02*
X18237174Y-9310976D01*
X18237174Y-9310976D02*
X18256222Y-9301452D01*
X18256222Y-9301452D02*
X18265746Y-9282404D01*
X18265746Y-9282404D02*
X18265746Y-9272881D01*
X18265746Y-9272881D02*
X18256222Y-9253833D01*
X18256222Y-9253833D02*
X18237174Y-9244309D01*
X18237174Y-9244309D02*
X18208603Y-9244309D01*
X18208603Y-9244309D02*
X18189555Y-9234785D01*
X18189555Y-9234785D02*
X18180031Y-9215738D01*
X18180031Y-9215738D02*
X18180031Y-9206214D01*
X18180031Y-9206214D02*
X18189555Y-9187166D01*
X18189555Y-9187166D02*
X18208603Y-9177643D01*
X18208603Y-9177643D02*
X18237174Y-9177643D01*
X18237174Y-9177643D02*
X18256222Y-9187166D01*
X18380031Y-9310976D02*
X18360984Y-9301452D01*
X18360984Y-9301452D02*
X18351460Y-9282404D01*
X18351460Y-9282404D02*
X18351460Y-9110976D01*
X18484793Y-9310976D02*
X18465746Y-9301452D01*
X18465746Y-9301452D02*
X18456222Y-9291928D01*
X18456222Y-9291928D02*
X18446698Y-9272881D01*
X18446698Y-9272881D02*
X18446698Y-9215738D01*
X18446698Y-9215738D02*
X18456222Y-9196690D01*
X18456222Y-9196690D02*
X18465746Y-9187166D01*
X18465746Y-9187166D02*
X18484793Y-9177643D01*
X18484793Y-9177643D02*
X18513365Y-9177643D01*
X18513365Y-9177643D02*
X18532412Y-9187166D01*
X18532412Y-9187166D02*
X18541936Y-9196690D01*
X18541936Y-9196690D02*
X18551460Y-9215738D01*
X18551460Y-9215738D02*
X18551460Y-9272881D01*
X18551460Y-9272881D02*
X18541936Y-9291928D01*
X18541936Y-9291928D02*
X18532412Y-9301452D01*
X18532412Y-9301452D02*
X18513365Y-9310976D01*
X18513365Y-9310976D02*
X18484793Y-9310976D01*
X18608603Y-9177643D02*
X18684793Y-9177643D01*
X18637174Y-9110976D02*
X18637174Y-9282404D01*
X18637174Y-9282404D02*
X18646698Y-9301452D01*
X18646698Y-9301452D02*
X18665746Y-9310976D01*
X18665746Y-9310976D02*
X18684793Y-9310976D01*
X18741936Y-9301452D02*
X18760984Y-9310976D01*
X18760984Y-9310976D02*
X18799079Y-9310976D01*
X18799079Y-9310976D02*
X18818127Y-9301452D01*
X18818127Y-9301452D02*
X18827650Y-9282404D01*
X18827650Y-9282404D02*
X18827650Y-9272881D01*
X18827650Y-9272881D02*
X18818127Y-9253833D01*
X18818127Y-9253833D02*
X18799079Y-9244309D01*
X18799079Y-9244309D02*
X18770507Y-9244309D01*
X18770507Y-9244309D02*
X18751460Y-9234785D01*
X18751460Y-9234785D02*
X18741936Y-9215738D01*
X18741936Y-9215738D02*
X18741936Y-9206214D01*
X18741936Y-9206214D02*
X18751460Y-9187166D01*
X18751460Y-9187166D02*
X18770507Y-9177643D01*
X18770507Y-9177643D02*
X18799079Y-9177643D01*
X18799079Y-9177643D02*
X18818127Y-9187166D01*
X18894317Y-9387166D02*
X18903841Y-9377643D01*
X18903841Y-9377643D02*
X18922888Y-9349071D01*
X18922888Y-9349071D02*
X18932412Y-9330024D01*
X18932412Y-9330024D02*
X18941936Y-9301452D01*
X18941936Y-9301452D02*
X18951460Y-9253833D01*
X18951460Y-9253833D02*
X18951460Y-9215738D01*
X18951460Y-9215738D02*
X18941936Y-9168119D01*
X18941936Y-9168119D02*
X18932412Y-9139547D01*
X18932412Y-9139547D02*
X18922888Y-9120500D01*
X18922888Y-9120500D02*
X18903841Y-9091928D01*
X18903841Y-9091928D02*
X18894317Y-9082404D01*
D12*
X12297282Y-9513544D02*
X12297282Y-9453440D01*
X12237178Y-9453440D01*
X12237178Y-9513544D01*
X12297282Y-9513544D01*
D11*
X12608602Y-9374976D02*
X12627650Y-9374976D01*
X12627650Y-9374976D02*
X12646697Y-9384500D01*
X12646697Y-9384500D02*
X12656221Y-9394024D01*
X12656221Y-9394024D02*
X12665745Y-9413071D01*
X12665745Y-9413071D02*
X12675269Y-9451166D01*
X12675269Y-9451166D02*
X12675269Y-9498785D01*
X12675269Y-9498785D02*
X12665745Y-9536881D01*
X12665745Y-9536881D02*
X12656221Y-9555928D01*
X12656221Y-9555928D02*
X12646697Y-9565452D01*
X12646697Y-9565452D02*
X12627650Y-9574976D01*
X12627650Y-9574976D02*
X12608602Y-9574976D01*
X12608602Y-9574976D02*
X12589554Y-9565452D01*
X12589554Y-9565452D02*
X12580031Y-9555928D01*
X12580031Y-9555928D02*
X12570507Y-9536881D01*
X12570507Y-9536881D02*
X12560983Y-9498785D01*
X12560983Y-9498785D02*
X12560983Y-9451166D01*
X12560983Y-9451166D02*
X12570507Y-9413071D01*
X12570507Y-9413071D02*
X12580031Y-9394024D01*
X12580031Y-9394024D02*
X12589554Y-9384500D01*
X12589554Y-9384500D02*
X12608602Y-9374976D01*
X12760983Y-9555928D02*
X12770507Y-9565452D01*
X12770507Y-9565452D02*
X12760983Y-9574976D01*
X12760983Y-9574976D02*
X12751459Y-9565452D01*
X12751459Y-9565452D02*
X12760983Y-9555928D01*
X12760983Y-9555928D02*
X12760983Y-9574976D01*
X12884792Y-9460690D02*
X12865745Y-9451166D01*
X12865745Y-9451166D02*
X12856221Y-9441643D01*
X12856221Y-9441643D02*
X12846697Y-9422595D01*
X12846697Y-9422595D02*
X12846697Y-9413071D01*
X12846697Y-9413071D02*
X12856221Y-9394024D01*
X12856221Y-9394024D02*
X12865745Y-9384500D01*
X12865745Y-9384500D02*
X12884792Y-9374976D01*
X12884792Y-9374976D02*
X12922888Y-9374976D01*
X12922888Y-9374976D02*
X12941935Y-9384500D01*
X12941935Y-9384500D02*
X12951459Y-9394024D01*
X12951459Y-9394024D02*
X12960983Y-9413071D01*
X12960983Y-9413071D02*
X12960983Y-9422595D01*
X12960983Y-9422595D02*
X12951459Y-9441643D01*
X12951459Y-9441643D02*
X12941935Y-9451166D01*
X12941935Y-9451166D02*
X12922888Y-9460690D01*
X12922888Y-9460690D02*
X12884792Y-9460690D01*
X12884792Y-9460690D02*
X12865745Y-9470214D01*
X12865745Y-9470214D02*
X12856221Y-9479738D01*
X12856221Y-9479738D02*
X12846697Y-9498785D01*
X12846697Y-9498785D02*
X12846697Y-9536881D01*
X12846697Y-9536881D02*
X12856221Y-9555928D01*
X12856221Y-9555928D02*
X12865745Y-9565452D01*
X12865745Y-9565452D02*
X12884792Y-9574976D01*
X12884792Y-9574976D02*
X12922888Y-9574976D01*
X12922888Y-9574976D02*
X12941935Y-9565452D01*
X12941935Y-9565452D02*
X12951459Y-9555928D01*
X12951459Y-9555928D02*
X12960983Y-9536881D01*
X12960983Y-9536881D02*
X12960983Y-9498785D01*
X12960983Y-9498785D02*
X12951459Y-9479738D01*
X12951459Y-9479738D02*
X12941935Y-9470214D01*
X12941935Y-9470214D02*
X12922888Y-9460690D01*
X13141935Y-9374976D02*
X13046697Y-9374976D01*
X13046697Y-9374976D02*
X13037173Y-9470214D01*
X13037173Y-9470214D02*
X13046697Y-9460690D01*
X13046697Y-9460690D02*
X13065745Y-9451166D01*
X13065745Y-9451166D02*
X13113364Y-9451166D01*
X13113364Y-9451166D02*
X13132412Y-9460690D01*
X13132412Y-9460690D02*
X13141935Y-9470214D01*
X13141935Y-9470214D02*
X13151459Y-9489262D01*
X13151459Y-9489262D02*
X13151459Y-9536881D01*
X13151459Y-9536881D02*
X13141935Y-9555928D01*
X13141935Y-9555928D02*
X13132412Y-9565452D01*
X13132412Y-9565452D02*
X13113364Y-9574976D01*
X13113364Y-9574976D02*
X13065745Y-9574976D01*
X13065745Y-9574976D02*
X13046697Y-9565452D01*
X13046697Y-9565452D02*
X13037173Y-9555928D01*
X13275269Y-9374976D02*
X13294316Y-9374976D01*
X13294316Y-9374976D02*
X13313364Y-9384500D01*
X13313364Y-9384500D02*
X13322888Y-9394024D01*
X13322888Y-9394024D02*
X13332412Y-9413071D01*
X13332412Y-9413071D02*
X13341935Y-9451166D01*
X13341935Y-9451166D02*
X13341935Y-9498785D01*
X13341935Y-9498785D02*
X13332412Y-9536881D01*
X13332412Y-9536881D02*
X13322888Y-9555928D01*
X13322888Y-9555928D02*
X13313364Y-9565452D01*
X13313364Y-9565452D02*
X13294316Y-9574976D01*
X13294316Y-9574976D02*
X13275269Y-9574976D01*
X13275269Y-9574976D02*
X13256221Y-9565452D01*
X13256221Y-9565452D02*
X13246697Y-9555928D01*
X13246697Y-9555928D02*
X13237173Y-9536881D01*
X13237173Y-9536881D02*
X13227650Y-9498785D01*
X13227650Y-9498785D02*
X13227650Y-9451166D01*
X13227650Y-9451166D02*
X13237173Y-9413071D01*
X13237173Y-9413071D02*
X13246697Y-9394024D01*
X13246697Y-9394024D02*
X13256221Y-9384500D01*
X13256221Y-9384500D02*
X13275269Y-9374976D01*
X13427650Y-9574976D02*
X13427650Y-9441643D01*
X13427650Y-9460690D02*
X13437173Y-9451166D01*
X13437173Y-9451166D02*
X13456221Y-9441643D01*
X13456221Y-9441643D02*
X13484793Y-9441643D01*
X13484793Y-9441643D02*
X13503840Y-9451166D01*
X13503840Y-9451166D02*
X13513364Y-9470214D01*
X13513364Y-9470214D02*
X13513364Y-9574976D01*
X13513364Y-9470214D02*
X13522888Y-9451166D01*
X13522888Y-9451166D02*
X13541935Y-9441643D01*
X13541935Y-9441643D02*
X13570507Y-9441643D01*
X13570507Y-9441643D02*
X13589554Y-9451166D01*
X13589554Y-9451166D02*
X13599078Y-9470214D01*
X13599078Y-9470214D02*
X13599078Y-9574976D01*
X13694316Y-9574976D02*
X13694316Y-9441643D01*
X13694316Y-9460690D02*
X13703840Y-9451166D01*
X13703840Y-9451166D02*
X13722888Y-9441643D01*
X13722888Y-9441643D02*
X13751459Y-9441643D01*
X13751459Y-9441643D02*
X13770507Y-9451166D01*
X13770507Y-9451166D02*
X13780031Y-9470214D01*
X13780031Y-9470214D02*
X13780031Y-9574976D01*
X13780031Y-9470214D02*
X13789554Y-9451166D01*
X13789554Y-9451166D02*
X13808602Y-9441643D01*
X13808602Y-9441643D02*
X13837173Y-9441643D01*
X13837173Y-9441643D02*
X13856221Y-9451166D01*
X13856221Y-9451166D02*
X13865745Y-9470214D01*
X13865745Y-9470214D02*
X13865745Y-9574976D01*
X14256221Y-9365452D02*
X14084793Y-9622595D01*
X14513364Y-9374976D02*
X14532412Y-9374976D01*
X14532412Y-9374976D02*
X14551459Y-9384500D01*
X14551459Y-9384500D02*
X14560983Y-9394024D01*
X14560983Y-9394024D02*
X14570507Y-9413071D01*
X14570507Y-9413071D02*
X14580031Y-9451166D01*
X14580031Y-9451166D02*
X14580031Y-9498785D01*
X14580031Y-9498785D02*
X14570507Y-9536881D01*
X14570507Y-9536881D02*
X14560983Y-9555928D01*
X14560983Y-9555928D02*
X14551459Y-9565452D01*
X14551459Y-9565452D02*
X14532412Y-9574976D01*
X14532412Y-9574976D02*
X14513364Y-9574976D01*
X14513364Y-9574976D02*
X14494316Y-9565452D01*
X14494316Y-9565452D02*
X14484793Y-9555928D01*
X14484793Y-9555928D02*
X14475269Y-9536881D01*
X14475269Y-9536881D02*
X14465745Y-9498785D01*
X14465745Y-9498785D02*
X14465745Y-9451166D01*
X14465745Y-9451166D02*
X14475269Y-9413071D01*
X14475269Y-9413071D02*
X14484793Y-9394024D01*
X14484793Y-9394024D02*
X14494316Y-9384500D01*
X14494316Y-9384500D02*
X14513364Y-9374976D01*
X14665745Y-9555928D02*
X14675269Y-9565452D01*
X14675269Y-9565452D02*
X14665745Y-9574976D01*
X14665745Y-9574976D02*
X14656221Y-9565452D01*
X14656221Y-9565452D02*
X14665745Y-9555928D01*
X14665745Y-9555928D02*
X14665745Y-9574976D01*
X14799078Y-9374976D02*
X14818126Y-9374976D01*
X14818126Y-9374976D02*
X14837174Y-9384500D01*
X14837174Y-9384500D02*
X14846697Y-9394024D01*
X14846697Y-9394024D02*
X14856221Y-9413071D01*
X14856221Y-9413071D02*
X14865745Y-9451166D01*
X14865745Y-9451166D02*
X14865745Y-9498785D01*
X14865745Y-9498785D02*
X14856221Y-9536881D01*
X14856221Y-9536881D02*
X14846697Y-9555928D01*
X14846697Y-9555928D02*
X14837174Y-9565452D01*
X14837174Y-9565452D02*
X14818126Y-9574976D01*
X14818126Y-9574976D02*
X14799078Y-9574976D01*
X14799078Y-9574976D02*
X14780031Y-9565452D01*
X14780031Y-9565452D02*
X14770507Y-9555928D01*
X14770507Y-9555928D02*
X14760983Y-9536881D01*
X14760983Y-9536881D02*
X14751459Y-9498785D01*
X14751459Y-9498785D02*
X14751459Y-9451166D01*
X14751459Y-9451166D02*
X14760983Y-9413071D01*
X14760983Y-9413071D02*
X14770507Y-9394024D01*
X14770507Y-9394024D02*
X14780031Y-9384500D01*
X14780031Y-9384500D02*
X14799078Y-9374976D01*
X14932412Y-9374976D02*
X15056221Y-9374976D01*
X15056221Y-9374976D02*
X14989555Y-9451166D01*
X14989555Y-9451166D02*
X15018126Y-9451166D01*
X15018126Y-9451166D02*
X15037174Y-9460690D01*
X15037174Y-9460690D02*
X15046697Y-9470214D01*
X15046697Y-9470214D02*
X15056221Y-9489262D01*
X15056221Y-9489262D02*
X15056221Y-9536881D01*
X15056221Y-9536881D02*
X15046697Y-9555928D01*
X15046697Y-9555928D02*
X15037174Y-9565452D01*
X15037174Y-9565452D02*
X15018126Y-9574976D01*
X15018126Y-9574976D02*
X14960983Y-9574976D01*
X14960983Y-9574976D02*
X14941936Y-9565452D01*
X14941936Y-9565452D02*
X14932412Y-9555928D01*
X15122888Y-9374976D02*
X15246697Y-9374976D01*
X15246697Y-9374976D02*
X15180031Y-9451166D01*
X15180031Y-9451166D02*
X15208602Y-9451166D01*
X15208602Y-9451166D02*
X15227650Y-9460690D01*
X15227650Y-9460690D02*
X15237174Y-9470214D01*
X15237174Y-9470214D02*
X15246697Y-9489262D01*
X15246697Y-9489262D02*
X15246697Y-9536881D01*
X15246697Y-9536881D02*
X15237174Y-9555928D01*
X15237174Y-9555928D02*
X15227650Y-9565452D01*
X15227650Y-9565452D02*
X15208602Y-9574976D01*
X15208602Y-9574976D02*
X15151459Y-9574976D01*
X15151459Y-9574976D02*
X15132412Y-9565452D01*
X15132412Y-9565452D02*
X15122888Y-9555928D01*
X15427650Y-9374976D02*
X15332412Y-9374976D01*
X15332412Y-9374976D02*
X15322888Y-9470214D01*
X15322888Y-9470214D02*
X15332412Y-9460690D01*
X15332412Y-9460690D02*
X15351459Y-9451166D01*
X15351459Y-9451166D02*
X15399078Y-9451166D01*
X15399078Y-9451166D02*
X15418126Y-9460690D01*
X15418126Y-9460690D02*
X15427650Y-9470214D01*
X15427650Y-9470214D02*
X15437174Y-9489262D01*
X15437174Y-9489262D02*
X15437174Y-9536881D01*
X15437174Y-9536881D02*
X15427650Y-9555928D01*
X15427650Y-9555928D02*
X15418126Y-9565452D01*
X15418126Y-9565452D02*
X15399078Y-9574976D01*
X15399078Y-9574976D02*
X15351459Y-9574976D01*
X15351459Y-9574976D02*
X15332412Y-9565452D01*
X15332412Y-9565452D02*
X15322888Y-9555928D01*
X15513364Y-9374976D02*
X15513364Y-9413071D01*
X15589555Y-9374976D02*
X15589555Y-9413071D01*
X15884793Y-9651166D02*
X15875269Y-9641643D01*
X15875269Y-9641643D02*
X15856221Y-9613071D01*
X15856221Y-9613071D02*
X15846698Y-9594024D01*
X15846698Y-9594024D02*
X15837174Y-9565452D01*
X15837174Y-9565452D02*
X15827650Y-9517833D01*
X15827650Y-9517833D02*
X15827650Y-9479738D01*
X15827650Y-9479738D02*
X15837174Y-9432119D01*
X15837174Y-9432119D02*
X15846698Y-9403547D01*
X15846698Y-9403547D02*
X15856221Y-9384500D01*
X15856221Y-9384500D02*
X15875269Y-9355928D01*
X15875269Y-9355928D02*
X15884793Y-9346404D01*
X16065745Y-9574976D02*
X15951459Y-9574976D01*
X16008602Y-9574976D02*
X16008602Y-9374976D01*
X16008602Y-9374976D02*
X15989555Y-9403547D01*
X15989555Y-9403547D02*
X15970507Y-9422595D01*
X15970507Y-9422595D02*
X15951459Y-9432119D01*
X16237174Y-9441643D02*
X16237174Y-9574976D01*
X16189555Y-9365452D02*
X16141936Y-9508309D01*
X16141936Y-9508309D02*
X16265745Y-9508309D01*
X16494317Y-9574976D02*
X16494317Y-9374976D01*
X16580031Y-9574976D02*
X16580031Y-9470214D01*
X16580031Y-9470214D02*
X16570507Y-9451166D01*
X16570507Y-9451166D02*
X16551460Y-9441643D01*
X16551460Y-9441643D02*
X16522888Y-9441643D01*
X16522888Y-9441643D02*
X16503840Y-9451166D01*
X16503840Y-9451166D02*
X16494317Y-9460690D01*
X16703840Y-9574976D02*
X16684793Y-9565452D01*
X16684793Y-9565452D02*
X16675269Y-9555928D01*
X16675269Y-9555928D02*
X16665745Y-9536881D01*
X16665745Y-9536881D02*
X16665745Y-9479738D01*
X16665745Y-9479738D02*
X16675269Y-9460690D01*
X16675269Y-9460690D02*
X16684793Y-9451166D01*
X16684793Y-9451166D02*
X16703840Y-9441643D01*
X16703840Y-9441643D02*
X16732412Y-9441643D01*
X16732412Y-9441643D02*
X16751460Y-9451166D01*
X16751460Y-9451166D02*
X16760983Y-9460690D01*
X16760983Y-9460690D02*
X16770507Y-9479738D01*
X16770507Y-9479738D02*
X16770507Y-9536881D01*
X16770507Y-9536881D02*
X16760983Y-9555928D01*
X16760983Y-9555928D02*
X16751460Y-9565452D01*
X16751460Y-9565452D02*
X16732412Y-9574976D01*
X16732412Y-9574976D02*
X16703840Y-9574976D01*
X16884793Y-9574976D02*
X16865745Y-9565452D01*
X16865745Y-9565452D02*
X16856222Y-9546404D01*
X16856222Y-9546404D02*
X16856222Y-9374976D01*
X17037174Y-9565452D02*
X17018126Y-9574976D01*
X17018126Y-9574976D02*
X16980031Y-9574976D01*
X16980031Y-9574976D02*
X16960983Y-9565452D01*
X16960983Y-9565452D02*
X16951460Y-9546404D01*
X16951460Y-9546404D02*
X16951460Y-9470214D01*
X16951460Y-9470214D02*
X16960983Y-9451166D01*
X16960983Y-9451166D02*
X16980031Y-9441643D01*
X16980031Y-9441643D02*
X17018126Y-9441643D01*
X17018126Y-9441643D02*
X17037174Y-9451166D01*
X17037174Y-9451166D02*
X17046698Y-9470214D01*
X17046698Y-9470214D02*
X17046698Y-9489262D01*
X17046698Y-9489262D02*
X16951460Y-9508309D01*
X17122888Y-9565452D02*
X17141936Y-9574976D01*
X17141936Y-9574976D02*
X17180031Y-9574976D01*
X17180031Y-9574976D02*
X17199079Y-9565452D01*
X17199079Y-9565452D02*
X17208603Y-9546404D01*
X17208603Y-9546404D02*
X17208603Y-9536881D01*
X17208603Y-9536881D02*
X17199079Y-9517833D01*
X17199079Y-9517833D02*
X17180031Y-9508309D01*
X17180031Y-9508309D02*
X17151460Y-9508309D01*
X17151460Y-9508309D02*
X17132412Y-9498785D01*
X17132412Y-9498785D02*
X17122888Y-9479738D01*
X17122888Y-9479738D02*
X17122888Y-9470214D01*
X17122888Y-9470214D02*
X17132412Y-9451166D01*
X17132412Y-9451166D02*
X17151460Y-9441643D01*
X17151460Y-9441643D02*
X17180031Y-9441643D01*
X17180031Y-9441643D02*
X17199079Y-9451166D01*
X17275269Y-9651166D02*
X17284793Y-9641643D01*
X17284793Y-9641643D02*
X17303841Y-9613071D01*
X17303841Y-9613071D02*
X17313364Y-9594024D01*
X17313364Y-9594024D02*
X17322888Y-9565452D01*
X17322888Y-9565452D02*
X17332412Y-9517833D01*
X17332412Y-9517833D02*
X17332412Y-9479738D01*
X17332412Y-9479738D02*
X17322888Y-9432119D01*
X17322888Y-9432119D02*
X17313364Y-9403547D01*
X17313364Y-9403547D02*
X17303841Y-9384500D01*
X17303841Y-9384500D02*
X17284793Y-9355928D01*
X17284793Y-9355928D02*
X17275269Y-9346404D01*
M02*
