%TF.GenerationSoftware,KiCad,Pcbnew,9.0.3*%
%TF.CreationDate,2026-01-29T22:49:22+09:00*%
%TF.ProjectId,xiaobao,7869616f-6261-46f2-9e6b-696361645f70,rev?*%
%TF.SameCoordinates,Original*%
%TF.FileFunction,Drillmap*%
%TF.FilePolarity,Positive*%
%FSLAX45Y45*%
G04 Gerber Fmt 4.5, Leading zero omitted, Abs format (unit mm)*
G04 Created by KiCad (PCBNEW 9.0.3) date 2026-01-29 22:49:22*
%MOMM*%
%LPD*%
G01*
G04 APERTURE LIST*
%ADD10C,0.025400*%
%ADD11C,0.200000*%
%ADD12C,0.100000*%
G04 APERTURE END LIST*
D10*
X13885795Y-5940000D02*
G75*
G02*
X14089000Y-6143200I5J-203200D01*
G01*
X13885800Y-5937460D02*
G75*
G02*
X13885800Y-5942540I0J-2540D01*
G01*
X12514200Y-5942540D02*
G75*
G02*
X12514200Y-5937460I0J2540D01*
G01*
X13885800Y-5942540D02*
G75*
G02*
X13885800Y-5937460I0J2540D01*
G01*
X12524367Y-8050160D02*
G75*
G02*
X12311000Y-7846949I-5087J208280D01*
G01*
X14089000Y-7836801D02*
G75*
G02*
X13885797Y-8050160I-208280J-5079D01*
G01*
X12524367Y-8050160D02*
X13885797Y-8050160D01*
X12514200Y-5937460D02*
G75*
G02*
X12514200Y-5942540I0J-2540D01*
G01*
X13885795Y-5940000D02*
X12514205Y-5940000D01*
X12311000Y-6143205D02*
X12311000Y-7846949D01*
X14089000Y-7836801D02*
X14089000Y-6143200D01*
X12311000Y-6143205D02*
G75*
G02*
X12514205Y-5940000I203210J-5D01*
G01*
D11*
D12*
X12884000Y-6423000D02*
X12944000Y-6483000D01*
X12944000Y-6423000D02*
X12884000Y-6483000D01*
X13462000Y-6423000D02*
X13522000Y-6483000D01*
X13522000Y-6423000D02*
X13462000Y-6483000D01*
D11*
X12570507Y-8362976D02*
X12570507Y-8162976D01*
X12570507Y-8162976D02*
X12618126Y-8162976D01*
X12618126Y-8162976D02*
X12646697Y-8172500D01*
X12646697Y-8172500D02*
X12665745Y-8191547D01*
X12665745Y-8191547D02*
X12675269Y-8210595D01*
X12675269Y-8210595D02*
X12684792Y-8248690D01*
X12684792Y-8248690D02*
X12684792Y-8277262D01*
X12684792Y-8277262D02*
X12675269Y-8315357D01*
X12675269Y-8315357D02*
X12665745Y-8334404D01*
X12665745Y-8334404D02*
X12646697Y-8353452D01*
X12646697Y-8353452D02*
X12618126Y-8362976D01*
X12618126Y-8362976D02*
X12570507Y-8362976D01*
X12770507Y-8362976D02*
X12770507Y-8229642D01*
X12770507Y-8267738D02*
X12780031Y-8248690D01*
X12780031Y-8248690D02*
X12789554Y-8239166D01*
X12789554Y-8239166D02*
X12808602Y-8229642D01*
X12808602Y-8229642D02*
X12827650Y-8229642D01*
X12894316Y-8362976D02*
X12894316Y-8229642D01*
X12894316Y-8162976D02*
X12884792Y-8172500D01*
X12884792Y-8172500D02*
X12894316Y-8182023D01*
X12894316Y-8182023D02*
X12903840Y-8172500D01*
X12903840Y-8172500D02*
X12894316Y-8162976D01*
X12894316Y-8162976D02*
X12894316Y-8182023D01*
X13018126Y-8362976D02*
X12999078Y-8353452D01*
X12999078Y-8353452D02*
X12989554Y-8334404D01*
X12989554Y-8334404D02*
X12989554Y-8162976D01*
X13122888Y-8362976D02*
X13103840Y-8353452D01*
X13103840Y-8353452D02*
X13094316Y-8334404D01*
X13094316Y-8334404D02*
X13094316Y-8162976D01*
X13351459Y-8362976D02*
X13351459Y-8162976D01*
X13351459Y-8162976D02*
X13418126Y-8305833D01*
X13418126Y-8305833D02*
X13484792Y-8162976D01*
X13484792Y-8162976D02*
X13484792Y-8362976D01*
X13665745Y-8362976D02*
X13665745Y-8258214D01*
X13665745Y-8258214D02*
X13656221Y-8239166D01*
X13656221Y-8239166D02*
X13637173Y-8229642D01*
X13637173Y-8229642D02*
X13599078Y-8229642D01*
X13599078Y-8229642D02*
X13580031Y-8239166D01*
X13665745Y-8353452D02*
X13646697Y-8362976D01*
X13646697Y-8362976D02*
X13599078Y-8362976D01*
X13599078Y-8362976D02*
X13580031Y-8353452D01*
X13580031Y-8353452D02*
X13570507Y-8334404D01*
X13570507Y-8334404D02*
X13570507Y-8315357D01*
X13570507Y-8315357D02*
X13580031Y-8296309D01*
X13580031Y-8296309D02*
X13599078Y-8286785D01*
X13599078Y-8286785D02*
X13646697Y-8286785D01*
X13646697Y-8286785D02*
X13665745Y-8277262D01*
X13760983Y-8229642D02*
X13760983Y-8429643D01*
X13760983Y-8239166D02*
X13780031Y-8229642D01*
X13780031Y-8229642D02*
X13818126Y-8229642D01*
X13818126Y-8229642D02*
X13837173Y-8239166D01*
X13837173Y-8239166D02*
X13846697Y-8248690D01*
X13846697Y-8248690D02*
X13856221Y-8267738D01*
X13856221Y-8267738D02*
X13856221Y-8324881D01*
X13856221Y-8324881D02*
X13846697Y-8343928D01*
X13846697Y-8343928D02*
X13837173Y-8353452D01*
X13837173Y-8353452D02*
X13818126Y-8362976D01*
X13818126Y-8362976D02*
X13780031Y-8362976D01*
X13780031Y-8362976D02*
X13760983Y-8353452D01*
X13941935Y-8343928D02*
X13951459Y-8353452D01*
X13951459Y-8353452D02*
X13941935Y-8362976D01*
X13941935Y-8362976D02*
X13932412Y-8353452D01*
X13932412Y-8353452D02*
X13941935Y-8343928D01*
X13941935Y-8343928D02*
X13941935Y-8362976D01*
X13941935Y-8239166D02*
X13951459Y-8248690D01*
X13951459Y-8248690D02*
X13941935Y-8258214D01*
X13941935Y-8258214D02*
X13932412Y-8248690D01*
X13932412Y-8248690D02*
X13941935Y-8239166D01*
X13941935Y-8239166D02*
X13941935Y-8258214D01*
D12*
X12249730Y-8661492D02*
X12309730Y-8721492D01*
X12309730Y-8661492D02*
X12249730Y-8721492D01*
D11*
X12608602Y-8582976D02*
X12627650Y-8582976D01*
X12627650Y-8582976D02*
X12646697Y-8592500D01*
X12646697Y-8592500D02*
X12656221Y-8602024D01*
X12656221Y-8602024D02*
X12665745Y-8621071D01*
X12665745Y-8621071D02*
X12675269Y-8659166D01*
X12675269Y-8659166D02*
X12675269Y-8706785D01*
X12675269Y-8706785D02*
X12665745Y-8744881D01*
X12665745Y-8744881D02*
X12656221Y-8763928D01*
X12656221Y-8763928D02*
X12646697Y-8773452D01*
X12646697Y-8773452D02*
X12627650Y-8782976D01*
X12627650Y-8782976D02*
X12608602Y-8782976D01*
X12608602Y-8782976D02*
X12589554Y-8773452D01*
X12589554Y-8773452D02*
X12580031Y-8763928D01*
X12580031Y-8763928D02*
X12570507Y-8744881D01*
X12570507Y-8744881D02*
X12560983Y-8706785D01*
X12560983Y-8706785D02*
X12560983Y-8659166D01*
X12560983Y-8659166D02*
X12570507Y-8621071D01*
X12570507Y-8621071D02*
X12580031Y-8602024D01*
X12580031Y-8602024D02*
X12589554Y-8592500D01*
X12589554Y-8592500D02*
X12608602Y-8582976D01*
X12760983Y-8763928D02*
X12770507Y-8773452D01*
X12770507Y-8773452D02*
X12760983Y-8782976D01*
X12760983Y-8782976D02*
X12751459Y-8773452D01*
X12751459Y-8773452D02*
X12760983Y-8763928D01*
X12760983Y-8763928D02*
X12760983Y-8782976D01*
X12941935Y-8582976D02*
X12903840Y-8582976D01*
X12903840Y-8582976D02*
X12884792Y-8592500D01*
X12884792Y-8592500D02*
X12875269Y-8602024D01*
X12875269Y-8602024D02*
X12856221Y-8630595D01*
X12856221Y-8630595D02*
X12846697Y-8668690D01*
X12846697Y-8668690D02*
X12846697Y-8744881D01*
X12846697Y-8744881D02*
X12856221Y-8763928D01*
X12856221Y-8763928D02*
X12865745Y-8773452D01*
X12865745Y-8773452D02*
X12884792Y-8782976D01*
X12884792Y-8782976D02*
X12922888Y-8782976D01*
X12922888Y-8782976D02*
X12941935Y-8773452D01*
X12941935Y-8773452D02*
X12951459Y-8763928D01*
X12951459Y-8763928D02*
X12960983Y-8744881D01*
X12960983Y-8744881D02*
X12960983Y-8697262D01*
X12960983Y-8697262D02*
X12951459Y-8678214D01*
X12951459Y-8678214D02*
X12941935Y-8668690D01*
X12941935Y-8668690D02*
X12922888Y-8659166D01*
X12922888Y-8659166D02*
X12884792Y-8659166D01*
X12884792Y-8659166D02*
X12865745Y-8668690D01*
X12865745Y-8668690D02*
X12856221Y-8678214D01*
X12856221Y-8678214D02*
X12846697Y-8697262D01*
X13084792Y-8582976D02*
X13103840Y-8582976D01*
X13103840Y-8582976D02*
X13122888Y-8592500D01*
X13122888Y-8592500D02*
X13132412Y-8602024D01*
X13132412Y-8602024D02*
X13141935Y-8621071D01*
X13141935Y-8621071D02*
X13151459Y-8659166D01*
X13151459Y-8659166D02*
X13151459Y-8706785D01*
X13151459Y-8706785D02*
X13141935Y-8744881D01*
X13141935Y-8744881D02*
X13132412Y-8763928D01*
X13132412Y-8763928D02*
X13122888Y-8773452D01*
X13122888Y-8773452D02*
X13103840Y-8782976D01*
X13103840Y-8782976D02*
X13084792Y-8782976D01*
X13084792Y-8782976D02*
X13065745Y-8773452D01*
X13065745Y-8773452D02*
X13056221Y-8763928D01*
X13056221Y-8763928D02*
X13046697Y-8744881D01*
X13046697Y-8744881D02*
X13037173Y-8706785D01*
X13037173Y-8706785D02*
X13037173Y-8659166D01*
X13037173Y-8659166D02*
X13046697Y-8621071D01*
X13046697Y-8621071D02*
X13056221Y-8602024D01*
X13056221Y-8602024D02*
X13065745Y-8592500D01*
X13065745Y-8592500D02*
X13084792Y-8582976D01*
X13275269Y-8582976D02*
X13294316Y-8582976D01*
X13294316Y-8582976D02*
X13313364Y-8592500D01*
X13313364Y-8592500D02*
X13322888Y-8602024D01*
X13322888Y-8602024D02*
X13332412Y-8621071D01*
X13332412Y-8621071D02*
X13341935Y-8659166D01*
X13341935Y-8659166D02*
X13341935Y-8706785D01*
X13341935Y-8706785D02*
X13332412Y-8744881D01*
X13332412Y-8744881D02*
X13322888Y-8763928D01*
X13322888Y-8763928D02*
X13313364Y-8773452D01*
X13313364Y-8773452D02*
X13294316Y-8782976D01*
X13294316Y-8782976D02*
X13275269Y-8782976D01*
X13275269Y-8782976D02*
X13256221Y-8773452D01*
X13256221Y-8773452D02*
X13246697Y-8763928D01*
X13246697Y-8763928D02*
X13237173Y-8744881D01*
X13237173Y-8744881D02*
X13227650Y-8706785D01*
X13227650Y-8706785D02*
X13227650Y-8659166D01*
X13227650Y-8659166D02*
X13237173Y-8621071D01*
X13237173Y-8621071D02*
X13246697Y-8602024D01*
X13246697Y-8602024D02*
X13256221Y-8592500D01*
X13256221Y-8592500D02*
X13275269Y-8582976D01*
X13427650Y-8782976D02*
X13427650Y-8649643D01*
X13427650Y-8668690D02*
X13437173Y-8659166D01*
X13437173Y-8659166D02*
X13456221Y-8649643D01*
X13456221Y-8649643D02*
X13484793Y-8649643D01*
X13484793Y-8649643D02*
X13503840Y-8659166D01*
X13503840Y-8659166D02*
X13513364Y-8678214D01*
X13513364Y-8678214D02*
X13513364Y-8782976D01*
X13513364Y-8678214D02*
X13522888Y-8659166D01*
X13522888Y-8659166D02*
X13541935Y-8649643D01*
X13541935Y-8649643D02*
X13570507Y-8649643D01*
X13570507Y-8649643D02*
X13589554Y-8659166D01*
X13589554Y-8659166D02*
X13599078Y-8678214D01*
X13599078Y-8678214D02*
X13599078Y-8782976D01*
X13694316Y-8782976D02*
X13694316Y-8649643D01*
X13694316Y-8668690D02*
X13703840Y-8659166D01*
X13703840Y-8659166D02*
X13722888Y-8649643D01*
X13722888Y-8649643D02*
X13751459Y-8649643D01*
X13751459Y-8649643D02*
X13770507Y-8659166D01*
X13770507Y-8659166D02*
X13780031Y-8678214D01*
X13780031Y-8678214D02*
X13780031Y-8782976D01*
X13780031Y-8678214D02*
X13789554Y-8659166D01*
X13789554Y-8659166D02*
X13808602Y-8649643D01*
X13808602Y-8649643D02*
X13837173Y-8649643D01*
X13837173Y-8649643D02*
X13856221Y-8659166D01*
X13856221Y-8659166D02*
X13865745Y-8678214D01*
X13865745Y-8678214D02*
X13865745Y-8782976D01*
X14256221Y-8573452D02*
X14084793Y-8830595D01*
X14513364Y-8582976D02*
X14532412Y-8582976D01*
X14532412Y-8582976D02*
X14551459Y-8592500D01*
X14551459Y-8592500D02*
X14560983Y-8602024D01*
X14560983Y-8602024D02*
X14570507Y-8621071D01*
X14570507Y-8621071D02*
X14580031Y-8659166D01*
X14580031Y-8659166D02*
X14580031Y-8706785D01*
X14580031Y-8706785D02*
X14570507Y-8744881D01*
X14570507Y-8744881D02*
X14560983Y-8763928D01*
X14560983Y-8763928D02*
X14551459Y-8773452D01*
X14551459Y-8773452D02*
X14532412Y-8782976D01*
X14532412Y-8782976D02*
X14513364Y-8782976D01*
X14513364Y-8782976D02*
X14494316Y-8773452D01*
X14494316Y-8773452D02*
X14484793Y-8763928D01*
X14484793Y-8763928D02*
X14475269Y-8744881D01*
X14475269Y-8744881D02*
X14465745Y-8706785D01*
X14465745Y-8706785D02*
X14465745Y-8659166D01*
X14465745Y-8659166D02*
X14475269Y-8621071D01*
X14475269Y-8621071D02*
X14484793Y-8602024D01*
X14484793Y-8602024D02*
X14494316Y-8592500D01*
X14494316Y-8592500D02*
X14513364Y-8582976D01*
X14665745Y-8763928D02*
X14675269Y-8773452D01*
X14675269Y-8773452D02*
X14665745Y-8782976D01*
X14665745Y-8782976D02*
X14656221Y-8773452D01*
X14656221Y-8773452D02*
X14665745Y-8763928D01*
X14665745Y-8763928D02*
X14665745Y-8782976D01*
X14799078Y-8582976D02*
X14818126Y-8582976D01*
X14818126Y-8582976D02*
X14837174Y-8592500D01*
X14837174Y-8592500D02*
X14846697Y-8602024D01*
X14846697Y-8602024D02*
X14856221Y-8621071D01*
X14856221Y-8621071D02*
X14865745Y-8659166D01*
X14865745Y-8659166D02*
X14865745Y-8706785D01*
X14865745Y-8706785D02*
X14856221Y-8744881D01*
X14856221Y-8744881D02*
X14846697Y-8763928D01*
X14846697Y-8763928D02*
X14837174Y-8773452D01*
X14837174Y-8773452D02*
X14818126Y-8782976D01*
X14818126Y-8782976D02*
X14799078Y-8782976D01*
X14799078Y-8782976D02*
X14780031Y-8773452D01*
X14780031Y-8773452D02*
X14770507Y-8763928D01*
X14770507Y-8763928D02*
X14760983Y-8744881D01*
X14760983Y-8744881D02*
X14751459Y-8706785D01*
X14751459Y-8706785D02*
X14751459Y-8659166D01*
X14751459Y-8659166D02*
X14760983Y-8621071D01*
X14760983Y-8621071D02*
X14770507Y-8602024D01*
X14770507Y-8602024D02*
X14780031Y-8592500D01*
X14780031Y-8592500D02*
X14799078Y-8582976D01*
X14941936Y-8602024D02*
X14951459Y-8592500D01*
X14951459Y-8592500D02*
X14970507Y-8582976D01*
X14970507Y-8582976D02*
X15018126Y-8582976D01*
X15018126Y-8582976D02*
X15037174Y-8592500D01*
X15037174Y-8592500D02*
X15046697Y-8602024D01*
X15046697Y-8602024D02*
X15056221Y-8621071D01*
X15056221Y-8621071D02*
X15056221Y-8640119D01*
X15056221Y-8640119D02*
X15046697Y-8668690D01*
X15046697Y-8668690D02*
X14932412Y-8782976D01*
X14932412Y-8782976D02*
X15056221Y-8782976D01*
X15122888Y-8582976D02*
X15246697Y-8582976D01*
X15246697Y-8582976D02*
X15180031Y-8659166D01*
X15180031Y-8659166D02*
X15208602Y-8659166D01*
X15208602Y-8659166D02*
X15227650Y-8668690D01*
X15227650Y-8668690D02*
X15237174Y-8678214D01*
X15237174Y-8678214D02*
X15246697Y-8697262D01*
X15246697Y-8697262D02*
X15246697Y-8744881D01*
X15246697Y-8744881D02*
X15237174Y-8763928D01*
X15237174Y-8763928D02*
X15227650Y-8773452D01*
X15227650Y-8773452D02*
X15208602Y-8782976D01*
X15208602Y-8782976D02*
X15151459Y-8782976D01*
X15151459Y-8782976D02*
X15132412Y-8773452D01*
X15132412Y-8773452D02*
X15122888Y-8763928D01*
X15418126Y-8582976D02*
X15380031Y-8582976D01*
X15380031Y-8582976D02*
X15360983Y-8592500D01*
X15360983Y-8592500D02*
X15351459Y-8602024D01*
X15351459Y-8602024D02*
X15332412Y-8630595D01*
X15332412Y-8630595D02*
X15322888Y-8668690D01*
X15322888Y-8668690D02*
X15322888Y-8744881D01*
X15322888Y-8744881D02*
X15332412Y-8763928D01*
X15332412Y-8763928D02*
X15341936Y-8773452D01*
X15341936Y-8773452D02*
X15360983Y-8782976D01*
X15360983Y-8782976D02*
X15399078Y-8782976D01*
X15399078Y-8782976D02*
X15418126Y-8773452D01*
X15418126Y-8773452D02*
X15427650Y-8763928D01*
X15427650Y-8763928D02*
X15437174Y-8744881D01*
X15437174Y-8744881D02*
X15437174Y-8697262D01*
X15437174Y-8697262D02*
X15427650Y-8678214D01*
X15427650Y-8678214D02*
X15418126Y-8668690D01*
X15418126Y-8668690D02*
X15399078Y-8659166D01*
X15399078Y-8659166D02*
X15360983Y-8659166D01*
X15360983Y-8659166D02*
X15341936Y-8668690D01*
X15341936Y-8668690D02*
X15332412Y-8678214D01*
X15332412Y-8678214D02*
X15322888Y-8697262D01*
X15513364Y-8582976D02*
X15513364Y-8621071D01*
X15589555Y-8582976D02*
X15589555Y-8621071D01*
X15884793Y-8859166D02*
X15875269Y-8849643D01*
X15875269Y-8849643D02*
X15856221Y-8821071D01*
X15856221Y-8821071D02*
X15846698Y-8802024D01*
X15846698Y-8802024D02*
X15837174Y-8773452D01*
X15837174Y-8773452D02*
X15827650Y-8725833D01*
X15827650Y-8725833D02*
X15827650Y-8687738D01*
X15827650Y-8687738D02*
X15837174Y-8640119D01*
X15837174Y-8640119D02*
X15846698Y-8611547D01*
X15846698Y-8611547D02*
X15856221Y-8592500D01*
X15856221Y-8592500D02*
X15875269Y-8563928D01*
X15875269Y-8563928D02*
X15884793Y-8554404D01*
X15951459Y-8602024D02*
X15960983Y-8592500D01*
X15960983Y-8592500D02*
X15980031Y-8582976D01*
X15980031Y-8582976D02*
X16027650Y-8582976D01*
X16027650Y-8582976D02*
X16046698Y-8592500D01*
X16046698Y-8592500D02*
X16056221Y-8602024D01*
X16056221Y-8602024D02*
X16065745Y-8621071D01*
X16065745Y-8621071D02*
X16065745Y-8640119D01*
X16065745Y-8640119D02*
X16056221Y-8668690D01*
X16056221Y-8668690D02*
X15941936Y-8782976D01*
X15941936Y-8782976D02*
X16065745Y-8782976D01*
X16303840Y-8782976D02*
X16303840Y-8582976D01*
X16389555Y-8782976D02*
X16389555Y-8678214D01*
X16389555Y-8678214D02*
X16380031Y-8659166D01*
X16380031Y-8659166D02*
X16360983Y-8649643D01*
X16360983Y-8649643D02*
X16332412Y-8649643D01*
X16332412Y-8649643D02*
X16313364Y-8659166D01*
X16313364Y-8659166D02*
X16303840Y-8668690D01*
X16513364Y-8782976D02*
X16494317Y-8773452D01*
X16494317Y-8773452D02*
X16484793Y-8763928D01*
X16484793Y-8763928D02*
X16475269Y-8744881D01*
X16475269Y-8744881D02*
X16475269Y-8687738D01*
X16475269Y-8687738D02*
X16484793Y-8668690D01*
X16484793Y-8668690D02*
X16494317Y-8659166D01*
X16494317Y-8659166D02*
X16513364Y-8649643D01*
X16513364Y-8649643D02*
X16541936Y-8649643D01*
X16541936Y-8649643D02*
X16560983Y-8659166D01*
X16560983Y-8659166D02*
X16570507Y-8668690D01*
X16570507Y-8668690D02*
X16580031Y-8687738D01*
X16580031Y-8687738D02*
X16580031Y-8744881D01*
X16580031Y-8744881D02*
X16570507Y-8763928D01*
X16570507Y-8763928D02*
X16560983Y-8773452D01*
X16560983Y-8773452D02*
X16541936Y-8782976D01*
X16541936Y-8782976D02*
X16513364Y-8782976D01*
X16694317Y-8782976D02*
X16675269Y-8773452D01*
X16675269Y-8773452D02*
X16665745Y-8754404D01*
X16665745Y-8754404D02*
X16665745Y-8582976D01*
X16846698Y-8773452D02*
X16827650Y-8782976D01*
X16827650Y-8782976D02*
X16789555Y-8782976D01*
X16789555Y-8782976D02*
X16770507Y-8773452D01*
X16770507Y-8773452D02*
X16760983Y-8754404D01*
X16760983Y-8754404D02*
X16760983Y-8678214D01*
X16760983Y-8678214D02*
X16770507Y-8659166D01*
X16770507Y-8659166D02*
X16789555Y-8649643D01*
X16789555Y-8649643D02*
X16827650Y-8649643D01*
X16827650Y-8649643D02*
X16846698Y-8659166D01*
X16846698Y-8659166D02*
X16856222Y-8678214D01*
X16856222Y-8678214D02*
X16856222Y-8697262D01*
X16856222Y-8697262D02*
X16760983Y-8716309D01*
X16932412Y-8773452D02*
X16951460Y-8782976D01*
X16951460Y-8782976D02*
X16989555Y-8782976D01*
X16989555Y-8782976D02*
X17008603Y-8773452D01*
X17008603Y-8773452D02*
X17018126Y-8754404D01*
X17018126Y-8754404D02*
X17018126Y-8744881D01*
X17018126Y-8744881D02*
X17008603Y-8725833D01*
X17008603Y-8725833D02*
X16989555Y-8716309D01*
X16989555Y-8716309D02*
X16960983Y-8716309D01*
X16960983Y-8716309D02*
X16941936Y-8706785D01*
X16941936Y-8706785D02*
X16932412Y-8687738D01*
X16932412Y-8687738D02*
X16932412Y-8678214D01*
X16932412Y-8678214D02*
X16941936Y-8659166D01*
X16941936Y-8659166D02*
X16960983Y-8649643D01*
X16960983Y-8649643D02*
X16989555Y-8649643D01*
X16989555Y-8649643D02*
X17008603Y-8659166D01*
X17084793Y-8859166D02*
X17094317Y-8849643D01*
X17094317Y-8849643D02*
X17113364Y-8821071D01*
X17113364Y-8821071D02*
X17122888Y-8802024D01*
X17122888Y-8802024D02*
X17132412Y-8773452D01*
X17132412Y-8773452D02*
X17141936Y-8725833D01*
X17141936Y-8725833D02*
X17141936Y-8687738D01*
X17141936Y-8687738D02*
X17132412Y-8640119D01*
X17132412Y-8640119D02*
X17122888Y-8611547D01*
X17122888Y-8611547D02*
X17113364Y-8592500D01*
X17113364Y-8592500D02*
X17094317Y-8563928D01*
X17094317Y-8563928D02*
X17084793Y-8554404D01*
X17446698Y-8859166D02*
X17437174Y-8849643D01*
X17437174Y-8849643D02*
X17418126Y-8821071D01*
X17418126Y-8821071D02*
X17408603Y-8802024D01*
X17408603Y-8802024D02*
X17399079Y-8773452D01*
X17399079Y-8773452D02*
X17389555Y-8725833D01*
X17389555Y-8725833D02*
X17389555Y-8687738D01*
X17389555Y-8687738D02*
X17399079Y-8640119D01*
X17399079Y-8640119D02*
X17408603Y-8611547D01*
X17408603Y-8611547D02*
X17418126Y-8592500D01*
X17418126Y-8592500D02*
X17437174Y-8563928D01*
X17437174Y-8563928D02*
X17446698Y-8554404D01*
X17522888Y-8649643D02*
X17522888Y-8782976D01*
X17522888Y-8668690D02*
X17532412Y-8659166D01*
X17532412Y-8659166D02*
X17551460Y-8649643D01*
X17551460Y-8649643D02*
X17580031Y-8649643D01*
X17580031Y-8649643D02*
X17599079Y-8659166D01*
X17599079Y-8659166D02*
X17608603Y-8678214D01*
X17608603Y-8678214D02*
X17608603Y-8782976D01*
X17732412Y-8782976D02*
X17713364Y-8773452D01*
X17713364Y-8773452D02*
X17703841Y-8763928D01*
X17703841Y-8763928D02*
X17694317Y-8744881D01*
X17694317Y-8744881D02*
X17694317Y-8687738D01*
X17694317Y-8687738D02*
X17703841Y-8668690D01*
X17703841Y-8668690D02*
X17713364Y-8659166D01*
X17713364Y-8659166D02*
X17732412Y-8649643D01*
X17732412Y-8649643D02*
X17760984Y-8649643D01*
X17760984Y-8649643D02*
X17780031Y-8659166D01*
X17780031Y-8659166D02*
X17789555Y-8668690D01*
X17789555Y-8668690D02*
X17799079Y-8687738D01*
X17799079Y-8687738D02*
X17799079Y-8744881D01*
X17799079Y-8744881D02*
X17789555Y-8763928D01*
X17789555Y-8763928D02*
X17780031Y-8773452D01*
X17780031Y-8773452D02*
X17760984Y-8782976D01*
X17760984Y-8782976D02*
X17732412Y-8782976D01*
X17856222Y-8649643D02*
X17932412Y-8649643D01*
X17884793Y-8582976D02*
X17884793Y-8754404D01*
X17884793Y-8754404D02*
X17894317Y-8773452D01*
X17894317Y-8773452D02*
X17913364Y-8782976D01*
X17913364Y-8782976D02*
X17932412Y-8782976D01*
X18151460Y-8649643D02*
X18151460Y-8849643D01*
X18151460Y-8659166D02*
X18170507Y-8649643D01*
X18170507Y-8649643D02*
X18208603Y-8649643D01*
X18208603Y-8649643D02*
X18227650Y-8659166D01*
X18227650Y-8659166D02*
X18237174Y-8668690D01*
X18237174Y-8668690D02*
X18246698Y-8687738D01*
X18246698Y-8687738D02*
X18246698Y-8744881D01*
X18246698Y-8744881D02*
X18237174Y-8763928D01*
X18237174Y-8763928D02*
X18227650Y-8773452D01*
X18227650Y-8773452D02*
X18208603Y-8782976D01*
X18208603Y-8782976D02*
X18170507Y-8782976D01*
X18170507Y-8782976D02*
X18151460Y-8773452D01*
X18360984Y-8782976D02*
X18341936Y-8773452D01*
X18341936Y-8773452D02*
X18332412Y-8754404D01*
X18332412Y-8754404D02*
X18332412Y-8582976D01*
X18522888Y-8782976D02*
X18522888Y-8678214D01*
X18522888Y-8678214D02*
X18513365Y-8659166D01*
X18513365Y-8659166D02*
X18494317Y-8649643D01*
X18494317Y-8649643D02*
X18456222Y-8649643D01*
X18456222Y-8649643D02*
X18437174Y-8659166D01*
X18522888Y-8773452D02*
X18503841Y-8782976D01*
X18503841Y-8782976D02*
X18456222Y-8782976D01*
X18456222Y-8782976D02*
X18437174Y-8773452D01*
X18437174Y-8773452D02*
X18427650Y-8754404D01*
X18427650Y-8754404D02*
X18427650Y-8735357D01*
X18427650Y-8735357D02*
X18437174Y-8716309D01*
X18437174Y-8716309D02*
X18456222Y-8706785D01*
X18456222Y-8706785D02*
X18503841Y-8706785D01*
X18503841Y-8706785D02*
X18522888Y-8697262D01*
X18589555Y-8649643D02*
X18665745Y-8649643D01*
X18618126Y-8582976D02*
X18618126Y-8754404D01*
X18618126Y-8754404D02*
X18627650Y-8773452D01*
X18627650Y-8773452D02*
X18646698Y-8782976D01*
X18646698Y-8782976D02*
X18665745Y-8782976D01*
X18808603Y-8773452D02*
X18789555Y-8782976D01*
X18789555Y-8782976D02*
X18751460Y-8782976D01*
X18751460Y-8782976D02*
X18732412Y-8773452D01*
X18732412Y-8773452D02*
X18722888Y-8754404D01*
X18722888Y-8754404D02*
X18722888Y-8678214D01*
X18722888Y-8678214D02*
X18732412Y-8659166D01*
X18732412Y-8659166D02*
X18751460Y-8649643D01*
X18751460Y-8649643D02*
X18789555Y-8649643D01*
X18789555Y-8649643D02*
X18808603Y-8659166D01*
X18808603Y-8659166D02*
X18818126Y-8678214D01*
X18818126Y-8678214D02*
X18818126Y-8697262D01*
X18818126Y-8697262D02*
X18722888Y-8716309D01*
X18989555Y-8782976D02*
X18989555Y-8582976D01*
X18989555Y-8773452D02*
X18970507Y-8782976D01*
X18970507Y-8782976D02*
X18932412Y-8782976D01*
X18932412Y-8782976D02*
X18913365Y-8773452D01*
X18913365Y-8773452D02*
X18903841Y-8763928D01*
X18903841Y-8763928D02*
X18894317Y-8744881D01*
X18894317Y-8744881D02*
X18894317Y-8687738D01*
X18894317Y-8687738D02*
X18903841Y-8668690D01*
X18903841Y-8668690D02*
X18913365Y-8659166D01*
X18913365Y-8659166D02*
X18932412Y-8649643D01*
X18932412Y-8649643D02*
X18970507Y-8649643D01*
X18970507Y-8649643D02*
X18989555Y-8659166D01*
X19065746Y-8859166D02*
X19075269Y-8849643D01*
X19075269Y-8849643D02*
X19094317Y-8821071D01*
X19094317Y-8821071D02*
X19103841Y-8802024D01*
X19103841Y-8802024D02*
X19113365Y-8773452D01*
X19113365Y-8773452D02*
X19122888Y-8725833D01*
X19122888Y-8725833D02*
X19122888Y-8687738D01*
X19122888Y-8687738D02*
X19113365Y-8640119D01*
X19113365Y-8640119D02*
X19103841Y-8611547D01*
X19103841Y-8611547D02*
X19094317Y-8592500D01*
X19094317Y-8592500D02*
X19075269Y-8563928D01*
X19075269Y-8563928D02*
X19065746Y-8554404D01*
M02*
