G04 #@! TF.GenerationSoftware,KiCad,Pcbnew,9.0.3*
G04 #@! TF.CreationDate,2026-01-29T22:49:22+09:00*
G04 #@! TF.ProjectId,xiaobao,7869616f-6261-46f2-9e6b-696361645f70,rev?*
G04 #@! TF.SameCoordinates,Original*
G04 #@! TF.FileFunction,Copper,L6,Bot*
G04 #@! TF.FilePolarity,Positive*
%FSLAX46Y46*%
G04 Gerber Fmt 4.6, Leading zero omitted, Abs format (unit mm)*
G04 Created by KiCad (PCBNEW 9.0.3) date 2026-01-29 22:49:22*
%MOMM*%
%LPD*%
G01*
G04 APERTURE LIST*
G04 Aperture macros list*
%AMRoundRect*
0 Rectangle with rounded corners*
0 $1 Rounding radius*
0 $2 $3 $4 $5 $6 $7 $8 $9 X,Y pos of 4 corners*
0 Add a 4 corners polygon primitive as box body*
4,1,4,$2,$3,$4,$5,$6,$7,$8,$9,$2,$3,0*
0 Add four circle primitives for the rounded corners*
1,1,$1+$1,$2,$3*
1,1,$1+$1,$4,$5*
1,1,$1+$1,$6,$7*
1,1,$1+$1,$8,$9*
0 Add four rect primitives between the rounded corners*
20,1,$1+$1,$2,$3,$4,$5,0*
20,1,$1+$1,$4,$5,$6,$7,0*
20,1,$1+$1,$6,$7,$8,$9,0*
20,1,$1+$1,$8,$9,$2,$3,0*%
G04 Aperture macros list end*
G04 #@! TA.AperFunction,EtchedComponent*
%ADD10C,0.000000*%
G04 #@! TD*
G04 #@! TA.AperFunction,ComponentPad*
%ADD11O,1.000000X2.100000*%
G04 #@! TD*
G04 #@! TA.AperFunction,ComponentPad*
%ADD12O,1.000000X1.800000*%
G04 #@! TD*
G04 #@! TA.AperFunction,ComponentPad*
%ADD13C,0.900000*%
G04 #@! TD*
G04 #@! TA.AperFunction,ComponentPad*
%ADD14C,1.400000*%
G04 #@! TD*
G04 #@! TA.AperFunction,SMDPad,CuDef*
%ADD15RoundRect,0.571500X0.000010X-0.000010X0.000010X0.000010X-0.000010X0.000010X-0.000010X-0.000010X0*%
G04 #@! TD*
G04 #@! TA.AperFunction,SMDPad,CuDef*
%ADD16RoundRect,0.254000X0.254000X-0.762000X0.254000X0.762000X-0.254000X0.762000X-0.254000X-0.762000X0*%
G04 #@! TD*
G04 #@! TA.AperFunction,SMDPad,CuDef*
%ADD17RoundRect,0.254000X-0.254000X0.762000X-0.254000X-0.762000X0.254000X-0.762000X0.254000X0.762000X0*%
G04 #@! TD*
G04 #@! TA.AperFunction,ViaPad*
%ADD18C,0.406400*%
G04 #@! TD*
G04 #@! TA.AperFunction,ViaPad*
%ADD19C,0.355600*%
G04 #@! TD*
G04 #@! TA.AperFunction,ViaPad*
%ADD20C,0.500000*%
G04 #@! TD*
G04 #@! TA.AperFunction,Conductor*
%ADD21C,0.101600*%
G04 #@! TD*
G04 #@! TA.AperFunction,Conductor*
%ADD22C,0.088900*%
G04 #@! TD*
G04 #@! TA.AperFunction,Conductor*
%ADD23C,0.152400*%
G04 #@! TD*
G04 #@! TA.AperFunction,Conductor*
%ADD24C,0.254000*%
G04 #@! TD*
G04 #@! TA.AperFunction,Conductor*
%ADD25C,0.163000*%
G04 #@! TD*
G04 #@! TA.AperFunction,Conductor*
%ADD26C,0.203200*%
G04 #@! TD*
G04 APERTURE END LIST*
G04 #@! TA.AperFunction,EtchedComponent*
G04 #@! TO.C,U4*
G36*
X123059200Y-62737750D02*
G01*
X123922800Y-62737750D01*
X123922800Y-61834150D01*
X123059200Y-61834150D01*
X123059200Y-62737750D01*
G37*
G04 #@! TD.AperFunction*
G04 #@! TA.AperFunction,EtchedComponent*
G36*
X123059200Y-65277750D02*
G01*
X123922800Y-65277750D01*
X123922800Y-64374150D01*
X123059200Y-64374150D01*
X123059200Y-65277750D01*
G37*
G04 #@! TD.AperFunction*
G04 #@! TA.AperFunction,EtchedComponent*
G36*
X123059200Y-67817750D02*
G01*
X123922800Y-67817750D01*
X123922800Y-66914150D01*
X123059200Y-66914150D01*
X123059200Y-67817750D01*
G37*
G04 #@! TD.AperFunction*
G04 #@! TA.AperFunction,EtchedComponent*
G36*
X123059200Y-70357750D02*
G01*
X123922800Y-70357750D01*
X123922800Y-69454150D01*
X123059200Y-69454150D01*
X123059200Y-70357750D01*
G37*
G04 #@! TD.AperFunction*
G04 #@! TA.AperFunction,EtchedComponent*
G36*
X123059200Y-72897750D02*
G01*
X123922800Y-72897750D01*
X123922800Y-71994150D01*
X123059200Y-71994150D01*
X123059200Y-72897750D01*
G37*
G04 #@! TD.AperFunction*
G04 #@! TA.AperFunction,EtchedComponent*
G36*
X123059200Y-75437750D02*
G01*
X123922800Y-75437750D01*
X123922800Y-74534150D01*
X123059200Y-74534150D01*
X123059200Y-75437750D01*
G37*
G04 #@! TD.AperFunction*
G04 #@! TA.AperFunction,EtchedComponent*
G36*
X123059200Y-77977750D02*
G01*
X123922800Y-77977750D01*
X123922800Y-77074150D01*
X123059200Y-77074150D01*
X123059200Y-77977750D01*
G37*
G04 #@! TD.AperFunction*
G04 #@! TA.AperFunction,EtchedComponent*
G36*
X140077200Y-62737750D02*
G01*
X140940800Y-62737750D01*
X140940800Y-61834150D01*
X140077200Y-61834150D01*
X140077200Y-62737750D01*
G37*
G04 #@! TD.AperFunction*
G04 #@! TA.AperFunction,EtchedComponent*
G36*
X140077200Y-65277750D02*
G01*
X140940800Y-65277750D01*
X140940800Y-64374150D01*
X140077200Y-64374150D01*
X140077200Y-65277750D01*
G37*
G04 #@! TD.AperFunction*
G04 #@! TA.AperFunction,EtchedComponent*
G36*
X140077200Y-67817750D02*
G01*
X140940800Y-67817750D01*
X140940800Y-66914150D01*
X140077200Y-66914150D01*
X140077200Y-67817750D01*
G37*
G04 #@! TD.AperFunction*
G04 #@! TA.AperFunction,EtchedComponent*
G36*
X140077200Y-70357750D02*
G01*
X140940800Y-70357750D01*
X140940800Y-69454150D01*
X140077200Y-69454150D01*
X140077200Y-70357750D01*
G37*
G04 #@! TD.AperFunction*
G04 #@! TA.AperFunction,EtchedComponent*
G36*
X140077200Y-72897750D02*
G01*
X140940800Y-72897750D01*
X140940800Y-71994150D01*
X140077200Y-71994150D01*
X140077200Y-72897750D01*
G37*
G04 #@! TD.AperFunction*
G04 #@! TA.AperFunction,EtchedComponent*
G36*
X140077200Y-75437750D02*
G01*
X140940800Y-75437750D01*
X140940800Y-74534150D01*
X140077200Y-74534150D01*
X140077200Y-75437750D01*
G37*
G04 #@! TD.AperFunction*
G04 #@! TA.AperFunction,EtchedComponent*
G36*
X140077200Y-77977750D02*
G01*
X140940800Y-77977750D01*
X140940800Y-77074150D01*
X140077200Y-77074150D01*
X140077200Y-77977750D01*
G37*
G04 #@! TD.AperFunction*
D10*
G04 #@! TA.AperFunction,EtchedComponent*
G36*
X123624629Y-63124681D02*
G01*
X123745178Y-63186105D01*
X123843780Y-63284707D01*
X123922800Y-63527904D01*
X123922800Y-63579948D01*
X123902269Y-63709579D01*
X123840845Y-63830128D01*
X123742243Y-63928730D01*
X123499046Y-64007750D01*
X123059200Y-64007750D01*
X123059200Y-63104150D01*
X123494998Y-63104150D01*
X123624629Y-63124681D01*
G37*
G04 #@! TD.AperFunction*
G04 #@! TA.AperFunction,EtchedComponent*
G36*
X123624629Y-65664681D02*
G01*
X123745178Y-65726105D01*
X123843780Y-65824707D01*
X123922800Y-66067904D01*
X123922800Y-66119948D01*
X123902269Y-66249579D01*
X123840845Y-66370128D01*
X123742243Y-66468730D01*
X123499046Y-66547750D01*
X123059200Y-66547750D01*
X123059200Y-65644150D01*
X123494998Y-65644150D01*
X123624629Y-65664681D01*
G37*
G04 #@! TD.AperFunction*
G04 #@! TA.AperFunction,EtchedComponent*
G36*
X123624629Y-68204681D02*
G01*
X123745178Y-68266105D01*
X123843780Y-68364707D01*
X123922800Y-68607904D01*
X123922800Y-68659948D01*
X123902269Y-68789579D01*
X123840845Y-68910128D01*
X123742243Y-69008730D01*
X123499046Y-69087750D01*
X123059200Y-69087750D01*
X123059200Y-68184150D01*
X123494998Y-68184150D01*
X123624629Y-68204681D01*
G37*
G04 #@! TD.AperFunction*
G04 #@! TA.AperFunction,EtchedComponent*
G36*
X123624629Y-70744681D02*
G01*
X123745178Y-70806105D01*
X123843780Y-70904707D01*
X123922800Y-71147904D01*
X123922800Y-71199948D01*
X123902269Y-71329579D01*
X123840845Y-71450128D01*
X123742243Y-71548730D01*
X123499046Y-71627750D01*
X123059200Y-71627750D01*
X123059200Y-70724150D01*
X123494998Y-70724150D01*
X123624629Y-70744681D01*
G37*
G04 #@! TD.AperFunction*
G04 #@! TA.AperFunction,EtchedComponent*
G36*
X123624629Y-73284681D02*
G01*
X123745178Y-73346105D01*
X123843780Y-73444707D01*
X123922800Y-73687904D01*
X123922800Y-73739948D01*
X123902269Y-73869579D01*
X123840845Y-73990128D01*
X123742243Y-74088730D01*
X123499046Y-74167750D01*
X123059200Y-74167750D01*
X123059200Y-73264150D01*
X123494998Y-73264150D01*
X123624629Y-73284681D01*
G37*
G04 #@! TD.AperFunction*
G04 #@! TA.AperFunction,EtchedComponent*
G36*
X123624629Y-75824681D02*
G01*
X123745178Y-75886105D01*
X123843780Y-75984707D01*
X123922800Y-76227904D01*
X123922800Y-76279948D01*
X123902269Y-76409579D01*
X123840845Y-76530128D01*
X123742243Y-76628730D01*
X123499046Y-76707750D01*
X123059200Y-76707750D01*
X123059200Y-75804150D01*
X123494998Y-75804150D01*
X123624629Y-75824681D01*
G37*
G04 #@! TD.AperFunction*
G04 #@! TA.AperFunction,EtchedComponent*
G36*
X140940800Y-71627750D02*
G01*
X140505002Y-71627750D01*
X140375371Y-71607219D01*
X140254822Y-71545795D01*
X140156220Y-71447193D01*
X140077200Y-71203996D01*
X140077200Y-71151952D01*
X140097731Y-71022321D01*
X140159155Y-70901772D01*
X140257757Y-70803170D01*
X140500954Y-70724150D01*
X140940800Y-70724150D01*
X140940800Y-71627750D01*
G37*
G04 #@! TD.AperFunction*
G04 #@! TA.AperFunction,EtchedComponent*
G36*
X140940800Y-74167750D02*
G01*
X140505002Y-74167750D01*
X140375371Y-74147219D01*
X140254822Y-74085795D01*
X140156220Y-73987193D01*
X140077200Y-73743996D01*
X140077200Y-73691952D01*
X140097731Y-73562321D01*
X140159155Y-73441772D01*
X140257757Y-73343170D01*
X140500954Y-73264150D01*
X140940800Y-73264150D01*
X140940800Y-74167750D01*
G37*
G04 #@! TD.AperFunction*
G04 #@! TA.AperFunction,EtchedComponent*
G36*
X140940800Y-76707750D02*
G01*
X140505002Y-76707750D01*
X140375371Y-76687219D01*
X140254822Y-76625795D01*
X140156220Y-76527193D01*
X140077200Y-76283996D01*
X140077200Y-76231952D01*
X140097731Y-76102321D01*
X140159155Y-75981772D01*
X140257757Y-75883170D01*
X140500954Y-75804150D01*
X140940800Y-75804150D01*
X140940800Y-76707750D01*
G37*
G04 #@! TD.AperFunction*
G04 #@! TD*
D11*
G04 #@! TO.P,J1,S1,SHIELD*
G04 #@! TO.N,GND*
X136350000Y-65030000D03*
D12*
X136350000Y-60850000D03*
D11*
X127710000Y-65030000D03*
D12*
X127710000Y-60850000D03*
G04 #@! TD*
D13*
G04 #@! TO.P,U4,1,GPIO1_D0/A0*
G04 #@! TO.N,/PA4*
X123110000Y-62285950D03*
D14*
X124380000Y-62285950D03*
D13*
G04 #@! TO.P,U4,2,GPIO2_D1/A1*
G04 #@! TO.N,/PA5*
X123110000Y-64825950D03*
D14*
X124380000Y-64825950D03*
D13*
G04 #@! TO.P,U4,3,GPIO3_D2/A2*
G04 #@! TO.N,/PA6*
X123110000Y-67365950D03*
D14*
X124380000Y-67365950D03*
D13*
G04 #@! TO.P,U4,4,GPIO4_D3/A3*
G04 #@! TO.N,/PC14*
X123110000Y-69905950D03*
D14*
X124380000Y-69905950D03*
D13*
G04 #@! TO.P,U4,5,GPIO5_D4/A4/I2C_SDA*
G04 #@! TO.N,/PB12*
X123110000Y-72445950D03*
D14*
X124380000Y-72445950D03*
D13*
G04 #@! TO.P,U4,6,GPIO6_D5/A5/I2C_SCL*
G04 #@! TO.N,/PB11*
X123110000Y-74985950D03*
D14*
X124380000Y-74985950D03*
D13*
G04 #@! TO.P,U4,7,U0TXD_D6/TX*
G04 #@! TO.N,/PB14*
X123110000Y-77525950D03*
D14*
X124380000Y-77525950D03*
G04 #@! TO.P,U4,8,U0RXD_D7/RX*
G04 #@! TO.N,/PB13*
X139620000Y-77525950D03*
D13*
X140890000Y-77525950D03*
D14*
G04 #@! TO.P,U4,9,GPIO7_D8/A8/SCK*
G04 #@! TO.N,/PC0*
X139620000Y-74985950D03*
D13*
X140890000Y-74985950D03*
D14*
G04 #@! TO.P,U4,10,GPIO8_D9/A9/MISO*
G04 #@! TO.N,/PC2*
X139620000Y-72445950D03*
D13*
X140890000Y-72445950D03*
D14*
G04 #@! TO.P,U4,11,GPIO9_D10/A10/MOSI*
G04 #@! TO.N,/PC1*
X139620000Y-69905950D03*
D13*
X140890000Y-69905950D03*
D14*
G04 #@! TO.P,U4,12,VCC_3V3*
G04 #@! TO.N,+3.3V*
X139620000Y-67365950D03*
D13*
X140890000Y-67365950D03*
D14*
G04 #@! TO.P,U4,13,GND*
G04 #@! TO.N,GND*
X139620000Y-64825950D03*
D13*
X140890000Y-64825950D03*
D14*
G04 #@! TO.P,U4,14,VBUS*
G04 #@! TO.N,VBUS*
X139620000Y-62285950D03*
D13*
X140890000Y-62285950D03*
G04 #@! TO.P,U4,15,GPIO38_DVP_VSYNC/I2S_SD*
G04 #@! TO.N,/PC6*
X123110000Y-63555950D03*
G04 #@! TO.P,U4,16,GPIO39_CAM_SCL/I2S_SCK*
G04 #@! TO.N,/PC5*
X123110000Y-66095950D03*
G04 #@! TO.P,U4,17,GPIO40_CAM_SDA/I2S_WS*
G04 #@! TO.N,/PC3*
X123110000Y-68635950D03*
G04 #@! TO.P,U4,18,GPIO41_PDM_DATA/RX1*
G04 #@! TO.N,/PC9*
X123110000Y-71175950D03*
G04 #@! TO.P,U4,19,GPIO42_PDM_CLK/TX1*
G04 #@! TO.N,/PC8*
X123110000Y-73715950D03*
G04 #@! TO.P,U4,20,GPIO10_XMCLK/ADC_BAT*
G04 #@! TO.N,/PC7*
X123110000Y-76255950D03*
G04 #@! TO.P,U4,21,GPIO11_DVP_Y8/SPI_MOSI1*
G04 #@! TO.N,/PB9*
X140890000Y-76255950D03*
G04 #@! TO.P,U4,22,GPIO12_DVP_Y7/SPI_MISO1*
G04 #@! TO.N,/PB1*
X140890000Y-73715950D03*
G04 #@! TO.P,U4,23,GPIO13_DVP_PCLK/SPI_SCK1*
G04 #@! TO.N,/PC4*
X140890000Y-71175950D03*
G04 #@! TD*
D15*
G04 #@! TO.P,TP1,T,T*
G04 #@! TO.N,/PC11*
X133280000Y-61160000D03*
G04 #@! TD*
G04 #@! TO.P,TP8,T,T*
G04 #@! TO.N,GND*
X130740000Y-68700000D03*
G04 #@! TD*
D16*
G04 #@! TO.P,TP10,1,T*
G04 #@! TO.N,GND*
X133060000Y-75540000D03*
G04 #@! TD*
D15*
G04 #@! TO.P,TP4,T,T*
G04 #@! TO.N,/USBCONN_P*
X130740000Y-63700000D03*
G04 #@! TD*
G04 #@! TO.P,TP2,T,T*
G04 #@! TO.N,/PC10*
X130740000Y-61160000D03*
G04 #@! TD*
G04 #@! TO.P,TP5,T,T*
G04 #@! TO.N,/PB5*
X133280000Y-66240000D03*
G04 #@! TD*
G04 #@! TO.P,TP6,T,T*
G04 #@! TO.N,/PC12*
X130740000Y-66240000D03*
G04 #@! TD*
G04 #@! TO.P,TP3,T,T*
G04 #@! TO.N,/USBCONN_N*
X133280000Y-63700000D03*
G04 #@! TD*
D17*
G04 #@! TO.P,TP9,1,T*
G04 #@! TO.N,VBAT*
X131060000Y-75560000D03*
G04 #@! TD*
D15*
G04 #@! TO.P,TP7,T,T*
G04 #@! TO.N,/PB3{slash}WS2812_PWR_EN*
X133280000Y-68800000D03*
G04 #@! TD*
D18*
G04 #@! TO.N,GND*
X138200000Y-68400000D03*
X125775568Y-67902565D03*
D19*
X130000000Y-71820000D03*
D18*
X132600000Y-73720000D03*
X130740000Y-69400000D03*
X135600000Y-74820000D03*
X124300000Y-79000000D03*
X139400000Y-79000000D03*
X138200200Y-72080000D03*
X132754700Y-67320000D03*
X132200000Y-72120000D03*
D19*
X129200000Y-72620000D03*
X125900000Y-76400000D03*
D18*
X131345300Y-67320000D03*
X134600000Y-68390000D03*
D19*
X127500000Y-77000000D03*
X128000000Y-73020000D03*
D18*
X138200000Y-67700000D03*
X136000000Y-74190000D03*
X125955600Y-73802325D03*
X132720000Y-76740000D03*
X132900000Y-72120000D03*
X133920000Y-70820000D03*
X134760000Y-78700000D03*
X130700000Y-67800000D03*
X132000000Y-73720000D03*
X130700000Y-68620000D03*
X136200000Y-74820000D03*
D19*
X130000000Y-76920000D03*
D18*
X130200000Y-69620000D03*
X128000000Y-79000000D03*
X135340000Y-69520000D03*
X134120000Y-73744400D03*
X138200000Y-70440000D03*
X132200000Y-71420000D03*
D19*
X124800000Y-71330200D03*
D18*
X138200000Y-69100000D03*
X136000000Y-79000000D03*
X132900000Y-71420000D03*
X138200000Y-69800000D03*
X130200000Y-68620000D03*
D19*
G04 #@! TO.N,+3.3V*
X130000000Y-73820000D03*
X131500000Y-72100000D03*
X128820000Y-70320000D03*
D18*
X133600000Y-71420000D03*
D19*
X139000000Y-60400000D03*
X130400001Y-72220000D03*
D18*
X134300000Y-71720000D03*
X133600000Y-72020000D03*
D19*
X129600000Y-73420000D03*
X133380000Y-67280000D03*
D18*
X126620000Y-75700000D03*
X127155087Y-72633328D03*
X131220000Y-76964400D03*
D19*
X129680000Y-75781400D03*
G04 #@! TO.N,/RST_N*
X125219698Y-73193027D03*
X132260000Y-77280000D03*
D18*
G04 #@! TO.N,VBUS*
X133900000Y-70120000D03*
X135975000Y-68820000D03*
G04 #@! TO.N,/PB12*
X129264000Y-75095600D03*
D19*
G04 #@! TO.N,/PC6*
X125140000Y-63600000D03*
X128400000Y-72620000D03*
G04 #@! TO.N,/PC8*
X124620000Y-73840000D03*
G04 #@! TO.N,Net-(D1-VDD)*
X126220000Y-61140000D03*
D18*
X132500000Y-70780000D03*
G04 #@! TO.N,/PC7*
X124580000Y-76260000D03*
D19*
G04 #@! TO.N,/PC0*
X128600000Y-75985600D03*
G04 #@! TO.N,/PC2*
X127100000Y-75120000D03*
G04 #@! TO.N,/PB13*
X129200000Y-76720000D03*
G04 #@! TO.N,/PC9*
X127138209Y-71998549D03*
D18*
G04 #@! TO.N,/PB1*
X132000000Y-74320000D03*
D19*
X138013903Y-74264472D03*
G04 #@! TO.N,/PC10*
X127935467Y-71060388D03*
G04 #@! TO.N,/PC1*
X127600000Y-75120000D03*
G04 #@! TO.N,/PC11*
X128308615Y-70796201D03*
G04 #@! TO.N,/PC12*
X128800000Y-70920000D03*
D18*
X129899000Y-67219500D03*
G04 #@! TO.N,/PB11*
X129772707Y-75095600D03*
D19*
G04 #@! TO.N,+0.9V*
X128000000Y-73820000D03*
D18*
X133250000Y-73720000D03*
X131500000Y-73100000D03*
D19*
X128100000Y-75120000D03*
D20*
G04 #@! TO.N,/USBCONN_P*
X132270000Y-64330000D03*
X131280000Y-64330000D03*
G04 #@! TO.N,/USBCONN_N*
X132770000Y-63900000D03*
X131770000Y-63900000D03*
D18*
G04 #@! TO.N,VBAT*
X130760000Y-78400000D03*
X136700000Y-71220000D03*
G04 #@! TO.N,VSYS*
X133002547Y-69979800D03*
D19*
X135000000Y-74520000D03*
D18*
X134560000Y-68940000D03*
X135361927Y-70965200D03*
D19*
X136200000Y-72320000D03*
D18*
X134560000Y-69460000D03*
D19*
X135080000Y-73820000D03*
D18*
X134740000Y-76720000D03*
D19*
G04 #@! TO.N,/PA6*
X128400000Y-73420000D03*
G04 #@! TO.N,/PC5*
X128800000Y-72220000D03*
G04 #@! TO.N,/PA4*
X128000000Y-72220000D03*
G04 #@! TO.N,/PA5*
X130000000Y-73020000D03*
G04 #@! TO.N,/PB4{slash}BAT_ADC_EN*
X131042037Y-73459667D03*
X137240000Y-71260000D03*
G04 #@! TO.N,/PC14*
X129200000Y-71820000D03*
D18*
G04 #@! TO.N,/PA7{slash}ADC3*
X129500000Y-77675600D03*
D19*
X129200000Y-73820000D03*
D18*
X138460000Y-77120000D03*
D19*
G04 #@! TO.N,/PC4*
X128800000Y-74220000D03*
X138800000Y-70900000D03*
G04 #@! TO.N,/PC3*
X125300000Y-69500000D03*
D18*
X125879358Y-74870642D03*
D19*
G04 #@! TO.N,/PA1{slash}WS2812B_LED*
X128400000Y-71820000D03*
X125781613Y-67420000D03*
X125375000Y-61125000D03*
D18*
X125800000Y-64800000D03*
D19*
G04 #@! TO.N,/PB2{slash}LED*
X131220000Y-74264600D03*
X137700000Y-61800000D03*
G04 #@! TO.N,/PB5*
X130770200Y-73033800D03*
G04 #@! TO.N,/PB9*
X129600000Y-74220000D03*
D18*
X136225368Y-75327368D03*
D19*
G04 #@! TO.N,/PC13{slash}BOOT*
X129361979Y-70803284D03*
X132800000Y-67860000D03*
D18*
X126620000Y-76340000D03*
X129240000Y-78700000D03*
D19*
G04 #@! TO.N,/PB3{slash}WS2812_PWR_EN*
X130828257Y-73934400D03*
X133420601Y-69349898D03*
G04 #@! TD*
D21*
G04 #@! TO.N,/PC6*
X127900000Y-72620000D02*
X127668800Y-72388800D01*
X126896991Y-71228209D02*
X126200000Y-70531218D01*
X125400000Y-63600000D02*
X125140000Y-63600000D01*
X127328209Y-71228209D02*
X126896991Y-71228209D01*
X127668800Y-72388800D02*
X127668800Y-71568800D01*
X127668800Y-71568800D02*
X127328209Y-71228209D01*
X126200000Y-64400000D02*
X125400000Y-63600000D01*
X126200000Y-70531218D02*
X126200000Y-64400000D01*
X128400000Y-72620000D02*
X127900000Y-72620000D01*
G04 #@! TO.N,/PC10*
X127694888Y-70819809D02*
X127935467Y-71060388D01*
X129688818Y-61160000D02*
X126608400Y-64240418D01*
X126608400Y-64240418D02*
X126608400Y-70328400D01*
X130740000Y-61160000D02*
X129688818Y-61160000D01*
X126608400Y-70328400D02*
X127099809Y-70819809D01*
X127099809Y-70819809D02*
X127694888Y-70819809D01*
G04 #@! TO.N,/PC11*
X128308615Y-70796201D02*
X128128023Y-70615609D01*
X126812600Y-70243818D02*
X127184391Y-70615609D01*
X129137600Y-62000000D02*
X132440000Y-62000000D01*
X126812600Y-64325000D02*
X129137600Y-62000000D01*
X133280000Y-61160000D02*
X132440000Y-62000000D01*
X126812600Y-64325000D02*
X126812600Y-70243818D01*
X128128023Y-70615609D02*
X127184391Y-70615609D01*
D22*
G04 #@! TO.N,/PC12*
X130740000Y-67060000D02*
X130740000Y-66240000D01*
X130580500Y-67219500D02*
X130740000Y-67060000D01*
X129899000Y-67219500D02*
X130580500Y-67219500D01*
D21*
G04 #@! TO.N,/PB11*
X128450000Y-74788800D02*
X126911200Y-74788800D01*
X129113400Y-75452200D02*
X128450000Y-74788800D01*
X129416106Y-75452200D02*
X129113400Y-75452200D01*
X129772707Y-75095600D02*
X129416106Y-75452200D01*
X125174050Y-75780000D02*
X124380000Y-74985950D01*
X125920000Y-75780000D02*
X125174050Y-75780000D01*
X126911200Y-74788800D02*
X125920000Y-75780000D01*
D23*
G04 #@! TO.N,/USBCONN_P*
X132270000Y-64330000D02*
X131280000Y-64330000D01*
D24*
X130740000Y-63790000D02*
X131280000Y-64330000D01*
D25*
G04 #@! TO.N,/USBCONN_N*
X132770000Y-63900000D02*
X131770000Y-63900000D01*
D24*
G04 #@! TO.N,VBAT*
X130760000Y-78400000D02*
X130760000Y-77330000D01*
X130767200Y-77322800D02*
X130767200Y-75852800D01*
X130760000Y-77330000D02*
X130767200Y-77322800D01*
D26*
G04 #@! TO.N,VSYS*
X133983849Y-69460000D02*
X133464049Y-69979800D01*
X134560000Y-69460000D02*
X133983849Y-69460000D01*
X133464049Y-69979800D02*
X133002547Y-69979800D01*
D21*
G04 #@! TO.N,/PA4*
X126404200Y-64310150D02*
X124380000Y-62285950D01*
X128000000Y-72220000D02*
X128000000Y-71600000D01*
X126404200Y-70412982D02*
X126404200Y-64310150D01*
X128000000Y-71600000D02*
X127424009Y-71024009D01*
X127424009Y-71024009D02*
X127015227Y-71024009D01*
X127015227Y-71024009D02*
X126404200Y-70412982D01*
G04 #@! TO.N,/PA7{slash}ADC3*
X130130000Y-76290000D02*
X130130000Y-74690000D01*
X129462812Y-74551200D02*
X129200000Y-74288388D01*
X129991200Y-74551200D02*
X129462812Y-74551200D01*
X129500000Y-77675600D02*
X129500000Y-76920000D01*
X129200000Y-74288388D02*
X129200000Y-73820000D01*
X130130000Y-74690000D02*
X129991200Y-74551200D01*
X129500000Y-76920000D02*
X130130000Y-76290000D01*
G04 #@! TO.N,/PC3*
X125879358Y-74870642D02*
X125599000Y-74590284D01*
X125300000Y-72700000D02*
X125300000Y-69500000D01*
X125599000Y-72999000D02*
X125300000Y-72700000D01*
X125599000Y-74590284D02*
X125599000Y-72999000D01*
G04 #@! TO.N,/PA1{slash}WS2812B_LED*
X125995800Y-64995800D02*
X125995800Y-67205813D01*
X125995800Y-67205813D02*
X125781613Y-67420000D01*
X125800000Y-64800000D02*
X125995800Y-64995800D01*
G04 #@! TO.N,/PB5*
X132360000Y-66240000D02*
X132860000Y-66240000D01*
X132000000Y-70770200D02*
X132000000Y-66600000D01*
X130770200Y-73033800D02*
X130770200Y-72000000D01*
X132000000Y-66600000D02*
X132360000Y-66240000D01*
X130770200Y-72000000D02*
X132000000Y-70770200D01*
G04 #@! TO.N,/PC13{slash}BOOT*
X130398600Y-72938600D02*
X130398600Y-77541400D01*
X130398600Y-77541400D02*
X129240000Y-78700000D01*
X129660000Y-71101305D02*
X129660000Y-72200000D01*
X129660000Y-72200000D02*
X130398600Y-72938600D01*
X129361979Y-70803284D02*
X129660000Y-71101305D01*
G04 #@! TD*
G04 #@! TA.AperFunction,Conductor*
G04 #@! TO.N,GND*
G36*
X138780600Y-59532432D02*
G01*
X138823099Y-59552899D01*
X138823100Y-59552899D01*
X138823102Y-59552900D01*
X138823104Y-59552900D01*
X138892898Y-59552900D01*
X138892901Y-59552899D01*
X138923341Y-59538239D01*
X138948205Y-59533413D01*
X139103294Y-59543575D01*
X139109738Y-59544423D01*
X139313827Y-59585014D01*
X139347680Y-59591747D01*
X139353975Y-59593433D01*
X139583699Y-59671409D01*
X139589705Y-59673896D01*
X139793903Y-59774591D01*
X139807293Y-59781194D01*
X139812935Y-59784451D01*
X140014652Y-59919230D01*
X140019820Y-59923196D01*
X140202214Y-60083147D01*
X140206820Y-60087753D01*
X140366776Y-60270142D01*
X140370742Y-60275310D01*
X140505526Y-60477024D01*
X140508783Y-60482666D01*
X140616079Y-60700240D01*
X140618572Y-60706258D01*
X140696554Y-60935980D01*
X140698240Y-60942272D01*
X140745569Y-61180210D01*
X140746419Y-61186669D01*
X140762393Y-61430367D01*
X140762500Y-61433624D01*
X140762500Y-61682250D01*
X140747914Y-61717464D01*
X140712700Y-61732050D01*
X140221069Y-61732050D01*
X140185855Y-61717464D01*
X140131305Y-61662914D01*
X140001261Y-61576023D01*
X139999937Y-61575138D01*
X139999935Y-61575137D01*
X139999933Y-61575135D01*
X139883670Y-61526978D01*
X139853964Y-61514674D01*
X139853960Y-61514673D01*
X139853954Y-61514671D01*
X139699002Y-61483850D01*
X139699000Y-61483850D01*
X139541000Y-61483850D01*
X139540997Y-61483850D01*
X139386045Y-61514671D01*
X139386037Y-61514673D01*
X139386036Y-61514674D01*
X139386032Y-61514675D01*
X139386031Y-61514676D01*
X139240066Y-61575135D01*
X139240064Y-61575137D01*
X139108694Y-61662914D01*
X139108692Y-61662917D01*
X138996967Y-61774642D01*
X138996964Y-61774644D01*
X138909187Y-61906014D01*
X138909185Y-61906016D01*
X138848726Y-62051981D01*
X138848721Y-62051995D01*
X138817900Y-62206947D01*
X138817900Y-62364952D01*
X138848721Y-62519904D01*
X138848723Y-62519910D01*
X138848724Y-62519914D01*
X138848726Y-62519918D01*
X138909185Y-62665883D01*
X138909187Y-62665885D01*
X138909188Y-62665887D01*
X138926933Y-62692445D01*
X138996964Y-62797255D01*
X139108694Y-62908985D01*
X139165963Y-62947250D01*
X139240063Y-62996762D01*
X139240064Y-62996762D01*
X139240066Y-62996764D01*
X139282565Y-63014367D01*
X139386036Y-63057226D01*
X139386043Y-63057227D01*
X139386045Y-63057228D01*
X139439072Y-63067775D01*
X139541000Y-63088050D01*
X139541004Y-63088050D01*
X139698996Y-63088050D01*
X139699000Y-63088050D01*
X139853964Y-63057226D01*
X139970230Y-63009066D01*
X139999933Y-62996764D01*
X139999933Y-62996763D01*
X139999937Y-62996762D01*
X140131309Y-62908982D01*
X140185855Y-62854436D01*
X140221069Y-62839850D01*
X140712700Y-62839850D01*
X140747914Y-62854436D01*
X140762500Y-62889650D01*
X140762500Y-64145259D01*
X140747914Y-64180473D01*
X140722417Y-64194102D01*
X140699708Y-64198619D01*
X140699697Y-64198623D01*
X140580976Y-64247798D01*
X140580974Y-64247799D01*
X140474122Y-64319194D01*
X140452636Y-64340680D01*
X140417422Y-64355265D01*
X140382208Y-64340678D01*
X140376016Y-64333132D01*
X140320943Y-64250707D01*
X140195242Y-64125006D01*
X140047445Y-64026253D01*
X140047443Y-64026251D01*
X139883224Y-63958231D01*
X139883212Y-63958227D01*
X139721200Y-63926000D01*
X139721200Y-64413074D01*
X139675952Y-64400950D01*
X139564048Y-64400950D01*
X139518800Y-64413074D01*
X139518800Y-63926000D01*
X139356787Y-63958227D01*
X139356775Y-63958231D01*
X139192556Y-64026251D01*
X139192554Y-64026253D01*
X139044757Y-64125006D01*
X139044755Y-64125009D01*
X138919059Y-64250705D01*
X138919056Y-64250707D01*
X138820303Y-64398504D01*
X138820301Y-64398506D01*
X138752281Y-64562725D01*
X138752276Y-64562739D01*
X138720051Y-64724750D01*
X139207124Y-64724750D01*
X139195000Y-64769998D01*
X139195000Y-64881902D01*
X139207124Y-64927150D01*
X138720051Y-64927150D01*
X138752276Y-65089160D01*
X138752281Y-65089174D01*
X138820301Y-65253393D01*
X138820303Y-65253395D01*
X138919056Y-65401192D01*
X139044757Y-65526893D01*
X139192554Y-65625646D01*
X139192556Y-65625648D01*
X139356775Y-65693668D01*
X139356789Y-65693673D01*
X139518800Y-65725898D01*
X139518800Y-65238825D01*
X139564048Y-65250950D01*
X139675952Y-65250950D01*
X139721200Y-65238825D01*
X139721200Y-65725898D01*
X139883210Y-65693673D01*
X139883224Y-65693668D01*
X140047443Y-65625648D01*
X140047445Y-65625646D01*
X140195242Y-65526893D01*
X140195245Y-65526891D01*
X140320939Y-65401196D01*
X140320940Y-65401194D01*
X140376016Y-65318767D01*
X140407707Y-65297591D01*
X140445090Y-65305027D01*
X140452637Y-65311220D01*
X140474122Y-65332705D01*
X140580974Y-65404100D01*
X140580976Y-65404101D01*
X140699697Y-65453276D01*
X140699711Y-65453281D01*
X140722415Y-65457797D01*
X140754107Y-65478972D01*
X140762500Y-65506640D01*
X140762500Y-66762250D01*
X140747914Y-66797464D01*
X140712700Y-66812050D01*
X140221069Y-66812050D01*
X140185855Y-66797464D01*
X140131305Y-66742914D01*
X140004925Y-66658471D01*
X139999937Y-66655138D01*
X139999935Y-66655137D01*
X139999933Y-66655135D01*
X139883670Y-66606978D01*
X139853964Y-66594674D01*
X139853960Y-66594673D01*
X139853954Y-66594671D01*
X139699002Y-66563850D01*
X139699000Y-66563850D01*
X139541000Y-66563850D01*
X139540997Y-66563850D01*
X139386045Y-66594671D01*
X139386037Y-66594673D01*
X139386036Y-66594674D01*
X139386032Y-66594675D01*
X139386031Y-66594676D01*
X139240066Y-66655135D01*
X139240064Y-66655137D01*
X139108694Y-66742914D01*
X139108692Y-66742917D01*
X138996967Y-66854642D01*
X138996964Y-66854644D01*
X138909187Y-66986014D01*
X138909185Y-66986016D01*
X138848726Y-67131981D01*
X138848721Y-67131995D01*
X138817900Y-67286947D01*
X138817900Y-67444952D01*
X138848721Y-67599904D01*
X138848723Y-67599910D01*
X138848724Y-67599914D01*
X138848726Y-67599918D01*
X138909185Y-67745883D01*
X138909187Y-67745885D01*
X138996964Y-67877255D01*
X139108694Y-67988985D01*
X139165963Y-68027250D01*
X139240063Y-68076762D01*
X139240064Y-68076762D01*
X139240066Y-68076764D01*
X139292632Y-68098537D01*
X139386036Y-68137226D01*
X139386043Y-68137227D01*
X139386045Y-68137228D01*
X139439072Y-68147775D01*
X139541000Y-68168050D01*
X139541004Y-68168050D01*
X139698996Y-68168050D01*
X139699000Y-68168050D01*
X139853964Y-68137226D01*
X139982521Y-68083976D01*
X139999933Y-68076764D01*
X139999933Y-68076763D01*
X139999937Y-68076762D01*
X140131309Y-67988982D01*
X140185855Y-67934436D01*
X140221069Y-67919850D01*
X140712700Y-67919850D01*
X140747914Y-67934436D01*
X140762500Y-67969650D01*
X140762500Y-69302250D01*
X140747914Y-69337464D01*
X140712700Y-69352050D01*
X140221069Y-69352050D01*
X140185855Y-69337464D01*
X140131305Y-69282914D01*
X140007213Y-69200000D01*
X139999937Y-69195138D01*
X139999935Y-69195137D01*
X139999933Y-69195135D01*
X139883670Y-69146978D01*
X139853964Y-69134674D01*
X139853960Y-69134673D01*
X139853954Y-69134671D01*
X139699002Y-69103850D01*
X139699000Y-69103850D01*
X139541000Y-69103850D01*
X139540997Y-69103850D01*
X139386045Y-69134671D01*
X139386037Y-69134673D01*
X139386036Y-69134674D01*
X139386032Y-69134675D01*
X139386031Y-69134676D01*
X139240066Y-69195135D01*
X139240064Y-69195137D01*
X139108694Y-69282914D01*
X139108692Y-69282917D01*
X138996967Y-69394642D01*
X138996964Y-69394644D01*
X138909187Y-69526014D01*
X138909185Y-69526016D01*
X138848726Y-69671981D01*
X138848721Y-69671995D01*
X138817900Y-69826947D01*
X138817900Y-69984952D01*
X138848721Y-70139904D01*
X138848723Y-70139910D01*
X138848724Y-70139914D01*
X138857124Y-70160193D01*
X138909185Y-70285883D01*
X138909187Y-70285885D01*
X138996964Y-70417255D01*
X139108694Y-70528985D01*
X139187222Y-70581455D01*
X139240063Y-70616762D01*
X139240064Y-70616762D01*
X139240066Y-70616764D01*
X139296406Y-70640100D01*
X139386036Y-70677226D01*
X139386043Y-70677227D01*
X139386045Y-70677228D01*
X139403526Y-70680705D01*
X139541000Y-70708050D01*
X139541004Y-70708050D01*
X139698996Y-70708050D01*
X139699000Y-70708050D01*
X139853964Y-70677226D01*
X139981645Y-70624339D01*
X139999933Y-70616764D01*
X139999933Y-70616763D01*
X139999937Y-70616762D01*
X140121255Y-70535700D01*
X140131305Y-70528985D01*
X140131308Y-70528983D01*
X140185855Y-70474436D01*
X140221069Y-70459850D01*
X140712700Y-70459850D01*
X140747914Y-70474436D01*
X140762500Y-70509650D01*
X140762500Y-70567250D01*
X140747914Y-70602464D01*
X140712700Y-70617050D01*
X140500954Y-70617050D01*
X140467866Y-70622290D01*
X140467860Y-70622291D01*
X140467858Y-70622292D01*
X140224661Y-70701312D01*
X140224660Y-70701312D01*
X140182026Y-70727438D01*
X140083418Y-70826046D01*
X140063731Y-70853145D01*
X140063729Y-70853148D01*
X140002305Y-70973696D01*
X139991950Y-71005568D01*
X139991948Y-71005575D01*
X139971417Y-71135206D01*
X139970100Y-71151947D01*
X139970100Y-71203996D01*
X139975340Y-71237083D01*
X139975341Y-71237087D01*
X139975342Y-71237092D01*
X140049167Y-71464300D01*
X140054362Y-71480288D01*
X140054362Y-71480289D01*
X140080488Y-71522923D01*
X140179096Y-71621531D01*
X140193690Y-71632133D01*
X140206199Y-71641221D01*
X140326748Y-71702645D01*
X140358617Y-71713000D01*
X140488248Y-71733531D01*
X140488251Y-71733531D01*
X140488256Y-71733532D01*
X140504998Y-71734850D01*
X140505002Y-71734850D01*
X140712700Y-71734850D01*
X140747914Y-71749436D01*
X140762500Y-71784650D01*
X140762500Y-71842250D01*
X140747914Y-71877464D01*
X140712700Y-71892050D01*
X140221069Y-71892050D01*
X140185855Y-71877464D01*
X140131305Y-71822914D01*
X140003807Y-71737724D01*
X139999937Y-71735138D01*
X139999935Y-71735137D01*
X139999933Y-71735135D01*
X139883670Y-71686978D01*
X139853964Y-71674674D01*
X139853960Y-71674673D01*
X139853954Y-71674671D01*
X139699002Y-71643850D01*
X139699000Y-71643850D01*
X139541000Y-71643850D01*
X139540997Y-71643850D01*
X139386045Y-71674671D01*
X139386037Y-71674673D01*
X139386036Y-71674674D01*
X139386032Y-71674675D01*
X139386031Y-71674676D01*
X139240066Y-71735135D01*
X139240064Y-71735137D01*
X139108694Y-71822914D01*
X139108692Y-71822917D01*
X138996967Y-71934642D01*
X138996964Y-71934644D01*
X138909187Y-72066014D01*
X138909185Y-72066016D01*
X138848726Y-72211981D01*
X138848721Y-72211995D01*
X138817900Y-72366947D01*
X138817900Y-72524952D01*
X138848721Y-72679904D01*
X138848723Y-72679910D01*
X138848724Y-72679914D01*
X138848726Y-72679918D01*
X138909185Y-72825883D01*
X138909187Y-72825885D01*
X138909188Y-72825887D01*
X138924056Y-72848138D01*
X138996964Y-72957255D01*
X139108694Y-73068985D01*
X139151748Y-73097752D01*
X139240063Y-73156762D01*
X139240064Y-73156762D01*
X139240066Y-73156764D01*
X139293504Y-73178898D01*
X139386036Y-73217226D01*
X139386043Y-73217227D01*
X139386045Y-73217228D01*
X139439072Y-73227775D01*
X139541000Y-73248050D01*
X139541004Y-73248050D01*
X139698996Y-73248050D01*
X139699000Y-73248050D01*
X139853964Y-73217226D01*
X139976208Y-73166591D01*
X139999933Y-73156764D01*
X139999933Y-73156763D01*
X139999937Y-73156762D01*
X140131309Y-73068982D01*
X140185855Y-73014436D01*
X140221069Y-72999850D01*
X140712700Y-72999850D01*
X140747914Y-73014436D01*
X140762500Y-73049650D01*
X140762500Y-73107250D01*
X140747914Y-73142464D01*
X140712700Y-73157050D01*
X140500954Y-73157050D01*
X140467866Y-73162290D01*
X140467860Y-73162291D01*
X140467858Y-73162292D01*
X140224661Y-73241312D01*
X140224660Y-73241312D01*
X140182026Y-73267438D01*
X140083418Y-73366046D01*
X140063731Y-73393145D01*
X140063729Y-73393148D01*
X140002305Y-73513696D01*
X139996182Y-73532542D01*
X139993727Y-73540100D01*
X139991950Y-73545568D01*
X139991948Y-73545575D01*
X139971417Y-73675206D01*
X139970100Y-73691947D01*
X139970100Y-73743996D01*
X139975340Y-73777083D01*
X139975341Y-73777087D01*
X139975342Y-73777092D01*
X140048997Y-74003777D01*
X140054362Y-74020288D01*
X140054362Y-74020289D01*
X140080488Y-74062923D01*
X140179096Y-74161531D01*
X140204454Y-74179953D01*
X140206199Y-74181221D01*
X140326748Y-74242645D01*
X140358617Y-74253000D01*
X140488248Y-74273531D01*
X140488251Y-74273531D01*
X140488256Y-74273532D01*
X140504998Y-74274850D01*
X140505002Y-74274850D01*
X140712700Y-74274850D01*
X140747914Y-74289436D01*
X140762500Y-74324650D01*
X140762500Y-74382250D01*
X140747914Y-74417464D01*
X140712700Y-74432050D01*
X140221069Y-74432050D01*
X140185855Y-74417464D01*
X140131305Y-74362914D01*
X140021335Y-74289436D01*
X139999937Y-74275138D01*
X139999935Y-74275137D01*
X139999933Y-74275135D01*
X139883670Y-74226978D01*
X139853964Y-74214674D01*
X139853960Y-74214673D01*
X139853954Y-74214671D01*
X139699002Y-74183850D01*
X139699000Y-74183850D01*
X139541000Y-74183850D01*
X139540997Y-74183850D01*
X139386045Y-74214671D01*
X139386037Y-74214673D01*
X139386036Y-74214674D01*
X139386032Y-74214675D01*
X139386031Y-74214676D01*
X139240066Y-74275135D01*
X139240064Y-74275137D01*
X139108694Y-74362914D01*
X139108692Y-74362917D01*
X138996967Y-74474642D01*
X138996964Y-74474644D01*
X138909187Y-74606014D01*
X138909185Y-74606016D01*
X138848726Y-74751981D01*
X138848721Y-74751995D01*
X138817900Y-74906947D01*
X138817900Y-75064952D01*
X138848721Y-75219904D01*
X138848723Y-75219910D01*
X138848724Y-75219914D01*
X138859855Y-75246786D01*
X138909185Y-75365883D01*
X138909187Y-75365885D01*
X138909188Y-75365887D01*
X138918679Y-75380091D01*
X138996964Y-75497255D01*
X139108694Y-75608985D01*
X139165963Y-75647250D01*
X139240063Y-75696762D01*
X139240064Y-75696762D01*
X139240066Y-75696764D01*
X139292632Y-75718537D01*
X139386036Y-75757226D01*
X139386043Y-75757227D01*
X139386045Y-75757228D01*
X139408141Y-75761623D01*
X139541000Y-75788050D01*
X139541004Y-75788050D01*
X139698996Y-75788050D01*
X139699000Y-75788050D01*
X139853964Y-75757226D01*
X139978359Y-75705700D01*
X139999933Y-75696764D01*
X139999933Y-75696763D01*
X139999937Y-75696762D01*
X140105460Y-75626253D01*
X140131305Y-75608985D01*
X140131308Y-75608983D01*
X140185855Y-75554436D01*
X140221069Y-75539850D01*
X140712700Y-75539850D01*
X140747914Y-75554436D01*
X140762500Y-75589650D01*
X140762500Y-75647250D01*
X140747914Y-75682464D01*
X140712700Y-75697050D01*
X140500954Y-75697050D01*
X140467866Y-75702290D01*
X140467860Y-75702291D01*
X140467858Y-75702292D01*
X140224661Y-75781312D01*
X140224660Y-75781312D01*
X140182026Y-75807438D01*
X140083418Y-75906046D01*
X140063731Y-75933145D01*
X140063729Y-75933148D01*
X140002305Y-76053696D01*
X139991950Y-76085568D01*
X139991948Y-76085575D01*
X139971417Y-76215206D01*
X139970100Y-76231947D01*
X139970100Y-76283996D01*
X139975340Y-76317083D01*
X139975341Y-76317087D01*
X139975342Y-76317092D01*
X140049229Y-76544491D01*
X140054362Y-76560288D01*
X140054362Y-76560289D01*
X140080488Y-76602923D01*
X140179096Y-76701531D01*
X140204454Y-76719953D01*
X140206199Y-76721221D01*
X140326748Y-76782645D01*
X140358617Y-76793000D01*
X140488248Y-76813531D01*
X140488251Y-76813531D01*
X140488256Y-76813532D01*
X140504998Y-76814850D01*
X140505002Y-76814850D01*
X140712700Y-76814850D01*
X140747914Y-76829436D01*
X140762500Y-76864650D01*
X140762500Y-76922250D01*
X140747914Y-76957464D01*
X140712700Y-76972050D01*
X140221069Y-76972050D01*
X140185855Y-76957464D01*
X140131305Y-76902914D01*
X140019237Y-76828034D01*
X139999937Y-76815138D01*
X139999935Y-76815137D01*
X139999933Y-76815135D01*
X139867288Y-76760193D01*
X139853964Y-76754674D01*
X139853960Y-76754673D01*
X139853954Y-76754671D01*
X139699002Y-76723850D01*
X139699000Y-76723850D01*
X139541000Y-76723850D01*
X139540997Y-76723850D01*
X139386045Y-76754671D01*
X139386037Y-76754673D01*
X139386036Y-76754674D01*
X139386032Y-76754675D01*
X139386031Y-76754676D01*
X139240066Y-76815135D01*
X139240064Y-76815137D01*
X139108694Y-76902914D01*
X139108692Y-76902917D01*
X138996967Y-77014642D01*
X138996964Y-77014644D01*
X138909187Y-77146014D01*
X138909185Y-77146016D01*
X138848726Y-77291981D01*
X138848721Y-77291995D01*
X138817900Y-77446947D01*
X138817900Y-77604952D01*
X138848721Y-77759904D01*
X138848723Y-77759910D01*
X138848724Y-77759914D01*
X138848726Y-77759918D01*
X138909185Y-77905883D01*
X138909187Y-77905885D01*
X138996964Y-78037255D01*
X139108694Y-78148985D01*
X139181067Y-78197342D01*
X139240063Y-78236762D01*
X139240064Y-78236762D01*
X139240066Y-78236764D01*
X139305622Y-78263917D01*
X139386036Y-78297226D01*
X139386043Y-78297227D01*
X139386045Y-78297228D01*
X139439072Y-78307775D01*
X139541000Y-78328050D01*
X139541004Y-78328050D01*
X139698996Y-78328050D01*
X139699000Y-78328050D01*
X139853964Y-78297226D01*
X139970230Y-78249066D01*
X139999933Y-78236764D01*
X139999933Y-78236763D01*
X139999937Y-78236762D01*
X140131309Y-78148982D01*
X140185855Y-78094436D01*
X140221069Y-78079850D01*
X140712700Y-78079850D01*
X140747914Y-78094436D01*
X140762500Y-78129650D01*
X140762500Y-78340540D01*
X140761828Y-78342028D01*
X140762500Y-78369562D01*
X140762500Y-78371021D01*
X140762458Y-78373066D01*
X140752166Y-78623494D01*
X140751473Y-78629971D01*
X140708809Y-78875609D01*
X140707277Y-78881940D01*
X140632917Y-79119907D01*
X140630572Y-79125985D01*
X140525780Y-79352221D01*
X140522661Y-79357940D01*
X140389243Y-79568552D01*
X140385405Y-79573815D01*
X140225632Y-79765218D01*
X140221139Y-79769935D01*
X140037759Y-79938839D01*
X140032689Y-79942930D01*
X139828820Y-80086458D01*
X139823260Y-80089851D01*
X139602409Y-80205539D01*
X139596453Y-80208178D01*
X139362389Y-80294049D01*
X139356140Y-80295888D01*
X139112865Y-80350474D01*
X139106429Y-80351481D01*
X138969929Y-80363775D01*
X138862763Y-80373427D01*
X138857522Y-80373899D01*
X138853055Y-80374100D01*
X125271141Y-80374100D01*
X125269652Y-80373427D01*
X125242115Y-80374100D01*
X125240654Y-80374100D01*
X125238611Y-80374058D01*
X124988177Y-80363775D01*
X124981700Y-80363083D01*
X124736043Y-80320424D01*
X124729711Y-80318892D01*
X124491722Y-80244530D01*
X124485644Y-80242184D01*
X124259407Y-80137397D01*
X124253688Y-80134279D01*
X124043057Y-80000853D01*
X124037793Y-79997014D01*
X123846381Y-79837235D01*
X123841664Y-79832742D01*
X123672752Y-79649352D01*
X123668661Y-79644282D01*
X123644894Y-79610523D01*
X123525128Y-79440403D01*
X123521735Y-79434843D01*
X123406042Y-79213971D01*
X123403404Y-79208015D01*
X123317536Y-78973944D01*
X123315697Y-78967695D01*
X123295037Y-78875609D01*
X123261114Y-78724404D01*
X123260108Y-78717970D01*
X123254871Y-78659807D01*
X123237701Y-78469091D01*
X123237500Y-78464625D01*
X123237500Y-78129650D01*
X123252086Y-78094436D01*
X123287300Y-78079850D01*
X123778931Y-78079850D01*
X123814145Y-78094436D01*
X123868694Y-78148985D01*
X123941067Y-78197342D01*
X124000063Y-78236762D01*
X124000064Y-78236762D01*
X124000066Y-78236764D01*
X124065622Y-78263917D01*
X124146036Y-78297226D01*
X124146043Y-78297227D01*
X124146045Y-78297228D01*
X124199072Y-78307775D01*
X124301000Y-78328050D01*
X124301004Y-78328050D01*
X124458996Y-78328050D01*
X124459000Y-78328050D01*
X124613964Y-78297226D01*
X124730230Y-78249066D01*
X124759933Y-78236764D01*
X124759933Y-78236763D01*
X124759937Y-78236762D01*
X124891309Y-78148982D01*
X125003032Y-78037259D01*
X125008978Y-78028361D01*
X125040690Y-77980900D01*
X125090812Y-77905887D01*
X125151276Y-77759914D01*
X125182100Y-77604950D01*
X125182100Y-77446950D01*
X125156222Y-77316850D01*
X125151278Y-77291995D01*
X125151277Y-77291993D01*
X125151276Y-77291986D01*
X125096686Y-77160193D01*
X125090814Y-77146016D01*
X125090812Y-77146014D01*
X125090812Y-77146013D01*
X125046575Y-77079807D01*
X125003035Y-77014644D01*
X124891305Y-76902914D01*
X124779237Y-76828034D01*
X124759937Y-76815138D01*
X124759935Y-76815137D01*
X124759933Y-76815135D01*
X124627288Y-76760193D01*
X124613964Y-76754674D01*
X124613960Y-76754673D01*
X124613954Y-76754671D01*
X124459002Y-76723850D01*
X124459000Y-76723850D01*
X124301000Y-76723850D01*
X124300997Y-76723850D01*
X124146045Y-76754671D01*
X124146037Y-76754673D01*
X124146036Y-76754674D01*
X124146032Y-76754675D01*
X124146031Y-76754676D01*
X124000066Y-76815135D01*
X124000064Y-76815137D01*
X123868694Y-76902914D01*
X123868692Y-76902917D01*
X123814145Y-76957464D01*
X123778931Y-76972050D01*
X123287300Y-76972050D01*
X123252086Y-76957464D01*
X123237500Y-76922250D01*
X123237500Y-76864650D01*
X123252086Y-76829436D01*
X123287300Y-76814850D01*
X123499046Y-76814850D01*
X123532142Y-76809608D01*
X123775339Y-76730588D01*
X123817974Y-76704461D01*
X123916576Y-76605859D01*
X123916578Y-76605855D01*
X123916581Y-76605853D01*
X123932239Y-76584300D01*
X123936271Y-76578751D01*
X123997695Y-76458202D01*
X124008050Y-76426333D01*
X124028581Y-76296702D01*
X124028582Y-76296693D01*
X124029900Y-76279952D01*
X124029900Y-76227902D01*
X124029335Y-76224337D01*
X124029335Y-76224335D01*
X124029334Y-76224333D01*
X124028617Y-76219807D01*
X124274700Y-76219807D01*
X124274700Y-76300193D01*
X124295506Y-76377841D01*
X124296864Y-76380193D01*
X124331451Y-76440100D01*
X124335700Y-76447458D01*
X124392542Y-76504300D01*
X124462159Y-76544494D01*
X124539807Y-76565300D01*
X124539808Y-76565300D01*
X124620192Y-76565300D01*
X124620193Y-76565300D01*
X124697841Y-76544494D01*
X124767458Y-76504300D01*
X124824300Y-76447458D01*
X124864494Y-76377841D01*
X124885300Y-76300193D01*
X124885300Y-76219807D01*
X124864494Y-76142159D01*
X124824300Y-76072542D01*
X124767458Y-76015700D01*
X124767457Y-76015699D01*
X124697844Y-75975508D01*
X124697841Y-75975506D01*
X124697838Y-75975505D01*
X124659200Y-75965152D01*
X124620193Y-75954700D01*
X124539807Y-75954700D01*
X124511386Y-75962315D01*
X124462161Y-75975505D01*
X124462155Y-75975508D01*
X124392542Y-76015699D01*
X124335699Y-76072542D01*
X124295508Y-76142155D01*
X124295505Y-76142161D01*
X124281398Y-76194809D01*
X124274700Y-76219807D01*
X124028617Y-76219807D01*
X124024658Y-76194808D01*
X123945638Y-75951611D01*
X123919511Y-75908976D01*
X123820909Y-75810374D01*
X123820903Y-75810368D01*
X123793804Y-75790681D01*
X123793801Y-75790679D01*
X123673253Y-75729255D01*
X123659461Y-75724774D01*
X123641383Y-75718900D01*
X123641378Y-75718899D01*
X123641374Y-75718898D01*
X123511743Y-75698367D01*
X123495002Y-75697050D01*
X123494998Y-75697050D01*
X123287300Y-75697050D01*
X123252086Y-75682464D01*
X123237500Y-75647250D01*
X123237500Y-75589650D01*
X123252086Y-75554436D01*
X123287300Y-75539850D01*
X123778931Y-75539850D01*
X123814145Y-75554436D01*
X123868694Y-75608985D01*
X123925963Y-75647250D01*
X124000063Y-75696762D01*
X124000064Y-75696762D01*
X124000066Y-75696764D01*
X124052632Y-75718537D01*
X124146036Y-75757226D01*
X124146043Y-75757227D01*
X124146045Y-75757228D01*
X124168141Y-75761623D01*
X124301000Y-75788050D01*
X124301004Y-75788050D01*
X124458996Y-75788050D01*
X124459000Y-75788050D01*
X124613964Y-75757226D01*
X124746591Y-75702290D01*
X124759935Y-75696763D01*
X124759935Y-75696762D01*
X124759937Y-75696762D01*
X124794677Y-75673548D01*
X124832058Y-75666112D01*
X124857558Y-75679741D01*
X125044428Y-75866611D01*
X125087439Y-75909622D01*
X125143636Y-75932900D01*
X125143638Y-75932900D01*
X125950411Y-75932900D01*
X125950413Y-75932900D01*
X125950414Y-75932900D01*
X125971958Y-75923976D01*
X126006611Y-75909623D01*
X126229686Y-75686546D01*
X126264900Y-75671961D01*
X126300114Y-75686547D01*
X126314700Y-75721761D01*
X126314700Y-75740193D01*
X126325718Y-75781312D01*
X126335505Y-75817838D01*
X126335508Y-75817844D01*
X126375699Y-75887457D01*
X126432542Y-75944300D01*
X126488957Y-75976872D01*
X126512160Y-76007111D01*
X126507185Y-76044900D01*
X126488957Y-76063128D01*
X126432542Y-76095699D01*
X126375699Y-76152542D01*
X126335508Y-76222155D01*
X126335505Y-76222161D01*
X126320021Y-76279948D01*
X126314700Y-76299807D01*
X126314700Y-76380193D01*
X126316741Y-76387809D01*
X126332723Y-76447457D01*
X126335506Y-76457841D01*
X126345817Y-76475700D01*
X126370048Y-76517670D01*
X126375700Y-76527458D01*
X126432542Y-76584300D01*
X126502159Y-76624494D01*
X126579807Y-76645300D01*
X126579808Y-76645300D01*
X126660192Y-76645300D01*
X126660193Y-76645300D01*
X126737841Y-76624494D01*
X126807458Y-76584300D01*
X126864300Y-76527458D01*
X126904494Y-76457841D01*
X126925300Y-76380193D01*
X126925300Y-76299807D01*
X126904494Y-76222159D01*
X126864300Y-76152542D01*
X126807458Y-76095700D01*
X126807457Y-76095699D01*
X126751042Y-76063128D01*
X126727839Y-76032889D01*
X126732814Y-75995100D01*
X126751042Y-75976872D01*
X126799752Y-75948749D01*
X128320100Y-75948749D01*
X128320100Y-76022450D01*
X128339174Y-76093634D01*
X128339177Y-76093641D01*
X128367186Y-76142155D01*
X128376024Y-76157462D01*
X128428138Y-76209576D01*
X128491963Y-76246425D01*
X128563150Y-76265500D01*
X128636850Y-76265500D01*
X128708037Y-76246425D01*
X128771862Y-76209576D01*
X128823976Y-76157462D01*
X128860825Y-76093637D01*
X128879900Y-76022450D01*
X128879900Y-75948750D01*
X128860825Y-75877563D01*
X128823976Y-75813738D01*
X128771862Y-75761624D01*
X128771861Y-75761623D01*
X128708041Y-75724777D01*
X128708038Y-75724776D01*
X128708037Y-75724775D01*
X128708035Y-75724774D01*
X128708034Y-75724774D01*
X128636850Y-75705700D01*
X128563150Y-75705700D01*
X128491965Y-75724774D01*
X128491958Y-75724777D01*
X128428138Y-75761623D01*
X128376023Y-75813738D01*
X128339177Y-75877558D01*
X128339174Y-75877565D01*
X128320100Y-75948749D01*
X126799752Y-75948749D01*
X126807458Y-75944300D01*
X126864300Y-75887458D01*
X126904494Y-75817841D01*
X126925300Y-75740193D01*
X126925300Y-75659807D01*
X126904494Y-75582159D01*
X126864300Y-75512542D01*
X126807458Y-75455700D01*
X126807457Y-75455699D01*
X126759990Y-75428294D01*
X126737841Y-75415506D01*
X126737838Y-75415505D01*
X126683331Y-75400900D01*
X126660193Y-75394700D01*
X126641761Y-75394700D01*
X126606547Y-75380114D01*
X126591961Y-75344900D01*
X126606547Y-75309686D01*
X126669447Y-75246786D01*
X126746277Y-75169955D01*
X126781490Y-75155370D01*
X126816704Y-75169956D01*
X126829593Y-75192279D01*
X126833809Y-75208014D01*
X126839175Y-75228037D01*
X126839176Y-75228039D01*
X126839177Y-75228041D01*
X126872908Y-75286466D01*
X126876024Y-75291862D01*
X126928138Y-75343976D01*
X126991963Y-75380825D01*
X127063150Y-75399900D01*
X127136850Y-75399900D01*
X127208037Y-75380825D01*
X127271862Y-75343976D01*
X127314786Y-75301052D01*
X127350000Y-75286466D01*
X127385214Y-75301052D01*
X127428138Y-75343976D01*
X127491963Y-75380825D01*
X127563150Y-75399900D01*
X127636850Y-75399900D01*
X127708037Y-75380825D01*
X127771862Y-75343976D01*
X127814786Y-75301052D01*
X127850000Y-75286466D01*
X127885214Y-75301052D01*
X127928138Y-75343976D01*
X127991963Y-75380825D01*
X128063150Y-75399900D01*
X128136850Y-75399900D01*
X128208037Y-75380825D01*
X128271862Y-75343976D01*
X128323976Y-75291862D01*
X128360825Y-75228037D01*
X128379900Y-75156850D01*
X128379900Y-75083150D01*
X128373752Y-75060206D01*
X128378726Y-75022418D01*
X128408965Y-74999214D01*
X128446754Y-75004188D01*
X128457069Y-75012103D01*
X128731433Y-75286466D01*
X128983778Y-75538811D01*
X129026789Y-75581822D01*
X129082986Y-75605100D01*
X129082988Y-75605100D01*
X129372920Y-75605100D01*
X129408134Y-75619686D01*
X129422720Y-75654900D01*
X129419691Y-75670122D01*
X129420020Y-75670211D01*
X129419175Y-75673361D01*
X129419175Y-75673363D01*
X129411424Y-75702290D01*
X129400100Y-75744549D01*
X129400100Y-75818250D01*
X129419174Y-75889434D01*
X129419177Y-75889441D01*
X129455070Y-75951611D01*
X129456024Y-75953262D01*
X129508138Y-76005376D01*
X129571963Y-76042225D01*
X129643150Y-76061300D01*
X129716850Y-76061300D01*
X129788037Y-76042225D01*
X129851862Y-76005376D01*
X129892086Y-75965152D01*
X129927300Y-75950566D01*
X129962514Y-75965152D01*
X129977100Y-76000366D01*
X129977100Y-76206038D01*
X129962514Y-76241252D01*
X129549496Y-76654269D01*
X129514282Y-76668855D01*
X129479068Y-76654269D01*
X129466179Y-76631945D01*
X129465221Y-76628370D01*
X129460825Y-76611963D01*
X129423976Y-76548138D01*
X129371862Y-76496024D01*
X129371861Y-76496023D01*
X129308041Y-76459177D01*
X129308038Y-76459176D01*
X129308037Y-76459175D01*
X129308035Y-76459174D01*
X129308034Y-76459174D01*
X129236850Y-76440100D01*
X129163150Y-76440100D01*
X129091965Y-76459174D01*
X129091958Y-76459177D01*
X129028138Y-76496023D01*
X128976023Y-76548138D01*
X128939177Y-76611958D01*
X128939174Y-76611965D01*
X128920100Y-76683149D01*
X128920100Y-76756850D01*
X128939174Y-76828034D01*
X128939177Y-76828041D01*
X128949869Y-76846561D01*
X128976024Y-76891862D01*
X129028138Y-76943976D01*
X129091963Y-76980825D01*
X129163150Y-76999900D01*
X129236849Y-76999900D01*
X129236850Y-76999900D01*
X129284412Y-76987155D01*
X129322199Y-76992129D01*
X129345403Y-77022367D01*
X129347100Y-77035258D01*
X129347100Y-77382595D01*
X129332514Y-77417809D01*
X129322202Y-77425722D01*
X129312542Y-77431299D01*
X129255699Y-77488142D01*
X129215508Y-77557755D01*
X129215505Y-77557761D01*
X129198414Y-77621547D01*
X129194700Y-77635407D01*
X129194700Y-77715793D01*
X129206520Y-77759904D01*
X129215505Y-77793438D01*
X129215508Y-77793444D01*
X129239956Y-77835790D01*
X129255700Y-77863058D01*
X129312542Y-77919900D01*
X129382159Y-77960094D01*
X129459807Y-77980900D01*
X129459808Y-77980900D01*
X129540192Y-77980900D01*
X129540193Y-77980900D01*
X129617841Y-77960094D01*
X129635290Y-77950019D01*
X129673076Y-77945043D01*
X129703316Y-77968245D01*
X129708293Y-78006034D01*
X129695403Y-78028361D01*
X129339067Y-78384697D01*
X129303853Y-78399283D01*
X129290964Y-78397586D01*
X129280194Y-78394700D01*
X129280193Y-78394700D01*
X129199807Y-78394700D01*
X129171386Y-78402315D01*
X129122161Y-78415505D01*
X129122155Y-78415508D01*
X129052542Y-78455699D01*
X128995699Y-78512542D01*
X128955508Y-78582155D01*
X128955505Y-78582161D01*
X128934700Y-78659807D01*
X128934700Y-78740192D01*
X128955505Y-78817838D01*
X128955508Y-78817844D01*
X128990715Y-78878825D01*
X128995700Y-78887458D01*
X129052542Y-78944300D01*
X129122159Y-78984494D01*
X129199807Y-79005300D01*
X129199808Y-79005300D01*
X129280192Y-79005300D01*
X129280193Y-79005300D01*
X129357841Y-78984494D01*
X129427458Y-78944300D01*
X129484300Y-78887458D01*
X129524494Y-78817841D01*
X129545300Y-78740193D01*
X129545300Y-78659807D01*
X129542413Y-78649033D01*
X129547387Y-78611246D01*
X129555298Y-78600934D01*
X130445887Y-77710346D01*
X130481100Y-77695761D01*
X130516314Y-77710347D01*
X130530900Y-77745561D01*
X130530900Y-78176714D01*
X130517266Y-78209629D01*
X130517687Y-78209952D01*
X130516482Y-78211522D01*
X130516314Y-78211928D01*
X130515699Y-78212542D01*
X130475508Y-78282155D01*
X130475505Y-78282161D01*
X130463209Y-78328050D01*
X130454700Y-78359807D01*
X130454700Y-78440193D01*
X130458855Y-78455699D01*
X130475505Y-78517838D01*
X130475508Y-78517844D01*
X130512641Y-78582161D01*
X130515700Y-78587458D01*
X130572542Y-78644300D01*
X130642159Y-78684494D01*
X130719807Y-78705300D01*
X130719808Y-78705300D01*
X130800192Y-78705300D01*
X130800193Y-78705300D01*
X130877841Y-78684494D01*
X130947458Y-78644300D01*
X131004300Y-78587458D01*
X131044494Y-78517841D01*
X131065300Y-78440193D01*
X131065300Y-78359807D01*
X131044494Y-78282159D01*
X131004300Y-78212542D01*
X131003686Y-78211928D01*
X131003517Y-78211522D01*
X131002313Y-78209952D01*
X131002733Y-78209629D01*
X130989100Y-78176714D01*
X130989100Y-77395658D01*
X130992891Y-77376600D01*
X130996300Y-77368371D01*
X130996300Y-77274032D01*
X131010886Y-77238818D01*
X131046100Y-77224232D01*
X131070999Y-77230903D01*
X131102159Y-77248894D01*
X131179807Y-77269700D01*
X131179808Y-77269700D01*
X131260192Y-77269700D01*
X131260193Y-77269700D01*
X131337841Y-77248894D01*
X131347791Y-77243149D01*
X131980100Y-77243149D01*
X131980100Y-77316850D01*
X131999174Y-77388034D01*
X131999177Y-77388041D01*
X132024152Y-77431300D01*
X132036024Y-77451862D01*
X132088138Y-77503976D01*
X132151963Y-77540825D01*
X132223150Y-77559900D01*
X132296850Y-77559900D01*
X132368037Y-77540825D01*
X132431862Y-77503976D01*
X132483976Y-77451862D01*
X132520825Y-77388037D01*
X132539900Y-77316850D01*
X132539900Y-77243150D01*
X132538477Y-77237841D01*
X132530669Y-77208700D01*
X132520825Y-77171963D01*
X132483976Y-77108138D01*
X132455645Y-77079807D01*
X138154700Y-77079807D01*
X138154700Y-77160193D01*
X138175506Y-77237841D01*
X138215700Y-77307458D01*
X138272542Y-77364300D01*
X138342159Y-77404494D01*
X138419807Y-77425300D01*
X138419808Y-77425300D01*
X138500192Y-77425300D01*
X138500193Y-77425300D01*
X138577841Y-77404494D01*
X138647458Y-77364300D01*
X138704300Y-77307458D01*
X138744494Y-77237841D01*
X138765300Y-77160193D01*
X138765300Y-77079807D01*
X138744494Y-77002159D01*
X138704300Y-76932542D01*
X138647458Y-76875700D01*
X138647457Y-76875699D01*
X138604852Y-76851101D01*
X138577841Y-76835506D01*
X138577838Y-76835505D01*
X138545022Y-76826712D01*
X138500193Y-76814700D01*
X138419807Y-76814700D01*
X138391386Y-76822315D01*
X138342161Y-76835505D01*
X138342155Y-76835508D01*
X138272542Y-76875699D01*
X138215699Y-76932542D01*
X138175508Y-77002155D01*
X138175505Y-77002161D01*
X138170946Y-77019177D01*
X138154700Y-77079807D01*
X132455645Y-77079807D01*
X132431862Y-77056024D01*
X132431861Y-77056023D01*
X132368041Y-77019177D01*
X132368038Y-77019176D01*
X132368037Y-77019175D01*
X132368035Y-77019174D01*
X132368034Y-77019174D01*
X132296850Y-77000100D01*
X132223150Y-77000100D01*
X132151965Y-77019174D01*
X132151958Y-77019177D01*
X132088138Y-77056023D01*
X132036023Y-77108138D01*
X131999177Y-77171958D01*
X131999174Y-77171965D01*
X131980100Y-77243149D01*
X131347791Y-77243149D01*
X131407458Y-77208700D01*
X131464300Y-77151858D01*
X131504494Y-77082241D01*
X131525300Y-77004593D01*
X131525300Y-76924207D01*
X131504494Y-76846559D01*
X131464300Y-76776942D01*
X131428393Y-76741035D01*
X131421314Y-76723945D01*
X131413822Y-76707038D01*
X131414057Y-76706426D01*
X131413807Y-76705821D01*
X131427543Y-76671478D01*
X131436724Y-76661837D01*
X131450917Y-76651440D01*
X131523781Y-76615820D01*
X131523781Y-76615819D01*
X131523783Y-76615819D01*
X131607819Y-76531783D01*
X131660015Y-76425013D01*
X131668633Y-76365864D01*
X132350433Y-76365864D01*
X132352492Y-76387808D01*
X132352492Y-76387809D01*
X132397930Y-76517666D01*
X132397932Y-76517670D01*
X132479629Y-76628367D01*
X132479632Y-76628370D01*
X132590329Y-76710067D01*
X132590333Y-76710069D01*
X132720188Y-76755507D01*
X132720193Y-76755508D01*
X132751036Y-76758400D01*
X133368964Y-76758400D01*
X133399806Y-76755508D01*
X133399811Y-76755507D01*
X133529666Y-76710069D01*
X133529670Y-76710067D01*
X133570671Y-76679807D01*
X134434700Y-76679807D01*
X134434700Y-76760193D01*
X134455506Y-76837841D01*
X134460541Y-76846561D01*
X134493078Y-76902918D01*
X134495700Y-76907458D01*
X134552542Y-76964300D01*
X134622159Y-77004494D01*
X134699807Y-77025300D01*
X134699808Y-77025300D01*
X134780192Y-77025300D01*
X134780193Y-77025300D01*
X134857841Y-77004494D01*
X134927458Y-76964300D01*
X134984300Y-76907458D01*
X135024494Y-76837841D01*
X135045300Y-76760193D01*
X135045300Y-76679807D01*
X135024494Y-76602159D01*
X134984300Y-76532542D01*
X134927458Y-76475700D01*
X134927457Y-76475699D01*
X134857844Y-76435508D01*
X134857841Y-76435506D01*
X134857838Y-76435505D01*
X134818681Y-76425013D01*
X134780193Y-76414700D01*
X134699807Y-76414700D01*
X134671386Y-76422315D01*
X134622161Y-76435505D01*
X134622155Y-76435508D01*
X134552542Y-76475699D01*
X134495699Y-76532542D01*
X134455508Y-76602155D01*
X134455505Y-76602161D01*
X134443946Y-76645300D01*
X134434700Y-76679807D01*
X133570671Y-76679807D01*
X133629378Y-76636480D01*
X133629387Y-76636473D01*
X133640370Y-76628366D01*
X133722067Y-76517670D01*
X133767508Y-76387804D01*
X133769878Y-76362519D01*
X133756641Y-76356297D01*
X133754634Y-76357129D01*
X133719425Y-76342543D01*
X133060000Y-75683118D01*
X132400573Y-76342545D01*
X132390524Y-76346707D01*
X132382527Y-76354078D01*
X132350433Y-76365864D01*
X131668633Y-76365864D01*
X131670100Y-76355795D01*
X131670100Y-76107281D01*
X132349600Y-76107281D01*
X132916882Y-75540000D01*
X133203118Y-75540000D01*
X133770399Y-76107281D01*
X133770400Y-76107281D01*
X133770400Y-75287175D01*
X135920068Y-75287175D01*
X135920068Y-75367561D01*
X135923622Y-75380825D01*
X135936341Y-75428294D01*
X135940874Y-75445209D01*
X135946931Y-75455700D01*
X135970925Y-75497259D01*
X135981068Y-75514826D01*
X136037910Y-75571668D01*
X136107527Y-75611862D01*
X136185175Y-75632668D01*
X136185176Y-75632668D01*
X136265560Y-75632668D01*
X136265561Y-75632668D01*
X136343209Y-75611862D01*
X136412826Y-75571668D01*
X136469668Y-75514826D01*
X136509862Y-75445209D01*
X136530668Y-75367561D01*
X136530668Y-75287175D01*
X136509862Y-75209527D01*
X136469668Y-75139910D01*
X136412826Y-75083068D01*
X136412825Y-75083067D01*
X136343212Y-75042876D01*
X136343209Y-75042874D01*
X136343206Y-75042873D01*
X136286572Y-75027698D01*
X136265561Y-75022068D01*
X136185175Y-75022068D01*
X136164164Y-75027698D01*
X136107529Y-75042873D01*
X136107523Y-75042876D01*
X136037910Y-75083067D01*
X135981067Y-75139910D01*
X135940876Y-75209523D01*
X135940873Y-75209529D01*
X135935914Y-75228037D01*
X135920068Y-75287175D01*
X133770400Y-75287175D01*
X133770400Y-74972718D01*
X133770399Y-74972718D01*
X133203118Y-75540000D01*
X132916882Y-75540000D01*
X132349600Y-74972718D01*
X132349600Y-76107281D01*
X131670100Y-76107281D01*
X131670099Y-74764206D01*
X131670099Y-74764203D01*
X131668735Y-74754839D01*
X131664077Y-74722869D01*
X131662804Y-74714133D01*
X132350433Y-74714133D01*
X132382526Y-74725920D01*
X132390520Y-74733289D01*
X132400567Y-74737449D01*
X133060000Y-75396882D01*
X133719427Y-74737455D01*
X133754641Y-74722869D01*
X133756647Y-74723699D01*
X133769878Y-74717479D01*
X133767508Y-74692195D01*
X133722067Y-74562329D01*
X133683047Y-74509458D01*
X133663630Y-74483149D01*
X134720100Y-74483149D01*
X134720100Y-74556850D01*
X134739174Y-74628034D01*
X134739177Y-74628041D01*
X134771013Y-74683184D01*
X134776024Y-74691862D01*
X134828138Y-74743976D01*
X134891963Y-74780825D01*
X134963150Y-74799900D01*
X135036850Y-74799900D01*
X135108037Y-74780825D01*
X135171862Y-74743976D01*
X135223976Y-74691862D01*
X135260825Y-74628037D01*
X135279900Y-74556850D01*
X135279900Y-74483150D01*
X135260825Y-74411963D01*
X135223976Y-74348138D01*
X135171862Y-74296024D01*
X135171861Y-74296023D01*
X135122432Y-74267486D01*
X135108040Y-74259177D01*
X135108037Y-74259175D01*
X135108034Y-74259174D01*
X135036850Y-74240100D01*
X134963150Y-74240100D01*
X134891965Y-74259174D01*
X134891958Y-74259177D01*
X134828138Y-74296023D01*
X134776023Y-74348138D01*
X134739177Y-74411958D01*
X134739174Y-74411965D01*
X134720100Y-74483149D01*
X133663630Y-74483149D01*
X133640370Y-74451632D01*
X133640367Y-74451629D01*
X133529670Y-74369932D01*
X133529666Y-74369930D01*
X133399811Y-74324492D01*
X133399806Y-74324491D01*
X133368964Y-74321600D01*
X132751036Y-74321600D01*
X132720193Y-74324491D01*
X132720188Y-74324492D01*
X132590333Y-74369930D01*
X132590329Y-74369932D01*
X132479632Y-74451629D01*
X132479629Y-74451632D01*
X132397932Y-74562329D01*
X132397930Y-74562333D01*
X132352492Y-74692189D01*
X132352491Y-74692192D01*
X132350433Y-74714133D01*
X131662804Y-74714133D01*
X131660015Y-74694987D01*
X131658650Y-74692195D01*
X131607819Y-74588217D01*
X131523782Y-74504180D01*
X131478985Y-74482280D01*
X131453755Y-74453710D01*
X131456117Y-74415668D01*
X131457729Y-74412640D01*
X131462072Y-74405118D01*
X131480825Y-74372637D01*
X131499900Y-74301450D01*
X131499900Y-74279807D01*
X131694700Y-74279807D01*
X131694700Y-74360193D01*
X131715506Y-74437841D01*
X131723467Y-74451629D01*
X131746199Y-74491003D01*
X131755700Y-74507458D01*
X131812542Y-74564300D01*
X131882159Y-74604494D01*
X131959807Y-74625300D01*
X131959808Y-74625300D01*
X132040192Y-74625300D01*
X132040193Y-74625300D01*
X132117841Y-74604494D01*
X132187458Y-74564300D01*
X132244300Y-74507458D01*
X132284494Y-74437841D01*
X132305300Y-74360193D01*
X132305300Y-74279807D01*
X132291317Y-74227621D01*
X137734003Y-74227621D01*
X137734003Y-74301322D01*
X137753077Y-74372506D01*
X137753080Y-74372513D01*
X137787453Y-74432050D01*
X137789927Y-74436334D01*
X137842041Y-74488448D01*
X137905866Y-74525297D01*
X137977053Y-74544372D01*
X138050753Y-74544372D01*
X138121940Y-74525297D01*
X138185765Y-74488448D01*
X138237879Y-74436334D01*
X138274728Y-74372509D01*
X138293803Y-74301322D01*
X138293803Y-74227622D01*
X138274728Y-74156435D01*
X138237879Y-74092610D01*
X138185765Y-74040496D01*
X138185764Y-74040495D01*
X138121944Y-74003649D01*
X138121941Y-74003648D01*
X138121940Y-74003647D01*
X138121938Y-74003646D01*
X138121937Y-74003646D01*
X138050753Y-73984572D01*
X137977053Y-73984572D01*
X137905868Y-74003646D01*
X137905861Y-74003649D01*
X137842041Y-74040495D01*
X137789926Y-74092610D01*
X137753080Y-74156430D01*
X137753077Y-74156437D01*
X137734003Y-74227621D01*
X132291317Y-74227621D01*
X132284494Y-74202159D01*
X132244300Y-74132542D01*
X132187458Y-74075700D01*
X132187457Y-74075699D01*
X132132511Y-74043976D01*
X132117841Y-74035506D01*
X132117838Y-74035505D01*
X132061047Y-74020288D01*
X132040193Y-74014700D01*
X131959807Y-74014700D01*
X131938953Y-74020288D01*
X131882161Y-74035505D01*
X131882155Y-74035508D01*
X131812542Y-74075699D01*
X131755699Y-74132542D01*
X131715508Y-74202155D01*
X131715505Y-74202161D01*
X131703701Y-74246215D01*
X131694700Y-74279807D01*
X131499900Y-74279807D01*
X131499900Y-74227750D01*
X131499865Y-74227621D01*
X131488170Y-74183976D01*
X131480825Y-74156563D01*
X131443976Y-74092738D01*
X131391862Y-74040624D01*
X131391861Y-74040623D01*
X131328041Y-74003777D01*
X131328038Y-74003776D01*
X131328037Y-74003775D01*
X131328035Y-74003774D01*
X131328034Y-74003774D01*
X131256850Y-73984700D01*
X131183150Y-73984700D01*
X131183145Y-73984700D01*
X131170845Y-73987996D01*
X131133056Y-73983020D01*
X131109854Y-73952781D01*
X131108157Y-73939893D01*
X131108157Y-73897549D01*
X131092158Y-73837844D01*
X131089082Y-73826363D01*
X131076767Y-73805034D01*
X131071793Y-73767246D01*
X131094996Y-73737007D01*
X131107003Y-73732032D01*
X131150074Y-73720492D01*
X131213899Y-73683643D01*
X131217735Y-73679807D01*
X132944700Y-73679807D01*
X132944700Y-73760193D01*
X132965506Y-73837841D01*
X132976481Y-73856850D01*
X132999979Y-73897550D01*
X133005700Y-73907458D01*
X133062542Y-73964300D01*
X133132159Y-74004494D01*
X133209807Y-74025300D01*
X133209808Y-74025300D01*
X133290192Y-74025300D01*
X133290193Y-74025300D01*
X133367841Y-74004494D01*
X133437458Y-73964300D01*
X133494300Y-73907458D01*
X133534494Y-73837841D01*
X133549149Y-73783149D01*
X134800100Y-73783149D01*
X134800100Y-73856850D01*
X134819174Y-73928034D01*
X134819177Y-73928041D01*
X134844123Y-73971250D01*
X134856024Y-73991862D01*
X134908138Y-74043976D01*
X134971963Y-74080825D01*
X135043150Y-74099900D01*
X135116850Y-74099900D01*
X135188037Y-74080825D01*
X135251862Y-74043976D01*
X135303976Y-73991862D01*
X135340825Y-73928037D01*
X135359900Y-73856850D01*
X135359900Y-73783150D01*
X135359899Y-73783148D01*
X135351753Y-73752746D01*
X135340825Y-73711963D01*
X135303976Y-73648138D01*
X135251862Y-73596024D01*
X135251861Y-73596023D01*
X135188041Y-73559177D01*
X135188038Y-73559176D01*
X135188037Y-73559175D01*
X135188035Y-73559174D01*
X135188034Y-73559174D01*
X135116850Y-73540100D01*
X135043150Y-73540100D01*
X134971965Y-73559174D01*
X134971958Y-73559177D01*
X134908138Y-73596023D01*
X134856023Y-73648138D01*
X134819177Y-73711958D01*
X134819174Y-73711965D01*
X134800100Y-73783149D01*
X133549149Y-73783149D01*
X133555300Y-73760193D01*
X133555300Y-73679807D01*
X133534494Y-73602159D01*
X133494300Y-73532542D01*
X133437458Y-73475700D01*
X133437457Y-73475699D01*
X133367844Y-73435508D01*
X133367841Y-73435506D01*
X133367838Y-73435505D01*
X133323658Y-73423667D01*
X133290193Y-73414700D01*
X133209807Y-73414700D01*
X133181386Y-73422315D01*
X133132161Y-73435505D01*
X133132155Y-73435508D01*
X133062542Y-73475699D01*
X133005699Y-73532542D01*
X132965508Y-73602155D01*
X132965505Y-73602161D01*
X132951398Y-73654809D01*
X132944700Y-73679807D01*
X131217735Y-73679807D01*
X131266013Y-73631529D01*
X131302862Y-73567704D01*
X131321937Y-73496517D01*
X131321937Y-73433257D01*
X131336523Y-73398043D01*
X131371737Y-73383457D01*
X131384617Y-73385152D01*
X131459807Y-73405300D01*
X131459808Y-73405300D01*
X131540192Y-73405300D01*
X131540193Y-73405300D01*
X131617841Y-73384494D01*
X131687458Y-73344300D01*
X131744300Y-73287458D01*
X131784494Y-73217841D01*
X131805300Y-73140193D01*
X131805300Y-73059807D01*
X131784494Y-72982159D01*
X131744300Y-72912542D01*
X131687458Y-72855700D01*
X131687457Y-72855699D01*
X131617844Y-72815508D01*
X131617841Y-72815506D01*
X131617838Y-72815505D01*
X131582100Y-72805929D01*
X131540193Y-72794700D01*
X131459807Y-72794700D01*
X131431386Y-72802315D01*
X131382161Y-72815505D01*
X131382155Y-72815508D01*
X131312542Y-72855699D01*
X131255699Y-72912542D01*
X131215508Y-72982155D01*
X131215505Y-72982161D01*
X131194700Y-73059807D01*
X131194700Y-73143457D01*
X131193544Y-73143457D01*
X131192082Y-73148910D01*
X131193417Y-73158571D01*
X131187343Y-73166591D01*
X131184739Y-73176308D01*
X131176294Y-73181182D01*
X131170407Y-73188957D01*
X131160513Y-73190291D01*
X131151729Y-73195362D01*
X131132650Y-73194172D01*
X131132484Y-73194128D01*
X131078887Y-73179767D01*
X131077487Y-73179767D01*
X131073056Y-73178610D01*
X131060148Y-73168835D01*
X131046130Y-73160742D01*
X131045282Y-73157578D01*
X131042670Y-73155600D01*
X131040454Y-73139562D01*
X131036265Y-73123926D01*
X131037463Y-73117902D01*
X131037455Y-73117843D01*
X131037482Y-73117807D01*
X131037534Y-73117544D01*
X131050100Y-73070650D01*
X131050100Y-72996950D01*
X131031025Y-72925763D01*
X130994176Y-72861938D01*
X130942062Y-72809824D01*
X130939754Y-72807516D01*
X130940556Y-72806713D01*
X130923526Y-72777213D01*
X130923100Y-72770715D01*
X130923100Y-72083962D01*
X130931721Y-72063149D01*
X131220100Y-72063149D01*
X131220100Y-72136850D01*
X131239174Y-72208034D01*
X131239177Y-72208041D01*
X131269063Y-72259806D01*
X131276024Y-72271862D01*
X131328138Y-72323976D01*
X131391963Y-72360825D01*
X131463150Y-72379900D01*
X131536850Y-72379900D01*
X131608037Y-72360825D01*
X131671862Y-72323976D01*
X131723976Y-72271862D01*
X131760825Y-72208037D01*
X131779900Y-72136850D01*
X131779900Y-72063150D01*
X131779107Y-72060192D01*
X131769758Y-72025300D01*
X131760825Y-71991963D01*
X131723976Y-71928138D01*
X131671862Y-71876024D01*
X131671861Y-71876023D01*
X131608041Y-71839177D01*
X131608038Y-71839176D01*
X131608037Y-71839175D01*
X131608035Y-71839174D01*
X131608034Y-71839174D01*
X131536850Y-71820100D01*
X131463150Y-71820100D01*
X131391965Y-71839174D01*
X131391958Y-71839177D01*
X131328138Y-71876023D01*
X131276023Y-71928138D01*
X131239177Y-71991958D01*
X131239174Y-71991965D01*
X131220100Y-72063149D01*
X130931721Y-72063149D01*
X130937686Y-72048748D01*
X130961762Y-72024672D01*
X131298244Y-71688190D01*
X131606627Y-71379807D01*
X133294700Y-71379807D01*
X133294700Y-71460193D01*
X133297429Y-71470378D01*
X133315505Y-71537838D01*
X133315508Y-71537844D01*
X133352641Y-71602161D01*
X133355700Y-71607458D01*
X133412542Y-71664300D01*
X133433900Y-71676631D01*
X133434317Y-71676872D01*
X133457519Y-71707112D01*
X133452544Y-71744901D01*
X133434317Y-71763128D01*
X133412541Y-71775700D01*
X133355699Y-71832542D01*
X133315508Y-71902155D01*
X133315505Y-71902161D01*
X133302202Y-71951809D01*
X133294700Y-71979807D01*
X133294700Y-72060193D01*
X133315506Y-72137841D01*
X133324112Y-72152746D01*
X133341665Y-72183150D01*
X133355700Y-72207458D01*
X133412542Y-72264300D01*
X133482159Y-72304494D01*
X133559807Y-72325300D01*
X133559808Y-72325300D01*
X133640192Y-72325300D01*
X133640193Y-72325300D01*
X133717841Y-72304494D01*
X133754811Y-72283149D01*
X135920100Y-72283149D01*
X135920100Y-72356850D01*
X135939174Y-72428034D01*
X135939177Y-72428041D01*
X135969651Y-72480825D01*
X135976024Y-72491862D01*
X136028138Y-72543976D01*
X136091963Y-72580825D01*
X136163150Y-72599900D01*
X136236850Y-72599900D01*
X136308037Y-72580825D01*
X136371862Y-72543976D01*
X136423976Y-72491862D01*
X136460825Y-72428037D01*
X136479900Y-72356850D01*
X136479900Y-72283150D01*
X136478640Y-72278449D01*
X136472485Y-72255479D01*
X136460825Y-72211963D01*
X136423976Y-72148138D01*
X136371862Y-72096024D01*
X136371861Y-72096023D01*
X136308041Y-72059177D01*
X136308038Y-72059176D01*
X136308037Y-72059175D01*
X136308035Y-72059174D01*
X136308034Y-72059174D01*
X136236850Y-72040100D01*
X136163150Y-72040100D01*
X136091965Y-72059174D01*
X136091958Y-72059177D01*
X136028138Y-72096023D01*
X135976023Y-72148138D01*
X135939177Y-72211958D01*
X135939174Y-72211965D01*
X135920100Y-72283149D01*
X133754811Y-72283149D01*
X133787458Y-72264300D01*
X133844300Y-72207458D01*
X133884494Y-72137841D01*
X133905300Y-72060193D01*
X133905300Y-71979807D01*
X133884494Y-71902159D01*
X133844300Y-71832542D01*
X133787458Y-71775700D01*
X133787457Y-71775699D01*
X133765683Y-71763128D01*
X133742480Y-71732889D01*
X133747455Y-71695100D01*
X133759730Y-71680909D01*
X133761126Y-71679807D01*
X133994700Y-71679807D01*
X133994700Y-71760193D01*
X134015506Y-71837841D01*
X134026481Y-71856850D01*
X134052641Y-71902161D01*
X134055700Y-71907458D01*
X134112542Y-71964300D01*
X134182159Y-72004494D01*
X134259807Y-72025300D01*
X134259808Y-72025300D01*
X134340192Y-72025300D01*
X134340193Y-72025300D01*
X134417841Y-72004494D01*
X134487458Y-71964300D01*
X134544300Y-71907458D01*
X134584494Y-71837841D01*
X134605300Y-71760193D01*
X134605300Y-71679807D01*
X134584494Y-71602159D01*
X134544300Y-71532542D01*
X134487458Y-71475700D01*
X134487457Y-71475699D01*
X134417844Y-71435508D01*
X134417841Y-71435506D01*
X134417838Y-71435505D01*
X134385022Y-71426712D01*
X134340193Y-71414700D01*
X134259807Y-71414700D01*
X134251929Y-71416811D01*
X134182161Y-71435505D01*
X134182155Y-71435508D01*
X134112542Y-71475699D01*
X134055699Y-71532542D01*
X134015508Y-71602155D01*
X134015505Y-71602161D01*
X134002529Y-71650588D01*
X133994700Y-71679807D01*
X133761126Y-71679807D01*
X133762561Y-71678674D01*
X133787458Y-71664300D01*
X133844300Y-71607458D01*
X133884494Y-71537841D01*
X133905300Y-71460193D01*
X133905300Y-71379807D01*
X133884494Y-71302159D01*
X133844300Y-71232542D01*
X133787458Y-71175700D01*
X133787457Y-71175699D01*
X133717844Y-71135508D01*
X133717841Y-71135506D01*
X133717838Y-71135505D01*
X133674811Y-71123976D01*
X133640193Y-71114700D01*
X133559807Y-71114700D01*
X133531386Y-71122315D01*
X133482161Y-71135505D01*
X133482155Y-71135508D01*
X133412542Y-71175699D01*
X133355699Y-71232542D01*
X133315508Y-71302155D01*
X133315505Y-71302161D01*
X133297855Y-71368034D01*
X133294700Y-71379807D01*
X131606627Y-71379807D01*
X132127694Y-70858739D01*
X132162907Y-70844154D01*
X132198121Y-70858740D01*
X132211009Y-70881062D01*
X132215503Y-70897834D01*
X132215508Y-70897844D01*
X132253037Y-70962847D01*
X132255700Y-70967458D01*
X132312542Y-71024300D01*
X132382159Y-71064494D01*
X132459807Y-71085300D01*
X132459808Y-71085300D01*
X132540192Y-71085300D01*
X132540193Y-71085300D01*
X132617841Y-71064494D01*
X132687458Y-71024300D01*
X132744300Y-70967458D01*
X132768809Y-70925007D01*
X135056627Y-70925007D01*
X135056627Y-71005393D01*
X135061489Y-71023538D01*
X135077432Y-71083038D01*
X135077435Y-71083044D01*
X135117226Y-71151965D01*
X135117627Y-71152658D01*
X135174469Y-71209500D01*
X135244086Y-71249694D01*
X135321734Y-71270500D01*
X135321735Y-71270500D01*
X135402119Y-71270500D01*
X135402120Y-71270500D01*
X135479768Y-71249694D01*
X135549385Y-71209500D01*
X135579078Y-71179807D01*
X136394700Y-71179807D01*
X136394700Y-71260192D01*
X136415505Y-71337838D01*
X136415508Y-71337844D01*
X136454059Y-71404617D01*
X136455700Y-71407458D01*
X136512542Y-71464300D01*
X136582159Y-71504494D01*
X136659807Y-71525300D01*
X136659808Y-71525300D01*
X136740192Y-71525300D01*
X136740193Y-71525300D01*
X136817841Y-71504494D01*
X136887458Y-71464300D01*
X136934947Y-71416810D01*
X136970159Y-71402225D01*
X137005374Y-71416811D01*
X137013286Y-71427121D01*
X137016023Y-71431861D01*
X137016024Y-71431862D01*
X137068138Y-71483976D01*
X137131963Y-71520825D01*
X137203150Y-71539900D01*
X137276850Y-71539900D01*
X137348037Y-71520825D01*
X137411862Y-71483976D01*
X137463976Y-71431862D01*
X137500825Y-71368037D01*
X137519900Y-71296850D01*
X137519900Y-71223150D01*
X137516242Y-71209500D01*
X137504221Y-71164638D01*
X137500825Y-71151963D01*
X137463976Y-71088138D01*
X137411862Y-71036024D01*
X137411861Y-71036023D01*
X137348041Y-70999177D01*
X137348038Y-70999176D01*
X137348037Y-70999175D01*
X137348035Y-70999174D01*
X137348034Y-70999174D01*
X137276850Y-70980100D01*
X137203150Y-70980100D01*
X137131965Y-70999174D01*
X137131958Y-70999177D01*
X137068136Y-71036024D01*
X137036793Y-71067367D01*
X137001579Y-71081953D01*
X136966366Y-71067366D01*
X136958452Y-71057053D01*
X136944300Y-71032542D01*
X136887457Y-70975699D01*
X136844852Y-70951101D01*
X136817841Y-70935506D01*
X136817838Y-70935505D01*
X136778659Y-70925007D01*
X136740193Y-70914700D01*
X136659807Y-70914700D01*
X136631386Y-70922315D01*
X136582161Y-70935505D01*
X136582155Y-70935508D01*
X136512542Y-70975699D01*
X136455699Y-71032542D01*
X136415508Y-71102155D01*
X136415505Y-71102161D01*
X136394700Y-71179807D01*
X135579078Y-71179807D01*
X135606227Y-71152658D01*
X135646421Y-71083041D01*
X135667227Y-71005393D01*
X135667227Y-70925007D01*
X135650652Y-70863149D01*
X138520100Y-70863149D01*
X138520100Y-70936850D01*
X138539174Y-71008034D01*
X138539177Y-71008041D01*
X138575462Y-71070890D01*
X138576024Y-71071862D01*
X138628138Y-71123976D01*
X138691963Y-71160825D01*
X138763150Y-71179900D01*
X138836850Y-71179900D01*
X138908037Y-71160825D01*
X138971862Y-71123976D01*
X139023976Y-71071862D01*
X139060825Y-71008037D01*
X139079900Y-70936850D01*
X139079900Y-70863150D01*
X139078718Y-70858740D01*
X139066184Y-70811963D01*
X139060825Y-70791963D01*
X139023976Y-70728138D01*
X138971862Y-70676024D01*
X138971861Y-70676023D01*
X138908041Y-70639177D01*
X138908038Y-70639176D01*
X138908037Y-70639175D01*
X138908035Y-70639174D01*
X138908034Y-70639174D01*
X138836850Y-70620100D01*
X138763150Y-70620100D01*
X138691965Y-70639174D01*
X138691958Y-70639177D01*
X138628138Y-70676023D01*
X138576023Y-70728138D01*
X138539177Y-70791958D01*
X138539174Y-70791965D01*
X138520100Y-70863149D01*
X135650652Y-70863149D01*
X135646421Y-70847359D01*
X135606227Y-70777742D01*
X135549385Y-70720900D01*
X135549384Y-70720899D01*
X135491890Y-70687705D01*
X135479768Y-70680706D01*
X135479765Y-70680705D01*
X135435596Y-70668870D01*
X135402120Y-70659900D01*
X135321734Y-70659900D01*
X135293313Y-70667515D01*
X135244088Y-70680705D01*
X135244082Y-70680708D01*
X135174469Y-70720899D01*
X135117626Y-70777742D01*
X135077435Y-70847355D01*
X135077432Y-70847361D01*
X135063908Y-70897834D01*
X135056627Y-70925007D01*
X132768809Y-70925007D01*
X132784494Y-70897841D01*
X132805300Y-70820193D01*
X132805300Y-70739807D01*
X132784494Y-70662159D01*
X132744300Y-70592542D01*
X132687458Y-70535700D01*
X132687457Y-70535699D01*
X132617844Y-70495508D01*
X132617841Y-70495506D01*
X132617838Y-70495505D01*
X132582309Y-70485985D01*
X132540193Y-70474700D01*
X132459807Y-70474700D01*
X132431386Y-70482315D01*
X132382161Y-70495505D01*
X132382155Y-70495508D01*
X132312542Y-70535699D01*
X132255699Y-70592542D01*
X132245828Y-70609640D01*
X132215589Y-70632843D01*
X132177800Y-70627868D01*
X132154597Y-70597629D01*
X132152900Y-70584740D01*
X132152900Y-68745563D01*
X132606400Y-68745563D01*
X132606400Y-68854436D01*
X132612568Y-68922314D01*
X132630604Y-68980192D01*
X132661233Y-69078484D01*
X132689534Y-69125300D01*
X132745857Y-69218471D01*
X132861528Y-69334142D01*
X132891152Y-69352050D01*
X133001516Y-69418767D01*
X133143943Y-69463149D01*
X133148337Y-69464518D01*
X133176650Y-69487163D01*
X133184173Y-69500193D01*
X133196625Y-69521760D01*
X133248739Y-69573874D01*
X133312564Y-69610723D01*
X133383751Y-69629798D01*
X133405747Y-69629798D01*
X133440961Y-69644384D01*
X133453435Y-69674500D01*
X133455547Y-69679598D01*
X133440961Y-69714812D01*
X133394260Y-69761514D01*
X133359047Y-69776100D01*
X133251233Y-69776100D01*
X133216019Y-69761514D01*
X133190004Y-69735499D01*
X133120391Y-69695308D01*
X133120388Y-69695306D01*
X133120385Y-69695305D01*
X133087569Y-69686512D01*
X133042740Y-69674500D01*
X132962354Y-69674500D01*
X132933933Y-69682115D01*
X132884708Y-69695305D01*
X132884702Y-69695308D01*
X132815089Y-69735499D01*
X132758246Y-69792342D01*
X132718055Y-69861955D01*
X132718053Y-69861959D01*
X132697247Y-69939607D01*
X132697247Y-70019993D01*
X132718053Y-70097641D01*
X132758247Y-70167258D01*
X132815089Y-70224100D01*
X132884706Y-70264294D01*
X132962354Y-70285100D01*
X132962355Y-70285100D01*
X133042739Y-70285100D01*
X133042740Y-70285100D01*
X133120388Y-70264294D01*
X133190005Y-70224100D01*
X133216019Y-70198086D01*
X133251233Y-70183500D01*
X133504566Y-70183500D01*
X133504568Y-70183500D01*
X133538855Y-70169298D01*
X133576968Y-70169298D01*
X133603920Y-70196249D01*
X133606014Y-70202417D01*
X133615505Y-70237838D01*
X133615508Y-70237844D01*
X133643244Y-70285885D01*
X133655700Y-70307458D01*
X133712542Y-70364300D01*
X133782159Y-70404494D01*
X133859807Y-70425300D01*
X133859808Y-70425300D01*
X133940192Y-70425300D01*
X133940193Y-70425300D01*
X134017841Y-70404494D01*
X134087458Y-70364300D01*
X134144300Y-70307458D01*
X134184494Y-70237841D01*
X134205300Y-70160193D01*
X134205300Y-70079807D01*
X134184494Y-70002159D01*
X134144300Y-69932542D01*
X134087458Y-69875700D01*
X134087457Y-69875699D01*
X134017844Y-69835508D01*
X134017841Y-69835506D01*
X134017838Y-69835505D01*
X134011808Y-69833889D01*
X134005393Y-69832170D01*
X133995081Y-69824257D01*
X133983070Y-69819282D01*
X133980494Y-69813063D01*
X133975156Y-69808967D01*
X133973459Y-69796079D01*
X133968484Y-69784068D01*
X133971059Y-69777850D01*
X133970181Y-69771178D01*
X133983068Y-69748856D01*
X134053639Y-69678286D01*
X134088853Y-69663700D01*
X134311314Y-69663700D01*
X134346528Y-69678286D01*
X134372542Y-69704300D01*
X134442159Y-69744494D01*
X134519807Y-69765300D01*
X134519808Y-69765300D01*
X134600192Y-69765300D01*
X134600193Y-69765300D01*
X134677841Y-69744494D01*
X134747458Y-69704300D01*
X134804300Y-69647458D01*
X134844494Y-69577841D01*
X134865300Y-69500193D01*
X134865300Y-69419807D01*
X134844494Y-69342159D01*
X134804300Y-69272542D01*
X134766972Y-69235214D01*
X134752386Y-69200000D01*
X134766972Y-69164786D01*
X134781333Y-69150425D01*
X134804300Y-69127458D01*
X134844494Y-69057841D01*
X134865300Y-68980193D01*
X134865300Y-68899807D01*
X134844494Y-68822159D01*
X134820042Y-68779807D01*
X135669700Y-68779807D01*
X135669700Y-68860192D01*
X135690505Y-68937838D01*
X135690508Y-68937844D01*
X135718229Y-68985859D01*
X135730700Y-69007458D01*
X135787542Y-69064300D01*
X135857159Y-69104494D01*
X135934807Y-69125300D01*
X135934808Y-69125300D01*
X136015192Y-69125300D01*
X136015193Y-69125300D01*
X136092841Y-69104494D01*
X136162458Y-69064300D01*
X136219300Y-69007458D01*
X136259494Y-68937841D01*
X136280300Y-68860193D01*
X136280300Y-68779807D01*
X136259494Y-68702159D01*
X136219300Y-68632542D01*
X136162458Y-68575700D01*
X136162457Y-68575699D01*
X136092844Y-68535508D01*
X136092841Y-68535506D01*
X136092838Y-68535505D01*
X136060022Y-68526712D01*
X136015193Y-68514700D01*
X135934807Y-68514700D01*
X135909370Y-68521516D01*
X135857161Y-68535505D01*
X135857155Y-68535508D01*
X135787542Y-68575699D01*
X135730699Y-68632542D01*
X135690508Y-68702155D01*
X135690505Y-68702161D01*
X135669700Y-68779807D01*
X134820042Y-68779807D01*
X134804300Y-68752542D01*
X134747458Y-68695700D01*
X134747457Y-68695699D01*
X134704852Y-68671101D01*
X134677841Y-68655506D01*
X134677838Y-68655505D01*
X134645022Y-68646712D01*
X134600193Y-68634700D01*
X134519807Y-68634700D01*
X134491386Y-68642315D01*
X134442161Y-68655505D01*
X134442155Y-68655508D01*
X134372542Y-68695699D01*
X134315699Y-68752542D01*
X134275508Y-68822155D01*
X134275505Y-68822161D01*
X134254700Y-68899807D01*
X134254700Y-68980193D01*
X134262006Y-69007458D01*
X134275505Y-69057838D01*
X134275508Y-69057844D01*
X134315699Y-69127457D01*
X134353028Y-69164786D01*
X134367614Y-69200000D01*
X134353028Y-69235214D01*
X134346528Y-69241714D01*
X134311314Y-69256300D01*
X134024367Y-69256300D01*
X133943330Y-69256300D01*
X133904118Y-69272542D01*
X133880642Y-69282266D01*
X133880639Y-69282267D01*
X133842524Y-69282266D01*
X133815572Y-69255314D01*
X133815573Y-69217199D01*
X133818964Y-69210494D01*
X133828247Y-69195138D01*
X133898767Y-69078484D01*
X133947432Y-68922312D01*
X133953600Y-68854438D01*
X133953600Y-68745562D01*
X133947432Y-68677688D01*
X133898767Y-68521516D01*
X133814141Y-68381527D01*
X133698473Y-68265859D01*
X133698471Y-68265857D01*
X133629461Y-68224140D01*
X133558484Y-68181233D01*
X133556109Y-68180493D01*
X133402314Y-68132568D01*
X133368375Y-68129484D01*
X133334438Y-68126400D01*
X133225562Y-68126400D01*
X133198412Y-68128867D01*
X133157685Y-68132568D01*
X133003887Y-68180493D01*
X133003882Y-68180495D01*
X133001516Y-68181233D01*
X132978366Y-68195227D01*
X132978322Y-68195253D01*
X132861528Y-68265857D01*
X132745857Y-68381528D01*
X132672257Y-68503280D01*
X132665354Y-68514700D01*
X132661232Y-68521518D01*
X132612568Y-68677685D01*
X132606400Y-68745563D01*
X132152900Y-68745563D01*
X132152900Y-67823150D01*
X132520100Y-67823150D01*
X132520100Y-67896850D01*
X132539175Y-67968037D01*
X132576024Y-68031862D01*
X132628138Y-68083976D01*
X132691963Y-68120825D01*
X132763150Y-68139900D01*
X132836850Y-68139900D01*
X132908037Y-68120825D01*
X132971862Y-68083976D01*
X133023976Y-68031862D01*
X133060825Y-67968037D01*
X133079900Y-67896850D01*
X133079900Y-67823150D01*
X133060825Y-67751963D01*
X133023976Y-67688138D01*
X132971862Y-67636024D01*
X132971861Y-67636023D01*
X132908041Y-67599177D01*
X132908038Y-67599176D01*
X132908037Y-67599175D01*
X132908035Y-67599174D01*
X132908034Y-67599174D01*
X132836850Y-67580100D01*
X132763150Y-67580100D01*
X132691965Y-67599174D01*
X132691958Y-67599177D01*
X132628138Y-67636023D01*
X132576023Y-67688138D01*
X132539177Y-67751958D01*
X132539175Y-67751963D01*
X132520100Y-67823150D01*
X132152900Y-67823150D01*
X132152900Y-66683962D01*
X132167486Y-66648748D01*
X132408748Y-66407486D01*
X132443962Y-66392900D01*
X132585457Y-66392900D01*
X132620671Y-66407486D01*
X132633001Y-66427883D01*
X132645242Y-66467168D01*
X132661230Y-66518476D01*
X132661231Y-66518478D01*
X132661233Y-66518484D01*
X132672874Y-66537740D01*
X132745857Y-66658471D01*
X132861528Y-66774142D01*
X132896032Y-66795000D01*
X133001516Y-66858767D01*
X133157688Y-66907432D01*
X133225562Y-66913600D01*
X133225564Y-66913600D01*
X133287705Y-66913600D01*
X133322919Y-66928186D01*
X133337505Y-66963400D01*
X133322919Y-66998614D01*
X133300595Y-67011503D01*
X133271965Y-67019174D01*
X133271958Y-67019177D01*
X133208138Y-67056023D01*
X133156023Y-67108138D01*
X133119177Y-67171958D01*
X133119174Y-67171965D01*
X133100100Y-67243149D01*
X133100100Y-67316850D01*
X133119174Y-67388034D01*
X133119177Y-67388041D01*
X133152034Y-67444952D01*
X133156024Y-67451862D01*
X133208138Y-67503976D01*
X133271963Y-67540825D01*
X133343150Y-67559900D01*
X133416850Y-67559900D01*
X133488037Y-67540825D01*
X133551862Y-67503976D01*
X133603976Y-67451862D01*
X133640825Y-67388037D01*
X133659900Y-67316850D01*
X133659900Y-67243150D01*
X133640825Y-67171963D01*
X133603976Y-67108138D01*
X133551862Y-67056024D01*
X133551861Y-67056023D01*
X133488041Y-67019177D01*
X133488038Y-67019176D01*
X133488037Y-67019175D01*
X133488035Y-67019174D01*
X133488034Y-67019174D01*
X133415210Y-66999660D01*
X133384971Y-66976456D01*
X133379997Y-66938667D01*
X133403201Y-66908428D01*
X133413279Y-66904014D01*
X133558484Y-66858767D01*
X133698473Y-66774141D01*
X133814141Y-66658473D01*
X133898767Y-66518484D01*
X133947432Y-66362312D01*
X133953600Y-66294438D01*
X133953600Y-66185562D01*
X133947432Y-66117688D01*
X133898767Y-65961516D01*
X133814141Y-65821527D01*
X133698473Y-65705859D01*
X133698471Y-65705857D01*
X133604717Y-65649182D01*
X133558484Y-65621233D01*
X133552910Y-65619496D01*
X133402314Y-65572568D01*
X133365855Y-65569255D01*
X133334438Y-65566400D01*
X133225562Y-65566400D01*
X133198412Y-65568867D01*
X133157685Y-65572568D01*
X133001518Y-65621232D01*
X132861528Y-65705857D01*
X132745857Y-65821528D01*
X132690737Y-65912710D01*
X132661233Y-65961516D01*
X132661232Y-65961518D01*
X132661230Y-65961523D01*
X132633002Y-66052115D01*
X132608601Y-66081395D01*
X132585457Y-66087100D01*
X132329583Y-66087100D01*
X132314255Y-66093450D01*
X132273389Y-66110376D01*
X131870376Y-66513390D01*
X131860291Y-66537740D01*
X131847100Y-66569587D01*
X131847100Y-70686238D01*
X131832514Y-70721452D01*
X130640576Y-71913389D01*
X130627908Y-71943974D01*
X130627908Y-71943976D01*
X130621424Y-71959629D01*
X130594472Y-71986581D01*
X130556357Y-71986580D01*
X130550515Y-71983699D01*
X130543774Y-71979807D01*
X130508038Y-71959175D01*
X130508035Y-71959174D01*
X130436851Y-71940100D01*
X130363151Y-71940100D01*
X130291966Y-71959174D01*
X130291959Y-71959177D01*
X130228139Y-71996023D01*
X130176024Y-72048138D01*
X130139178Y-72111958D01*
X130139175Y-72111965D01*
X130120101Y-72183149D01*
X130120101Y-72183150D01*
X130120101Y-72256850D01*
X130139175Y-72328034D01*
X130140021Y-72331189D01*
X130138759Y-72331526D01*
X130138758Y-72365149D01*
X130111805Y-72392098D01*
X130073689Y-72392096D01*
X130057536Y-72381302D01*
X129827486Y-72151252D01*
X129812900Y-72116038D01*
X129812900Y-71070892D01*
X129812900Y-71070891D01*
X129789622Y-71014694D01*
X129746611Y-70971683D01*
X129656124Y-70881196D01*
X129641538Y-70845982D01*
X129641879Y-70840788D01*
X129641879Y-70766433D01*
X129629678Y-70720900D01*
X129622804Y-70695247D01*
X129585955Y-70631422D01*
X129533841Y-70579308D01*
X129533840Y-70579307D01*
X129470020Y-70542461D01*
X129470017Y-70542460D01*
X129470016Y-70542459D01*
X129470014Y-70542458D01*
X129470013Y-70542458D01*
X129398829Y-70523384D01*
X129325129Y-70523384D01*
X129253944Y-70542458D01*
X129253937Y-70542461D01*
X129190117Y-70579307D01*
X129138002Y-70631422D01*
X129101156Y-70695242D01*
X129101151Y-70695254D01*
X129095990Y-70714514D01*
X129072786Y-70744751D01*
X129034996Y-70749724D01*
X129012674Y-70736836D01*
X128971861Y-70696023D01*
X128924829Y-70668870D01*
X128901626Y-70638632D01*
X128906601Y-70600842D01*
X128926013Y-70583849D01*
X128925210Y-70582457D01*
X128928037Y-70580825D01*
X128991862Y-70543976D01*
X129043976Y-70491862D01*
X129080825Y-70428037D01*
X129099900Y-70356850D01*
X129099900Y-70283150D01*
X129080825Y-70211963D01*
X129043976Y-70148138D01*
X128991862Y-70096024D01*
X128991861Y-70096023D01*
X128928041Y-70059177D01*
X128928038Y-70059176D01*
X128928037Y-70059175D01*
X128928035Y-70059174D01*
X128928034Y-70059174D01*
X128856850Y-70040100D01*
X128783150Y-70040100D01*
X128711965Y-70059174D01*
X128711958Y-70059177D01*
X128648138Y-70096023D01*
X128596023Y-70148138D01*
X128559177Y-70211958D01*
X128559174Y-70211965D01*
X128540100Y-70283149D01*
X128540100Y-70356850D01*
X128559174Y-70428034D01*
X128559177Y-70428041D01*
X128596023Y-70491861D01*
X128648139Y-70543977D01*
X128695169Y-70571129D01*
X128703093Y-70581455D01*
X128713416Y-70589389D01*
X128714287Y-70596042D01*
X128718373Y-70601367D01*
X128716673Y-70614272D01*
X128718364Y-70627182D01*
X128714375Y-70631732D01*
X128713398Y-70639156D01*
X128695138Y-70657403D01*
X128692150Y-70659124D01*
X128691963Y-70659175D01*
X128632537Y-70693484D01*
X128631578Y-70694037D01*
X128630644Y-70694576D01*
X128630642Y-70694576D01*
X128630613Y-70694593D01*
X128612206Y-70697002D01*
X128592855Y-70699550D01*
X128592839Y-70699538D01*
X128592820Y-70699541D01*
X128577420Y-70687705D01*
X128562617Y-70676346D01*
X128532592Y-70624340D01*
X128480476Y-70572224D01*
X128416656Y-70535378D01*
X128416653Y-70535377D01*
X128416652Y-70535376D01*
X128416650Y-70535375D01*
X128416649Y-70535375D01*
X128345465Y-70516301D01*
X128271765Y-70516301D01*
X128268501Y-70516301D01*
X128268501Y-70515168D01*
X128235595Y-70506346D01*
X128230705Y-70502057D01*
X128214634Y-70485986D01*
X128214633Y-70485985D01*
X128174897Y-70469526D01*
X128174896Y-70469526D01*
X128158437Y-70462709D01*
X128158436Y-70462709D01*
X127268353Y-70462709D01*
X127233139Y-70448123D01*
X126980086Y-70195070D01*
X126965500Y-70159856D01*
X126965500Y-67179307D01*
X129593700Y-67179307D01*
X129593700Y-67259693D01*
X129614506Y-67337341D01*
X129618200Y-67343739D01*
X129654698Y-67406956D01*
X129654700Y-67406958D01*
X129711542Y-67463800D01*
X129781159Y-67503994D01*
X129858807Y-67524800D01*
X129858808Y-67524800D01*
X129939192Y-67524800D01*
X129939193Y-67524800D01*
X130016841Y-67503994D01*
X130086458Y-67463800D01*
X130143300Y-67406958D01*
X130144651Y-67404616D01*
X130152544Y-67390949D01*
X130182783Y-67367747D01*
X130195671Y-67366050D01*
X130609649Y-67366050D01*
X130609650Y-67366050D01*
X130609651Y-67366050D01*
X130663514Y-67343739D01*
X130704739Y-67302514D01*
X130864239Y-67143014D01*
X130886550Y-67089151D01*
X130886550Y-67030850D01*
X130886550Y-66936522D01*
X130901136Y-66901308D01*
X130921533Y-66888977D01*
X131018484Y-66858767D01*
X131158473Y-66774141D01*
X131274141Y-66658473D01*
X131358767Y-66518484D01*
X131407432Y-66362312D01*
X131413600Y-66294438D01*
X131413600Y-66185562D01*
X131407432Y-66117688D01*
X131358767Y-65961516D01*
X131274141Y-65821527D01*
X131158473Y-65705859D01*
X131158471Y-65705857D01*
X131064717Y-65649182D01*
X131018484Y-65621233D01*
X131012910Y-65619496D01*
X130862314Y-65572568D01*
X130825855Y-65569255D01*
X130794438Y-65566400D01*
X130685562Y-65566400D01*
X130658412Y-65568867D01*
X130617685Y-65572568D01*
X130461518Y-65621232D01*
X130321528Y-65705857D01*
X130205857Y-65821528D01*
X130121232Y-65961518D01*
X130072568Y-66117685D01*
X130066400Y-66185563D01*
X130066400Y-66294436D01*
X130072568Y-66362314D01*
X130121232Y-66518481D01*
X130121233Y-66518484D01*
X130132874Y-66537740D01*
X130205857Y-66658471D01*
X130321528Y-66774142D01*
X130360108Y-66797464D01*
X130461516Y-66858767D01*
X130558465Y-66888977D01*
X130567725Y-66896694D01*
X130578864Y-66901308D01*
X130581817Y-66908438D01*
X130587745Y-66913378D01*
X130593450Y-66936522D01*
X130593450Y-66978669D01*
X130578864Y-67013883D01*
X130534383Y-67058364D01*
X130499169Y-67072950D01*
X130195671Y-67072950D01*
X130160457Y-67058364D01*
X130152544Y-67048051D01*
X130143301Y-67032043D01*
X130086457Y-66975199D01*
X130023182Y-66938667D01*
X130016841Y-66935006D01*
X130016838Y-66935005D01*
X129976364Y-66924160D01*
X129939193Y-66914200D01*
X129858807Y-66914200D01*
X129830386Y-66921815D01*
X129781161Y-66935005D01*
X129781155Y-66935008D01*
X129711542Y-66975199D01*
X129654699Y-67032042D01*
X129614508Y-67101655D01*
X129614505Y-67101661D01*
X129603568Y-67142479D01*
X129593700Y-67179307D01*
X126965500Y-67179307D01*
X126965500Y-65868439D01*
X126980086Y-65833225D01*
X127015300Y-65818639D01*
X127050514Y-65833225D01*
X127061309Y-65849382D01*
X127087538Y-65912707D01*
X127087540Y-65912709D01*
X127164406Y-66027750D01*
X127262249Y-66125593D01*
X127377290Y-66202459D01*
X127377289Y-66202459D01*
X127505116Y-66255407D01*
X127505126Y-66255410D01*
X127608799Y-66276031D01*
X127608800Y-66276031D01*
X127608800Y-65863466D01*
X127670504Y-65880000D01*
X127749496Y-65880000D01*
X127811200Y-65863466D01*
X127811200Y-66276031D01*
X127914873Y-66255410D01*
X127914883Y-66255407D01*
X128042710Y-66202459D01*
X128157750Y-66125593D01*
X128157753Y-66125591D01*
X128255591Y-66027753D01*
X128255593Y-66027750D01*
X128332459Y-65912710D01*
X128385407Y-65784883D01*
X128385410Y-65784873D01*
X128412399Y-65649182D01*
X128412400Y-65649176D01*
X128412400Y-65131200D01*
X128010000Y-65131200D01*
X128010000Y-64928800D01*
X128412400Y-64928800D01*
X128412400Y-64467030D01*
X128661700Y-64467030D01*
X128661700Y-64592969D01*
X128694294Y-64714612D01*
X128694295Y-64714614D01*
X128694296Y-64714617D01*
X128712048Y-64745365D01*
X128748450Y-64808416D01*
X128757265Y-64823683D01*
X128846317Y-64912735D01*
X128955383Y-64975704D01*
X129077031Y-65008300D01*
X129202969Y-65008300D01*
X129324617Y-64975704D01*
X129433683Y-64912735D01*
X129522735Y-64823683D01*
X129585704Y-64714617D01*
X129618300Y-64592969D01*
X129618300Y-64467031D01*
X129585704Y-64345383D01*
X129522735Y-64236317D01*
X129433683Y-64147265D01*
X129433682Y-64147264D01*
X129324620Y-64084298D01*
X129324617Y-64084296D01*
X129324614Y-64084295D01*
X129324612Y-64084294D01*
X129202969Y-64051700D01*
X129077031Y-64051700D01*
X129077030Y-64051700D01*
X128955387Y-64084294D01*
X128955379Y-64084298D01*
X128846317Y-64147264D01*
X128757264Y-64236317D01*
X128694298Y-64345379D01*
X128694294Y-64345387D01*
X128661700Y-64467030D01*
X128412400Y-64467030D01*
X128412400Y-64410824D01*
X128412399Y-64410817D01*
X128385410Y-64275126D01*
X128385407Y-64275116D01*
X128332459Y-64147289D01*
X128255593Y-64032249D01*
X128157750Y-63934406D01*
X128042709Y-63857540D01*
X128042710Y-63857540D01*
X127914880Y-63804591D01*
X127811200Y-63783968D01*
X127811200Y-64196533D01*
X127749496Y-64180000D01*
X127670504Y-64180000D01*
X127608800Y-64196533D01*
X127608800Y-63765660D01*
X127623385Y-63730447D01*
X127735682Y-63618150D01*
X129668000Y-63618150D01*
X129668000Y-63781848D01*
X129670740Y-63827851D01*
X129714257Y-64027892D01*
X129714257Y-64027893D01*
X129794848Y-64216091D01*
X129889044Y-64355265D01*
X129909600Y-64385636D01*
X130054364Y-64530400D01*
X130223908Y-64645151D01*
X130412106Y-64725742D01*
X130612154Y-64769260D01*
X130648620Y-64771432D01*
X130682905Y-64788086D01*
X130687066Y-64793476D01*
X130697048Y-64808415D01*
X130801587Y-64912954D01*
X130875137Y-64962097D01*
X130924505Y-64995084D01*
X130924506Y-64995084D01*
X130924508Y-64995086D01*
X130985847Y-65020492D01*
X131061087Y-65051658D01*
X131206082Y-65080500D01*
X131206087Y-65080500D01*
X131353913Y-65080500D01*
X131353918Y-65080500D01*
X131498913Y-65051658D01*
X131607699Y-65006597D01*
X131635491Y-64995086D01*
X131635491Y-64995085D01*
X131635495Y-64995084D01*
X131715321Y-64941746D01*
X131747333Y-64920357D01*
X131784716Y-64912921D01*
X131802667Y-64920357D01*
X131834679Y-64941746D01*
X131914505Y-64995084D01*
X131914506Y-64995084D01*
X131914508Y-64995086D01*
X131975847Y-65020492D01*
X132051087Y-65051658D01*
X132196082Y-65080500D01*
X132196087Y-65080500D01*
X132343913Y-65080500D01*
X132343918Y-65080500D01*
X132488913Y-65051658D01*
X132597699Y-65006597D01*
X132625491Y-64995086D01*
X132625491Y-64995085D01*
X132625495Y-64995084D01*
X132748416Y-64912951D01*
X132852951Y-64808416D01*
X132895080Y-64745363D01*
X132926769Y-64724188D01*
X132949733Y-64725490D01*
X132949788Y-64725238D01*
X132951378Y-64725583D01*
X132951662Y-64725600D01*
X132952103Y-64725740D01*
X132952106Y-64725742D01*
X133035349Y-64743850D01*
X133152148Y-64769259D01*
X133152149Y-64769259D01*
X133152154Y-64769260D01*
X133198149Y-64772000D01*
X133361850Y-64771999D01*
X133407846Y-64769260D01*
X133607894Y-64725742D01*
X133796092Y-64645151D01*
X133965636Y-64530400D01*
X134029006Y-64467030D01*
X134441700Y-64467030D01*
X134441700Y-64592969D01*
X134474294Y-64714612D01*
X134474295Y-64714614D01*
X134474296Y-64714617D01*
X134492048Y-64745365D01*
X134528450Y-64808416D01*
X134537265Y-64823683D01*
X134626317Y-64912735D01*
X134735383Y-64975704D01*
X134857031Y-65008300D01*
X134982969Y-65008300D01*
X135104617Y-64975704D01*
X135213683Y-64912735D01*
X135302735Y-64823683D01*
X135365704Y-64714617D01*
X135398300Y-64592969D01*
X135398300Y-64467031D01*
X135383237Y-64410817D01*
X135647600Y-64410817D01*
X135647600Y-64928800D01*
X136050000Y-64928800D01*
X136050000Y-65131200D01*
X135647600Y-65131200D01*
X135647600Y-65649182D01*
X135674589Y-65784873D01*
X135674592Y-65784883D01*
X135727540Y-65912710D01*
X135804406Y-66027750D01*
X135902249Y-66125593D01*
X136017290Y-66202459D01*
X136017289Y-66202459D01*
X136145116Y-66255407D01*
X136145126Y-66255410D01*
X136248799Y-66276031D01*
X136248800Y-66276031D01*
X136248800Y-65863466D01*
X136310504Y-65880000D01*
X136389496Y-65880000D01*
X136451200Y-65863466D01*
X136451200Y-66276031D01*
X136554873Y-66255410D01*
X136554883Y-66255407D01*
X136682710Y-66202459D01*
X136797750Y-66125593D01*
X136797753Y-66125591D01*
X136895591Y-66027753D01*
X136895593Y-66027750D01*
X136972459Y-65912710D01*
X137025407Y-65784883D01*
X137025410Y-65784873D01*
X137052399Y-65649182D01*
X137052400Y-65649176D01*
X137052400Y-65131200D01*
X136650000Y-65131200D01*
X136650000Y-64928800D01*
X137052400Y-64928800D01*
X137052400Y-64410824D01*
X137052399Y-64410817D01*
X137025410Y-64275126D01*
X137025407Y-64275116D01*
X136972459Y-64147289D01*
X136895593Y-64032249D01*
X136797750Y-63934406D01*
X136682709Y-63857540D01*
X136682710Y-63857540D01*
X136554880Y-63804591D01*
X136451200Y-63783968D01*
X136451200Y-64196533D01*
X136389496Y-64180000D01*
X136310504Y-64180000D01*
X136248800Y-64196533D01*
X136248800Y-63783968D01*
X136145119Y-63804591D01*
X136017289Y-63857540D01*
X135902249Y-63934406D01*
X135902247Y-63934409D01*
X135804409Y-64032247D01*
X135804406Y-64032249D01*
X135727540Y-64147289D01*
X135674592Y-64275116D01*
X135674589Y-64275126D01*
X135647600Y-64410817D01*
X135383237Y-64410817D01*
X135365704Y-64345383D01*
X135302735Y-64236317D01*
X135213683Y-64147265D01*
X135213682Y-64147264D01*
X135104620Y-64084298D01*
X135104617Y-64084296D01*
X135104614Y-64084295D01*
X135104612Y-64084294D01*
X134982969Y-64051700D01*
X134857031Y-64051700D01*
X134857030Y-64051700D01*
X134735387Y-64084294D01*
X134735379Y-64084298D01*
X134626317Y-64147264D01*
X134537264Y-64236317D01*
X134474298Y-64345379D01*
X134474294Y-64345387D01*
X134441700Y-64467030D01*
X134029006Y-64467030D01*
X134110400Y-64385636D01*
X134225151Y-64216092D01*
X134305742Y-64027894D01*
X134342086Y-63860825D01*
X134349259Y-63827852D01*
X134349259Y-63827849D01*
X134349260Y-63827846D01*
X134352000Y-63781851D01*
X134351999Y-63618150D01*
X134349260Y-63572154D01*
X134349258Y-63572147D01*
X134305742Y-63372107D01*
X134305742Y-63372106D01*
X134225151Y-63183908D01*
X134110402Y-63014367D01*
X134110400Y-63014364D01*
X133965636Y-62869600D01*
X133943231Y-62854436D01*
X133863430Y-62800425D01*
X133796092Y-62754849D01*
X133796090Y-62754848D01*
X133796091Y-62754848D01*
X133607892Y-62674257D01*
X133407851Y-62630740D01*
X133374992Y-62628782D01*
X133361851Y-62628000D01*
X133361849Y-62628000D01*
X133198151Y-62628000D01*
X133152148Y-62630740D01*
X132952107Y-62674257D01*
X132952106Y-62674257D01*
X132763908Y-62754848D01*
X132594367Y-62869597D01*
X132449597Y-63014367D01*
X132334851Y-63183903D01*
X132294889Y-63277223D01*
X132267619Y-63303852D01*
X132229506Y-63303398D01*
X132221443Y-63299026D01*
X132131728Y-63239081D01*
X132125495Y-63234916D01*
X132125493Y-63234915D01*
X132125491Y-63234913D01*
X132016708Y-63189855D01*
X131988913Y-63178342D01*
X131988908Y-63178341D01*
X131988905Y-63178340D01*
X131843918Y-63149500D01*
X131696082Y-63149500D01*
X131696078Y-63149500D01*
X131693652Y-63149740D01*
X131693493Y-63148131D01*
X131660829Y-63141522D01*
X131647393Y-63128121D01*
X131570400Y-63014364D01*
X131425636Y-62869600D01*
X131403231Y-62854436D01*
X131323430Y-62800425D01*
X131256092Y-62754849D01*
X131256090Y-62754848D01*
X131256091Y-62754848D01*
X131067892Y-62674257D01*
X130867851Y-62630740D01*
X130834992Y-62628782D01*
X130821851Y-62628000D01*
X130821849Y-62628000D01*
X130658151Y-62628000D01*
X130612148Y-62630740D01*
X130412107Y-62674257D01*
X130412106Y-62674257D01*
X130223908Y-62754848D01*
X130054367Y-62869597D01*
X129909597Y-63014367D01*
X129794848Y-63183908D01*
X129714257Y-63372106D01*
X129714257Y-63372107D01*
X129670740Y-63572147D01*
X129670740Y-63572150D01*
X129668000Y-63618150D01*
X127735682Y-63618150D01*
X129186347Y-62167486D01*
X129221561Y-62152900D01*
X132470414Y-62152900D01*
X132480792Y-62148600D01*
X132486872Y-62146083D01*
X132486873Y-62146082D01*
X132526611Y-62129623D01*
X132896615Y-61759617D01*
X132931828Y-61745032D01*
X132957591Y-61752214D01*
X132961674Y-61754682D01*
X133001516Y-61778767D01*
X133157688Y-61827432D01*
X133225562Y-61833600D01*
X133225564Y-61833600D01*
X133334436Y-61833600D01*
X133334438Y-61833600D01*
X133402312Y-61827432D01*
X133558484Y-61778767D01*
X133698473Y-61694141D01*
X133814141Y-61578473D01*
X133898767Y-61438484D01*
X133947432Y-61282312D01*
X133953600Y-61214438D01*
X133953600Y-61105562D01*
X133947432Y-61037688D01*
X133898767Y-60881516D01*
X133830243Y-60768163D01*
X133814142Y-60741528D01*
X133698471Y-60625857D01*
X133629461Y-60584140D01*
X133558484Y-60541233D01*
X133558481Y-60541232D01*
X133402314Y-60492568D01*
X133368375Y-60489484D01*
X133334438Y-60486400D01*
X133225562Y-60486400D01*
X133198412Y-60488867D01*
X133157685Y-60492568D01*
X133001518Y-60541232D01*
X132861528Y-60625857D01*
X132745857Y-60741528D01*
X132661232Y-60881518D01*
X132612568Y-61037685D01*
X132606400Y-61105563D01*
X132606400Y-61214436D01*
X132612568Y-61282314D01*
X132661231Y-61438478D01*
X132661233Y-61438484D01*
X132687785Y-61482407D01*
X132693520Y-61520087D01*
X132680381Y-61543383D01*
X132391252Y-61832514D01*
X132356038Y-61847100D01*
X131084088Y-61847100D01*
X131048874Y-61832514D01*
X131034288Y-61797300D01*
X131048874Y-61762086D01*
X131058322Y-61754683D01*
X131158473Y-61694141D01*
X131274141Y-61578473D01*
X131358767Y-61438484D01*
X131407432Y-61282312D01*
X131413600Y-61214438D01*
X131413600Y-61105562D01*
X131407432Y-61037688D01*
X131358767Y-60881516D01*
X131290243Y-60768163D01*
X131274142Y-60741528D01*
X131158471Y-60625857D01*
X131089461Y-60584140D01*
X131018484Y-60541233D01*
X131018481Y-60541232D01*
X130862314Y-60492568D01*
X130828375Y-60489484D01*
X130794438Y-60486400D01*
X130685562Y-60486400D01*
X130658412Y-60488867D01*
X130617685Y-60492568D01*
X130461518Y-60541232D01*
X130321528Y-60625857D01*
X130205857Y-60741528D01*
X130143247Y-60845100D01*
X130121233Y-60881516D01*
X130121232Y-60881518D01*
X130121230Y-60881523D01*
X130093002Y-60972115D01*
X130068601Y-61001395D01*
X130045457Y-61007100D01*
X129658404Y-61007100D01*
X129658402Y-61007100D01*
X129658400Y-61007101D01*
X129641945Y-61013915D01*
X129641946Y-61013916D01*
X129602206Y-61030377D01*
X126506648Y-64125936D01*
X126471434Y-64140522D01*
X126436220Y-64125936D01*
X125073792Y-62763508D01*
X125059206Y-62728294D01*
X125067598Y-62700628D01*
X125090812Y-62665887D01*
X125151276Y-62519914D01*
X125182100Y-62364950D01*
X125182100Y-62206950D01*
X125156828Y-62079900D01*
X125151278Y-62051995D01*
X125151277Y-62051993D01*
X125151276Y-62051986D01*
X125098847Y-61925410D01*
X125090814Y-61906016D01*
X125090812Y-61906014D01*
X125090812Y-61906013D01*
X125035387Y-61823063D01*
X125003035Y-61774644D01*
X124891305Y-61662914D01*
X124761261Y-61576023D01*
X124759937Y-61575138D01*
X124759935Y-61575137D01*
X124759933Y-61575135D01*
X124643670Y-61526978D01*
X124613964Y-61514674D01*
X124613960Y-61514673D01*
X124613954Y-61514671D01*
X124459002Y-61483850D01*
X124459000Y-61483850D01*
X124301000Y-61483850D01*
X124300997Y-61483850D01*
X124146045Y-61514671D01*
X124146037Y-61514673D01*
X124146036Y-61514674D01*
X124146032Y-61514675D01*
X124146031Y-61514676D01*
X124000066Y-61575135D01*
X124000064Y-61575137D01*
X123868694Y-61662914D01*
X123868692Y-61662917D01*
X123814145Y-61717464D01*
X123778931Y-61732050D01*
X123287300Y-61732050D01*
X123252086Y-61717464D01*
X123237500Y-61682250D01*
X123237500Y-61433673D01*
X123237607Y-61430415D01*
X123244900Y-61319182D01*
X123253585Y-61186715D01*
X123254435Y-61180262D01*
X123272759Y-61088149D01*
X125095100Y-61088149D01*
X125095100Y-61161850D01*
X125114174Y-61233034D01*
X125114177Y-61233041D01*
X125142624Y-61282314D01*
X125151024Y-61296862D01*
X125203138Y-61348976D01*
X125266963Y-61385825D01*
X125338150Y-61404900D01*
X125411850Y-61404900D01*
X125483037Y-61385825D01*
X125546862Y-61348976D01*
X125598976Y-61296862D01*
X125635825Y-61233037D01*
X125654900Y-61161850D01*
X125654900Y-61103149D01*
X125940100Y-61103149D01*
X125940100Y-61176850D01*
X125959174Y-61248034D01*
X125959177Y-61248041D01*
X125989994Y-61301419D01*
X125996024Y-61311862D01*
X126048138Y-61363976D01*
X126111963Y-61400825D01*
X126183150Y-61419900D01*
X126256850Y-61419900D01*
X126328037Y-61400825D01*
X126391862Y-61363976D01*
X126443976Y-61311862D01*
X126480825Y-61248037D01*
X126499900Y-61176850D01*
X126499900Y-61103150D01*
X126480825Y-61031963D01*
X126443976Y-60968138D01*
X126391862Y-60916024D01*
X126391861Y-60916023D01*
X126328041Y-60879177D01*
X126328038Y-60879176D01*
X126328037Y-60879175D01*
X126328035Y-60879174D01*
X126328034Y-60879174D01*
X126256850Y-60860100D01*
X126183150Y-60860100D01*
X126111965Y-60879174D01*
X126111958Y-60879177D01*
X126048138Y-60916023D01*
X125996023Y-60968138D01*
X125959177Y-61031958D01*
X125959174Y-61031965D01*
X125940100Y-61103149D01*
X125654900Y-61103149D01*
X125654900Y-61088150D01*
X125635825Y-61016963D01*
X125598976Y-60953138D01*
X125546862Y-60901024D01*
X125546861Y-60901023D01*
X125483041Y-60864177D01*
X125483038Y-60864176D01*
X125483037Y-60864175D01*
X125483035Y-60864174D01*
X125483034Y-60864174D01*
X125411850Y-60845100D01*
X125338150Y-60845100D01*
X125266965Y-60864174D01*
X125266958Y-60864177D01*
X125203138Y-60901023D01*
X125151023Y-60953138D01*
X125114177Y-61016958D01*
X125114174Y-61016965D01*
X125095100Y-61088149D01*
X123272759Y-61088149D01*
X123301770Y-60942317D01*
X123303455Y-60936032D01*
X123310247Y-60916024D01*
X123381441Y-60706302D01*
X123383932Y-60700290D01*
X123383957Y-60700240D01*
X123491237Y-60482703D01*
X123494479Y-60477086D01*
X123558805Y-60380817D01*
X127007600Y-60380817D01*
X127007600Y-60748800D01*
X127410000Y-60748800D01*
X127410000Y-60951200D01*
X127007600Y-60951200D01*
X127007600Y-61319182D01*
X127034589Y-61454873D01*
X127034592Y-61454883D01*
X127087540Y-61582710D01*
X127164406Y-61697750D01*
X127262249Y-61795593D01*
X127377290Y-61872459D01*
X127377289Y-61872459D01*
X127505116Y-61925407D01*
X127505126Y-61925410D01*
X127608799Y-61946031D01*
X127608800Y-61946031D01*
X127608800Y-61533466D01*
X127670504Y-61550000D01*
X127749496Y-61550000D01*
X127811200Y-61533466D01*
X127811200Y-61946031D01*
X127914873Y-61925410D01*
X127914883Y-61925407D01*
X128042710Y-61872459D01*
X128157750Y-61795593D01*
X128157753Y-61795591D01*
X128255591Y-61697753D01*
X128255593Y-61697750D01*
X128332459Y-61582710D01*
X128385407Y-61454883D01*
X128385410Y-61454873D01*
X128412399Y-61319182D01*
X128412400Y-61319176D01*
X128412400Y-60951200D01*
X128010000Y-60951200D01*
X128010000Y-60748800D01*
X128412400Y-60748800D01*
X128412400Y-60380824D01*
X128412399Y-60380817D01*
X135647600Y-60380817D01*
X135647600Y-60748800D01*
X136050000Y-60748800D01*
X136050000Y-60951200D01*
X135647600Y-60951200D01*
X135647600Y-61319182D01*
X135674589Y-61454873D01*
X135674592Y-61454883D01*
X135727540Y-61582710D01*
X135804406Y-61697750D01*
X135902249Y-61795593D01*
X136017290Y-61872459D01*
X136017289Y-61872459D01*
X136145116Y-61925407D01*
X136145126Y-61925410D01*
X136248799Y-61946031D01*
X136248800Y-61946031D01*
X136248800Y-61533466D01*
X136310504Y-61550000D01*
X136389496Y-61550000D01*
X136451200Y-61533466D01*
X136451200Y-61946031D01*
X136554873Y-61925410D01*
X136554883Y-61925407D01*
X136682710Y-61872459D01*
X136797750Y-61795593D01*
X136797753Y-61795591D01*
X136830195Y-61763149D01*
X137420100Y-61763149D01*
X137420100Y-61836850D01*
X137439174Y-61908034D01*
X137439177Y-61908041D01*
X137461110Y-61946031D01*
X137476024Y-61971862D01*
X137528138Y-62023976D01*
X137591963Y-62060825D01*
X137663150Y-62079900D01*
X137736850Y-62079900D01*
X137808037Y-62060825D01*
X137871862Y-62023976D01*
X137923976Y-61971862D01*
X137960825Y-61908037D01*
X137979900Y-61836850D01*
X137979900Y-61763150D01*
X137960825Y-61691963D01*
X137923976Y-61628138D01*
X137871862Y-61576024D01*
X137871861Y-61576023D01*
X137808041Y-61539177D01*
X137808038Y-61539176D01*
X137808037Y-61539175D01*
X137808035Y-61539174D01*
X137808034Y-61539174D01*
X137736850Y-61520100D01*
X137663150Y-61520100D01*
X137591965Y-61539174D01*
X137591958Y-61539177D01*
X137528138Y-61576023D01*
X137476023Y-61628138D01*
X137439177Y-61691958D01*
X137439174Y-61691965D01*
X137420100Y-61763149D01*
X136830195Y-61763149D01*
X136895591Y-61697753D01*
X136895593Y-61697750D01*
X136972459Y-61582710D01*
X137025407Y-61454883D01*
X137025410Y-61454873D01*
X137052399Y-61319182D01*
X137052400Y-61319176D01*
X137052400Y-60951200D01*
X136650000Y-60951200D01*
X136650000Y-60748800D01*
X137052400Y-60748800D01*
X137052400Y-60380824D01*
X137052399Y-60380820D01*
X137050168Y-60369602D01*
X137050168Y-60369601D01*
X137048885Y-60363149D01*
X138720100Y-60363149D01*
X138720100Y-60436850D01*
X138739174Y-60508034D01*
X138739177Y-60508041D01*
X138760013Y-60544131D01*
X138776024Y-60571862D01*
X138828138Y-60623976D01*
X138891963Y-60660825D01*
X138963150Y-60679900D01*
X139036850Y-60679900D01*
X139108037Y-60660825D01*
X139171862Y-60623976D01*
X139223976Y-60571862D01*
X139260825Y-60508037D01*
X139279900Y-60436850D01*
X139279900Y-60363150D01*
X139260825Y-60291963D01*
X139223976Y-60228138D01*
X139171862Y-60176024D01*
X139171861Y-60176023D01*
X139108041Y-60139177D01*
X139108038Y-60139176D01*
X139108037Y-60139175D01*
X139108035Y-60139174D01*
X139108034Y-60139174D01*
X139036850Y-60120100D01*
X138963150Y-60120100D01*
X138891965Y-60139174D01*
X138891958Y-60139177D01*
X138828138Y-60176023D01*
X138776023Y-60228138D01*
X138739177Y-60291958D01*
X138739174Y-60291965D01*
X138720100Y-60363149D01*
X137048885Y-60363149D01*
X137025410Y-60245126D01*
X137025407Y-60245116D01*
X136972459Y-60117289D01*
X136895593Y-60002249D01*
X136797750Y-59904406D01*
X136682709Y-59827540D01*
X136682710Y-59827540D01*
X136554880Y-59774591D01*
X136451200Y-59753968D01*
X136451200Y-60166533D01*
X136389496Y-60150000D01*
X136310504Y-60150000D01*
X136248800Y-60166533D01*
X136248800Y-59753968D01*
X136145119Y-59774591D01*
X136017289Y-59827540D01*
X135902249Y-59904406D01*
X135902247Y-59904409D01*
X135804409Y-60002247D01*
X135804406Y-60002249D01*
X135727540Y-60117289D01*
X135674592Y-60245116D01*
X135674589Y-60245126D01*
X135647600Y-60380817D01*
X128412399Y-60380817D01*
X128385410Y-60245126D01*
X128385407Y-60245116D01*
X128332459Y-60117289D01*
X128255593Y-60002249D01*
X128157750Y-59904406D01*
X128042709Y-59827540D01*
X128042710Y-59827540D01*
X127914880Y-59774591D01*
X127811200Y-59753968D01*
X127811200Y-60166533D01*
X127749496Y-60150000D01*
X127670504Y-60150000D01*
X127608800Y-60166533D01*
X127608800Y-59753968D01*
X127505119Y-59774591D01*
X127377289Y-59827540D01*
X127262249Y-59904406D01*
X127262247Y-59904409D01*
X127164409Y-60002247D01*
X127164406Y-60002249D01*
X127087540Y-60117289D01*
X127034592Y-60245116D01*
X127034589Y-60245126D01*
X127007600Y-60380817D01*
X123558805Y-60380817D01*
X123629277Y-60275350D01*
X123633229Y-60270200D01*
X123793198Y-60087790D01*
X123797790Y-60083198D01*
X123980200Y-59923229D01*
X123985350Y-59919277D01*
X124187086Y-59784479D01*
X124192703Y-59781237D01*
X124410295Y-59673929D01*
X124416302Y-59671441D01*
X124646036Y-59593453D01*
X124652317Y-59591770D01*
X124890269Y-59544433D01*
X124896713Y-59543585D01*
X125051801Y-59533416D01*
X125076661Y-59538240D01*
X125107102Y-59552900D01*
X125107104Y-59552900D01*
X125176896Y-59552900D01*
X125176898Y-59552900D01*
X125196263Y-59543574D01*
X125219400Y-59532432D01*
X125241008Y-59527500D01*
X138758992Y-59527500D01*
X138780600Y-59532432D01*
G37*
G04 #@! TD.AperFunction*
G04 #@! TA.AperFunction,Conductor*
G36*
X130231114Y-76475547D02*
G01*
X130245700Y-76510761D01*
X130245700Y-77457437D01*
X130231114Y-77492651D01*
X129852761Y-77871004D01*
X129817547Y-77885590D01*
X129782333Y-77871004D01*
X129767747Y-77835790D01*
X129774420Y-77810889D01*
X129784494Y-77793441D01*
X129805300Y-77715793D01*
X129805300Y-77635407D01*
X129784494Y-77557759D01*
X129744300Y-77488142D01*
X129687458Y-77431300D01*
X129687457Y-77431299D01*
X129677798Y-77425722D01*
X129654596Y-77395482D01*
X129652900Y-77382595D01*
X129652900Y-77003961D01*
X129667486Y-76968747D01*
X130160686Y-76475547D01*
X130195900Y-76460961D01*
X130231114Y-76475547D01*
G37*
G04 #@! TD.AperFunction*
G04 #@! TA.AperFunction,Conductor*
G36*
X123814145Y-62854436D02*
G01*
X123868694Y-62908985D01*
X123925963Y-62947250D01*
X124000063Y-62996762D01*
X124000064Y-62996762D01*
X124000066Y-62996764D01*
X124042565Y-63014367D01*
X124146036Y-63057226D01*
X124146043Y-63057227D01*
X124146045Y-63057228D01*
X124199072Y-63067775D01*
X124301000Y-63088050D01*
X124301004Y-63088050D01*
X124458996Y-63088050D01*
X124459000Y-63088050D01*
X124613964Y-63057226D01*
X124759937Y-62996762D01*
X124794677Y-62973548D01*
X124832059Y-62966113D01*
X124857558Y-62979742D01*
X125116897Y-63239081D01*
X125131483Y-63274295D01*
X125116897Y-63309509D01*
X125094573Y-63322398D01*
X125031965Y-63339174D01*
X125031958Y-63339177D01*
X124968138Y-63376023D01*
X124916023Y-63428138D01*
X124879177Y-63491958D01*
X124879174Y-63491965D01*
X124860100Y-63563149D01*
X124860100Y-63636850D01*
X124879174Y-63708034D01*
X124879177Y-63708041D01*
X124892112Y-63730446D01*
X124916024Y-63771862D01*
X124968138Y-63823976D01*
X125031963Y-63860825D01*
X125103150Y-63879900D01*
X125176850Y-63879900D01*
X125248037Y-63860825D01*
X125311862Y-63823976D01*
X125324588Y-63811250D01*
X125359802Y-63796664D01*
X125395016Y-63811250D01*
X126032514Y-64448748D01*
X126047100Y-64483962D01*
X126047100Y-64503878D01*
X126032514Y-64539092D01*
X125997300Y-64553678D01*
X125972400Y-64547006D01*
X125943641Y-64530402D01*
X125917841Y-64515506D01*
X125917838Y-64515505D01*
X125874445Y-64503878D01*
X125840193Y-64494700D01*
X125759807Y-64494700D01*
X125731386Y-64502315D01*
X125682161Y-64515505D01*
X125682155Y-64515508D01*
X125612542Y-64555699D01*
X125555699Y-64612542D01*
X125515508Y-64682155D01*
X125515505Y-64682161D01*
X125494700Y-64759807D01*
X125494700Y-64840192D01*
X125515505Y-64917838D01*
X125515508Y-64917844D01*
X125548913Y-64975704D01*
X125555700Y-64987458D01*
X125612542Y-65044300D01*
X125682159Y-65084494D01*
X125759807Y-65105300D01*
X125759808Y-65105300D01*
X125793100Y-65105300D01*
X125828314Y-65119886D01*
X125842900Y-65155100D01*
X125842900Y-67090300D01*
X125828314Y-67125514D01*
X125793100Y-67140100D01*
X125744763Y-67140100D01*
X125673578Y-67159174D01*
X125673571Y-67159177D01*
X125609751Y-67196023D01*
X125557636Y-67248138D01*
X125520790Y-67311958D01*
X125520787Y-67311965D01*
X125501713Y-67383149D01*
X125501713Y-67456850D01*
X125520787Y-67528034D01*
X125520790Y-67528041D01*
X125550241Y-67579053D01*
X125557637Y-67591862D01*
X125609751Y-67643976D01*
X125673576Y-67680825D01*
X125744763Y-67699900D01*
X125818463Y-67699900D01*
X125889650Y-67680825D01*
X125953475Y-67643976D01*
X125962086Y-67635365D01*
X125997300Y-67620779D01*
X126032514Y-67635365D01*
X126047100Y-67670579D01*
X126047100Y-70561632D01*
X126051488Y-70572226D01*
X126070376Y-70617828D01*
X126070377Y-70617829D01*
X126767369Y-71314820D01*
X126810380Y-71357831D01*
X126866577Y-71381109D01*
X126866578Y-71381109D01*
X126927404Y-71381109D01*
X127244247Y-71381109D01*
X127279461Y-71395695D01*
X127501314Y-71617547D01*
X127515900Y-71652761D01*
X127515900Y-72419215D01*
X127539176Y-72475410D01*
X127539177Y-72475411D01*
X127770378Y-72706611D01*
X127813389Y-72749622D01*
X127869586Y-72772900D01*
X127869587Y-72772900D01*
X127930413Y-72772900D01*
X128136915Y-72772900D01*
X128172129Y-72787486D01*
X128175553Y-72791391D01*
X128176023Y-72791861D01*
X128176024Y-72791862D01*
X128228138Y-72843976D01*
X128291963Y-72880825D01*
X128363150Y-72899900D01*
X128436850Y-72899900D01*
X128508037Y-72880825D01*
X128571862Y-72843976D01*
X128623976Y-72791862D01*
X128660825Y-72728037D01*
X128679900Y-72656850D01*
X128679900Y-72583150D01*
X128671752Y-72552743D01*
X128676726Y-72514956D01*
X128706964Y-72491752D01*
X128732742Y-72491752D01*
X128763150Y-72499900D01*
X128763151Y-72499900D01*
X128836850Y-72499900D01*
X128908037Y-72480825D01*
X128971862Y-72443976D01*
X129023976Y-72391862D01*
X129060825Y-72328037D01*
X129079900Y-72256850D01*
X129079900Y-72183150D01*
X129071752Y-72152743D01*
X129076726Y-72114956D01*
X129106964Y-72091752D01*
X129132742Y-72091752D01*
X129163150Y-72099900D01*
X129163151Y-72099900D01*
X129236850Y-72099900D01*
X129308037Y-72080825D01*
X129371862Y-72043976D01*
X129422086Y-71993752D01*
X129457300Y-71979166D01*
X129492514Y-71993752D01*
X129507100Y-72028966D01*
X129507100Y-72230413D01*
X129512717Y-72243973D01*
X129512718Y-72243976D01*
X129519441Y-72260209D01*
X129530377Y-72286611D01*
X129755729Y-72511963D01*
X129918497Y-72674730D01*
X129933083Y-72709944D01*
X129918497Y-72745158D01*
X129896175Y-72758046D01*
X129891963Y-72759175D01*
X129891961Y-72759175D01*
X129891958Y-72759177D01*
X129828138Y-72796023D01*
X129776023Y-72848138D01*
X129739177Y-72911958D01*
X129739174Y-72911965D01*
X129720100Y-72983149D01*
X129720100Y-73056850D01*
X129728247Y-73087254D01*
X129723272Y-73125043D01*
X129693034Y-73148247D01*
X129667254Y-73148247D01*
X129636850Y-73140100D01*
X129563150Y-73140100D01*
X129491965Y-73159174D01*
X129491958Y-73159177D01*
X129428138Y-73196023D01*
X129376023Y-73248138D01*
X129339177Y-73311958D01*
X129339174Y-73311965D01*
X129320100Y-73383149D01*
X129320100Y-73456850D01*
X129328247Y-73487254D01*
X129323272Y-73525043D01*
X129293034Y-73548247D01*
X129267254Y-73548247D01*
X129257252Y-73545567D01*
X129236850Y-73540100D01*
X129163150Y-73540100D01*
X129091965Y-73559174D01*
X129091958Y-73559177D01*
X129028138Y-73596023D01*
X128976023Y-73648138D01*
X128939177Y-73711958D01*
X128939174Y-73711965D01*
X128920100Y-73783149D01*
X128920100Y-73856850D01*
X128928247Y-73887254D01*
X128923272Y-73925043D01*
X128893034Y-73948247D01*
X128867254Y-73948247D01*
X128866470Y-73948037D01*
X128836850Y-73940100D01*
X128763150Y-73940100D01*
X128691965Y-73959174D01*
X128691958Y-73959177D01*
X128628138Y-73996023D01*
X128576023Y-74048138D01*
X128539177Y-74111958D01*
X128539174Y-74111965D01*
X128520100Y-74183149D01*
X128520100Y-74256850D01*
X128539174Y-74328034D01*
X128539177Y-74328041D01*
X128571319Y-74383714D01*
X128576024Y-74391862D01*
X128628138Y-74443976D01*
X128691963Y-74480825D01*
X128763150Y-74499900D01*
X128836850Y-74499900D01*
X128908037Y-74480825D01*
X128971862Y-74443976D01*
X129020395Y-74395442D01*
X129055608Y-74380857D01*
X129090820Y-74395442D01*
X129333190Y-74637811D01*
X129376201Y-74680822D01*
X129432398Y-74704100D01*
X129675949Y-74704100D01*
X129711163Y-74718686D01*
X129725749Y-74753900D01*
X129711163Y-74789114D01*
X129688839Y-74802002D01*
X129680093Y-74804346D01*
X129654868Y-74811105D01*
X129654862Y-74811108D01*
X129585247Y-74851300D01*
X129553566Y-74882981D01*
X129518352Y-74897567D01*
X129483139Y-74882981D01*
X129451457Y-74851299D01*
X129381844Y-74811108D01*
X129381841Y-74811106D01*
X129381838Y-74811105D01*
X129340020Y-74799900D01*
X129304193Y-74790300D01*
X129223807Y-74790300D01*
X129195386Y-74797915D01*
X129146161Y-74811105D01*
X129146155Y-74811108D01*
X129076542Y-74851299D01*
X129019699Y-74908142D01*
X128982416Y-74972718D01*
X128979506Y-74977759D01*
X128976632Y-74988486D01*
X128975560Y-74992486D01*
X128952356Y-75022724D01*
X128914566Y-75027698D01*
X128892243Y-75014809D01*
X128536612Y-74659178D01*
X128536611Y-74659177D01*
X128485027Y-74637811D01*
X128485025Y-74637809D01*
X128485025Y-74637810D01*
X128480415Y-74635900D01*
X128480414Y-74635900D01*
X126880786Y-74635900D01*
X126876168Y-74637813D01*
X126824589Y-74659177D01*
X125871252Y-75612514D01*
X125836038Y-75627100D01*
X125258011Y-75627100D01*
X125222797Y-75612514D01*
X125073791Y-75463508D01*
X125059205Y-75428294D01*
X125067598Y-75400627D01*
X125090812Y-75365887D01*
X125151276Y-75219914D01*
X125182100Y-75064950D01*
X125182100Y-74906950D01*
X125157012Y-74780822D01*
X125151278Y-74751995D01*
X125151277Y-74751993D01*
X125151276Y-74751986D01*
X125103984Y-74637813D01*
X125090814Y-74606016D01*
X125090812Y-74606014D01*
X125090812Y-74606013D01*
X125037984Y-74526950D01*
X125003035Y-74474644D01*
X124891305Y-74362914D01*
X124781335Y-74289436D01*
X124759937Y-74275138D01*
X124759935Y-74275137D01*
X124759933Y-74275135D01*
X124642259Y-74226394D01*
X124616461Y-74215708D01*
X124589510Y-74188758D01*
X124589510Y-74150643D01*
X124616461Y-74123691D01*
X124635519Y-74119900D01*
X124656850Y-74119900D01*
X124728037Y-74100825D01*
X124791862Y-74063976D01*
X124843976Y-74011862D01*
X124880825Y-73948037D01*
X124899900Y-73876850D01*
X124899900Y-73803150D01*
X124880825Y-73731963D01*
X124843976Y-73668138D01*
X124791862Y-73616024D01*
X124791861Y-73616023D01*
X124728041Y-73579177D01*
X124728038Y-73579176D01*
X124728037Y-73579175D01*
X124728035Y-73579174D01*
X124728034Y-73579174D01*
X124656850Y-73560100D01*
X124583150Y-73560100D01*
X124511965Y-73579174D01*
X124511958Y-73579177D01*
X124448138Y-73616023D01*
X124396023Y-73668138D01*
X124359177Y-73731958D01*
X124359174Y-73731965D01*
X124340100Y-73803149D01*
X124340100Y-73876850D01*
X124359174Y-73948034D01*
X124359177Y-73948041D01*
X124396023Y-74011861D01*
X124448138Y-74063976D01*
X124497968Y-74092745D01*
X124521171Y-74122983D01*
X124516196Y-74160773D01*
X124485958Y-74183976D01*
X124463353Y-74184715D01*
X124462210Y-74184488D01*
X124459002Y-74183850D01*
X124459000Y-74183850D01*
X124301000Y-74183850D01*
X124300997Y-74183850D01*
X124146045Y-74214671D01*
X124146037Y-74214673D01*
X124146036Y-74214674D01*
X124146032Y-74214675D01*
X124146031Y-74214676D01*
X124000066Y-74275135D01*
X124000064Y-74275137D01*
X123868694Y-74362914D01*
X123868692Y-74362917D01*
X123814145Y-74417464D01*
X123778931Y-74432050D01*
X123287300Y-74432050D01*
X123252086Y-74417464D01*
X123237500Y-74382250D01*
X123237500Y-74324650D01*
X123252086Y-74289436D01*
X123287300Y-74274850D01*
X123499046Y-74274850D01*
X123532142Y-74269608D01*
X123775339Y-74190588D01*
X123817974Y-74164461D01*
X123916576Y-74065859D01*
X123916578Y-74065855D01*
X123916581Y-74065853D01*
X123929451Y-74048138D01*
X123936271Y-74038751D01*
X123997695Y-73918202D01*
X124008050Y-73886333D01*
X124028581Y-73756702D01*
X124028582Y-73756693D01*
X124029900Y-73739952D01*
X124029900Y-73687903D01*
X124026769Y-73668138D01*
X124024658Y-73654808D01*
X123945638Y-73411611D01*
X123919511Y-73368976D01*
X123820909Y-73270374D01*
X123820903Y-73270368D01*
X123793804Y-73250681D01*
X123793801Y-73250679D01*
X123673253Y-73189255D01*
X123662629Y-73185803D01*
X123641383Y-73178900D01*
X123641378Y-73178899D01*
X123641374Y-73178898D01*
X123511743Y-73158367D01*
X123495002Y-73157050D01*
X123494998Y-73157050D01*
X123287300Y-73157050D01*
X123252086Y-73142464D01*
X123237500Y-73107250D01*
X123237500Y-73049650D01*
X123252086Y-73014436D01*
X123287300Y-72999850D01*
X123778931Y-72999850D01*
X123814145Y-73014436D01*
X123868694Y-73068985D01*
X123911748Y-73097752D01*
X124000063Y-73156762D01*
X124000064Y-73156762D01*
X124000066Y-73156764D01*
X124053504Y-73178898D01*
X124146036Y-73217226D01*
X124146043Y-73217227D01*
X124146045Y-73217228D01*
X124199072Y-73227775D01*
X124301000Y-73248050D01*
X124301004Y-73248050D01*
X124458996Y-73248050D01*
X124459000Y-73248050D01*
X124613964Y-73217226D01*
X124736208Y-73166591D01*
X124759933Y-73156764D01*
X124759933Y-73156763D01*
X124759937Y-73156762D01*
X124868815Y-73084011D01*
X124906198Y-73076576D01*
X124937889Y-73097752D01*
X124945325Y-73135135D01*
X124944585Y-73138307D01*
X124939798Y-73156172D01*
X124939798Y-73229877D01*
X124958872Y-73301061D01*
X124958875Y-73301068D01*
X124965166Y-73311965D01*
X124995722Y-73364889D01*
X125047836Y-73417003D01*
X125111661Y-73453852D01*
X125182848Y-73472927D01*
X125256548Y-73472927D01*
X125327735Y-73453852D01*
X125371400Y-73428641D01*
X125409189Y-73423667D01*
X125439428Y-73446870D01*
X125446100Y-73471770D01*
X125446100Y-74620700D01*
X125448436Y-74626341D01*
X125448438Y-74626343D01*
X125469376Y-74676894D01*
X125564055Y-74771573D01*
X125578641Y-74806787D01*
X125576945Y-74819673D01*
X125574058Y-74830449D01*
X125574058Y-74910835D01*
X125594864Y-74988483D01*
X125608420Y-75011963D01*
X125626266Y-75042873D01*
X125635058Y-75058100D01*
X125691900Y-75114942D01*
X125761517Y-75155136D01*
X125839165Y-75175942D01*
X125839166Y-75175942D01*
X125919550Y-75175942D01*
X125919551Y-75175942D01*
X125997199Y-75155136D01*
X126066816Y-75114942D01*
X126123658Y-75058100D01*
X126163852Y-74988483D01*
X126184658Y-74910835D01*
X126184658Y-74830449D01*
X126163852Y-74752801D01*
X126123658Y-74683184D01*
X126066816Y-74626342D01*
X126066815Y-74626341D01*
X126024210Y-74601743D01*
X125997199Y-74586148D01*
X125997196Y-74586147D01*
X125958095Y-74575670D01*
X125919551Y-74565342D01*
X125839165Y-74565342D01*
X125828390Y-74568228D01*
X125821719Y-74567350D01*
X125815503Y-74569925D01*
X125803491Y-74564949D01*
X125790602Y-74563252D01*
X125780289Y-74555339D01*
X125766486Y-74541536D01*
X125751900Y-74506322D01*
X125751900Y-73783149D01*
X127720100Y-73783149D01*
X127720100Y-73856850D01*
X127739174Y-73928034D01*
X127739177Y-73928041D01*
X127764123Y-73971250D01*
X127776024Y-73991862D01*
X127828138Y-74043976D01*
X127891963Y-74080825D01*
X127963150Y-74099900D01*
X128036850Y-74099900D01*
X128108037Y-74080825D01*
X128171862Y-74043976D01*
X128223976Y-73991862D01*
X128260825Y-73928037D01*
X128279900Y-73856850D01*
X128279900Y-73783150D01*
X128271752Y-73752743D01*
X128276726Y-73714956D01*
X128306964Y-73691752D01*
X128332742Y-73691752D01*
X128363150Y-73699900D01*
X128363151Y-73699900D01*
X128436850Y-73699900D01*
X128508037Y-73680825D01*
X128571862Y-73643976D01*
X128623976Y-73591862D01*
X128660825Y-73528037D01*
X128679900Y-73456850D01*
X128679900Y-73383150D01*
X128678239Y-73376953D01*
X128666385Y-73332713D01*
X128660825Y-73311963D01*
X128623976Y-73248138D01*
X128571862Y-73196024D01*
X128571861Y-73196023D01*
X128508041Y-73159177D01*
X128508038Y-73159176D01*
X128508037Y-73159175D01*
X128508035Y-73159174D01*
X128508034Y-73159174D01*
X128436850Y-73140100D01*
X128363150Y-73140100D01*
X128291965Y-73159174D01*
X128291958Y-73159177D01*
X128228138Y-73196023D01*
X128176023Y-73248138D01*
X128139177Y-73311958D01*
X128139174Y-73311965D01*
X128120100Y-73383149D01*
X128120100Y-73456850D01*
X128128247Y-73487254D01*
X128123272Y-73525043D01*
X128093034Y-73548247D01*
X128067254Y-73548247D01*
X128057252Y-73545567D01*
X128036850Y-73540100D01*
X127963150Y-73540100D01*
X127891965Y-73559174D01*
X127891958Y-73559177D01*
X127828138Y-73596023D01*
X127776023Y-73648138D01*
X127739177Y-73711958D01*
X127739174Y-73711965D01*
X127720100Y-73783149D01*
X125751900Y-73783149D01*
X125751900Y-72968587D01*
X125751900Y-72968586D01*
X125734162Y-72925763D01*
X125728623Y-72912389D01*
X125467486Y-72651252D01*
X125452900Y-72616038D01*
X125452900Y-72593135D01*
X126849787Y-72593135D01*
X126849787Y-72673521D01*
X126870593Y-72751169D01*
X126882155Y-72771194D01*
X126907739Y-72815508D01*
X126910787Y-72820786D01*
X126967629Y-72877628D01*
X127037246Y-72917822D01*
X127114894Y-72938628D01*
X127114895Y-72938628D01*
X127195279Y-72938628D01*
X127195280Y-72938628D01*
X127272928Y-72917822D01*
X127342545Y-72877628D01*
X127399387Y-72820786D01*
X127439581Y-72751169D01*
X127460387Y-72673521D01*
X127460387Y-72593135D01*
X127439581Y-72515487D01*
X127399387Y-72445870D01*
X127342545Y-72389028D01*
X127342544Y-72389027D01*
X127293697Y-72360825D01*
X127272928Y-72348834D01*
X127264999Y-72346709D01*
X127234762Y-72323506D01*
X127229788Y-72285716D01*
X127252992Y-72255479D01*
X127272922Y-72243973D01*
X127310071Y-72222525D01*
X127362185Y-72170411D01*
X127399034Y-72106586D01*
X127418109Y-72035399D01*
X127418109Y-71961699D01*
X127414504Y-71948247D01*
X127405164Y-71913389D01*
X127399034Y-71890512D01*
X127362185Y-71826687D01*
X127310071Y-71774573D01*
X127310070Y-71774572D01*
X127246250Y-71737726D01*
X127246247Y-71737725D01*
X127246246Y-71737724D01*
X127246244Y-71737723D01*
X127246243Y-71737723D01*
X127175059Y-71718649D01*
X127101359Y-71718649D01*
X127030174Y-71737723D01*
X127030167Y-71737726D01*
X126966347Y-71774572D01*
X126914232Y-71826687D01*
X126877386Y-71890507D01*
X126877383Y-71890514D01*
X126858309Y-71961698D01*
X126858309Y-72035399D01*
X126877383Y-72106583D01*
X126877386Y-72106590D01*
X126903171Y-72151252D01*
X126914233Y-72170411D01*
X126966347Y-72222525D01*
X127030172Y-72259374D01*
X127030177Y-72259375D01*
X127031216Y-72259806D01*
X127031619Y-72260209D01*
X127032999Y-72261006D01*
X127032785Y-72261375D01*
X127058167Y-72286759D01*
X127058166Y-72324874D01*
X127037057Y-72348943D01*
X126967629Y-72389027D01*
X126910786Y-72445870D01*
X126870595Y-72515483D01*
X126870592Y-72515489D01*
X126849787Y-72593135D01*
X125452900Y-72593135D01*
X125452900Y-69763084D01*
X125467486Y-69727870D01*
X125471396Y-69724441D01*
X125471859Y-69723977D01*
X125471862Y-69723976D01*
X125523976Y-69671862D01*
X125560825Y-69608037D01*
X125579900Y-69536850D01*
X125579900Y-69463150D01*
X125560825Y-69391963D01*
X125523976Y-69328138D01*
X125471862Y-69276024D01*
X125471861Y-69276023D01*
X125408041Y-69239177D01*
X125408038Y-69239176D01*
X125408037Y-69239175D01*
X125408035Y-69239174D01*
X125408034Y-69239174D01*
X125336850Y-69220100D01*
X125263150Y-69220100D01*
X125191965Y-69239174D01*
X125191958Y-69239177D01*
X125128138Y-69276023D01*
X125076024Y-69328137D01*
X125057415Y-69360369D01*
X125027175Y-69383571D01*
X124989386Y-69378596D01*
X124979073Y-69370682D01*
X124891305Y-69282914D01*
X124767213Y-69200000D01*
X124759937Y-69195138D01*
X124759935Y-69195137D01*
X124759933Y-69195135D01*
X124643670Y-69146978D01*
X124613964Y-69134674D01*
X124613960Y-69134673D01*
X124613954Y-69134671D01*
X124459002Y-69103850D01*
X124459000Y-69103850D01*
X124301000Y-69103850D01*
X124300997Y-69103850D01*
X124146045Y-69134671D01*
X124146037Y-69134673D01*
X124146036Y-69134674D01*
X124146032Y-69134675D01*
X124146031Y-69134676D01*
X124000066Y-69195135D01*
X124000064Y-69195137D01*
X123868694Y-69282914D01*
X123868692Y-69282917D01*
X123814145Y-69337464D01*
X123778931Y-69352050D01*
X123287300Y-69352050D01*
X123252086Y-69337464D01*
X123237500Y-69302250D01*
X123237500Y-69244650D01*
X123252086Y-69209436D01*
X123287300Y-69194850D01*
X123499046Y-69194850D01*
X123532142Y-69189608D01*
X123775339Y-69110588D01*
X123817974Y-69084461D01*
X123916576Y-68985859D01*
X123916578Y-68985855D01*
X123916581Y-68985853D01*
X123925214Y-68973969D01*
X123936271Y-68958751D01*
X123997695Y-68838202D01*
X124008050Y-68806333D01*
X124028581Y-68676702D01*
X124029900Y-68659948D01*
X124029900Y-68607904D01*
X124024658Y-68574808D01*
X123945638Y-68331611D01*
X123919511Y-68288976D01*
X123820909Y-68190374D01*
X123820903Y-68190368D01*
X123793804Y-68170681D01*
X123793801Y-68170679D01*
X123673253Y-68109255D01*
X123662629Y-68105803D01*
X123641383Y-68098900D01*
X123641378Y-68098899D01*
X123641374Y-68098898D01*
X123511743Y-68078367D01*
X123495002Y-68077050D01*
X123494998Y-68077050D01*
X123287300Y-68077050D01*
X123252086Y-68062464D01*
X123237500Y-68027250D01*
X123237500Y-67969650D01*
X123252086Y-67934436D01*
X123287300Y-67919850D01*
X123778931Y-67919850D01*
X123814145Y-67934436D01*
X123868694Y-67988985D01*
X123925963Y-68027250D01*
X124000063Y-68076762D01*
X124000064Y-68076762D01*
X124000066Y-68076764D01*
X124052632Y-68098537D01*
X124146036Y-68137226D01*
X124146043Y-68137227D01*
X124146045Y-68137228D01*
X124199072Y-68147775D01*
X124301000Y-68168050D01*
X124301004Y-68168050D01*
X124458996Y-68168050D01*
X124459000Y-68168050D01*
X124613964Y-68137226D01*
X124742521Y-68083976D01*
X124759933Y-68076764D01*
X124759933Y-68076763D01*
X124759937Y-68076762D01*
X124891309Y-67988982D01*
X125003032Y-67877259D01*
X125090812Y-67745887D01*
X125151276Y-67599914D01*
X125182100Y-67444950D01*
X125182100Y-67286950D01*
X125156684Y-67159174D01*
X125151278Y-67131995D01*
X125151277Y-67131993D01*
X125151276Y-67131986D01*
X125104549Y-67019177D01*
X125090814Y-66986016D01*
X125090812Y-66986014D01*
X125090812Y-66986013D01*
X125038978Y-66908438D01*
X125003035Y-66854644D01*
X124891305Y-66742914D01*
X124764925Y-66658471D01*
X124759937Y-66655138D01*
X124759935Y-66655137D01*
X124759933Y-66655135D01*
X124643670Y-66606978D01*
X124613964Y-66594674D01*
X124613960Y-66594673D01*
X124613954Y-66594671D01*
X124459002Y-66563850D01*
X124459000Y-66563850D01*
X124301000Y-66563850D01*
X124300997Y-66563850D01*
X124146045Y-66594671D01*
X124146037Y-66594673D01*
X124146036Y-66594674D01*
X124146032Y-66594675D01*
X124146031Y-66594676D01*
X124000066Y-66655135D01*
X124000064Y-66655137D01*
X123868694Y-66742914D01*
X123868692Y-66742917D01*
X123814145Y-66797464D01*
X123778931Y-66812050D01*
X123287300Y-66812050D01*
X123252086Y-66797464D01*
X123237500Y-66762250D01*
X123237500Y-66704650D01*
X123252086Y-66669436D01*
X123287300Y-66654850D01*
X123499046Y-66654850D01*
X123532142Y-66649608D01*
X123775339Y-66570588D01*
X123817974Y-66544461D01*
X123916576Y-66445859D01*
X123916578Y-66445855D01*
X123916581Y-66445853D01*
X123925214Y-66433969D01*
X123936271Y-66418751D01*
X123997695Y-66298202D01*
X124008050Y-66266333D01*
X124028581Y-66136702D01*
X124029900Y-66119948D01*
X124029900Y-66067904D01*
X124024658Y-66034808D01*
X123945638Y-65791611D01*
X123919511Y-65748976D01*
X123820909Y-65650374D01*
X123820903Y-65650368D01*
X123793804Y-65630681D01*
X123793801Y-65630679D01*
X123673253Y-65569255D01*
X123662629Y-65565803D01*
X123641383Y-65558900D01*
X123641378Y-65558899D01*
X123641374Y-65558898D01*
X123511743Y-65538367D01*
X123495002Y-65537050D01*
X123494998Y-65537050D01*
X123287300Y-65537050D01*
X123252086Y-65522464D01*
X123237500Y-65487250D01*
X123237500Y-65429650D01*
X123252086Y-65394436D01*
X123287300Y-65379850D01*
X123778931Y-65379850D01*
X123814145Y-65394436D01*
X123868694Y-65448985D01*
X123913574Y-65478972D01*
X124000063Y-65536762D01*
X124000064Y-65536762D01*
X124000066Y-65536764D01*
X124052632Y-65558537D01*
X124146036Y-65597226D01*
X124146043Y-65597227D01*
X124146045Y-65597228D01*
X124199072Y-65607775D01*
X124301000Y-65628050D01*
X124301004Y-65628050D01*
X124458996Y-65628050D01*
X124459000Y-65628050D01*
X124613964Y-65597226D01*
X124730230Y-65549066D01*
X124759933Y-65536764D01*
X124759933Y-65536763D01*
X124759937Y-65536762D01*
X124865460Y-65466253D01*
X124891305Y-65448985D01*
X124891308Y-65448983D01*
X125003033Y-65337258D01*
X125003035Y-65337255D01*
X125049483Y-65267740D01*
X125090812Y-65205887D01*
X125151276Y-65059914D01*
X125182100Y-64904950D01*
X125182100Y-64746950D01*
X125156329Y-64617391D01*
X125151278Y-64591995D01*
X125151277Y-64591993D01*
X125151276Y-64591986D01*
X125117967Y-64511572D01*
X125090814Y-64446016D01*
X125090812Y-64446014D01*
X125090812Y-64446013D01*
X125055557Y-64393251D01*
X125003035Y-64314644D01*
X124891305Y-64202914D01*
X124774705Y-64125006D01*
X124759937Y-64115138D01*
X124759935Y-64115137D01*
X124759933Y-64115135D01*
X124643670Y-64066978D01*
X124613964Y-64054674D01*
X124613960Y-64054673D01*
X124613954Y-64054671D01*
X124459002Y-64023850D01*
X124459000Y-64023850D01*
X124301000Y-64023850D01*
X124300997Y-64023850D01*
X124146045Y-64054671D01*
X124146037Y-64054673D01*
X124146036Y-64054674D01*
X124146032Y-64054675D01*
X124146031Y-64054676D01*
X124000066Y-64115135D01*
X124000064Y-64115137D01*
X123868694Y-64202914D01*
X123868692Y-64202917D01*
X123814145Y-64257464D01*
X123778931Y-64272050D01*
X123287300Y-64272050D01*
X123252086Y-64257464D01*
X123237500Y-64222250D01*
X123237500Y-64164650D01*
X123252086Y-64129436D01*
X123287300Y-64114850D01*
X123499046Y-64114850D01*
X123532142Y-64109608D01*
X123775339Y-64030588D01*
X123817974Y-64004461D01*
X123916576Y-63905859D01*
X123916578Y-63905855D01*
X123916581Y-63905853D01*
X123925214Y-63893969D01*
X123936271Y-63878751D01*
X123997695Y-63758202D01*
X124008050Y-63726333D01*
X124028581Y-63596702D01*
X124029900Y-63579948D01*
X124029900Y-63527904D01*
X124024658Y-63494808D01*
X123945638Y-63251611D01*
X123919511Y-63208976D01*
X123820909Y-63110374D01*
X123820903Y-63110368D01*
X123793804Y-63090681D01*
X123793801Y-63090679D01*
X123673253Y-63029255D01*
X123662629Y-63025803D01*
X123641383Y-63018900D01*
X123641378Y-63018899D01*
X123641374Y-63018898D01*
X123511743Y-62998367D01*
X123495002Y-62997050D01*
X123494998Y-62997050D01*
X123287300Y-62997050D01*
X123252086Y-62982464D01*
X123237500Y-62947250D01*
X123237500Y-62889650D01*
X123252086Y-62854436D01*
X123287300Y-62839850D01*
X123778931Y-62839850D01*
X123814145Y-62854436D01*
G37*
G04 #@! TD.AperFunction*
G04 #@! TA.AperFunction,Conductor*
G36*
X125124967Y-70324407D02*
G01*
X125146143Y-70356098D01*
X125147100Y-70365814D01*
X125147100Y-71986085D01*
X125132514Y-72021299D01*
X125097300Y-72035885D01*
X125062086Y-72021299D01*
X125055893Y-72013752D01*
X125003035Y-71934644D01*
X124891305Y-71822914D01*
X124763807Y-71737724D01*
X124759937Y-71735138D01*
X124759935Y-71735137D01*
X124759933Y-71735135D01*
X124643670Y-71686978D01*
X124613964Y-71674674D01*
X124613960Y-71674673D01*
X124613954Y-71674671D01*
X124459002Y-71643850D01*
X124459000Y-71643850D01*
X124301000Y-71643850D01*
X124300997Y-71643850D01*
X124146045Y-71674671D01*
X124146037Y-71674673D01*
X124146036Y-71674674D01*
X124146032Y-71674675D01*
X124146031Y-71674676D01*
X124000066Y-71735135D01*
X124000064Y-71735137D01*
X123868694Y-71822914D01*
X123868692Y-71822917D01*
X123814145Y-71877464D01*
X123778931Y-71892050D01*
X123287300Y-71892050D01*
X123252086Y-71877464D01*
X123237500Y-71842250D01*
X123237500Y-71784650D01*
X123252086Y-71749436D01*
X123287300Y-71734850D01*
X123499046Y-71734850D01*
X123532142Y-71729608D01*
X123775339Y-71650588D01*
X123817974Y-71624461D01*
X123916576Y-71525859D01*
X123916578Y-71525855D01*
X123916581Y-71525853D01*
X123932098Y-71504494D01*
X123936271Y-71498751D01*
X123997695Y-71378202D01*
X124008050Y-71346333D01*
X124028581Y-71216702D01*
X124029148Y-71209500D01*
X124029900Y-71199952D01*
X124029900Y-71147903D01*
X124024659Y-71114816D01*
X124024658Y-71114808D01*
X123945638Y-70871611D01*
X123919511Y-70828976D01*
X123820909Y-70730374D01*
X123820903Y-70730368D01*
X123793804Y-70710681D01*
X123793801Y-70710679D01*
X123673253Y-70649255D01*
X123662629Y-70645803D01*
X123641383Y-70638900D01*
X123641378Y-70638899D01*
X123641374Y-70638898D01*
X123511743Y-70618367D01*
X123495002Y-70617050D01*
X123494998Y-70617050D01*
X123287300Y-70617050D01*
X123252086Y-70602464D01*
X123237500Y-70567250D01*
X123237500Y-70509650D01*
X123252086Y-70474436D01*
X123287300Y-70459850D01*
X123778931Y-70459850D01*
X123814145Y-70474436D01*
X123868694Y-70528985D01*
X123947222Y-70581455D01*
X124000063Y-70616762D01*
X124000064Y-70616762D01*
X124000066Y-70616764D01*
X124056406Y-70640100D01*
X124146036Y-70677226D01*
X124146043Y-70677227D01*
X124146045Y-70677228D01*
X124163526Y-70680705D01*
X124301000Y-70708050D01*
X124301004Y-70708050D01*
X124458996Y-70708050D01*
X124459000Y-70708050D01*
X124613964Y-70677226D01*
X124741645Y-70624339D01*
X124759933Y-70616764D01*
X124759933Y-70616763D01*
X124759937Y-70616762D01*
X124881255Y-70535700D01*
X124891305Y-70528985D01*
X124891308Y-70528983D01*
X125003033Y-70417258D01*
X125003035Y-70417255D01*
X125055893Y-70338147D01*
X125087584Y-70316971D01*
X125124967Y-70324407D01*
G37*
G04 #@! TD.AperFunction*
G04 #@! TA.AperFunction,Conductor*
G36*
X140590000Y-64786454D02*
G01*
X140590000Y-64865446D01*
X140606533Y-64927150D01*
X140032876Y-64927150D01*
X140045000Y-64881902D01*
X140045000Y-64769998D01*
X140032876Y-64724750D01*
X140606533Y-64724750D01*
X140590000Y-64786454D01*
G37*
G04 #@! TD.AperFunction*
G04 #@! TD*
G04 #@! TA.AperFunction,Conductor*
G04 #@! TO.N,VBAT*
G36*
X131062793Y-75575915D02*
G01*
X131067443Y-75582060D01*
X131381656Y-76555493D01*
X131380937Y-76564419D01*
X131378995Y-76567155D01*
X131289881Y-76660739D01*
X131281694Y-76664367D01*
X131278380Y-76663972D01*
X131260195Y-76659100D01*
X131260193Y-76659100D01*
X131179807Y-76659100D01*
X131179804Y-76659100D01*
X131102160Y-76679904D01*
X131102156Y-76679906D01*
X131032545Y-76720097D01*
X131032540Y-76720101D01*
X130975701Y-76776940D01*
X130975697Y-76776945D01*
X130935506Y-76846556D01*
X130935504Y-76846560D01*
X130914700Y-76924204D01*
X130914700Y-77004595D01*
X130923488Y-77037395D01*
X130922319Y-77046273D01*
X130920661Y-77048491D01*
X130904047Y-77065941D01*
X130897658Y-77072650D01*
X130889472Y-77076278D01*
X130889185Y-77076282D01*
X130650612Y-77076282D01*
X130642339Y-77072855D01*
X130638991Y-77065941D01*
X130613338Y-76846560D01*
X130552498Y-76326263D01*
X130554379Y-76318426D01*
X131046571Y-75579168D01*
X131054008Y-75574183D01*
X131062793Y-75575915D01*
G37*
G04 #@! TD.AperFunction*
G04 #@! TD*
M02*
