G04 #@! TF.GenerationSoftware,KiCad,Pcbnew,9.0.3*
G04 #@! TF.CreationDate,2026-01-29T22:49:22+09:00*
G04 #@! TF.ProjectId,xiaobao,7869616f-6261-46f2-9e6b-696361645f70,rev?*
G04 #@! TF.SameCoordinates,Original*
G04 #@! TF.FileFunction,Legend,Top*
G04 #@! TF.FilePolarity,Positive*
%FSLAX46Y46*%
G04 Gerber Fmt 4.6, Leading zero omitted, Abs format (unit mm)*
G04 Created by KiCad (PCBNEW 9.0.3) date 2026-01-29 22:49:22*
%MOMM*%
%LPD*%
G01*
G04 APERTURE LIST*
G04 Aperture macros list*
%AMRoundRect*
0 Rectangle with rounded corners*
0 $1 Rounding radius*
0 $2 $3 $4 $5 $6 $7 $8 $9 X,Y pos of 4 corners*
0 Add a 4 corners polygon primitive as box body*
4,1,4,$2,$3,$4,$5,$6,$7,$8,$9,$2,$3,0*
0 Add four circle primitives for the rounded corners*
1,1,$1+$1,$2,$3*
1,1,$1+$1,$4,$5*
1,1,$1+$1,$6,$7*
1,1,$1+$1,$8,$9*
0 Add four rect primitives between the rounded corners*
20,1,$1+$1,$2,$3,$4,$5,0*
20,1,$1+$1,$4,$5,$6,$7,0*
20,1,$1+$1,$6,$7,$8,$9,0*
20,1,$1+$1,$8,$9,$2,$3,0*%
G04 Aperture macros list end*
%ADD10C,0.100000*%
%ADD11C,0.090000*%
%ADD12C,0.076200*%
%ADD13C,0.120000*%
%ADD14C,0.150000*%
%ADD15C,0.200000*%
%ADD16C,0.000000*%
%ADD17RoundRect,0.100000X-0.130000X-0.100000X0.130000X-0.100000X0.130000X0.100000X-0.130000X0.100000X0*%
%ADD18RoundRect,0.065370X-0.152530X0.214030X-0.152530X-0.214030X0.152530X-0.214030X0.152530X0.214030X0*%
%ADD19RoundRect,0.100000X0.130000X0.100000X-0.130000X0.100000X-0.130000X-0.100000X0.130000X-0.100000X0*%
%ADD20RoundRect,0.100000X-0.100000X0.130000X-0.100000X-0.130000X0.100000X-0.130000X0.100000X0.130000X0*%
%ADD21RoundRect,0.140000X0.140000X0.170000X-0.140000X0.170000X-0.140000X-0.170000X0.140000X-0.170000X0*%
%ADD22RoundRect,0.100000X0.100000X-0.130000X0.100000X0.130000X-0.100000X0.130000X-0.100000X-0.130000X0*%
%ADD23RoundRect,0.021000X0.129000X-0.304000X0.129000X0.304000X-0.129000X0.304000X-0.129000X-0.304000X0*%
%ADD24RoundRect,0.030120X-0.120280X-0.070280X0.120280X-0.070280X0.120280X0.070280X-0.120280X0.070280X0*%
%ADD25RoundRect,0.045120X-0.105280X0.230280X-0.105280X-0.230280X0.105280X-0.230280X0.105280X0.230280X0*%
%ADD26RoundRect,0.068850X-0.231550X-0.206550X0.231550X-0.206550X0.231550X0.206550X-0.231550X0.206550X0*%
%ADD27C,0.600000*%
%ADD28R,0.300000X1.150000*%
%ADD29O,1.000000X2.100000*%
%ADD30O,1.000000X1.800000*%
%ADD31RoundRect,0.055880X0.083820X0.102870X-0.083820X0.102870X-0.083820X-0.102870X0.083820X-0.102870X0*%
%ADD32RoundRect,0.077000X0.273000X0.373000X-0.273000X0.373000X-0.273000X-0.373000X0.273000X-0.373000X0*%
%ADD33RoundRect,0.055880X0.102870X-0.083820X0.102870X0.083820X-0.102870X0.083820X-0.102870X-0.083820X0*%
%ADD34R,0.450000X0.450000*%
%ADD35C,0.976200*%
%ADD36C,1.476200*%
%ADD37RoundRect,0.055880X-0.083820X-0.102870X0.083820X-0.102870X0.083820X0.102870X-0.083820X0.102870X0*%
%ADD38RoundRect,0.135400X0.000010X-0.000010X0.000010X0.000010X-0.000010X0.000010X-0.000010X-0.000010X0*%
%ADD39C,0.230000*%
%ADD40RoundRect,0.200000X-0.250000X-0.200000X0.250000X-0.200000X0.250000X0.200000X-0.250000X0.200000X0*%
%ADD41C,0.240000*%
%ADD42RoundRect,0.140000X-0.140000X-0.170000X0.140000X-0.170000X0.140000X0.170000X-0.140000X0.170000X0*%
%ADD43RoundRect,0.125400X0.000010X-0.000010X0.000010X0.000010X-0.000010X0.000010X-0.000010X-0.000010X0*%
%ADD44O,0.200000X0.700000*%
%ADD45O,0.200000X0.600000*%
%ADD46O,0.600000X0.200000*%
G04 APERTURE END LIST*
D10*
G36*
X131519129Y-61468654D02*
G01*
X131517408Y-61456113D01*
X131512395Y-61445660D01*
X131494244Y-61431813D01*
X131466208Y-61426998D01*
X131449349Y-61428728D01*
X131434946Y-61433799D01*
X131424556Y-61441163D01*
X131417275Y-61451014D01*
X131413286Y-61468654D01*
X131413286Y-62410412D01*
X131411126Y-62430686D01*
X131403038Y-62444771D01*
X131381907Y-62454720D01*
X131335141Y-62458387D01*
X131260282Y-62452151D01*
X131226770Y-62445747D01*
X131215450Y-62444538D01*
X131203056Y-62446286D01*
X131192463Y-62451488D01*
X131178024Y-62470593D01*
X131173849Y-62484875D01*
X131172585Y-62498724D01*
X131174288Y-62511999D01*
X131179174Y-62523602D01*
X131186923Y-62533151D01*
X131197195Y-62540231D01*
X131207866Y-62544061D01*
X131282199Y-62554971D01*
X131350253Y-62557910D01*
X131393876Y-62556133D01*
X131430173Y-62550730D01*
X131454994Y-62543436D01*
X131475355Y-62533521D01*
X131489853Y-62522514D01*
X131501233Y-62509364D01*
X131515161Y-62477217D01*
X131519129Y-62439483D01*
X131519129Y-61468654D01*
G37*
G36*
X132057135Y-62261484D02*
G01*
X131985742Y-62153449D01*
X131921244Y-62030650D01*
X131866657Y-61896828D01*
X131843982Y-61827392D01*
X131824835Y-61757445D01*
X131822753Y-61748923D01*
X131817472Y-61734198D01*
X131809590Y-61722730D01*
X131800040Y-61714984D01*
X131788629Y-61710233D01*
X131774888Y-61708531D01*
X131759775Y-61709795D01*
X131744784Y-61714762D01*
X131732730Y-61722740D01*
X131725042Y-61732173D01*
X131720513Y-61743801D01*
X131719439Y-61753978D01*
X131720703Y-61767882D01*
X131743888Y-61853356D01*
X131770626Y-61937461D01*
X131798775Y-62013987D01*
X131830302Y-62088828D01*
X131863014Y-62157147D01*
X131898950Y-62223577D01*
X131966405Y-62329628D01*
X131976771Y-62339809D01*
X131989093Y-62346657D01*
X132006741Y-62349852D01*
X132034089Y-62342817D01*
X132042022Y-62338476D01*
X132054702Y-62326456D01*
X132063558Y-62312875D01*
X132068456Y-62291765D01*
X132061448Y-62267937D01*
X132057135Y-62261484D01*
G37*
G36*
X131148680Y-61712323D02*
G01*
X131137304Y-61711059D01*
X131123288Y-61712795D01*
X131110996Y-61717914D01*
X131101349Y-61725774D01*
X131094058Y-61736441D01*
X131089439Y-61750187D01*
X131058537Y-61887184D01*
X131037644Y-61956056D01*
X131013536Y-62023347D01*
X130986915Y-62087215D01*
X130957575Y-62148164D01*
X130927387Y-62202681D01*
X130895081Y-62253357D01*
X130884073Y-62269013D01*
X130876675Y-62284181D01*
X130874016Y-62299348D01*
X130880710Y-62323885D01*
X130897922Y-62342268D01*
X130914951Y-62349694D01*
X130931939Y-62352379D01*
X130945463Y-62350621D01*
X130958179Y-62345345D01*
X130974803Y-62329628D01*
X131032199Y-62236206D01*
X131087500Y-62119759D01*
X131138445Y-61980441D01*
X131181974Y-61821636D01*
X131194017Y-61766618D01*
X131195281Y-61755242D01*
X131193592Y-61743767D01*
X131188798Y-61733903D01*
X131170405Y-61718738D01*
X131148680Y-61712323D01*
G37*
G36*
X133058848Y-61634452D02*
G01*
X133077958Y-61636328D01*
X133091151Y-61642427D01*
X133101061Y-61659519D01*
X133102922Y-61678636D01*
X133096193Y-61865974D01*
X133088161Y-61950638D01*
X133077318Y-62026160D01*
X133062585Y-62095027D01*
X133053955Y-62121444D01*
X133043392Y-62139919D01*
X133033822Y-62149228D01*
X133022557Y-62155143D01*
X132998343Y-62158719D01*
X132913933Y-62153993D01*
X132906349Y-62153993D01*
X132894101Y-62155713D01*
X132883540Y-62160714D01*
X132868955Y-62179178D01*
X132864803Y-62196528D01*
X132864803Y-62202793D01*
X132866493Y-62216487D01*
X132871290Y-62227572D01*
X132888258Y-62242192D01*
X132903821Y-62246922D01*
X132962333Y-62251472D01*
X133013456Y-62251922D01*
X133040759Y-62250108D01*
X133065741Y-62244438D01*
X133085302Y-62236208D01*
X133102973Y-62224652D01*
X133117762Y-62210597D01*
X133130754Y-62193247D01*
X133151296Y-62147290D01*
X133153315Y-62140419D01*
X133178702Y-62018982D01*
X133189006Y-61942131D01*
X133196873Y-61855664D01*
X133201908Y-61759498D01*
X133203708Y-61653687D01*
X133203709Y-61652147D01*
X133201940Y-61626595D01*
X133196593Y-61604549D01*
X133188930Y-61588120D01*
X133178440Y-61574353D01*
X133150607Y-61555508D01*
X133110169Y-61545939D01*
X133089073Y-61544986D01*
X132484242Y-61544986D01*
X132520787Y-61463928D01*
X132525843Y-61441122D01*
X132524099Y-61429153D01*
X132518923Y-61419139D01*
X132499793Y-61405464D01*
X132493090Y-61403148D01*
X132492928Y-61403121D01*
X132470394Y-61400620D01*
X132455868Y-61402423D01*
X132443611Y-61408007D01*
X132435089Y-61416024D01*
X132428596Y-61427195D01*
X132427584Y-61429746D01*
X132401687Y-61492297D01*
X132372552Y-61553459D01*
X132340507Y-61612539D01*
X132305528Y-61669539D01*
X132268601Y-61722942D01*
X132229117Y-61773688D01*
X132168033Y-61841411D01*
X132158493Y-61853298D01*
X132152531Y-61866053D01*
X132150393Y-61879330D01*
X132157462Y-61902405D01*
X132165505Y-61912358D01*
X132180450Y-61923472D01*
X132195416Y-61929344D01*
X132203314Y-61930163D01*
X132214763Y-61928371D01*
X132226211Y-61922859D01*
X132241068Y-61909830D01*
X132327911Y-61803765D01*
X132408968Y-61683143D01*
X132437641Y-61634452D01*
X133058848Y-61634452D01*
G37*
G36*
X132765225Y-62149212D02*
G01*
X132794587Y-62147383D01*
X132818966Y-62141615D01*
X132834662Y-62134079D01*
X132847458Y-62123669D01*
X132863632Y-62096395D01*
X132870820Y-62054656D01*
X132871068Y-62043260D01*
X132871068Y-61883122D01*
X132869277Y-61854239D01*
X132863777Y-61830426D01*
X132856383Y-61814512D01*
X132846272Y-61801639D01*
X132819754Y-61785201D01*
X132779387Y-61777559D01*
X132763961Y-61777114D01*
X132412472Y-61777114D01*
X132401758Y-61778804D01*
X132392880Y-61783600D01*
X132380676Y-61801565D01*
X132377191Y-61823771D01*
X132378924Y-61838410D01*
X132384026Y-61850813D01*
X132391365Y-61859364D01*
X132401198Y-61864819D01*
X132412472Y-61866580D01*
X132733736Y-61866580D01*
X132753126Y-61868609D01*
X132765601Y-61875774D01*
X132772444Y-61894188D01*
X132772809Y-61902191D01*
X132772809Y-62022926D01*
X132770990Y-62039005D01*
X132765293Y-62049655D01*
X132748571Y-62057450D01*
X132733736Y-62058482D01*
X132408680Y-62058482D01*
X132381340Y-62060261D01*
X132358056Y-62065681D01*
X132341440Y-62073242D01*
X132327728Y-62083598D01*
X132309919Y-62110524D01*
X132301917Y-62149463D01*
X132301573Y-62161247D01*
X132301573Y-62403213D01*
X132303334Y-62432171D01*
X132308625Y-62457171D01*
X132316276Y-62476208D01*
X132326721Y-62492484D01*
X132354669Y-62516616D01*
X132395581Y-62532999D01*
X132420000Y-62538016D01*
X132535881Y-62549250D01*
X132711040Y-62554393D01*
X132801770Y-62554393D01*
X132941209Y-62552330D01*
X133074709Y-62544923D01*
X133081489Y-62544336D01*
X133120228Y-62538442D01*
X133153634Y-62529402D01*
X133178198Y-62519022D01*
X133199284Y-62506063D01*
X133215830Y-62491700D01*
X133229730Y-62474928D01*
X133240253Y-62457398D01*
X133263689Y-62397374D01*
X133278232Y-62323476D01*
X133280590Y-62301107D01*
X133280590Y-62294787D01*
X133278850Y-62281582D01*
X133273707Y-62270410D01*
X133265927Y-62262072D01*
X133255369Y-62256007D01*
X133237725Y-62251922D01*
X133226405Y-62250713D01*
X133211467Y-62252458D01*
X133199541Y-62257634D01*
X133191791Y-62264904D01*
X133186722Y-62274675D01*
X133184804Y-62283466D01*
X133179676Y-62323185D01*
X133171721Y-62358226D01*
X133159635Y-62393101D01*
X133151767Y-62407950D01*
X133140710Y-62420952D01*
X133109754Y-62440318D01*
X133064124Y-62450927D01*
X133062585Y-62451078D01*
X132898592Y-62461111D01*
X132803034Y-62462454D01*
X132713568Y-62461190D01*
X132589000Y-62457714D01*
X132469130Y-62448550D01*
X132435757Y-62442154D01*
X132414988Y-62431544D01*
X132403360Y-62411863D01*
X132399832Y-62374196D01*
X132399832Y-62183889D01*
X132401589Y-62169264D01*
X132406857Y-62159085D01*
X132423195Y-62150450D01*
X132437641Y-62149212D01*
X132765225Y-62149212D01*
G37*
X135221503Y-78041371D02*
X135021503Y-77755657D01*
X134878646Y-78041371D02*
X134878646Y-77441371D01*
X134878646Y-77441371D02*
X135107217Y-77441371D01*
X135107217Y-77441371D02*
X135164360Y-77469942D01*
X135164360Y-77469942D02*
X135192931Y-77498514D01*
X135192931Y-77498514D02*
X135221503Y-77555657D01*
X135221503Y-77555657D02*
X135221503Y-77641371D01*
X135221503Y-77641371D02*
X135192931Y-77698514D01*
X135192931Y-77698514D02*
X135164360Y-77727085D01*
X135164360Y-77727085D02*
X135107217Y-77755657D01*
X135107217Y-77755657D02*
X134878646Y-77755657D01*
X135478646Y-77727085D02*
X135678646Y-77727085D01*
X135764360Y-78041371D02*
X135478646Y-78041371D01*
X135478646Y-78041371D02*
X135478646Y-77441371D01*
X135478646Y-77441371D02*
X135764360Y-77441371D01*
X135992931Y-78012800D02*
X136078646Y-78041371D01*
X136078646Y-78041371D02*
X136221503Y-78041371D01*
X136221503Y-78041371D02*
X136278646Y-78012800D01*
X136278646Y-78012800D02*
X136307217Y-77984228D01*
X136307217Y-77984228D02*
X136335788Y-77927085D01*
X136335788Y-77927085D02*
X136335788Y-77869942D01*
X136335788Y-77869942D02*
X136307217Y-77812800D01*
X136307217Y-77812800D02*
X136278646Y-77784228D01*
X136278646Y-77784228D02*
X136221503Y-77755657D01*
X136221503Y-77755657D02*
X136107217Y-77727085D01*
X136107217Y-77727085D02*
X136050074Y-77698514D01*
X136050074Y-77698514D02*
X136021503Y-77669942D01*
X136021503Y-77669942D02*
X135992931Y-77612800D01*
X135992931Y-77612800D02*
X135992931Y-77555657D01*
X135992931Y-77555657D02*
X136021503Y-77498514D01*
X136021503Y-77498514D02*
X136050074Y-77469942D01*
X136050074Y-77469942D02*
X136107217Y-77441371D01*
X136107217Y-77441371D02*
X136250074Y-77441371D01*
X136250074Y-77441371D02*
X136335788Y-77469942D01*
X136592932Y-77727085D02*
X136792932Y-77727085D01*
X136878646Y-78041371D02*
X136592932Y-78041371D01*
X136592932Y-78041371D02*
X136592932Y-77441371D01*
X136592932Y-77441371D02*
X136878646Y-77441371D01*
X137050074Y-77441371D02*
X137392932Y-77441371D01*
X137221503Y-78041371D02*
X137221503Y-77441371D01*
X126808646Y-78021371D02*
X126808646Y-77421371D01*
X126808646Y-77421371D02*
X127037217Y-77421371D01*
X127037217Y-77421371D02*
X127094360Y-77449942D01*
X127094360Y-77449942D02*
X127122931Y-77478514D01*
X127122931Y-77478514D02*
X127151503Y-77535657D01*
X127151503Y-77535657D02*
X127151503Y-77621371D01*
X127151503Y-77621371D02*
X127122931Y-77678514D01*
X127122931Y-77678514D02*
X127094360Y-77707085D01*
X127094360Y-77707085D02*
X127037217Y-77735657D01*
X127037217Y-77735657D02*
X126808646Y-77735657D01*
X127751503Y-78021371D02*
X127551503Y-77735657D01*
X127408646Y-78021371D02*
X127408646Y-77421371D01*
X127408646Y-77421371D02*
X127637217Y-77421371D01*
X127637217Y-77421371D02*
X127694360Y-77449942D01*
X127694360Y-77449942D02*
X127722931Y-77478514D01*
X127722931Y-77478514D02*
X127751503Y-77535657D01*
X127751503Y-77535657D02*
X127751503Y-77621371D01*
X127751503Y-77621371D02*
X127722931Y-77678514D01*
X127722931Y-77678514D02*
X127694360Y-77707085D01*
X127694360Y-77707085D02*
X127637217Y-77735657D01*
X127637217Y-77735657D02*
X127408646Y-77735657D01*
X128122931Y-77421371D02*
X128237217Y-77421371D01*
X128237217Y-77421371D02*
X128294360Y-77449942D01*
X128294360Y-77449942D02*
X128351503Y-77507085D01*
X128351503Y-77507085D02*
X128380074Y-77621371D01*
X128380074Y-77621371D02*
X128380074Y-77821371D01*
X128380074Y-77821371D02*
X128351503Y-77935657D01*
X128351503Y-77935657D02*
X128294360Y-77992800D01*
X128294360Y-77992800D02*
X128237217Y-78021371D01*
X128237217Y-78021371D02*
X128122931Y-78021371D01*
X128122931Y-78021371D02*
X128065789Y-77992800D01*
X128065789Y-77992800D02*
X128008646Y-77935657D01*
X128008646Y-77935657D02*
X127980074Y-77821371D01*
X127980074Y-77821371D02*
X127980074Y-77621371D01*
X127980074Y-77621371D02*
X128008646Y-77507085D01*
X128008646Y-77507085D02*
X128065789Y-77449942D01*
X128065789Y-77449942D02*
X128122931Y-77421371D01*
X128951502Y-77449942D02*
X128894360Y-77421371D01*
X128894360Y-77421371D02*
X128808645Y-77421371D01*
X128808645Y-77421371D02*
X128722931Y-77449942D01*
X128722931Y-77449942D02*
X128665788Y-77507085D01*
X128665788Y-77507085D02*
X128637217Y-77564228D01*
X128637217Y-77564228D02*
X128608645Y-77678514D01*
X128608645Y-77678514D02*
X128608645Y-77764228D01*
X128608645Y-77764228D02*
X128637217Y-77878514D01*
X128637217Y-77878514D02*
X128665788Y-77935657D01*
X128665788Y-77935657D02*
X128722931Y-77992800D01*
X128722931Y-77992800D02*
X128808645Y-78021371D01*
X128808645Y-78021371D02*
X128865788Y-78021371D01*
X128865788Y-78021371D02*
X128951502Y-77992800D01*
X128951502Y-77992800D02*
X128980074Y-77964228D01*
X128980074Y-77964228D02*
X128980074Y-77764228D01*
X128980074Y-77764228D02*
X128865788Y-77764228D01*
D11*
X130374562Y-60892368D02*
X130432238Y-60921206D01*
X130432238Y-60921206D02*
X130547590Y-60921206D01*
X130547590Y-60921206D02*
X130605267Y-60892368D01*
X130605267Y-60892368D02*
X130634105Y-60834691D01*
X130634105Y-60834691D02*
X130634105Y-60805853D01*
X130634105Y-60805853D02*
X130605267Y-60748177D01*
X130605267Y-60748177D02*
X130547590Y-60719339D01*
X130547590Y-60719339D02*
X130461076Y-60719339D01*
X130461076Y-60719339D02*
X130403400Y-60690501D01*
X130403400Y-60690501D02*
X130374562Y-60632825D01*
X130374562Y-60632825D02*
X130374562Y-60603987D01*
X130374562Y-60603987D02*
X130403400Y-60546310D01*
X130403400Y-60546310D02*
X130461076Y-60517472D01*
X130461076Y-60517472D02*
X130547590Y-60517472D01*
X130547590Y-60517472D02*
X130605267Y-60546310D01*
X131153191Y-60921206D02*
X131153191Y-60603987D01*
X131153191Y-60603987D02*
X131124353Y-60546310D01*
X131124353Y-60546310D02*
X131066677Y-60517472D01*
X131066677Y-60517472D02*
X130951324Y-60517472D01*
X130951324Y-60517472D02*
X130893648Y-60546310D01*
X131153191Y-60892368D02*
X131095515Y-60921206D01*
X131095515Y-60921206D02*
X130951324Y-60921206D01*
X130951324Y-60921206D02*
X130893648Y-60892368D01*
X130893648Y-60892368D02*
X130864810Y-60834691D01*
X130864810Y-60834691D02*
X130864810Y-60777015D01*
X130864810Y-60777015D02*
X130893648Y-60719339D01*
X130893648Y-60719339D02*
X130951324Y-60690501D01*
X130951324Y-60690501D02*
X131095515Y-60690501D01*
X131095515Y-60690501D02*
X131153191Y-60661663D01*
X131441572Y-60921206D02*
X131441572Y-60517472D01*
X131441572Y-60575148D02*
X131470410Y-60546310D01*
X131470410Y-60546310D02*
X131528086Y-60517472D01*
X131528086Y-60517472D02*
X131614601Y-60517472D01*
X131614601Y-60517472D02*
X131672277Y-60546310D01*
X131672277Y-60546310D02*
X131701115Y-60603987D01*
X131701115Y-60603987D02*
X131701115Y-60921206D01*
X131701115Y-60603987D02*
X131729953Y-60546310D01*
X131729953Y-60546310D02*
X131787629Y-60517472D01*
X131787629Y-60517472D02*
X131874143Y-60517472D01*
X131874143Y-60517472D02*
X131931820Y-60546310D01*
X131931820Y-60546310D02*
X131960658Y-60603987D01*
X131960658Y-60603987D02*
X131960658Y-60921206D01*
X132508582Y-60892368D02*
X132450906Y-60921206D01*
X132450906Y-60921206D02*
X132335553Y-60921206D01*
X132335553Y-60921206D02*
X132277877Y-60892368D01*
X132277877Y-60892368D02*
X132249039Y-60863529D01*
X132249039Y-60863529D02*
X132220201Y-60805853D01*
X132220201Y-60805853D02*
X132220201Y-60632825D01*
X132220201Y-60632825D02*
X132249039Y-60575148D01*
X132249039Y-60575148D02*
X132277877Y-60546310D01*
X132277877Y-60546310D02*
X132335553Y-60517472D01*
X132335553Y-60517472D02*
X132450906Y-60517472D01*
X132450906Y-60517472D02*
X132508582Y-60546310D01*
X132768125Y-60921206D02*
X132768125Y-60315606D01*
X133027668Y-60921206D02*
X133027668Y-60603987D01*
X133027668Y-60603987D02*
X132998830Y-60546310D01*
X132998830Y-60546310D02*
X132941154Y-60517472D01*
X132941154Y-60517472D02*
X132854639Y-60517472D01*
X132854639Y-60517472D02*
X132796963Y-60546310D01*
X132796963Y-60546310D02*
X132768125Y-60575148D01*
X133316049Y-60921206D02*
X133316049Y-60517472D01*
X133316049Y-60315606D02*
X133287211Y-60344444D01*
X133287211Y-60344444D02*
X133316049Y-60373282D01*
X133316049Y-60373282D02*
X133344887Y-60344444D01*
X133344887Y-60344444D02*
X133316049Y-60315606D01*
X133316049Y-60315606D02*
X133316049Y-60373282D01*
X133604430Y-60517472D02*
X133604430Y-60921206D01*
X133604430Y-60575148D02*
X133633268Y-60546310D01*
X133633268Y-60546310D02*
X133690944Y-60517472D01*
X133690944Y-60517472D02*
X133777459Y-60517472D01*
X133777459Y-60517472D02*
X133835135Y-60546310D01*
X133835135Y-60546310D02*
X133863973Y-60603987D01*
X133863973Y-60603987D02*
X133863973Y-60921206D01*
D12*
G04 #@! TO.C,D4*
X137465000Y-61124488D02*
X137606988Y-60982500D01*
X137465000Y-61475512D02*
X137465000Y-61124488D01*
X137606988Y-60982500D02*
X138608000Y-60982500D01*
X137606988Y-61617500D02*
X137465000Y-61475512D01*
X138608000Y-61617500D02*
X137606988Y-61617500D01*
X138735000Y-61109500D02*
X138735000Y-61490500D01*
X138608000Y-60982500D02*
G75*
G02*
X138735000Y-61109500I1J-126999D01*
G01*
X138735000Y-61490500D02*
G75*
G02*
X138608000Y-61617500I-126999J-1D01*
G01*
D13*
G04 #@! TO.C,C21*
X134007836Y-72460000D02*
X133792164Y-72460000D01*
X134007836Y-73180000D02*
X133792164Y-73180000D01*
G04 #@! TO.C,C17*
X133307836Y-76400000D02*
X133092164Y-76400000D01*
X133307836Y-77120000D02*
X133092164Y-77120000D01*
G04 #@! TO.C,J1*
X127450000Y-58140000D02*
X136610000Y-58140000D01*
X127450000Y-59845000D02*
X127450000Y-58140000D01*
X127450000Y-61855000D02*
X127450000Y-63775000D01*
X136610000Y-58140000D02*
X136610000Y-59845000D01*
X136610000Y-63775000D02*
X136610000Y-61855000D01*
D14*
G04 #@! TO.C,D1*
X124800000Y-61100000D02*
X124800000Y-61700000D01*
X124800000Y-61700000D02*
X125300000Y-61700000D01*
X125700000Y-61200000D02*
X125900000Y-61100000D01*
X125900000Y-61100000D02*
X125900000Y-61300000D01*
X125900000Y-61300000D02*
X125700000Y-61200000D01*
X125000000Y-59900000D02*
X126600000Y-59900000D01*
X126600000Y-61500000D01*
X125000000Y-61500000D01*
X125000000Y-59900000D01*
D13*
G04 #@! TO.C,U1*
X126999001Y-70869000D02*
X127939501Y-70869000D01*
X126999001Y-71884500D02*
X126999001Y-70869000D01*
X126999001Y-74155500D02*
X126999001Y-75171000D01*
X126999001Y-75171000D02*
X127939501Y-75171000D01*
X131001001Y-71989000D02*
X129881001Y-70869000D01*
X131001001Y-74155500D02*
X131001001Y-75171000D01*
X131001001Y-75171000D02*
X130060501Y-75171000D01*
D15*
X130981001Y-70989000D02*
G75*
G02*
X130781001Y-70989000I-100000J0D01*
G01*
X130781001Y-70989000D02*
G75*
G02*
X130981001Y-70989000I100000J0D01*
G01*
D13*
G04 #@! TO.C,Y2*
X126870000Y-67450000D02*
X126870000Y-69870000D01*
X126870000Y-69870000D02*
X129690000Y-69870000D01*
G04 #@! TO.C,C19*
X134707836Y-73460000D02*
X134492164Y-73460000D01*
X134707836Y-74180000D02*
X134492164Y-74180000D01*
G04 #@! TO.C,C14*
X135052164Y-76380000D02*
X135267836Y-76380000D01*
X135052164Y-77100000D02*
X135267836Y-77100000D01*
G04 #@! TO.C,U5*
X130979999Y-67820000D02*
X130980000Y-67770000D01*
X130979999Y-69420000D02*
X130980000Y-69470000D01*
X130980000Y-67770000D02*
X131430000Y-67770000D01*
X130980000Y-69470000D02*
X131430000Y-69470000D01*
X133080000Y-69470000D02*
X132630000Y-69470000D01*
X133080001Y-67820000D02*
X133080000Y-67620000D01*
X133080001Y-69420000D02*
X133080000Y-69470000D01*
G04 #@! TD*
%LPC*%
D16*
G36*
X137480361Y-75798540D02*
G01*
X137484279Y-75798774D01*
X137488118Y-75799160D01*
X137491875Y-75799698D01*
X137495549Y-75800387D01*
X137499137Y-75801223D01*
X137502637Y-75802207D01*
X137506048Y-75803336D01*
X137509366Y-75804608D01*
X137512591Y-75806023D01*
X137515718Y-75807578D01*
X137518748Y-75809272D01*
X137521676Y-75811104D01*
X137524502Y-75813071D01*
X137527222Y-75815173D01*
X137529836Y-75817407D01*
X137532340Y-75819773D01*
X137534733Y-75822268D01*
X137537012Y-75824890D01*
X137539175Y-75827640D01*
X137541220Y-75830514D01*
X137543146Y-75833511D01*
X137544949Y-75836630D01*
X137546627Y-75839869D01*
X137548180Y-75843226D01*
X137549603Y-75846700D01*
X137550896Y-75850290D01*
X137552055Y-75853993D01*
X137553080Y-75857808D01*
X137553967Y-75861734D01*
X137554714Y-75865770D01*
X137556391Y-75877499D01*
X137557507Y-75889142D01*
X137558082Y-75900702D01*
X137558133Y-75912179D01*
X137557678Y-75923574D01*
X137556734Y-75934890D01*
X137555320Y-75946126D01*
X137553453Y-75957286D01*
X137551150Y-75968369D01*
X137548430Y-75979378D01*
X137545310Y-75990313D01*
X137541809Y-76001177D01*
X137537943Y-76011970D01*
X137533732Y-76022694D01*
X137529191Y-76033350D01*
X137524340Y-76043940D01*
X137517501Y-76057842D01*
X137510300Y-76071500D01*
X137502762Y-76084930D01*
X137494912Y-76098150D01*
X137486775Y-76111174D01*
X137478374Y-76124020D01*
X137460883Y-76149242D01*
X137442637Y-76173948D01*
X137423833Y-76198269D01*
X137385341Y-76246280D01*
X137375930Y-76258330D01*
X137373510Y-76261269D01*
X137372269Y-76262703D01*
X137371004Y-76264108D01*
X137369709Y-76265478D01*
X137368382Y-76266809D01*
X137367019Y-76268098D01*
X137365617Y-76269338D01*
X137361122Y-76273413D01*
X137357039Y-76277616D01*
X137353352Y-76281947D01*
X137350043Y-76286405D01*
X137347098Y-76290991D01*
X137344499Y-76295704D01*
X137342231Y-76300544D01*
X137340278Y-76305512D01*
X137338623Y-76310606D01*
X137337250Y-76315828D01*
X137336144Y-76321176D01*
X137335287Y-76326650D01*
X137334665Y-76332251D01*
X137334260Y-76337979D01*
X137334056Y-76343832D01*
X137334039Y-76349811D01*
X137335293Y-76394830D01*
X137338104Y-76439593D01*
X137342500Y-76484097D01*
X137348508Y-76528341D01*
X137356157Y-76572319D01*
X137365475Y-76616030D01*
X137376490Y-76659469D01*
X137389231Y-76702633D01*
X137390886Y-76707622D01*
X137392623Y-76712379D01*
X137394445Y-76716906D01*
X137396353Y-76721204D01*
X137398348Y-76725277D01*
X137400434Y-76729124D01*
X137402611Y-76732749D01*
X137404882Y-76736152D01*
X137407249Y-76739335D01*
X137409713Y-76742301D01*
X137412277Y-76745050D01*
X137414942Y-76747585D01*
X137417710Y-76749907D01*
X137420584Y-76752019D01*
X137423564Y-76753920D01*
X137426654Y-76755615D01*
X137429855Y-76757103D01*
X137433169Y-76758387D01*
X137436597Y-76759468D01*
X137440142Y-76760349D01*
X137443806Y-76761031D01*
X137447590Y-76761515D01*
X137451497Y-76761804D01*
X137455528Y-76761899D01*
X137459685Y-76761801D01*
X137463971Y-76761513D01*
X137468387Y-76761036D01*
X137472934Y-76760373D01*
X137477616Y-76759523D01*
X137482434Y-76758491D01*
X137487389Y-76757276D01*
X137492484Y-76755881D01*
X137500404Y-76753357D01*
X137508023Y-76750451D01*
X137515355Y-76747179D01*
X137522410Y-76743559D01*
X137529201Y-76739606D01*
X137535742Y-76735338D01*
X137542042Y-76730771D01*
X137548116Y-76725923D01*
X137553975Y-76720810D01*
X137559631Y-76715450D01*
X137565097Y-76709858D01*
X137570385Y-76704051D01*
X137575506Y-76698048D01*
X137580474Y-76691863D01*
X137585300Y-76685515D01*
X137589996Y-76679019D01*
X137596269Y-76669840D01*
X137602340Y-76660522D01*
X137608262Y-76651099D01*
X137614085Y-76641607D01*
X137625639Y-76622554D01*
X137631472Y-76613062D01*
X137637410Y-76603639D01*
X137639088Y-76601167D01*
X137640857Y-76598839D01*
X137642709Y-76596655D01*
X137644639Y-76594615D01*
X137646643Y-76592720D01*
X137648713Y-76590970D01*
X137650846Y-76589366D01*
X137653035Y-76587908D01*
X137655275Y-76586597D01*
X137657560Y-76585432D01*
X137659886Y-76584415D01*
X137662245Y-76583546D01*
X137664633Y-76582824D01*
X137667045Y-76582252D01*
X137669475Y-76581828D01*
X137671916Y-76581553D01*
X137674365Y-76581429D01*
X137676815Y-76581454D01*
X137679260Y-76581630D01*
X137681696Y-76581957D01*
X137684117Y-76582435D01*
X137686516Y-76583066D01*
X137688890Y-76583848D01*
X137691231Y-76584783D01*
X137693536Y-76585871D01*
X137695797Y-76587112D01*
X137698011Y-76588508D01*
X137700170Y-76590057D01*
X137702270Y-76591761D01*
X137704305Y-76593620D01*
X137706270Y-76595635D01*
X137708159Y-76597805D01*
X137710106Y-76600318D01*
X137711847Y-76602885D01*
X137713380Y-76605501D01*
X137714705Y-76608160D01*
X137715819Y-76610855D01*
X137716721Y-76613582D01*
X137717410Y-76616334D01*
X137717883Y-76619104D01*
X137718139Y-76621888D01*
X137718176Y-76624679D01*
X137717993Y-76627470D01*
X137717588Y-76630257D01*
X137716959Y-76633033D01*
X137716105Y-76635793D01*
X137715025Y-76638529D01*
X137713716Y-76641237D01*
X137701319Y-76664042D01*
X137688374Y-76686443D01*
X137681632Y-76697442D01*
X137674678Y-76708278D01*
X137667485Y-76718932D01*
X137660028Y-76729384D01*
X137652283Y-76739614D01*
X137644225Y-76749601D01*
X137635827Y-76759325D01*
X137627064Y-76768766D01*
X137617912Y-76777903D01*
X137608345Y-76786717D01*
X137598339Y-76795188D01*
X137587867Y-76803294D01*
X137580793Y-76808326D01*
X137573605Y-76813039D01*
X137566303Y-76817436D01*
X137558890Y-76821521D01*
X137551367Y-76825296D01*
X137543737Y-76828764D01*
X137536000Y-76831928D01*
X137528160Y-76834791D01*
X137520218Y-76837355D01*
X137512175Y-76839624D01*
X137504035Y-76841600D01*
X137495798Y-76843286D01*
X137487466Y-76844685D01*
X137479043Y-76845800D01*
X137470528Y-76846633D01*
X137461925Y-76847188D01*
X137449264Y-76847312D01*
X137436894Y-76846445D01*
X137424846Y-76844606D01*
X137418954Y-76843328D01*
X137413153Y-76841814D01*
X137407448Y-76840067D01*
X137401844Y-76838088D01*
X137390951Y-76833446D01*
X137380505Y-76827908D01*
X137370536Y-76821491D01*
X137361077Y-76814214D01*
X137352157Y-76806097D01*
X137343809Y-76797158D01*
X137336063Y-76787415D01*
X137328950Y-76776888D01*
X137322501Y-76765595D01*
X137316748Y-76753555D01*
X137311721Y-76740786D01*
X137301782Y-76710952D01*
X137292948Y-76680848D01*
X137285126Y-76650501D01*
X137278221Y-76619938D01*
X137272142Y-76589183D01*
X137266793Y-76558263D01*
X137262083Y-76527205D01*
X137257918Y-76496033D01*
X137256471Y-76483898D01*
X137255166Y-76471723D01*
X137252848Y-76447196D01*
X137248472Y-76397040D01*
X137247058Y-76398161D01*
X137245664Y-76399242D01*
X137242951Y-76401322D01*
X137241638Y-76402344D01*
X137240359Y-76403368D01*
X137239117Y-76404406D01*
X137237916Y-76405467D01*
X137173475Y-76463471D01*
X137141146Y-76492339D01*
X137108547Y-76520851D01*
X137107637Y-76521666D01*
X137106797Y-76522480D01*
X137106024Y-76523291D01*
X137105317Y-76524102D01*
X137104672Y-76524912D01*
X137104087Y-76525721D01*
X137103560Y-76526531D01*
X137103088Y-76527341D01*
X137102669Y-76528151D01*
X137102299Y-76528963D01*
X137101977Y-76529776D01*
X137101699Y-76530590D01*
X137101464Y-76531407D01*
X137101269Y-76532227D01*
X137101112Y-76533049D01*
X137100989Y-76533874D01*
X137100837Y-76535535D01*
X137100795Y-76537214D01*
X137100841Y-76538912D01*
X137100955Y-76540632D01*
X137101695Y-76547799D01*
X137108918Y-76617067D01*
X137110599Y-76634379D01*
X137112087Y-76651692D01*
X137113310Y-76669010D01*
X137114196Y-76686335D01*
X137114385Y-76693242D01*
X137114391Y-76700139D01*
X137114212Y-76707023D01*
X137113843Y-76713891D01*
X137113282Y-76720739D01*
X137112523Y-76727564D01*
X137111564Y-76734363D01*
X137110400Y-76741133D01*
X137109027Y-76747871D01*
X137107443Y-76754573D01*
X137105642Y-76761235D01*
X137103622Y-76767856D01*
X137101378Y-76774430D01*
X137098907Y-76780956D01*
X137096205Y-76787430D01*
X137093268Y-76793848D01*
X137090567Y-76799271D01*
X137087762Y-76804461D01*
X137084852Y-76809417D01*
X137081838Y-76814141D01*
X137078720Y-76818632D01*
X137075498Y-76822889D01*
X137072173Y-76826914D01*
X137068745Y-76830705D01*
X137065215Y-76834263D01*
X137061582Y-76837587D01*
X137057848Y-76840678D01*
X137054012Y-76843536D01*
X137050074Y-76846160D01*
X137046036Y-76848550D01*
X137041898Y-76850706D01*
X137037659Y-76852629D01*
X137033320Y-76854318D01*
X137028882Y-76855773D01*
X137024345Y-76856994D01*
X137019709Y-76857981D01*
X137014974Y-76858733D01*
X137010142Y-76859252D01*
X137005211Y-76859536D01*
X137000183Y-76859586D01*
X136995058Y-76859401D01*
X136989836Y-76858982D01*
X136984518Y-76858329D01*
X136979103Y-76857441D01*
X136973593Y-76856318D01*
X136967988Y-76854960D01*
X136962287Y-76853368D01*
X136956491Y-76851541D01*
X136947335Y-76848326D01*
X136938337Y-76844836D01*
X136929488Y-76841085D01*
X136920782Y-76837087D01*
X136912212Y-76832857D01*
X136903768Y-76828408D01*
X136895445Y-76823754D01*
X136887235Y-76818909D01*
X136879130Y-76813888D01*
X136871123Y-76808703D01*
X136855372Y-76797901D01*
X136839923Y-76786615D01*
X136824716Y-76774957D01*
X136822073Y-76772799D01*
X136819565Y-76770562D01*
X136817191Y-76768251D01*
X136814953Y-76765869D01*
X136812852Y-76763419D01*
X136810890Y-76760904D01*
X136809067Y-76758328D01*
X136807384Y-76755694D01*
X136805844Y-76753006D01*
X136804447Y-76750267D01*
X136803194Y-76747480D01*
X136802086Y-76744649D01*
X136801125Y-76741777D01*
X136800312Y-76738868D01*
X136799648Y-76735924D01*
X136799134Y-76732950D01*
X136798771Y-76729948D01*
X136798561Y-76726922D01*
X136798505Y-76723875D01*
X136798604Y-76720812D01*
X136798859Y-76717734D01*
X136799107Y-76715874D01*
X136895458Y-76715874D01*
X136895479Y-76716643D01*
X136895532Y-76717440D01*
X136895614Y-76718263D01*
X136895723Y-76719112D01*
X136895859Y-76719983D01*
X136896021Y-76720876D01*
X136896113Y-76720876D01*
X136939082Y-76745579D01*
X136949851Y-76751678D01*
X136960679Y-76757652D01*
X136971589Y-76763452D01*
X136982606Y-76769031D01*
X136986208Y-76770736D01*
X136989497Y-76772134D01*
X136992497Y-76773216D01*
X136993896Y-76773637D01*
X136995232Y-76773976D01*
X136996508Y-76774233D01*
X136997727Y-76774407D01*
X136998892Y-76774498D01*
X137000007Y-76774503D01*
X137001074Y-76774423D01*
X137002097Y-76774257D01*
X137003078Y-76774003D01*
X137004020Y-76773661D01*
X137004928Y-76773230D01*
X137005803Y-76772709D01*
X137006649Y-76772097D01*
X137007470Y-76771394D01*
X137008267Y-76770599D01*
X137009044Y-76769710D01*
X137009805Y-76768728D01*
X137010552Y-76767650D01*
X137011288Y-76766477D01*
X137012017Y-76765207D01*
X137013465Y-76762373D01*
X137014920Y-76759144D01*
X137016406Y-76755510D01*
X137019939Y-76745704D01*
X137022824Y-76735872D01*
X137025103Y-76726013D01*
X137026820Y-76716127D01*
X137028019Y-76706215D01*
X137028743Y-76696274D01*
X137029037Y-76686306D01*
X137028943Y-76676311D01*
X137028504Y-76666286D01*
X137027766Y-76656234D01*
X137025561Y-76636042D01*
X137022677Y-76615733D01*
X137019462Y-76595305D01*
X137003666Y-76609359D01*
X136988069Y-76623522D01*
X136957371Y-76652129D01*
X136927159Y-76681032D01*
X136897225Y-76710134D01*
X136897039Y-76710322D01*
X136896865Y-76710522D01*
X136896702Y-76710734D01*
X136896550Y-76710957D01*
X136896409Y-76711190D01*
X136896278Y-76711435D01*
X136896157Y-76711690D01*
X136896047Y-76711956D01*
X136895947Y-76712232D01*
X136895856Y-76712517D01*
X136895704Y-76713118D01*
X136895590Y-76713756D01*
X136895512Y-76714429D01*
X136895468Y-76715135D01*
X136895458Y-76715874D01*
X136799107Y-76715874D01*
X136799271Y-76714646D01*
X136799842Y-76711551D01*
X136800572Y-76708451D01*
X136801463Y-76705352D01*
X136802517Y-76702255D01*
X136803733Y-76699165D01*
X136805114Y-76696085D01*
X136806661Y-76693017D01*
X136808375Y-76689966D01*
X136810256Y-76686935D01*
X136812307Y-76683927D01*
X136820986Y-76672144D01*
X136830048Y-76660610D01*
X136839450Y-76649312D01*
X136849152Y-76638239D01*
X136859109Y-76627378D01*
X136869280Y-76616718D01*
X136879623Y-76606247D01*
X136890094Y-76595953D01*
X136902369Y-76584267D01*
X136914864Y-76572804D01*
X136927549Y-76561533D01*
X136940390Y-76550427D01*
X136953357Y-76539455D01*
X136966419Y-76528588D01*
X136992700Y-76507053D01*
X136993730Y-76506196D01*
X136994701Y-76505341D01*
X136995616Y-76504488D01*
X136996475Y-76503636D01*
X136997279Y-76502785D01*
X136998029Y-76501932D01*
X136998727Y-76501079D01*
X136999373Y-76500222D01*
X136999969Y-76499363D01*
X137000515Y-76498499D01*
X137001013Y-76497629D01*
X137001464Y-76496754D01*
X137001869Y-76495872D01*
X137002228Y-76494982D01*
X137002544Y-76494083D01*
X137002817Y-76493174D01*
X137003048Y-76492255D01*
X137003238Y-76491324D01*
X137003389Y-76490381D01*
X137003501Y-76489425D01*
X137003576Y-76488455D01*
X137003614Y-76487469D01*
X137003586Y-76485449D01*
X137003426Y-76483358D01*
X137003142Y-76481189D01*
X137002743Y-76478934D01*
X137002238Y-76476587D01*
X136970104Y-76334138D01*
X136938526Y-76191551D01*
X136931596Y-76157514D01*
X136925780Y-76123393D01*
X136921143Y-76089183D01*
X136917748Y-76054879D01*
X136915660Y-76020475D01*
X136914943Y-75985965D01*
X136915118Y-75968670D01*
X136915660Y-75951345D01*
X136916576Y-75933992D01*
X136917876Y-75916609D01*
X136919119Y-75905352D01*
X136920874Y-75894675D01*
X136923145Y-75884583D01*
X136925939Y-75875078D01*
X136929261Y-75866164D01*
X136933117Y-75857844D01*
X136937511Y-75850122D01*
X136939912Y-75846486D01*
X136942450Y-75843000D01*
X136945126Y-75839666D01*
X136947940Y-75836484D01*
X136950892Y-75833453D01*
X136953985Y-75830575D01*
X136957218Y-75827850D01*
X136960591Y-75825277D01*
X136964107Y-75822859D01*
X136967765Y-75820595D01*
X136971566Y-75818485D01*
X136975510Y-75816530D01*
X136979600Y-75814730D01*
X136983834Y-75813086D01*
X136992741Y-75810268D01*
X137002238Y-75808077D01*
X137010989Y-75806655D01*
X137019565Y-75805763D01*
X137027960Y-75805405D01*
X137036170Y-75805588D01*
X137044191Y-75806319D01*
X137052018Y-75807602D01*
X137059647Y-75809444D01*
X137067072Y-75811851D01*
X137074291Y-75814828D01*
X137081298Y-75818383D01*
X137088088Y-75822520D01*
X137094658Y-75827246D01*
X137101003Y-75832567D01*
X137107118Y-75838488D01*
X137112999Y-75845016D01*
X137118641Y-75852157D01*
X137124245Y-75860045D01*
X137129468Y-75868079D01*
X137134328Y-75876251D01*
X137138841Y-75884557D01*
X137143024Y-75892988D01*
X137146894Y-75901538D01*
X137150467Y-75910201D01*
X137153761Y-75918971D01*
X137156793Y-75927840D01*
X137159579Y-75936803D01*
X137162136Y-75945852D01*
X137164480Y-75954982D01*
X137166630Y-75964186D01*
X137168601Y-75973457D01*
X137172074Y-75992174D01*
X137172675Y-75995928D01*
X137173234Y-75999701D01*
X137174273Y-76007384D01*
X137176334Y-76023845D01*
X137176426Y-76023567D01*
X137181647Y-76064822D01*
X137184097Y-76084955D01*
X137186242Y-76104966D01*
X137186407Y-76107257D01*
X137186451Y-76109528D01*
X137186378Y-76111774D01*
X137186190Y-76113993D01*
X137185891Y-76116183D01*
X137185482Y-76118340D01*
X137184968Y-76120460D01*
X137184350Y-76122542D01*
X137183632Y-76124582D01*
X137182816Y-76126577D01*
X137181905Y-76128524D01*
X137180903Y-76130420D01*
X137179812Y-76132262D01*
X137178635Y-76134048D01*
X137177374Y-76135773D01*
X137176033Y-76137435D01*
X137174614Y-76139032D01*
X137173121Y-76140560D01*
X137171555Y-76142015D01*
X137169921Y-76143396D01*
X137168220Y-76144699D01*
X137166456Y-76145921D01*
X137164632Y-76147058D01*
X137162750Y-76148109D01*
X137160813Y-76149071D01*
X137158824Y-76149939D01*
X137156786Y-76150711D01*
X137154702Y-76151384D01*
X137152574Y-76151955D01*
X137150406Y-76152422D01*
X137148200Y-76152780D01*
X137145960Y-76153028D01*
X137143858Y-76153150D01*
X137141775Y-76153155D01*
X137139713Y-76153045D01*
X137137674Y-76152822D01*
X137135661Y-76152490D01*
X137133676Y-76152052D01*
X137131722Y-76151509D01*
X137129802Y-76150864D01*
X137127917Y-76150122D01*
X137126071Y-76149283D01*
X137124266Y-76148351D01*
X137122504Y-76147329D01*
X137120789Y-76146219D01*
X137119122Y-76145024D01*
X137117506Y-76143746D01*
X137115944Y-76142390D01*
X137114438Y-76140956D01*
X137112991Y-76139449D01*
X137111605Y-76137870D01*
X137110283Y-76136222D01*
X137109026Y-76134509D01*
X137107839Y-76132733D01*
X137106723Y-76130896D01*
X137105681Y-76129001D01*
X137104715Y-76127052D01*
X137103828Y-76125050D01*
X137103023Y-76122999D01*
X137102302Y-76120901D01*
X137101667Y-76118759D01*
X137101121Y-76116576D01*
X137100666Y-76114354D01*
X137100306Y-76112097D01*
X137090409Y-76038789D01*
X137087709Y-76020497D01*
X137084796Y-76002252D01*
X137081607Y-75984070D01*
X137078081Y-75965967D01*
X137077163Y-75961975D01*
X137076056Y-75958020D01*
X137074776Y-75954097D01*
X137073342Y-75950204D01*
X137071772Y-75946339D01*
X137070083Y-75942498D01*
X137066424Y-75934875D01*
X137062509Y-75927314D01*
X137058482Y-75919790D01*
X137054487Y-75912278D01*
X137050670Y-75904756D01*
X137049981Y-75903421D01*
X137049253Y-75902160D01*
X137048486Y-75900971D01*
X137047683Y-75899853D01*
X137046846Y-75898805D01*
X137045975Y-75897827D01*
X137045073Y-75896917D01*
X137044141Y-75896074D01*
X137043181Y-75895298D01*
X137042194Y-75894586D01*
X137041183Y-75893939D01*
X137040148Y-75893355D01*
X137039091Y-75892833D01*
X137038014Y-75892372D01*
X137036919Y-75891971D01*
X137035807Y-75891629D01*
X137034680Y-75891346D01*
X137033539Y-75891119D01*
X137032386Y-75890948D01*
X137031223Y-75890833D01*
X137030051Y-75890771D01*
X137028872Y-75890762D01*
X137027688Y-75890806D01*
X137026500Y-75890900D01*
X137025310Y-75891044D01*
X137024119Y-75891237D01*
X137022930Y-75891478D01*
X137021743Y-75891766D01*
X137020560Y-75892100D01*
X137019383Y-75892478D01*
X137018214Y-75892900D01*
X137017055Y-75893366D01*
X137016466Y-75893636D01*
X137015881Y-75893960D01*
X137015300Y-75894335D01*
X137014725Y-75894758D01*
X137014157Y-75895227D01*
X137013596Y-75895739D01*
X137013044Y-75896292D01*
X137012501Y-75896883D01*
X137011969Y-75897510D01*
X137011448Y-75898170D01*
X137010444Y-75899579D01*
X137009498Y-75901090D01*
X137008616Y-75902684D01*
X137007807Y-75904339D01*
X137007079Y-75906036D01*
X137006439Y-75907755D01*
X137005894Y-75909474D01*
X137005454Y-75911175D01*
X137005124Y-75912837D01*
X137004914Y-75914439D01*
X137004856Y-75915211D01*
X137004831Y-75915961D01*
X137002365Y-75995716D01*
X137002245Y-76015612D01*
X137002786Y-76035403D01*
X137003377Y-76045246D01*
X137004219Y-76055047D01*
X137005343Y-76064800D01*
X137006775Y-76074499D01*
X137014458Y-76119152D01*
X137022708Y-76163771D01*
X137040472Y-76253191D01*
X137077988Y-76434730D01*
X137088219Y-76425922D01*
X137097400Y-76418096D01*
X137101670Y-76414412D01*
X137105765Y-76410807D01*
X137109715Y-76407227D01*
X137113548Y-76403615D01*
X137178498Y-76340910D01*
X137210787Y-76309371D01*
X137242823Y-76277580D01*
X137243975Y-76276347D01*
X137245067Y-76275014D01*
X137246099Y-76273592D01*
X137247070Y-76272089D01*
X137247980Y-76270515D01*
X137248828Y-76268880D01*
X137249614Y-76267192D01*
X137250336Y-76265461D01*
X137250994Y-76263696D01*
X137251587Y-76261907D01*
X137252115Y-76260103D01*
X137252577Y-76258294D01*
X137252972Y-76256488D01*
X137253300Y-76254696D01*
X137253560Y-76252926D01*
X137253751Y-76251188D01*
X137262338Y-76168717D01*
X137265676Y-76143119D01*
X137353856Y-76143119D01*
X137357665Y-76139700D01*
X137361326Y-76136150D01*
X137364853Y-76132479D01*
X137368263Y-76128694D01*
X137371572Y-76124805D01*
X137374794Y-76120820D01*
X137377948Y-76116746D01*
X137381047Y-76112594D01*
X137405807Y-76077555D01*
X137405899Y-76077648D01*
X137415380Y-76063094D01*
X137424161Y-76048790D01*
X137432236Y-76034756D01*
X137439597Y-76021010D01*
X137446239Y-76007574D01*
X137452154Y-75994465D01*
X137457334Y-75981705D01*
X137461775Y-75969312D01*
X137465467Y-75957307D01*
X137468405Y-75945709D01*
X137470581Y-75934538D01*
X137471988Y-75923813D01*
X137472621Y-75913555D01*
X137472471Y-75903782D01*
X137471532Y-75894514D01*
X137469796Y-75885772D01*
X137464899Y-75887573D01*
X137460070Y-75889797D01*
X137455312Y-75892443D01*
X137450624Y-75895508D01*
X137446010Y-75898990D01*
X137441469Y-75902887D01*
X137437004Y-75907197D01*
X137432616Y-75911918D01*
X137428306Y-75917048D01*
X137424075Y-75922585D01*
X137419925Y-75928526D01*
X137415857Y-75934870D01*
X137411873Y-75941614D01*
X137407974Y-75948757D01*
X137404161Y-75956297D01*
X137400436Y-75964231D01*
X137396800Y-75972557D01*
X137393254Y-75981273D01*
X137389799Y-75990378D01*
X137386438Y-75999869D01*
X137380000Y-76020000D01*
X137373951Y-76041651D01*
X137368301Y-76064805D01*
X137363061Y-76089445D01*
X137358243Y-76115555D01*
X137353856Y-76143119D01*
X137265676Y-76143119D01*
X137267686Y-76127704D01*
X137274321Y-76086966D01*
X137278256Y-76066730D01*
X137282678Y-76046597D01*
X137287639Y-76026580D01*
X137293196Y-76006691D01*
X137299402Y-75986942D01*
X137306312Y-75967343D01*
X137313981Y-75947908D01*
X137322463Y-75928648D01*
X137329712Y-75913704D01*
X137333533Y-75906370D01*
X137337501Y-75899142D01*
X137341631Y-75892031D01*
X137345934Y-75885049D01*
X137350426Y-75878205D01*
X137355118Y-75871511D01*
X137360023Y-75864978D01*
X137365156Y-75858616D01*
X137370529Y-75852436D01*
X137376155Y-75846450D01*
X137382047Y-75840668D01*
X137388219Y-75835100D01*
X137394684Y-75829758D01*
X137401454Y-75824653D01*
X137405455Y-75821867D01*
X137409504Y-75819209D01*
X137413605Y-75816683D01*
X137417759Y-75814296D01*
X137421966Y-75812053D01*
X137426230Y-75809961D01*
X137430551Y-75808024D01*
X137434931Y-75806248D01*
X137439372Y-75804640D01*
X137443875Y-75803204D01*
X137448442Y-75801947D01*
X137453075Y-75800874D01*
X137457776Y-75799991D01*
X137462545Y-75799304D01*
X137467385Y-75798818D01*
X137472297Y-75798539D01*
X137476366Y-75798461D01*
X137480361Y-75798540D01*
G37*
G36*
X137962492Y-75576503D02*
G01*
X137964341Y-75576605D01*
X137966207Y-75576791D01*
X137968088Y-75577063D01*
X137969985Y-75577420D01*
X137971896Y-75577863D01*
X137973781Y-75578384D01*
X137975616Y-75578975D01*
X137977401Y-75579634D01*
X137979134Y-75580361D01*
X137980815Y-75581155D01*
X137982443Y-75582016D01*
X137984017Y-75582943D01*
X137985538Y-75583935D01*
X137987004Y-75584991D01*
X137988414Y-75586112D01*
X137989768Y-75587295D01*
X137991065Y-75588542D01*
X137992305Y-75589850D01*
X137993486Y-75591219D01*
X137994609Y-75592649D01*
X137995672Y-75594138D01*
X137996675Y-75595687D01*
X137997617Y-75597294D01*
X137998498Y-75598959D01*
X137999316Y-75600681D01*
X138000071Y-75602460D01*
X138000762Y-75604294D01*
X138001390Y-75606184D01*
X138001952Y-75608127D01*
X138002449Y-75610125D01*
X138002879Y-75612175D01*
X138003242Y-75614278D01*
X138003538Y-75616433D01*
X138003765Y-75618638D01*
X138003923Y-75620894D01*
X138004012Y-75623200D01*
X138004030Y-75625554D01*
X138001066Y-75911701D01*
X137998207Y-76145098D01*
X137996391Y-76261784D01*
X137993751Y-76378426D01*
X137990790Y-76460573D01*
X137986736Y-76542694D01*
X137976804Y-76706893D01*
X137958932Y-76915067D01*
X137957928Y-76931783D01*
X137957136Y-76948519D01*
X137956550Y-76965271D01*
X137956165Y-76982032D01*
X137955975Y-76998797D01*
X137955976Y-77015562D01*
X137956160Y-77032320D01*
X137956524Y-77049065D01*
X137956548Y-77052030D01*
X137956448Y-77054914D01*
X137956229Y-77057717D01*
X137955894Y-77060438D01*
X137955445Y-77063077D01*
X137954888Y-77065632D01*
X137954226Y-77068102D01*
X137953461Y-77070488D01*
X137952598Y-77072787D01*
X137951640Y-77074999D01*
X137950591Y-77077123D01*
X137949454Y-77079159D01*
X137948234Y-77081105D01*
X137946933Y-77082960D01*
X137945555Y-77084725D01*
X137944103Y-77086397D01*
X137942582Y-77087976D01*
X137940995Y-77089461D01*
X137939346Y-77090851D01*
X137937637Y-77092146D01*
X137935873Y-77093344D01*
X137934057Y-77094444D01*
X137932193Y-77095447D01*
X137930284Y-77096350D01*
X137928334Y-77097154D01*
X137926346Y-77097856D01*
X137924325Y-77098457D01*
X137922273Y-77098955D01*
X137920194Y-77099350D01*
X137918092Y-77099641D01*
X137915971Y-77099826D01*
X137913834Y-77099905D01*
X137911480Y-77099876D01*
X137909179Y-77099737D01*
X137906930Y-77099489D01*
X137904735Y-77099134D01*
X137902596Y-77098674D01*
X137900514Y-77098109D01*
X137898489Y-77097442D01*
X137896524Y-77096673D01*
X137894619Y-77095804D01*
X137892775Y-77094836D01*
X137890995Y-77093771D01*
X137889278Y-77092609D01*
X137887627Y-77091354D01*
X137886042Y-77090005D01*
X137884525Y-77088564D01*
X137883077Y-77087033D01*
X137881700Y-77085413D01*
X137880394Y-77083706D01*
X137879160Y-77081912D01*
X137878001Y-77080033D01*
X137876917Y-77078071D01*
X137875909Y-77076027D01*
X137874979Y-77073903D01*
X137874128Y-77071699D01*
X137873357Y-77069417D01*
X137872668Y-77067058D01*
X137872061Y-77064625D01*
X137871538Y-77062118D01*
X137871100Y-77059539D01*
X137870748Y-77056888D01*
X137870485Y-77054169D01*
X137870310Y-77051381D01*
X137870155Y-77049203D01*
X137869974Y-77046947D01*
X137869569Y-77042028D01*
X137850746Y-77038443D01*
X137831918Y-77035576D01*
X137813079Y-77033379D01*
X137794224Y-77031807D01*
X137775347Y-77030811D01*
X137756443Y-77030347D01*
X137737506Y-77030366D01*
X137718531Y-77030822D01*
X137596097Y-77034191D01*
X137473593Y-77037212D01*
X137296673Y-77043359D01*
X137208222Y-77046002D01*
X137119753Y-77047214D01*
X137005766Y-77046723D01*
X136891761Y-77045095D01*
X136663770Y-77040824D01*
X136661807Y-77040814D01*
X136659910Y-77040860D01*
X136658073Y-77040967D01*
X136656294Y-77041145D01*
X136654567Y-77041400D01*
X136652888Y-77041739D01*
X136651254Y-77042169D01*
X136649659Y-77042699D01*
X136648101Y-77043335D01*
X136646574Y-77044085D01*
X136645074Y-77044955D01*
X136643598Y-77045955D01*
X136642141Y-77047089D01*
X136640698Y-77048367D01*
X136639266Y-77049795D01*
X136637841Y-77051381D01*
X136636531Y-77052833D01*
X136635172Y-77054205D01*
X136633768Y-77055495D01*
X136632320Y-77056705D01*
X136630831Y-77057834D01*
X136629304Y-77058882D01*
X136627740Y-77059851D01*
X136626144Y-77060739D01*
X136624516Y-77061548D01*
X136622860Y-77062277D01*
X136621178Y-77062927D01*
X136619473Y-77063498D01*
X136617746Y-77063990D01*
X136616002Y-77064403D01*
X136614241Y-77064737D01*
X136612467Y-77064993D01*
X136610682Y-77065171D01*
X136608889Y-77065272D01*
X136607090Y-77065294D01*
X136605288Y-77065239D01*
X136603485Y-77065106D01*
X136601684Y-77064897D01*
X136599887Y-77064610D01*
X136598096Y-77064247D01*
X136596315Y-77063807D01*
X136594546Y-77063291D01*
X136592790Y-77062699D01*
X136591052Y-77062031D01*
X136589333Y-77061287D01*
X136587635Y-77060468D01*
X136585962Y-77059573D01*
X136584316Y-77058604D01*
X136582057Y-77057100D01*
X136579884Y-77055423D01*
X136577796Y-77053584D01*
X136575795Y-77051591D01*
X136573882Y-77049454D01*
X136572057Y-77047181D01*
X136570322Y-77044782D01*
X136568677Y-77042266D01*
X136567123Y-77039643D01*
X136565661Y-77036920D01*
X136563017Y-77031216D01*
X136560752Y-77025227D01*
X136558873Y-77019027D01*
X136557386Y-77012689D01*
X136556299Y-77006287D01*
X136555619Y-76999894D01*
X136555354Y-76993583D01*
X136555509Y-76987427D01*
X136556092Y-76981501D01*
X136556547Y-76978647D01*
X136557111Y-76975878D01*
X136557785Y-76973202D01*
X136558572Y-76970630D01*
X136559857Y-76966483D01*
X136560977Y-76962277D01*
X136561943Y-76958036D01*
X136649046Y-76958036D01*
X136764060Y-76958036D01*
X137056330Y-76960906D01*
X137129406Y-76961212D01*
X137202487Y-76960640D01*
X137275575Y-76958836D01*
X137348670Y-76955443D01*
X137387268Y-76953479D01*
X137425893Y-76952028D01*
X137503203Y-76950210D01*
X137657875Y-76947756D01*
X137720430Y-76945939D01*
X137751715Y-76945321D01*
X137767353Y-76945264D01*
X137782984Y-76945441D01*
X137793813Y-76945833D01*
X137804628Y-76946544D01*
X137815424Y-76947502D01*
X137826195Y-76948636D01*
X137847640Y-76951145D01*
X137868920Y-76953498D01*
X137883829Y-76774031D01*
X137884015Y-76774031D01*
X137895796Y-76639535D01*
X137903776Y-76504903D01*
X137908788Y-76370136D01*
X137911669Y-76235237D01*
X137914370Y-75965050D01*
X137918556Y-75694359D01*
X137832920Y-75687622D01*
X137791509Y-75684749D01*
X137770973Y-75683686D01*
X137750480Y-75682969D01*
X137729709Y-75682663D01*
X137708932Y-75682678D01*
X137667367Y-75683420D01*
X137584255Y-75686025D01*
X137508302Y-75688979D01*
X137432315Y-75692438D01*
X137394330Y-75693840D01*
X137356362Y-75694750D01*
X137318420Y-75694961D01*
X137280513Y-75694267D01*
X137210021Y-75692698D01*
X137139593Y-75692400D01*
X137069218Y-75693208D01*
X136998881Y-75694961D01*
X136858273Y-75700648D01*
X136717665Y-75708157D01*
X136714602Y-75708393D01*
X136711797Y-75708757D01*
X136710489Y-75708989D01*
X136709241Y-75709257D01*
X136708054Y-75709560D01*
X136706925Y-75709899D01*
X136705854Y-75710276D01*
X136704839Y-75710692D01*
X136703879Y-75711146D01*
X136702974Y-75711641D01*
X136702122Y-75712176D01*
X136701322Y-75712754D01*
X136700573Y-75713374D01*
X136699874Y-75714038D01*
X136699223Y-75714746D01*
X136698619Y-75715499D01*
X136698062Y-75716299D01*
X136697550Y-75717146D01*
X136697082Y-75718041D01*
X136696657Y-75718985D01*
X136696274Y-75719979D01*
X136695931Y-75721023D01*
X136695628Y-75722119D01*
X136695363Y-75723268D01*
X136694943Y-75725725D01*
X136694663Y-75728403D01*
X136694514Y-75731308D01*
X136685254Y-76070888D01*
X136681399Y-76216554D01*
X136676920Y-76362220D01*
X136670692Y-76513165D01*
X136663770Y-76664110D01*
X136654046Y-76873025D01*
X136652978Y-76893366D01*
X136651754Y-76914072D01*
X136649046Y-76958036D01*
X136561943Y-76958036D01*
X136561947Y-76958017D01*
X136562779Y-76953709D01*
X136563488Y-76949359D01*
X136564087Y-76944972D01*
X136565008Y-76936112D01*
X136565651Y-76927173D01*
X136566125Y-76918201D01*
X136566999Y-76900343D01*
X136571988Y-76807299D01*
X136576629Y-76713005D01*
X136576537Y-76713005D01*
X136610430Y-75713528D01*
X136600058Y-75713598D01*
X136595480Y-75713606D01*
X136593267Y-75713581D01*
X136591075Y-75713528D01*
X136589117Y-75713407D01*
X136587184Y-75713201D01*
X136585279Y-75712911D01*
X136583403Y-75712539D01*
X136581558Y-75712088D01*
X136579745Y-75711558D01*
X136577968Y-75710951D01*
X136576227Y-75710270D01*
X136574524Y-75709515D01*
X136572861Y-75708689D01*
X136571240Y-75707792D01*
X136569663Y-75706828D01*
X136568131Y-75705797D01*
X136566647Y-75704702D01*
X136565211Y-75703543D01*
X136563827Y-75702323D01*
X136562495Y-75701043D01*
X136561217Y-75699706D01*
X136559996Y-75698312D01*
X136558832Y-75696863D01*
X136557729Y-75695362D01*
X136556687Y-75693809D01*
X136555708Y-75692207D01*
X136554795Y-75690557D01*
X136553949Y-75688860D01*
X136553171Y-75687120D01*
X136552464Y-75685337D01*
X136551830Y-75683512D01*
X136551269Y-75681648D01*
X136550785Y-75679747D01*
X136550379Y-75677810D01*
X136550052Y-75675838D01*
X136549838Y-75674047D01*
X136549717Y-75672251D01*
X136549687Y-75670454D01*
X136549746Y-75668659D01*
X136549892Y-75666868D01*
X136550123Y-75665085D01*
X136550437Y-75663311D01*
X136550833Y-75661551D01*
X136551309Y-75659807D01*
X136551863Y-75658082D01*
X136553197Y-75654700D01*
X136554820Y-75651428D01*
X136556719Y-75648289D01*
X136558879Y-75645306D01*
X136561284Y-75642503D01*
X136563920Y-75639902D01*
X136565320Y-75638684D01*
X136566773Y-75637526D01*
X136568276Y-75636430D01*
X136569827Y-75635399D01*
X136571426Y-75634436D01*
X136573069Y-75633544D01*
X136574755Y-75632725D01*
X136576483Y-75631983D01*
X136578251Y-75631320D01*
X136580056Y-75630740D01*
X136582190Y-75630138D01*
X136584354Y-75629588D01*
X136586542Y-75629099D01*
X136588749Y-75628680D01*
X136590968Y-75628338D01*
X136593195Y-75628084D01*
X136594310Y-75627991D01*
X136595424Y-75627924D01*
X136596538Y-75627883D01*
X136597650Y-75627869D01*
X136602965Y-75627783D01*
X136605574Y-75627660D01*
X136608152Y-75627471D01*
X136610701Y-75627208D01*
X136613222Y-75626859D01*
X136615716Y-75626415D01*
X136618185Y-75625867D01*
X136620630Y-75625205D01*
X136623053Y-75624419D01*
X136625455Y-75623501D01*
X136627836Y-75622439D01*
X136630200Y-75621225D01*
X136632546Y-75619849D01*
X136634876Y-75618301D01*
X136637192Y-75616572D01*
X136638388Y-75615679D01*
X136639598Y-75614859D01*
X136640819Y-75614110D01*
X136642053Y-75613429D01*
X136643299Y-75612817D01*
X136644555Y-75612270D01*
X136645822Y-75611787D01*
X136647099Y-75611367D01*
X136648386Y-75611008D01*
X136649682Y-75610709D01*
X136650987Y-75610468D01*
X136652300Y-75610283D01*
X136654948Y-75610077D01*
X136657623Y-75610078D01*
X136660321Y-75610273D01*
X136663037Y-75610649D01*
X136665769Y-75611195D01*
X136668511Y-75611897D01*
X136671261Y-75612742D01*
X136674013Y-75613719D01*
X136676765Y-75614815D01*
X136679512Y-75616016D01*
X136682833Y-75617450D01*
X136686252Y-75618807D01*
X136687991Y-75619444D01*
X136689745Y-75620045D01*
X136691511Y-75620606D01*
X136693287Y-75621121D01*
X136695070Y-75621585D01*
X136696856Y-75621993D01*
X136698642Y-75622339D01*
X136700426Y-75622618D01*
X136702205Y-75622826D01*
X136703975Y-75622955D01*
X136705734Y-75623002D01*
X136707479Y-75622961D01*
X136851200Y-75615044D01*
X136923053Y-75611319D01*
X136958984Y-75609858D01*
X136994922Y-75608793D01*
X137032435Y-75608190D01*
X137069962Y-75608029D01*
X137145045Y-75608515D01*
X137220146Y-75609210D01*
X137295237Y-75609071D01*
X137366287Y-75607848D01*
X137437327Y-75605957D01*
X137579347Y-75600829D01*
X137660655Y-75598025D01*
X137701288Y-75597290D01*
X137741902Y-75597287D01*
X137782495Y-75598230D01*
X137823062Y-75600334D01*
X137863602Y-75603814D01*
X137904110Y-75608886D01*
X137905648Y-75609066D01*
X137907212Y-75609197D01*
X137908811Y-75609291D01*
X137910453Y-75609360D01*
X137913903Y-75609472D01*
X137915727Y-75609538D01*
X137917630Y-75609626D01*
X137918032Y-75609062D01*
X137918466Y-75608479D01*
X137919390Y-75607253D01*
X137919857Y-75606609D01*
X137920087Y-75606278D01*
X137920313Y-75605941D01*
X137920533Y-75605598D01*
X137920747Y-75605250D01*
X137920953Y-75604895D01*
X137921149Y-75604533D01*
X137922312Y-75602478D01*
X137923509Y-75600499D01*
X137924738Y-75598595D01*
X137926000Y-75596767D01*
X137927293Y-75595015D01*
X137928618Y-75593340D01*
X137929973Y-75591742D01*
X137931357Y-75590221D01*
X137932771Y-75588779D01*
X137934214Y-75587414D01*
X137935684Y-75586127D01*
X137937181Y-75584920D01*
X137938706Y-75583791D01*
X137940256Y-75582742D01*
X137941832Y-75581773D01*
X137943432Y-75580884D01*
X137945057Y-75580076D01*
X137946705Y-75579349D01*
X137948376Y-75578703D01*
X137950069Y-75578138D01*
X137951784Y-75577656D01*
X137953520Y-75577256D01*
X137955276Y-75576938D01*
X137957052Y-75576704D01*
X137958847Y-75576553D01*
X137960661Y-75576486D01*
X137962492Y-75576503D01*
G37*
G04 #@! TO.C,U4*
G36*
X123059200Y-62737750D02*
G01*
X123922800Y-62737750D01*
X123922800Y-61834150D01*
X123059200Y-61834150D01*
X123059200Y-62737750D01*
G37*
G36*
X123059200Y-65277750D02*
G01*
X123922800Y-65277750D01*
X123922800Y-64374150D01*
X123059200Y-64374150D01*
X123059200Y-65277750D01*
G37*
G36*
X123059200Y-67817750D02*
G01*
X123922800Y-67817750D01*
X123922800Y-66914150D01*
X123059200Y-66914150D01*
X123059200Y-67817750D01*
G37*
G36*
X123059200Y-70357750D02*
G01*
X123922800Y-70357750D01*
X123922800Y-69454150D01*
X123059200Y-69454150D01*
X123059200Y-70357750D01*
G37*
G36*
X123059200Y-72897750D02*
G01*
X123922800Y-72897750D01*
X123922800Y-71994150D01*
X123059200Y-71994150D01*
X123059200Y-72897750D01*
G37*
G36*
X123059200Y-75437750D02*
G01*
X123922800Y-75437750D01*
X123922800Y-74534150D01*
X123059200Y-74534150D01*
X123059200Y-75437750D01*
G37*
G36*
X123059200Y-77977750D02*
G01*
X123922800Y-77977750D01*
X123922800Y-77074150D01*
X123059200Y-77074150D01*
X123059200Y-77977750D01*
G37*
G36*
X140077200Y-62737750D02*
G01*
X140940800Y-62737750D01*
X140940800Y-61834150D01*
X140077200Y-61834150D01*
X140077200Y-62737750D01*
G37*
G36*
X140077200Y-65277750D02*
G01*
X140940800Y-65277750D01*
X140940800Y-64374150D01*
X140077200Y-64374150D01*
X140077200Y-65277750D01*
G37*
G36*
X140077200Y-67817750D02*
G01*
X140940800Y-67817750D01*
X140940800Y-66914150D01*
X140077200Y-66914150D01*
X140077200Y-67817750D01*
G37*
G36*
X140077200Y-70357750D02*
G01*
X140940800Y-70357750D01*
X140940800Y-69454150D01*
X140077200Y-69454150D01*
X140077200Y-70357750D01*
G37*
G36*
X140077200Y-72897750D02*
G01*
X140940800Y-72897750D01*
X140940800Y-71994150D01*
X140077200Y-71994150D01*
X140077200Y-72897750D01*
G37*
G36*
X140077200Y-75437750D02*
G01*
X140940800Y-75437750D01*
X140940800Y-74534150D01*
X140077200Y-74534150D01*
X140077200Y-75437750D01*
G37*
G36*
X140077200Y-77977750D02*
G01*
X140940800Y-77977750D01*
X140940800Y-77074150D01*
X140077200Y-77074150D01*
X140077200Y-77977750D01*
G37*
G36*
X123624629Y-63124681D02*
G01*
X123745178Y-63186105D01*
X123843780Y-63284707D01*
X123922800Y-63527904D01*
X123922800Y-63579948D01*
X123902269Y-63709579D01*
X123840845Y-63830128D01*
X123742243Y-63928730D01*
X123499046Y-64007750D01*
X123059200Y-64007750D01*
X123059200Y-63104150D01*
X123494998Y-63104150D01*
X123624629Y-63124681D01*
G37*
G36*
X123624629Y-65664681D02*
G01*
X123745178Y-65726105D01*
X123843780Y-65824707D01*
X123922800Y-66067904D01*
X123922800Y-66119948D01*
X123902269Y-66249579D01*
X123840845Y-66370128D01*
X123742243Y-66468730D01*
X123499046Y-66547750D01*
X123059200Y-66547750D01*
X123059200Y-65644150D01*
X123494998Y-65644150D01*
X123624629Y-65664681D01*
G37*
G36*
X123624629Y-68204681D02*
G01*
X123745178Y-68266105D01*
X123843780Y-68364707D01*
X123922800Y-68607904D01*
X123922800Y-68659948D01*
X123902269Y-68789579D01*
X123840845Y-68910128D01*
X123742243Y-69008730D01*
X123499046Y-69087750D01*
X123059200Y-69087750D01*
X123059200Y-68184150D01*
X123494998Y-68184150D01*
X123624629Y-68204681D01*
G37*
G36*
X123624629Y-70744681D02*
G01*
X123745178Y-70806105D01*
X123843780Y-70904707D01*
X123922800Y-71147904D01*
X123922800Y-71199948D01*
X123902269Y-71329579D01*
X123840845Y-71450128D01*
X123742243Y-71548730D01*
X123499046Y-71627750D01*
X123059200Y-71627750D01*
X123059200Y-70724150D01*
X123494998Y-70724150D01*
X123624629Y-70744681D01*
G37*
G36*
X123624629Y-73284681D02*
G01*
X123745178Y-73346105D01*
X123843780Y-73444707D01*
X123922800Y-73687904D01*
X123922800Y-73739948D01*
X123902269Y-73869579D01*
X123840845Y-73990128D01*
X123742243Y-74088730D01*
X123499046Y-74167750D01*
X123059200Y-74167750D01*
X123059200Y-73264150D01*
X123494998Y-73264150D01*
X123624629Y-73284681D01*
G37*
G36*
X123624629Y-75824681D02*
G01*
X123745178Y-75886105D01*
X123843780Y-75984707D01*
X123922800Y-76227904D01*
X123922800Y-76279948D01*
X123902269Y-76409579D01*
X123840845Y-76530128D01*
X123742243Y-76628730D01*
X123499046Y-76707750D01*
X123059200Y-76707750D01*
X123059200Y-75804150D01*
X123494998Y-75804150D01*
X123624629Y-75824681D01*
G37*
G36*
X140940800Y-71627750D02*
G01*
X140505002Y-71627750D01*
X140375371Y-71607219D01*
X140254822Y-71545795D01*
X140156220Y-71447193D01*
X140077200Y-71203996D01*
X140077200Y-71151952D01*
X140097731Y-71022321D01*
X140159155Y-70901772D01*
X140257757Y-70803170D01*
X140500954Y-70724150D01*
X140940800Y-70724150D01*
X140940800Y-71627750D01*
G37*
G36*
X140940800Y-74167750D02*
G01*
X140505002Y-74167750D01*
X140375371Y-74147219D01*
X140254822Y-74085795D01*
X140156220Y-73987193D01*
X140077200Y-73743996D01*
X140077200Y-73691952D01*
X140097731Y-73562321D01*
X140159155Y-73441772D01*
X140257757Y-73343170D01*
X140500954Y-73264150D01*
X140940800Y-73264150D01*
X140940800Y-74167750D01*
G37*
G36*
X140940800Y-76707750D02*
G01*
X140505002Y-76707750D01*
X140375371Y-76687219D01*
X140254822Y-76625795D01*
X140156220Y-76527193D01*
X140077200Y-76283996D01*
X140077200Y-76231952D01*
X140097731Y-76102321D01*
X140159155Y-75981772D01*
X140257757Y-75883170D01*
X140500954Y-75804150D01*
X140940800Y-75804150D01*
X140940800Y-76707750D01*
G37*
G04 #@! TD*
D17*
G04 #@! TO.C,C3*
X136880000Y-69120000D03*
X137520000Y-69120000D03*
G04 #@! TD*
D18*
G04 #@! TO.C,D4*
X138483000Y-61300000D03*
X137717000Y-61300000D03*
G04 #@! TD*
D19*
G04 #@! TO.C,C16*
X133380000Y-75880000D03*
X132740000Y-75880000D03*
G04 #@! TD*
D20*
G04 #@! TO.C,C15*
X131500000Y-73100000D03*
X131500000Y-73740000D03*
G04 #@! TD*
G04 #@! TO.C,C11*
X127400000Y-75700000D03*
X127400000Y-76340000D03*
G04 #@! TD*
D17*
G04 #@! TO.C,R20*
X133900000Y-70120000D03*
X134540000Y-70120000D03*
G04 #@! TD*
D21*
G04 #@! TO.C,C21*
X134380000Y-72820000D03*
X133420000Y-72820000D03*
G04 #@! TD*
D19*
G04 #@! TO.C,R16*
X137540000Y-67720000D03*
X136900000Y-67720000D03*
G04 #@! TD*
D22*
G04 #@! TO.C,R11*
X130200000Y-68640000D03*
X130200000Y-68000000D03*
G04 #@! TD*
D23*
G04 #@! TO.C,D2*
X133850000Y-69240000D03*
X134550000Y-69240000D03*
G04 #@! TD*
D20*
G04 #@! TO.C,C18*
X130400000Y-75700000D03*
X130400000Y-76340000D03*
G04 #@! TD*
D17*
G04 #@! TO.C,C1*
X127430000Y-70320000D03*
X128070000Y-70320000D03*
G04 #@! TD*
D22*
G04 #@! TO.C,R5*
X133860000Y-68390000D03*
X133860000Y-67750000D03*
G04 #@! TD*
G04 #@! TO.C,R15*
X136000000Y-74190000D03*
X136000000Y-73550000D03*
G04 #@! TD*
D24*
G04 #@! TO.C,Q2*
X135325000Y-68645000D03*
X135325000Y-68995000D03*
D25*
X135975000Y-68820000D03*
G04 #@! TD*
D21*
G04 #@! TO.C,C17*
X133680000Y-76760000D03*
X132720000Y-76760000D03*
G04 #@! TD*
D19*
G04 #@! TO.C,C20*
X134560000Y-70820000D03*
X133920000Y-70820000D03*
G04 #@! TD*
D26*
G04 #@! TO.C,SW2*
X126636000Y-78696400D03*
X126636000Y-79446400D03*
X129236000Y-78696400D03*
X129236000Y-79446400D03*
G04 #@! TD*
D20*
G04 #@! TO.C,C10*
X126400000Y-67900000D03*
X126400000Y-68540000D03*
G04 #@! TD*
D27*
G04 #@! TO.C,J1*
X134920000Y-64530000D03*
X129140000Y-64530000D03*
D28*
X135380000Y-65625000D03*
X134580000Y-65625000D03*
X133280000Y-65625000D03*
X132280000Y-65625000D03*
X131780000Y-65625000D03*
X130780000Y-65625000D03*
X129480000Y-65625000D03*
X128680000Y-65625000D03*
X128980000Y-65625000D03*
X129780000Y-65625000D03*
X130280000Y-65625000D03*
X131280000Y-65625000D03*
X132780000Y-65625000D03*
X133780000Y-65625000D03*
X134280000Y-65625000D03*
X135080000Y-65625000D03*
D29*
X136350000Y-65030000D03*
D30*
X136350000Y-60850000D03*
D29*
X127710000Y-65030000D03*
D30*
X127710000Y-60850000D03*
G04 #@! TD*
D31*
G04 #@! TO.C,D5*
X132754700Y-66840000D03*
X132245300Y-66840000D03*
G04 #@! TD*
D22*
G04 #@! TO.C,R2*
X131900000Y-76340000D03*
X131900000Y-75700000D03*
G04 #@! TD*
D32*
G04 #@! TO.C,L1*
X134350000Y-74920000D03*
X133050000Y-74920000D03*
G04 #@! TD*
D17*
G04 #@! TO.C,C4*
X128830000Y-70320000D03*
X129470000Y-70320000D03*
G04 #@! TD*
D22*
G04 #@! TO.C,R4*
X131200000Y-76340000D03*
X131200000Y-75700000D03*
G04 #@! TD*
D17*
G04 #@! TO.C,R14*
X136876500Y-74462000D03*
X137516500Y-74462000D03*
G04 #@! TD*
D23*
G04 #@! TO.C,D3*
X135300000Y-67820000D03*
X136000000Y-67820000D03*
G04 #@! TD*
D19*
G04 #@! TO.C,R7*
X137520000Y-69820000D03*
X136880000Y-69820000D03*
G04 #@! TD*
D33*
G04 #@! TO.C,R12*
X137700000Y-72116700D03*
X137700000Y-71607300D03*
G04 #@! TD*
D34*
G04 #@! TO.C,D1*
X125375000Y-60275000D03*
X126225000Y-60275000D03*
X125375000Y-61125000D03*
X126225000Y-61125000D03*
G04 #@! TD*
D20*
G04 #@! TO.C,C7*
X129680000Y-75700000D03*
X129680000Y-76340000D03*
G04 #@! TD*
D35*
G04 #@! TO.C,U4*
X123110000Y-62285950D03*
D36*
X124380000Y-62285950D03*
D35*
X123110000Y-64825950D03*
D36*
X124380000Y-64825950D03*
D35*
X123110000Y-67365950D03*
D36*
X124380000Y-67365950D03*
D35*
X123110000Y-69905950D03*
D36*
X124380000Y-69905950D03*
D35*
X123110000Y-72445950D03*
D36*
X124380000Y-72445950D03*
D35*
X123110000Y-74985950D03*
D36*
X124380000Y-74985950D03*
D35*
X123110000Y-77525950D03*
D36*
X124380000Y-77525950D03*
X139620000Y-77525950D03*
D35*
X140890000Y-77525950D03*
D36*
X139620000Y-74985950D03*
D35*
X140890000Y-74985950D03*
D36*
X139620000Y-72445950D03*
D35*
X140890000Y-72445950D03*
D36*
X139620000Y-69905950D03*
D35*
X140890000Y-69905950D03*
D36*
X139620000Y-67365950D03*
D35*
X140890000Y-67365950D03*
D36*
X139620000Y-64825950D03*
D35*
X140890000Y-64825950D03*
D36*
X139620000Y-62285950D03*
D35*
X140890000Y-62285950D03*
X123110000Y-63555950D03*
X123110000Y-66095950D03*
X123110000Y-68635950D03*
X123110000Y-71175950D03*
X123110000Y-73715950D03*
X123110000Y-76255950D03*
X140890000Y-76255950D03*
X140890000Y-73715950D03*
X140890000Y-71175950D03*
G04 #@! TD*
D37*
G04 #@! TO.C,D8*
X136360000Y-66900000D03*
X136869400Y-66900000D03*
G04 #@! TD*
D20*
G04 #@! TO.C,C8*
X128100000Y-75700000D03*
X128100000Y-76340000D03*
G04 #@! TD*
D19*
G04 #@! TO.C,C26*
X137536500Y-75262000D03*
X136896500Y-75262000D03*
G04 #@! TD*
D38*
G04 #@! TO.C,U3*
X134150000Y-76045000D03*
X134150000Y-75695000D03*
X134500000Y-76045000D03*
X134500000Y-75695000D03*
X134850000Y-76045000D03*
X134850000Y-75695000D03*
G04 #@! TD*
D17*
G04 #@! TO.C,R1*
X137780000Y-60400000D03*
X138420000Y-60400000D03*
G04 #@! TD*
D22*
G04 #@! TO.C,R19*
X134600000Y-68390000D03*
X134600000Y-67750000D03*
G04 #@! TD*
D17*
G04 #@! TO.C,C27*
X136876500Y-72862000D03*
X137516500Y-72862000D03*
G04 #@! TD*
D22*
G04 #@! TO.C,C2*
X126350000Y-72390000D03*
X126350000Y-71750000D03*
G04 #@! TD*
D19*
G04 #@! TO.C,C6*
X135980000Y-69520000D03*
X135340000Y-69520000D03*
G04 #@! TD*
D38*
G04 #@! TO.C,U9*
X135260000Y-72920000D03*
X135260000Y-72570000D03*
X135610000Y-72920000D03*
X135610000Y-72570000D03*
X135960000Y-72920000D03*
X135960000Y-72570000D03*
G04 #@! TD*
D31*
G04 #@! TO.C,D7*
X127094700Y-76980000D03*
X126585300Y-76980000D03*
G04 #@! TD*
D26*
G04 #@! TO.C,SW1*
X134764000Y-78696400D03*
X134764000Y-79446400D03*
X137364000Y-78696400D03*
X137364000Y-79446400D03*
G04 #@! TD*
D20*
G04 #@! TO.C,C13*
X126350000Y-73150000D03*
X126350000Y-73790000D03*
G04 #@! TD*
D22*
G04 #@! TO.C,C5*
X130200000Y-70240000D03*
X130200000Y-69600000D03*
G04 #@! TD*
D37*
G04 #@! TO.C,D6*
X131325300Y-66840000D03*
X131834700Y-66840000D03*
G04 #@! TD*
D20*
G04 #@! TO.C,R8*
X126620000Y-75700000D03*
X126620000Y-76340000D03*
G04 #@! TD*
D17*
G04 #@! TO.C,C22*
X136880000Y-68420000D03*
X137520000Y-68420000D03*
G04 #@! TD*
D39*
G04 #@! TO.C,U1*
X130400001Y-71819999D03*
X130400001Y-72220000D03*
X130400001Y-72620000D03*
X130400000Y-73020000D03*
X130400001Y-73420000D03*
X130400001Y-73820000D03*
X130400001Y-74220001D03*
X130400001Y-74620000D03*
X130000001Y-71420000D03*
X130000001Y-71820000D03*
X130000001Y-72220000D03*
X130000001Y-72620000D03*
X130000001Y-73020000D03*
X130000001Y-73420000D03*
X130000001Y-73820000D03*
X130000001Y-74220000D03*
X130000001Y-74620000D03*
X129600001Y-71420000D03*
X129600001Y-71820000D03*
X129600001Y-72220001D03*
X129600001Y-72620000D03*
X129600001Y-73020000D03*
X129600001Y-73420000D03*
X129600001Y-73819999D03*
X129600001Y-74220000D03*
X129600001Y-74620000D03*
X129200001Y-71420000D03*
X129200000Y-71820000D03*
X129200001Y-72220000D03*
X129200001Y-72620000D03*
X129200000Y-73020000D03*
X129200001Y-73420000D03*
X129200001Y-73820000D03*
X129200000Y-74220000D03*
X129200001Y-74620000D03*
X128800001Y-71420000D03*
X128800002Y-71820000D03*
X128800001Y-72220000D03*
X128800001Y-72620000D03*
X128800002Y-73020000D03*
X128800001Y-73420000D03*
X128800001Y-73820000D03*
X128800002Y-74220000D03*
X128800001Y-74620000D03*
X128400001Y-71420000D03*
X128400001Y-71820000D03*
X128400001Y-72220001D03*
X128400001Y-72620000D03*
X128400001Y-73020000D03*
X128400001Y-73420000D03*
X128400001Y-73819999D03*
X128400001Y-74220000D03*
X128400001Y-74620000D03*
X128000001Y-71420000D03*
X128000001Y-71820000D03*
X128000001Y-72220000D03*
X128000001Y-72620000D03*
X128000001Y-73020000D03*
X128000001Y-73420000D03*
X128000001Y-73820000D03*
X128000001Y-74220000D03*
X128000001Y-74620000D03*
X127600001Y-71420000D03*
X127600001Y-71819999D03*
X127600001Y-72220000D03*
X127600001Y-72620000D03*
X127600002Y-73020000D03*
X127600001Y-73420000D03*
X127600001Y-73820000D03*
X127600001Y-74220001D03*
X127600001Y-74620000D03*
G04 #@! TD*
D40*
G04 #@! TO.C,Y2*
X127580000Y-69210000D03*
X128980000Y-69210000D03*
X128980000Y-68110000D03*
X127580000Y-68110000D03*
G04 #@! TD*
D20*
G04 #@! TO.C,R3*
X126400000Y-69660000D03*
X126400000Y-70300000D03*
G04 #@! TD*
D21*
G04 #@! TO.C,C19*
X135080000Y-73820000D03*
X134120000Y-73820000D03*
G04 #@! TD*
D41*
G04 #@! TO.C,U2*
X132840000Y-70780000D03*
X132840000Y-70380000D03*
X133240000Y-70780000D03*
X133240000Y-70380000D03*
G04 #@! TD*
D24*
G04 #@! TO.C,Q1*
X135335000Y-70145000D03*
X135335000Y-70495000D03*
D25*
X135985000Y-70320000D03*
G04 #@! TD*
D42*
G04 #@! TO.C,C14*
X134680000Y-76740000D03*
X135640000Y-76740000D03*
G04 #@! TD*
D19*
G04 #@! TO.C,R13*
X137516500Y-73662000D03*
X136876500Y-73662000D03*
G04 #@! TD*
D43*
G04 #@! TO.C,U7*
X136796500Y-70862000D03*
X136796500Y-70462000D03*
X137196500Y-70862000D03*
X137196500Y-70462000D03*
X137596500Y-70862000D03*
X137596500Y-70462000D03*
G04 #@! TD*
D22*
G04 #@! TO.C,C9*
X131500000Y-72100000D03*
X131500000Y-71460000D03*
G04 #@! TD*
D32*
G04 #@! TO.C,L3*
X135600000Y-71720000D03*
X134300000Y-71720000D03*
G04 #@! TD*
D19*
G04 #@! TO.C,R6*
X136120000Y-75900000D03*
X135480000Y-75900000D03*
G04 #@! TD*
D44*
G04 #@! TO.C,U5*
X132230000Y-68070000D03*
D45*
X131830001Y-68020000D03*
D46*
X131230000Y-68220000D03*
X131230001Y-68620000D03*
X131230000Y-69020000D03*
D45*
X131830001Y-69220000D03*
X132229999Y-69220000D03*
D46*
X132830000Y-69020000D03*
X132829999Y-68620000D03*
X132830000Y-68220000D03*
G04 #@! TD*
D41*
G04 #@! TO.C,U8*
X136700000Y-72062000D03*
X136700000Y-71662000D03*
X137100000Y-72062000D03*
X137100000Y-71662000D03*
G04 #@! TD*
%LPD*%
M02*
