G04 #@! TF.GenerationSoftware,KiCad,Pcbnew,9.0.3*
G04 #@! TF.CreationDate,2026-01-29T22:49:22+09:00*
G04 #@! TF.ProjectId,xiaobao,7869616f-6261-46f2-9e6b-696361645f70,rev?*
G04 #@! TF.SameCoordinates,Original*
G04 #@! TF.FileFunction,Legend,Bot*
G04 #@! TF.FilePolarity,Positive*
%FSLAX46Y46*%
G04 Gerber Fmt 4.6, Leading zero omitted, Abs format (unit mm)*
G04 Created by KiCad (PCBNEW 9.0.3) date 2026-01-29 22:49:22*
%MOMM*%
%LPD*%
G01*
G04 APERTURE LIST*
G04 Aperture macros list*
%AMRoundRect*
0 Rectangle with rounded corners*
0 $1 Rounding radius*
0 $2 $3 $4 $5 $6 $7 $8 $9 X,Y pos of 4 corners*
0 Add a 4 corners polygon primitive as box body*
4,1,4,$2,$3,$4,$5,$6,$7,$8,$9,$2,$3,0*
0 Add four circle primitives for the rounded corners*
1,1,$1+$1,$2,$3*
1,1,$1+$1,$4,$5*
1,1,$1+$1,$6,$7*
1,1,$1+$1,$8,$9*
0 Add four rect primitives between the rounded corners*
20,1,$1+$1,$2,$3,$4,$5,0*
20,1,$1+$1,$4,$5,$6,$7,0*
20,1,$1+$1,$6,$7,$8,$9,0*
20,1,$1+$1,$8,$9,$2,$3,0*%
G04 Aperture macros list end*
%ADD10C,0.091440*%
%ADD11C,0.090000*%
%ADD12C,0.130000*%
%ADD13C,0.000000*%
%ADD14C,0.600000*%
%ADD15O,1.000000X2.100000*%
%ADD16O,1.000000X1.800000*%
%ADD17C,0.976200*%
%ADD18C,1.476200*%
%ADD19RoundRect,0.596900X0.000010X-0.000010X0.000010X0.000010X-0.000010X0.000010X-0.000010X-0.000010X0*%
%ADD20RoundRect,0.266700X0.266700X-0.774700X0.266700X0.774700X-0.266700X0.774700X-0.266700X-0.774700X0*%
%ADD21RoundRect,0.266700X-0.266700X0.774700X-0.266700X-0.774700X0.266700X-0.774700X0.266700X0.774700X0*%
G04 APERTURE END LIST*
D10*
X131028940Y-67374552D02*
X131092803Y-67342621D01*
X131092803Y-67342621D02*
X131188597Y-67342621D01*
X131188597Y-67342621D02*
X131284391Y-67374552D01*
X131284391Y-67374552D02*
X131348254Y-67438415D01*
X131348254Y-67438415D02*
X131380185Y-67502278D01*
X131380185Y-67502278D02*
X131412117Y-67630004D01*
X131412117Y-67630004D02*
X131412117Y-67725798D01*
X131412117Y-67725798D02*
X131380185Y-67853524D01*
X131380185Y-67853524D02*
X131348254Y-67917387D01*
X131348254Y-67917387D02*
X131284391Y-67981250D01*
X131284391Y-67981250D02*
X131188597Y-68013181D01*
X131188597Y-68013181D02*
X131124734Y-68013181D01*
X131124734Y-68013181D02*
X131028940Y-67981250D01*
X131028940Y-67981250D02*
X130997008Y-67949318D01*
X130997008Y-67949318D02*
X130997008Y-67725798D01*
X130997008Y-67725798D02*
X131124734Y-67725798D01*
X130709625Y-68013181D02*
X130709625Y-67342621D01*
X130709625Y-67342621D02*
X130326448Y-68013181D01*
X130326448Y-68013181D02*
X130326448Y-67342621D01*
X130007134Y-68013181D02*
X130007134Y-67342621D01*
X130007134Y-67342621D02*
X129847477Y-67342621D01*
X129847477Y-67342621D02*
X129751683Y-67374552D01*
X129751683Y-67374552D02*
X129687820Y-67438415D01*
X129687820Y-67438415D02*
X129655889Y-67502278D01*
X129655889Y-67502278D02*
X129623957Y-67630004D01*
X129623957Y-67630004D02*
X129623957Y-67725798D01*
X129623957Y-67725798D02*
X129655889Y-67853524D01*
X129655889Y-67853524D02*
X129687820Y-67917387D01*
X129687820Y-67917387D02*
X129751683Y-67981250D01*
X129751683Y-67981250D02*
X129847477Y-68013181D01*
X129847477Y-68013181D02*
X130007134Y-68013181D01*
X126121181Y-64283814D02*
X125450621Y-64283814D01*
X125450621Y-64283814D02*
X125450621Y-64443471D01*
X125450621Y-64443471D02*
X125482552Y-64539265D01*
X125482552Y-64539265D02*
X125546415Y-64603128D01*
X125546415Y-64603128D02*
X125610278Y-64635059D01*
X125610278Y-64635059D02*
X125738004Y-64666991D01*
X125738004Y-64666991D02*
X125833798Y-64666991D01*
X125833798Y-64666991D02*
X125961524Y-64635059D01*
X125961524Y-64635059D02*
X126025387Y-64603128D01*
X126025387Y-64603128D02*
X126089250Y-64539265D01*
X126089250Y-64539265D02*
X126121181Y-64443471D01*
X126121181Y-64443471D02*
X126121181Y-64283814D01*
X126121181Y-65305619D02*
X126121181Y-64922442D01*
X126121181Y-65114031D02*
X125450621Y-65114031D01*
X125450621Y-65114031D02*
X125546415Y-65050168D01*
X125546415Y-65050168D02*
X125610278Y-64986305D01*
X125610278Y-64986305D02*
X125642210Y-64922442D01*
X134361935Y-75143334D02*
X134393867Y-75239128D01*
X134393867Y-75239128D02*
X134425798Y-75271059D01*
X134425798Y-75271059D02*
X134489661Y-75302991D01*
X134489661Y-75302991D02*
X134585455Y-75302991D01*
X134585455Y-75302991D02*
X134649318Y-75271059D01*
X134649318Y-75271059D02*
X134681250Y-75239128D01*
X134681250Y-75239128D02*
X134713181Y-75175265D01*
X134713181Y-75175265D02*
X134713181Y-74919814D01*
X134713181Y-74919814D02*
X134042621Y-74919814D01*
X134042621Y-74919814D02*
X134042621Y-75143334D01*
X134042621Y-75143334D02*
X134074552Y-75207197D01*
X134074552Y-75207197D02*
X134106484Y-75239128D01*
X134106484Y-75239128D02*
X134170347Y-75271059D01*
X134170347Y-75271059D02*
X134234210Y-75271059D01*
X134234210Y-75271059D02*
X134298072Y-75239128D01*
X134298072Y-75239128D02*
X134330004Y-75207197D01*
X134330004Y-75207197D02*
X134361935Y-75143334D01*
X134361935Y-75143334D02*
X134361935Y-74919814D01*
X134521592Y-75558442D02*
X134521592Y-75877757D01*
X134713181Y-75494579D02*
X134042621Y-75718099D01*
X134042621Y-75718099D02*
X134713181Y-75941619D01*
X134042621Y-76069345D02*
X134042621Y-76452523D01*
X134713181Y-76260934D02*
X134042621Y-76260934D01*
X130180185Y-75557730D02*
X129669283Y-75557730D01*
X129924734Y-75813181D02*
X129924734Y-75302278D01*
X138313181Y-74819814D02*
X137642621Y-74819814D01*
X137642621Y-74819814D02*
X137642621Y-74979471D01*
X137642621Y-74979471D02*
X137674552Y-75075265D01*
X137674552Y-75075265D02*
X137738415Y-75139128D01*
X137738415Y-75139128D02*
X137802278Y-75171059D01*
X137802278Y-75171059D02*
X137930004Y-75202991D01*
X137930004Y-75202991D02*
X138025798Y-75202991D01*
X138025798Y-75202991D02*
X138153524Y-75171059D01*
X138153524Y-75171059D02*
X138217387Y-75139128D01*
X138217387Y-75139128D02*
X138281250Y-75075265D01*
X138281250Y-75075265D02*
X138313181Y-74979471D01*
X138313181Y-74979471D02*
X138313181Y-74819814D01*
X137930004Y-75586168D02*
X137898072Y-75522305D01*
X137898072Y-75522305D02*
X137866141Y-75490374D01*
X137866141Y-75490374D02*
X137802278Y-75458442D01*
X137802278Y-75458442D02*
X137770347Y-75458442D01*
X137770347Y-75458442D02*
X137706484Y-75490374D01*
X137706484Y-75490374D02*
X137674552Y-75522305D01*
X137674552Y-75522305D02*
X137642621Y-75586168D01*
X137642621Y-75586168D02*
X137642621Y-75713894D01*
X137642621Y-75713894D02*
X137674552Y-75777757D01*
X137674552Y-75777757D02*
X137706484Y-75809688D01*
X137706484Y-75809688D02*
X137770347Y-75841619D01*
X137770347Y-75841619D02*
X137802278Y-75841619D01*
X137802278Y-75841619D02*
X137866141Y-75809688D01*
X137866141Y-75809688D02*
X137898072Y-75777757D01*
X137898072Y-75777757D02*
X137930004Y-75713894D01*
X137930004Y-75713894D02*
X137930004Y-75586168D01*
X137930004Y-75586168D02*
X137961935Y-75522305D01*
X137961935Y-75522305D02*
X137993867Y-75490374D01*
X137993867Y-75490374D02*
X138057730Y-75458442D01*
X138057730Y-75458442D02*
X138185455Y-75458442D01*
X138185455Y-75458442D02*
X138249318Y-75490374D01*
X138249318Y-75490374D02*
X138281250Y-75522305D01*
X138281250Y-75522305D02*
X138313181Y-75586168D01*
X138313181Y-75586168D02*
X138313181Y-75713894D01*
X138313181Y-75713894D02*
X138281250Y-75777757D01*
X138281250Y-75777757D02*
X138249318Y-75809688D01*
X138249318Y-75809688D02*
X138185455Y-75841619D01*
X138185455Y-75841619D02*
X138057730Y-75841619D01*
X138057730Y-75841619D02*
X137993867Y-75809688D01*
X137993867Y-75809688D02*
X137961935Y-75777757D01*
X137961935Y-75777757D02*
X137930004Y-75713894D01*
X126121181Y-72030814D02*
X125450621Y-72030814D01*
X125450621Y-72030814D02*
X125450621Y-72190471D01*
X125450621Y-72190471D02*
X125482552Y-72286265D01*
X125482552Y-72286265D02*
X125546415Y-72350128D01*
X125546415Y-72350128D02*
X125610278Y-72382059D01*
X125610278Y-72382059D02*
X125738004Y-72413991D01*
X125738004Y-72413991D02*
X125833798Y-72413991D01*
X125833798Y-72413991D02*
X125961524Y-72382059D01*
X125961524Y-72382059D02*
X126025387Y-72350128D01*
X126025387Y-72350128D02*
X126089250Y-72286265D01*
X126089250Y-72286265D02*
X126121181Y-72190471D01*
X126121181Y-72190471D02*
X126121181Y-72030814D01*
X125674141Y-72988757D02*
X126121181Y-72988757D01*
X125418690Y-72829099D02*
X125897661Y-72669442D01*
X125897661Y-72669442D02*
X125897661Y-73084551D01*
X130880185Y-62713181D02*
X130880185Y-62042621D01*
X130880185Y-62042621D02*
X130720528Y-62042621D01*
X130720528Y-62042621D02*
X130624734Y-62074552D01*
X130624734Y-62074552D02*
X130560871Y-62138415D01*
X130560871Y-62138415D02*
X130528940Y-62202278D01*
X130528940Y-62202278D02*
X130497008Y-62330004D01*
X130497008Y-62330004D02*
X130497008Y-62425798D01*
X130497008Y-62425798D02*
X130528940Y-62553524D01*
X130528940Y-62553524D02*
X130560871Y-62617387D01*
X130560871Y-62617387D02*
X130624734Y-62681250D01*
X130624734Y-62681250D02*
X130720528Y-62713181D01*
X130720528Y-62713181D02*
X130880185Y-62713181D01*
X130209625Y-62457730D02*
X129698723Y-62457730D01*
X129954174Y-62713181D02*
X129954174Y-62202278D01*
X126121181Y-61743814D02*
X125450621Y-61743814D01*
X125450621Y-61743814D02*
X125450621Y-61903471D01*
X125450621Y-61903471D02*
X125482552Y-61999265D01*
X125482552Y-61999265D02*
X125546415Y-62063128D01*
X125546415Y-62063128D02*
X125610278Y-62095059D01*
X125610278Y-62095059D02*
X125738004Y-62126991D01*
X125738004Y-62126991D02*
X125833798Y-62126991D01*
X125833798Y-62126991D02*
X125961524Y-62095059D01*
X125961524Y-62095059D02*
X126025387Y-62063128D01*
X126025387Y-62063128D02*
X126089250Y-61999265D01*
X126089250Y-61999265D02*
X126121181Y-61903471D01*
X126121181Y-61903471D02*
X126121181Y-61743814D01*
X125450621Y-62542099D02*
X125450621Y-62605962D01*
X125450621Y-62605962D02*
X125482552Y-62669825D01*
X125482552Y-62669825D02*
X125514484Y-62701757D01*
X125514484Y-62701757D02*
X125578347Y-62733688D01*
X125578347Y-62733688D02*
X125706072Y-62765619D01*
X125706072Y-62765619D02*
X125865730Y-62765619D01*
X125865730Y-62765619D02*
X125993455Y-62733688D01*
X125993455Y-62733688D02*
X126057318Y-62701757D01*
X126057318Y-62701757D02*
X126089250Y-62669825D01*
X126089250Y-62669825D02*
X126121181Y-62605962D01*
X126121181Y-62605962D02*
X126121181Y-62542099D01*
X126121181Y-62542099D02*
X126089250Y-62478237D01*
X126089250Y-62478237D02*
X126057318Y-62446305D01*
X126057318Y-62446305D02*
X125993455Y-62414374D01*
X125993455Y-62414374D02*
X125865730Y-62382442D01*
X125865730Y-62382442D02*
X125706072Y-62382442D01*
X125706072Y-62382442D02*
X125578347Y-62414374D01*
X125578347Y-62414374D02*
X125514484Y-62446305D01*
X125514484Y-62446305D02*
X125482552Y-62478237D01*
X125482552Y-62478237D02*
X125450621Y-62542099D01*
X137642621Y-60124019D02*
X138313181Y-60347539D01*
X138313181Y-60347539D02*
X137642621Y-60571059D01*
X137642621Y-60794580D02*
X138185455Y-60794580D01*
X138185455Y-60794580D02*
X138249318Y-60826511D01*
X138249318Y-60826511D02*
X138281250Y-60858443D01*
X138281250Y-60858443D02*
X138313181Y-60922305D01*
X138313181Y-60922305D02*
X138313181Y-61050031D01*
X138313181Y-61050031D02*
X138281250Y-61113894D01*
X138281250Y-61113894D02*
X138249318Y-61145825D01*
X138249318Y-61145825D02*
X138185455Y-61177757D01*
X138185455Y-61177757D02*
X137642621Y-61177757D01*
X138281250Y-61465139D02*
X138313181Y-61560934D01*
X138313181Y-61560934D02*
X138313181Y-61720591D01*
X138313181Y-61720591D02*
X138281250Y-61784454D01*
X138281250Y-61784454D02*
X138249318Y-61816385D01*
X138249318Y-61816385D02*
X138185455Y-61848316D01*
X138185455Y-61848316D02*
X138121592Y-61848316D01*
X138121592Y-61848316D02*
X138057730Y-61816385D01*
X138057730Y-61816385D02*
X138025798Y-61784454D01*
X138025798Y-61784454D02*
X137993867Y-61720591D01*
X137993867Y-61720591D02*
X137961935Y-61592865D01*
X137961935Y-61592865D02*
X137930004Y-61529002D01*
X137930004Y-61529002D02*
X137898072Y-61497071D01*
X137898072Y-61497071D02*
X137834210Y-61465139D01*
X137834210Y-61465139D02*
X137770347Y-61465139D01*
X137770347Y-61465139D02*
X137706484Y-61497071D01*
X137706484Y-61497071D02*
X137674552Y-61529002D01*
X137674552Y-61529002D02*
X137642621Y-61592865D01*
X137642621Y-61592865D02*
X137642621Y-61752522D01*
X137642621Y-61752522D02*
X137674552Y-61848316D01*
X137961935Y-62359220D02*
X137993867Y-62455014D01*
X137993867Y-62455014D02*
X138025798Y-62486945D01*
X138025798Y-62486945D02*
X138089661Y-62518877D01*
X138089661Y-62518877D02*
X138185455Y-62518877D01*
X138185455Y-62518877D02*
X138249318Y-62486945D01*
X138249318Y-62486945D02*
X138281250Y-62455014D01*
X138281250Y-62455014D02*
X138313181Y-62391151D01*
X138313181Y-62391151D02*
X138313181Y-62135700D01*
X138313181Y-62135700D02*
X137642621Y-62135700D01*
X137642621Y-62135700D02*
X137642621Y-62359220D01*
X137642621Y-62359220D02*
X137674552Y-62423083D01*
X137674552Y-62423083D02*
X137706484Y-62455014D01*
X137706484Y-62455014D02*
X137770347Y-62486945D01*
X137770347Y-62486945D02*
X137834210Y-62486945D01*
X137834210Y-62486945D02*
X137898072Y-62455014D01*
X137898072Y-62455014D02*
X137930004Y-62423083D01*
X137930004Y-62423083D02*
X137961935Y-62359220D01*
X137961935Y-62359220D02*
X137961935Y-62135700D01*
X134080185Y-65313181D02*
X134080185Y-64642621D01*
X134080185Y-64642621D02*
X133920528Y-64642621D01*
X133920528Y-64642621D02*
X133824734Y-64674552D01*
X133824734Y-64674552D02*
X133760871Y-64738415D01*
X133760871Y-64738415D02*
X133728940Y-64802278D01*
X133728940Y-64802278D02*
X133697008Y-64930004D01*
X133697008Y-64930004D02*
X133697008Y-65025798D01*
X133697008Y-65025798D02*
X133728940Y-65153524D01*
X133728940Y-65153524D02*
X133760871Y-65217387D01*
X133760871Y-65217387D02*
X133824734Y-65281250D01*
X133824734Y-65281250D02*
X133920528Y-65313181D01*
X133920528Y-65313181D02*
X134080185Y-65313181D01*
X133058380Y-65313181D02*
X133441557Y-65313181D01*
X133249968Y-65313181D02*
X133249968Y-64642621D01*
X133249968Y-64642621D02*
X133313831Y-64738415D01*
X133313831Y-64738415D02*
X133377694Y-64802278D01*
X133377694Y-64802278D02*
X133441557Y-64834210D01*
X132834859Y-64642621D02*
X132419751Y-64642621D01*
X132419751Y-64642621D02*
X132643271Y-64898072D01*
X132643271Y-64898072D02*
X132547476Y-64898072D01*
X132547476Y-64898072D02*
X132483614Y-64930004D01*
X132483614Y-64930004D02*
X132451682Y-64961935D01*
X132451682Y-64961935D02*
X132419751Y-65025798D01*
X132419751Y-65025798D02*
X132419751Y-65185455D01*
X132419751Y-65185455D02*
X132451682Y-65249318D01*
X132451682Y-65249318D02*
X132483614Y-65281250D01*
X132483614Y-65281250D02*
X132547476Y-65313181D01*
X132547476Y-65313181D02*
X132739065Y-65313181D01*
X132739065Y-65313181D02*
X132802928Y-65281250D01*
X132802928Y-65281250D02*
X132834859Y-65249318D01*
X137674552Y-64254059D02*
X137642621Y-64190197D01*
X137642621Y-64190197D02*
X137642621Y-64094402D01*
X137642621Y-64094402D02*
X137674552Y-63998608D01*
X137674552Y-63998608D02*
X137738415Y-63934745D01*
X137738415Y-63934745D02*
X137802278Y-63902814D01*
X137802278Y-63902814D02*
X137930004Y-63870882D01*
X137930004Y-63870882D02*
X138025798Y-63870882D01*
X138025798Y-63870882D02*
X138153524Y-63902814D01*
X138153524Y-63902814D02*
X138217387Y-63934745D01*
X138217387Y-63934745D02*
X138281250Y-63998608D01*
X138281250Y-63998608D02*
X138313181Y-64094402D01*
X138313181Y-64094402D02*
X138313181Y-64158265D01*
X138313181Y-64158265D02*
X138281250Y-64254059D01*
X138281250Y-64254059D02*
X138249318Y-64285991D01*
X138249318Y-64285991D02*
X138025798Y-64285991D01*
X138025798Y-64285991D02*
X138025798Y-64158265D01*
X138313181Y-64573374D02*
X137642621Y-64573374D01*
X137642621Y-64573374D02*
X138313181Y-64956551D01*
X138313181Y-64956551D02*
X137642621Y-64956551D01*
X138313181Y-65275865D02*
X137642621Y-65275865D01*
X137642621Y-65275865D02*
X137642621Y-65435522D01*
X137642621Y-65435522D02*
X137674552Y-65531316D01*
X137674552Y-65531316D02*
X137738415Y-65595179D01*
X137738415Y-65595179D02*
X137802278Y-65627110D01*
X137802278Y-65627110D02*
X137930004Y-65659042D01*
X137930004Y-65659042D02*
X138025798Y-65659042D01*
X138025798Y-65659042D02*
X138153524Y-65627110D01*
X138153524Y-65627110D02*
X138217387Y-65595179D01*
X138217387Y-65595179D02*
X138281250Y-65531316D01*
X138281250Y-65531316D02*
X138313181Y-65435522D01*
X138313181Y-65435522D02*
X138313181Y-65275865D01*
D11*
X135920000Y-74049515D02*
X135951904Y-74081420D01*
X135951904Y-74081420D02*
X136047619Y-74113324D01*
X136047619Y-74113324D02*
X136111428Y-74113324D01*
X136111428Y-74113324D02*
X136207142Y-74081420D01*
X136207142Y-74081420D02*
X136270952Y-74017610D01*
X136270952Y-74017610D02*
X136302857Y-73953800D01*
X136302857Y-73953800D02*
X136334761Y-73826181D01*
X136334761Y-73826181D02*
X136334761Y-73730467D01*
X136334761Y-73730467D02*
X136302857Y-73602848D01*
X136302857Y-73602848D02*
X136270952Y-73539039D01*
X136270952Y-73539039D02*
X136207142Y-73475229D01*
X136207142Y-73475229D02*
X136111428Y-73443324D01*
X136111428Y-73443324D02*
X136047619Y-73443324D01*
X136047619Y-73443324D02*
X135951904Y-73475229D01*
X135951904Y-73475229D02*
X135920000Y-73507134D01*
X135632857Y-73762372D02*
X135409523Y-73762372D01*
X135313809Y-74113324D02*
X135632857Y-74113324D01*
X135632857Y-74113324D02*
X135632857Y-73443324D01*
X135632857Y-73443324D02*
X135313809Y-73443324D01*
X134643810Y-74113324D02*
X134867143Y-73794277D01*
X135026667Y-74113324D02*
X135026667Y-73443324D01*
X135026667Y-73443324D02*
X134771429Y-73443324D01*
X134771429Y-73443324D02*
X134707619Y-73475229D01*
X134707619Y-73475229D02*
X134675714Y-73507134D01*
X134675714Y-73507134D02*
X134643810Y-73570943D01*
X134643810Y-73570943D02*
X134643810Y-73666658D01*
X134643810Y-73666658D02*
X134675714Y-73730467D01*
X134675714Y-73730467D02*
X134707619Y-73762372D01*
X134707619Y-73762372D02*
X134771429Y-73794277D01*
X134771429Y-73794277D02*
X135026667Y-73794277D01*
X134356667Y-74113324D02*
X134356667Y-73443324D01*
X134356667Y-73443324D02*
X133973810Y-74113324D01*
X133973810Y-74113324D02*
X133973810Y-73443324D01*
X133016667Y-73443324D02*
X132889048Y-73443324D01*
X132889048Y-73443324D02*
X132825238Y-73475229D01*
X132825238Y-73475229D02*
X132761429Y-73539039D01*
X132761429Y-73539039D02*
X132729524Y-73666658D01*
X132729524Y-73666658D02*
X132729524Y-73889991D01*
X132729524Y-73889991D02*
X132761429Y-74017610D01*
X132761429Y-74017610D02*
X132825238Y-74081420D01*
X132825238Y-74081420D02*
X132889048Y-74113324D01*
X132889048Y-74113324D02*
X133016667Y-74113324D01*
X133016667Y-74113324D02*
X133080476Y-74081420D01*
X133080476Y-74081420D02*
X133144286Y-74017610D01*
X133144286Y-74017610D02*
X133176190Y-73889991D01*
X133176190Y-73889991D02*
X133176190Y-73666658D01*
X133176190Y-73666658D02*
X133144286Y-73539039D01*
X133144286Y-73539039D02*
X133080476Y-73475229D01*
X133080476Y-73475229D02*
X133016667Y-73443324D01*
X132442381Y-74113324D02*
X132442381Y-73443324D01*
X132442381Y-73762372D02*
X132059524Y-73762372D01*
X132059524Y-74113324D02*
X132059524Y-73443324D01*
X131421428Y-74113324D02*
X131740476Y-74113324D01*
X131740476Y-74113324D02*
X131740476Y-73443324D01*
X131198095Y-73858086D02*
X130687619Y-73858086D01*
X130432380Y-73443324D02*
X130272856Y-74113324D01*
X130272856Y-74113324D02*
X130145237Y-73634753D01*
X130145237Y-73634753D02*
X130017618Y-74113324D01*
X130017618Y-74113324D02*
X129858095Y-73443324D01*
X129602857Y-73858086D02*
X129092381Y-73858086D01*
X128805237Y-73507134D02*
X128773333Y-73475229D01*
X128773333Y-73475229D02*
X128709523Y-73443324D01*
X128709523Y-73443324D02*
X128549999Y-73443324D01*
X128549999Y-73443324D02*
X128486190Y-73475229D01*
X128486190Y-73475229D02*
X128454285Y-73507134D01*
X128454285Y-73507134D02*
X128422380Y-73570943D01*
X128422380Y-73570943D02*
X128422380Y-73634753D01*
X128422380Y-73634753D02*
X128454285Y-73730467D01*
X128454285Y-73730467D02*
X128837142Y-74113324D01*
X128837142Y-74113324D02*
X128422380Y-74113324D01*
X128135238Y-74049515D02*
X128103333Y-74081420D01*
X128103333Y-74081420D02*
X128135238Y-74113324D01*
X128135238Y-74113324D02*
X128167142Y-74081420D01*
X128167142Y-74081420D02*
X128135238Y-74049515D01*
X128135238Y-74049515D02*
X128135238Y-74113324D01*
X127688571Y-73443324D02*
X127624761Y-73443324D01*
X127624761Y-73443324D02*
X127560952Y-73475229D01*
X127560952Y-73475229D02*
X127529047Y-73507134D01*
X127529047Y-73507134D02*
X127497142Y-73570943D01*
X127497142Y-73570943D02*
X127465237Y-73698562D01*
X127465237Y-73698562D02*
X127465237Y-73858086D01*
X127465237Y-73858086D02*
X127497142Y-73985705D01*
X127497142Y-73985705D02*
X127529047Y-74049515D01*
X127529047Y-74049515D02*
X127560952Y-74081420D01*
X127560952Y-74081420D02*
X127624761Y-74113324D01*
X127624761Y-74113324D02*
X127688571Y-74113324D01*
X127688571Y-74113324D02*
X127752380Y-74081420D01*
X127752380Y-74081420D02*
X127784285Y-74049515D01*
X127784285Y-74049515D02*
X127816190Y-73985705D01*
X127816190Y-73985705D02*
X127848094Y-73858086D01*
X127848094Y-73858086D02*
X127848094Y-73698562D01*
X127848094Y-73698562D02*
X127816190Y-73570943D01*
X127816190Y-73570943D02*
X127784285Y-73507134D01*
X127784285Y-73507134D02*
X127752380Y-73475229D01*
X127752380Y-73475229D02*
X127688571Y-73443324D01*
D10*
X126121181Y-69363814D02*
X125450621Y-69363814D01*
X125450621Y-69363814D02*
X125450621Y-69523471D01*
X125450621Y-69523471D02*
X125482552Y-69619265D01*
X125482552Y-69619265D02*
X125546415Y-69683128D01*
X125546415Y-69683128D02*
X125610278Y-69715059D01*
X125610278Y-69715059D02*
X125738004Y-69746991D01*
X125738004Y-69746991D02*
X125833798Y-69746991D01*
X125833798Y-69746991D02*
X125961524Y-69715059D01*
X125961524Y-69715059D02*
X126025387Y-69683128D01*
X126025387Y-69683128D02*
X126089250Y-69619265D01*
X126089250Y-69619265D02*
X126121181Y-69523471D01*
X126121181Y-69523471D02*
X126121181Y-69363814D01*
X125450621Y-69970511D02*
X125450621Y-70385619D01*
X125450621Y-70385619D02*
X125706072Y-70162099D01*
X125706072Y-70162099D02*
X125706072Y-70257894D01*
X125706072Y-70257894D02*
X125738004Y-70321757D01*
X125738004Y-70321757D02*
X125769935Y-70353688D01*
X125769935Y-70353688D02*
X125833798Y-70385619D01*
X125833798Y-70385619D02*
X125993455Y-70385619D01*
X125993455Y-70385619D02*
X126057318Y-70353688D01*
X126057318Y-70353688D02*
X126089250Y-70321757D01*
X126089250Y-70321757D02*
X126121181Y-70257894D01*
X126121181Y-70257894D02*
X126121181Y-70066305D01*
X126121181Y-70066305D02*
X126089250Y-70002442D01*
X126089250Y-70002442D02*
X126057318Y-69970511D01*
X138313181Y-69219814D02*
X137642621Y-69219814D01*
X137642621Y-69219814D02*
X137642621Y-69379471D01*
X137642621Y-69379471D02*
X137674552Y-69475265D01*
X137674552Y-69475265D02*
X137738415Y-69539128D01*
X137738415Y-69539128D02*
X137802278Y-69571059D01*
X137802278Y-69571059D02*
X137930004Y-69602991D01*
X137930004Y-69602991D02*
X138025798Y-69602991D01*
X138025798Y-69602991D02*
X138153524Y-69571059D01*
X138153524Y-69571059D02*
X138217387Y-69539128D01*
X138217387Y-69539128D02*
X138281250Y-69475265D01*
X138281250Y-69475265D02*
X138313181Y-69379471D01*
X138313181Y-69379471D02*
X138313181Y-69219814D01*
X138313181Y-70241619D02*
X138313181Y-69858442D01*
X138313181Y-70050031D02*
X137642621Y-70050031D01*
X137642621Y-70050031D02*
X137738415Y-69986168D01*
X137738415Y-69986168D02*
X137802278Y-69922305D01*
X137802278Y-69922305D02*
X137834210Y-69858442D01*
X137642621Y-70656728D02*
X137642621Y-70720591D01*
X137642621Y-70720591D02*
X137674552Y-70784454D01*
X137674552Y-70784454D02*
X137706484Y-70816386D01*
X137706484Y-70816386D02*
X137770347Y-70848317D01*
X137770347Y-70848317D02*
X137898072Y-70880248D01*
X137898072Y-70880248D02*
X138057730Y-70880248D01*
X138057730Y-70880248D02*
X138185455Y-70848317D01*
X138185455Y-70848317D02*
X138249318Y-70816386D01*
X138249318Y-70816386D02*
X138281250Y-70784454D01*
X138281250Y-70784454D02*
X138313181Y-70720591D01*
X138313181Y-70720591D02*
X138313181Y-70656728D01*
X138313181Y-70656728D02*
X138281250Y-70592866D01*
X138281250Y-70592866D02*
X138249318Y-70560934D01*
X138249318Y-70560934D02*
X138185455Y-70529003D01*
X138185455Y-70529003D02*
X138057730Y-70497071D01*
X138057730Y-70497071D02*
X137898072Y-70497071D01*
X137898072Y-70497071D02*
X137770347Y-70529003D01*
X137770347Y-70529003D02*
X137706484Y-70560934D01*
X137706484Y-70560934D02*
X137674552Y-70592866D01*
X137674552Y-70592866D02*
X137642621Y-70656728D01*
X134080185Y-60313181D02*
X134080185Y-59642621D01*
X134080185Y-59642621D02*
X133920528Y-59642621D01*
X133920528Y-59642621D02*
X133824734Y-59674552D01*
X133824734Y-59674552D02*
X133760871Y-59738415D01*
X133760871Y-59738415D02*
X133728940Y-59802278D01*
X133728940Y-59802278D02*
X133697008Y-59930004D01*
X133697008Y-59930004D02*
X133697008Y-60025798D01*
X133697008Y-60025798D02*
X133728940Y-60153524D01*
X133728940Y-60153524D02*
X133760871Y-60217387D01*
X133760871Y-60217387D02*
X133824734Y-60281250D01*
X133824734Y-60281250D02*
X133920528Y-60313181D01*
X133920528Y-60313181D02*
X134080185Y-60313181D01*
X133058380Y-60313181D02*
X133441557Y-60313181D01*
X133249968Y-60313181D02*
X133249968Y-59642621D01*
X133249968Y-59642621D02*
X133313831Y-59738415D01*
X133313831Y-59738415D02*
X133377694Y-59802278D01*
X133377694Y-59802278D02*
X133441557Y-59834210D01*
X132419751Y-60313181D02*
X132802928Y-60313181D01*
X132611339Y-60313181D02*
X132611339Y-59642621D01*
X132611339Y-59642621D02*
X132675202Y-59738415D01*
X132675202Y-59738415D02*
X132739065Y-59802278D01*
X132739065Y-59802278D02*
X132802928Y-59834210D01*
X133420185Y-62713181D02*
X133420185Y-62042621D01*
X133420185Y-62042621D02*
X133260528Y-62042621D01*
X133260528Y-62042621D02*
X133164734Y-62074552D01*
X133164734Y-62074552D02*
X133100871Y-62138415D01*
X133100871Y-62138415D02*
X133068940Y-62202278D01*
X133068940Y-62202278D02*
X133037008Y-62330004D01*
X133037008Y-62330004D02*
X133037008Y-62425798D01*
X133037008Y-62425798D02*
X133068940Y-62553524D01*
X133068940Y-62553524D02*
X133100871Y-62617387D01*
X133100871Y-62617387D02*
X133164734Y-62681250D01*
X133164734Y-62681250D02*
X133260528Y-62713181D01*
X133260528Y-62713181D02*
X133420185Y-62713181D01*
X132749625Y-62457730D02*
X132238723Y-62457730D01*
X137629434Y-66476186D02*
X137629434Y-66891294D01*
X137629434Y-66891294D02*
X137884885Y-66667774D01*
X137884885Y-66667774D02*
X137884885Y-66763569D01*
X137884885Y-66763569D02*
X137916817Y-66827432D01*
X137916817Y-66827432D02*
X137948748Y-66859363D01*
X137948748Y-66859363D02*
X138012611Y-66891294D01*
X138012611Y-66891294D02*
X138172268Y-66891294D01*
X138172268Y-66891294D02*
X138236131Y-66859363D01*
X138236131Y-66859363D02*
X138268063Y-66827432D01*
X138268063Y-66827432D02*
X138299994Y-66763569D01*
X138299994Y-66763569D02*
X138299994Y-66571980D01*
X138299994Y-66571980D02*
X138268063Y-66508117D01*
X138268063Y-66508117D02*
X138236131Y-66476186D01*
X137629434Y-67082883D02*
X138299994Y-67306403D01*
X138299994Y-67306403D02*
X137629434Y-67529923D01*
X137629434Y-67689581D02*
X137629434Y-68104689D01*
X137629434Y-68104689D02*
X137884885Y-67881169D01*
X137884885Y-67881169D02*
X137884885Y-67976964D01*
X137884885Y-67976964D02*
X137916817Y-68040827D01*
X137916817Y-68040827D02*
X137948748Y-68072758D01*
X137948748Y-68072758D02*
X138012611Y-68104689D01*
X138012611Y-68104689D02*
X138172268Y-68104689D01*
X138172268Y-68104689D02*
X138236131Y-68072758D01*
X138236131Y-68072758D02*
X138268063Y-68040827D01*
X138268063Y-68040827D02*
X138299994Y-67976964D01*
X138299994Y-67976964D02*
X138299994Y-67785375D01*
X138299994Y-67785375D02*
X138268063Y-67721512D01*
X138268063Y-67721512D02*
X138236131Y-67689581D01*
X138313181Y-72019814D02*
X137642621Y-72019814D01*
X137642621Y-72019814D02*
X137642621Y-72179471D01*
X137642621Y-72179471D02*
X137674552Y-72275265D01*
X137674552Y-72275265D02*
X137738415Y-72339128D01*
X137738415Y-72339128D02*
X137802278Y-72371059D01*
X137802278Y-72371059D02*
X137930004Y-72402991D01*
X137930004Y-72402991D02*
X138025798Y-72402991D01*
X138025798Y-72402991D02*
X138153524Y-72371059D01*
X138153524Y-72371059D02*
X138217387Y-72339128D01*
X138217387Y-72339128D02*
X138281250Y-72275265D01*
X138281250Y-72275265D02*
X138313181Y-72179471D01*
X138313181Y-72179471D02*
X138313181Y-72019814D01*
X138313181Y-72722305D02*
X138313181Y-72850031D01*
X138313181Y-72850031D02*
X138281250Y-72913894D01*
X138281250Y-72913894D02*
X138249318Y-72945825D01*
X138249318Y-72945825D02*
X138153524Y-73009688D01*
X138153524Y-73009688D02*
X138025798Y-73041619D01*
X138025798Y-73041619D02*
X137770347Y-73041619D01*
X137770347Y-73041619D02*
X137706484Y-73009688D01*
X137706484Y-73009688D02*
X137674552Y-72977757D01*
X137674552Y-72977757D02*
X137642621Y-72913894D01*
X137642621Y-72913894D02*
X137642621Y-72786168D01*
X137642621Y-72786168D02*
X137674552Y-72722305D01*
X137674552Y-72722305D02*
X137706484Y-72690374D01*
X137706484Y-72690374D02*
X137770347Y-72658442D01*
X137770347Y-72658442D02*
X137930004Y-72658442D01*
X137930004Y-72658442D02*
X137993867Y-72690374D01*
X137993867Y-72690374D02*
X138025798Y-72722305D01*
X138025798Y-72722305D02*
X138057730Y-72786168D01*
X138057730Y-72786168D02*
X138057730Y-72913894D01*
X138057730Y-72913894D02*
X138025798Y-72977757D01*
X138025798Y-72977757D02*
X137993867Y-73009688D01*
X137993867Y-73009688D02*
X137930004Y-73041619D01*
X131380185Y-65213181D02*
X131380185Y-64542621D01*
X131380185Y-64542621D02*
X131220528Y-64542621D01*
X131220528Y-64542621D02*
X131124734Y-64574552D01*
X131124734Y-64574552D02*
X131060871Y-64638415D01*
X131060871Y-64638415D02*
X131028940Y-64702278D01*
X131028940Y-64702278D02*
X130997008Y-64830004D01*
X130997008Y-64830004D02*
X130997008Y-64925798D01*
X130997008Y-64925798D02*
X131028940Y-65053524D01*
X131028940Y-65053524D02*
X131060871Y-65117387D01*
X131060871Y-65117387D02*
X131124734Y-65181250D01*
X131124734Y-65181250D02*
X131220528Y-65213181D01*
X131220528Y-65213181D02*
X131380185Y-65213181D01*
X130358380Y-65213181D02*
X130741557Y-65213181D01*
X130549968Y-65213181D02*
X130549968Y-64542621D01*
X130549968Y-64542621D02*
X130613831Y-64638415D01*
X130613831Y-64638415D02*
X130677694Y-64702278D01*
X130677694Y-64702278D02*
X130741557Y-64734210D01*
X129783614Y-64766141D02*
X129783614Y-65213181D01*
X129943271Y-64510690D02*
X130102928Y-64989661D01*
X130102928Y-64989661D02*
X129687819Y-64989661D01*
D12*
X135546429Y-79251454D02*
X135046429Y-80001454D01*
X135046429Y-79251454D02*
X135546429Y-80001454D01*
X134760714Y-80001454D02*
X134760714Y-79251454D01*
X134439285Y-79787168D02*
X134082143Y-79787168D01*
X134510714Y-80001454D02*
X134260714Y-79251454D01*
X134260714Y-79251454D02*
X134010714Y-80001454D01*
X133617857Y-79251454D02*
X133475000Y-79251454D01*
X133475000Y-79251454D02*
X133403571Y-79287168D01*
X133403571Y-79287168D02*
X133332143Y-79358597D01*
X133332143Y-79358597D02*
X133296428Y-79501454D01*
X133296428Y-79501454D02*
X133296428Y-79751454D01*
X133296428Y-79751454D02*
X133332143Y-79894311D01*
X133332143Y-79894311D02*
X133403571Y-79965740D01*
X133403571Y-79965740D02*
X133475000Y-80001454D01*
X133475000Y-80001454D02*
X133617857Y-80001454D01*
X133617857Y-80001454D02*
X133689286Y-79965740D01*
X133689286Y-79965740D02*
X133760714Y-79894311D01*
X133760714Y-79894311D02*
X133796428Y-79751454D01*
X133796428Y-79751454D02*
X133796428Y-79501454D01*
X133796428Y-79501454D02*
X133760714Y-79358597D01*
X133760714Y-79358597D02*
X133689286Y-79287168D01*
X133689286Y-79287168D02*
X133617857Y-79251454D01*
X132153571Y-79608597D02*
X132046428Y-79644311D01*
X132046428Y-79644311D02*
X132010714Y-79680025D01*
X132010714Y-79680025D02*
X131975000Y-79751454D01*
X131975000Y-79751454D02*
X131975000Y-79858597D01*
X131975000Y-79858597D02*
X132010714Y-79930025D01*
X132010714Y-79930025D02*
X132046428Y-79965740D01*
X132046428Y-79965740D02*
X132117857Y-80001454D01*
X132117857Y-80001454D02*
X132403571Y-80001454D01*
X132403571Y-80001454D02*
X132403571Y-79251454D01*
X132403571Y-79251454D02*
X132153571Y-79251454D01*
X132153571Y-79251454D02*
X132082143Y-79287168D01*
X132082143Y-79287168D02*
X132046428Y-79322882D01*
X132046428Y-79322882D02*
X132010714Y-79394311D01*
X132010714Y-79394311D02*
X132010714Y-79465740D01*
X132010714Y-79465740D02*
X132046428Y-79537168D01*
X132046428Y-79537168D02*
X132082143Y-79572882D01*
X132082143Y-79572882D02*
X132153571Y-79608597D01*
X132153571Y-79608597D02*
X132403571Y-79608597D01*
X131689285Y-79787168D02*
X131332143Y-79787168D01*
X131760714Y-80001454D02*
X131510714Y-79251454D01*
X131510714Y-79251454D02*
X131260714Y-80001454D01*
X130867857Y-79251454D02*
X130725000Y-79251454D01*
X130725000Y-79251454D02*
X130653571Y-79287168D01*
X130653571Y-79287168D02*
X130582143Y-79358597D01*
X130582143Y-79358597D02*
X130546428Y-79501454D01*
X130546428Y-79501454D02*
X130546428Y-79751454D01*
X130546428Y-79751454D02*
X130582143Y-79894311D01*
X130582143Y-79894311D02*
X130653571Y-79965740D01*
X130653571Y-79965740D02*
X130725000Y-80001454D01*
X130725000Y-80001454D02*
X130867857Y-80001454D01*
X130867857Y-80001454D02*
X130939286Y-79965740D01*
X130939286Y-79965740D02*
X131010714Y-79894311D01*
X131010714Y-79894311D02*
X131046428Y-79751454D01*
X131046428Y-79751454D02*
X131046428Y-79501454D01*
X131046428Y-79501454D02*
X131010714Y-79358597D01*
X131010714Y-79358597D02*
X130939286Y-79287168D01*
X130939286Y-79287168D02*
X130867857Y-79251454D01*
X129725000Y-79501454D02*
X129546428Y-80001454D01*
X129546428Y-80001454D02*
X129367857Y-79501454D01*
X128689285Y-80001454D02*
X129117856Y-80001454D01*
X128903571Y-80001454D02*
X128903571Y-79251454D01*
X128903571Y-79251454D02*
X128974999Y-79358597D01*
X128974999Y-79358597D02*
X129046428Y-79430025D01*
X129046428Y-79430025D02*
X129117856Y-79465740D01*
D10*
X126121181Y-66950814D02*
X125450621Y-66950814D01*
X125450621Y-66950814D02*
X125450621Y-67110471D01*
X125450621Y-67110471D02*
X125482552Y-67206265D01*
X125482552Y-67206265D02*
X125546415Y-67270128D01*
X125546415Y-67270128D02*
X125610278Y-67302059D01*
X125610278Y-67302059D02*
X125738004Y-67333991D01*
X125738004Y-67333991D02*
X125833798Y-67333991D01*
X125833798Y-67333991D02*
X125961524Y-67302059D01*
X125961524Y-67302059D02*
X126025387Y-67270128D01*
X126025387Y-67270128D02*
X126089250Y-67206265D01*
X126089250Y-67206265D02*
X126121181Y-67110471D01*
X126121181Y-67110471D02*
X126121181Y-66950814D01*
X125514484Y-67589442D02*
X125482552Y-67621374D01*
X125482552Y-67621374D02*
X125450621Y-67685237D01*
X125450621Y-67685237D02*
X125450621Y-67844894D01*
X125450621Y-67844894D02*
X125482552Y-67908757D01*
X125482552Y-67908757D02*
X125514484Y-67940688D01*
X125514484Y-67940688D02*
X125578347Y-67972619D01*
X125578347Y-67972619D02*
X125642210Y-67972619D01*
X125642210Y-67972619D02*
X125738004Y-67940688D01*
X125738004Y-67940688D02*
X126121181Y-67557511D01*
X126121181Y-67557511D02*
X126121181Y-67972619D01*
X138313181Y-77257114D02*
X137642621Y-77257114D01*
X137642621Y-77257114D02*
X137642621Y-77416771D01*
X137642621Y-77416771D02*
X137674552Y-77512565D01*
X137674552Y-77512565D02*
X137738415Y-77576428D01*
X137738415Y-77576428D02*
X137802278Y-77608359D01*
X137802278Y-77608359D02*
X137930004Y-77640291D01*
X137930004Y-77640291D02*
X138025798Y-77640291D01*
X138025798Y-77640291D02*
X138153524Y-77608359D01*
X138153524Y-77608359D02*
X138217387Y-77576428D01*
X138217387Y-77576428D02*
X138281250Y-77512565D01*
X138281250Y-77512565D02*
X138313181Y-77416771D01*
X138313181Y-77416771D02*
X138313181Y-77257114D01*
X137642621Y-77863811D02*
X137642621Y-78310851D01*
X137642621Y-78310851D02*
X138313181Y-78023468D01*
X134124048Y-67302621D02*
X133708940Y-67302621D01*
X133708940Y-67302621D02*
X133932460Y-67558072D01*
X133932460Y-67558072D02*
X133836665Y-67558072D01*
X133836665Y-67558072D02*
X133772803Y-67590004D01*
X133772803Y-67590004D02*
X133740871Y-67621935D01*
X133740871Y-67621935D02*
X133708940Y-67685798D01*
X133708940Y-67685798D02*
X133708940Y-67845455D01*
X133708940Y-67845455D02*
X133740871Y-67909318D01*
X133740871Y-67909318D02*
X133772803Y-67941250D01*
X133772803Y-67941250D02*
X133836665Y-67973181D01*
X133836665Y-67973181D02*
X134028254Y-67973181D01*
X134028254Y-67973181D02*
X134092117Y-67941250D01*
X134092117Y-67941250D02*
X134124048Y-67909318D01*
X133517351Y-67302621D02*
X133293831Y-67973181D01*
X133293831Y-67973181D02*
X133070311Y-67302621D01*
X132910653Y-67302621D02*
X132495545Y-67302621D01*
X132495545Y-67302621D02*
X132719065Y-67558072D01*
X132719065Y-67558072D02*
X132623270Y-67558072D01*
X132623270Y-67558072D02*
X132559408Y-67590004D01*
X132559408Y-67590004D02*
X132527476Y-67621935D01*
X132527476Y-67621935D02*
X132495545Y-67685798D01*
X132495545Y-67685798D02*
X132495545Y-67845455D01*
X132495545Y-67845455D02*
X132527476Y-67909318D01*
X132527476Y-67909318D02*
X132559408Y-67941250D01*
X132559408Y-67941250D02*
X132623270Y-67973181D01*
X132623270Y-67973181D02*
X132814859Y-67973181D01*
X132814859Y-67973181D02*
X132878722Y-67941250D01*
X132878722Y-67941250D02*
X132910653Y-67909318D01*
X126121181Y-76983814D02*
X125450621Y-76983814D01*
X125450621Y-76983814D02*
X125450621Y-77143471D01*
X125450621Y-77143471D02*
X125482552Y-77239265D01*
X125482552Y-77239265D02*
X125546415Y-77303128D01*
X125546415Y-77303128D02*
X125610278Y-77335059D01*
X125610278Y-77335059D02*
X125738004Y-77366991D01*
X125738004Y-77366991D02*
X125833798Y-77366991D01*
X125833798Y-77366991D02*
X125961524Y-77335059D01*
X125961524Y-77335059D02*
X126025387Y-77303128D01*
X126025387Y-77303128D02*
X126089250Y-77239265D01*
X126089250Y-77239265D02*
X126121181Y-77143471D01*
X126121181Y-77143471D02*
X126121181Y-76983814D01*
X125450621Y-77941757D02*
X125450621Y-77814031D01*
X125450621Y-77814031D02*
X125482552Y-77750168D01*
X125482552Y-77750168D02*
X125514484Y-77718237D01*
X125514484Y-77718237D02*
X125610278Y-77654374D01*
X125610278Y-77654374D02*
X125738004Y-77622442D01*
X125738004Y-77622442D02*
X125993455Y-77622442D01*
X125993455Y-77622442D02*
X126057318Y-77654374D01*
X126057318Y-77654374D02*
X126089250Y-77686305D01*
X126089250Y-77686305D02*
X126121181Y-77750168D01*
X126121181Y-77750168D02*
X126121181Y-77877894D01*
X126121181Y-77877894D02*
X126089250Y-77941757D01*
X126089250Y-77941757D02*
X126057318Y-77973688D01*
X126057318Y-77973688D02*
X125993455Y-78005619D01*
X125993455Y-78005619D02*
X125833798Y-78005619D01*
X125833798Y-78005619D02*
X125769935Y-77973688D01*
X125769935Y-77973688D02*
X125738004Y-77941757D01*
X125738004Y-77941757D02*
X125706072Y-77877894D01*
X125706072Y-77877894D02*
X125706072Y-77750168D01*
X125706072Y-77750168D02*
X125738004Y-77686305D01*
X125738004Y-77686305D02*
X125769935Y-77654374D01*
X125769935Y-77654374D02*
X125833798Y-77622442D01*
X126113181Y-74619814D02*
X125442621Y-74619814D01*
X125442621Y-74619814D02*
X125442621Y-74779471D01*
X125442621Y-74779471D02*
X125474552Y-74875265D01*
X125474552Y-74875265D02*
X125538415Y-74939128D01*
X125538415Y-74939128D02*
X125602278Y-74971059D01*
X125602278Y-74971059D02*
X125730004Y-75002991D01*
X125730004Y-75002991D02*
X125825798Y-75002991D01*
X125825798Y-75002991D02*
X125953524Y-74971059D01*
X125953524Y-74971059D02*
X126017387Y-74939128D01*
X126017387Y-74939128D02*
X126081250Y-74875265D01*
X126081250Y-74875265D02*
X126113181Y-74779471D01*
X126113181Y-74779471D02*
X126113181Y-74619814D01*
X125442621Y-75609688D02*
X125442621Y-75290374D01*
X125442621Y-75290374D02*
X125761935Y-75258442D01*
X125761935Y-75258442D02*
X125730004Y-75290374D01*
X125730004Y-75290374D02*
X125698072Y-75354237D01*
X125698072Y-75354237D02*
X125698072Y-75513894D01*
X125698072Y-75513894D02*
X125730004Y-75577757D01*
X125730004Y-75577757D02*
X125761935Y-75609688D01*
X125761935Y-75609688D02*
X125825798Y-75641619D01*
X125825798Y-75641619D02*
X125985455Y-75641619D01*
X125985455Y-75641619D02*
X126049318Y-75609688D01*
X126049318Y-75609688D02*
X126081250Y-75577757D01*
X126081250Y-75577757D02*
X126113181Y-75513894D01*
X126113181Y-75513894D02*
X126113181Y-75354237D01*
X126113181Y-75354237D02*
X126081250Y-75290374D01*
X126081250Y-75290374D02*
X126049318Y-75258442D01*
X131280185Y-60313181D02*
X131280185Y-59642621D01*
X131280185Y-59642621D02*
X131120528Y-59642621D01*
X131120528Y-59642621D02*
X131024734Y-59674552D01*
X131024734Y-59674552D02*
X130960871Y-59738415D01*
X130960871Y-59738415D02*
X130928940Y-59802278D01*
X130928940Y-59802278D02*
X130897008Y-59930004D01*
X130897008Y-59930004D02*
X130897008Y-60025798D01*
X130897008Y-60025798D02*
X130928940Y-60153524D01*
X130928940Y-60153524D02*
X130960871Y-60217387D01*
X130960871Y-60217387D02*
X131024734Y-60281250D01*
X131024734Y-60281250D02*
X131120528Y-60313181D01*
X131120528Y-60313181D02*
X131280185Y-60313181D01*
X130258380Y-60313181D02*
X130641557Y-60313181D01*
X130449968Y-60313181D02*
X130449968Y-59642621D01*
X130449968Y-59642621D02*
X130513831Y-59738415D01*
X130513831Y-59738415D02*
X130577694Y-59802278D01*
X130577694Y-59802278D02*
X130641557Y-59834210D01*
X130002928Y-59706484D02*
X129970996Y-59674552D01*
X129970996Y-59674552D02*
X129907134Y-59642621D01*
X129907134Y-59642621D02*
X129747476Y-59642621D01*
X129747476Y-59642621D02*
X129683614Y-59674552D01*
X129683614Y-59674552D02*
X129651682Y-59706484D01*
X129651682Y-59706484D02*
X129619751Y-59770347D01*
X129619751Y-59770347D02*
X129619751Y-59834210D01*
X129619751Y-59834210D02*
X129651682Y-59930004D01*
X129651682Y-59930004D02*
X130034859Y-60313181D01*
X130034859Y-60313181D02*
X129619751Y-60313181D01*
D13*
G04 #@! TO.C,G\u002A\u002A\u002A*
G36*
X131743479Y-71020718D02*
G01*
X131734949Y-71109500D01*
X131713191Y-71197057D01*
X131678124Y-71281876D01*
X131658561Y-71317780D01*
X131606382Y-71392845D01*
X131544343Y-71457929D01*
X131473211Y-71512493D01*
X131393756Y-71555999D01*
X131306743Y-71587911D01*
X131212941Y-71607691D01*
X131202634Y-71608983D01*
X131134586Y-71611463D01*
X131061772Y-71605076D01*
X130989187Y-71590496D01*
X130921827Y-71568398D01*
X130899067Y-71559467D01*
X130880678Y-71552861D01*
X130871455Y-71550337D01*
X130869686Y-71551813D01*
X130866708Y-71563337D01*
X130865531Y-71582553D01*
X130865531Y-71614768D01*
X130704454Y-71614768D01*
X130543377Y-71614768D01*
X130543377Y-71019281D01*
X130855615Y-71019281D01*
X130867004Y-71075769D01*
X130889584Y-71129064D01*
X130923012Y-71177360D01*
X130966950Y-71218854D01*
X131021057Y-71251740D01*
X131024596Y-71253406D01*
X131050662Y-71264555D01*
X131073742Y-71271258D01*
X131099597Y-71274773D01*
X131133992Y-71276354D01*
X131176781Y-71275894D01*
X131216870Y-71270625D01*
X131252803Y-71259173D01*
X131289688Y-71240357D01*
X131317852Y-71220378D01*
X131353347Y-71186564D01*
X131384933Y-71147525D01*
X131408323Y-71108043D01*
X131416479Y-71089406D01*
X131422294Y-71071217D01*
X131425631Y-71051054D01*
X131427149Y-71024805D01*
X131427509Y-70988359D01*
X131427482Y-70972355D01*
X131426930Y-70941781D01*
X131425058Y-70919748D01*
X131421082Y-70902163D01*
X131414220Y-70884935D01*
X131403687Y-70863970D01*
X131392232Y-70843820D01*
X131354124Y-70794089D01*
X131308660Y-70754694D01*
X131257622Y-70725911D01*
X131202795Y-70708016D01*
X131145961Y-70701283D01*
X131088905Y-70705988D01*
X131033410Y-70722406D01*
X130981259Y-70750813D01*
X130934236Y-70791485D01*
X130928766Y-70797485D01*
X130891992Y-70848702D01*
X130867768Y-70903943D01*
X130855756Y-70961404D01*
X130855615Y-71019281D01*
X130543377Y-71019281D01*
X130543377Y-71009836D01*
X130543377Y-70404903D01*
X130704454Y-70404903D01*
X130865531Y-70404903D01*
X130865531Y-70439932D01*
X130865531Y-70474961D01*
X130919002Y-70454198D01*
X130934593Y-70448378D01*
X131023457Y-70423718D01*
X131112924Y-70412643D01*
X131201673Y-70414741D01*
X131288385Y-70429600D01*
X131371739Y-70456808D01*
X131450416Y-70495953D01*
X131523096Y-70546624D01*
X131588459Y-70608407D01*
X131645184Y-70680890D01*
X131646993Y-70683612D01*
X131690540Y-70762157D01*
X131721192Y-70845533D01*
X131738866Y-70932224D01*
X131741792Y-70988359D01*
X131743479Y-71020718D01*
G37*
G36*
X131745476Y-72520594D02*
G01*
X131742896Y-72567075D01*
X131735204Y-72620260D01*
X131716018Y-72698645D01*
X131683050Y-72781018D01*
X131639000Y-72856973D01*
X131585021Y-72925427D01*
X131522264Y-72985297D01*
X131451880Y-73035501D01*
X131375020Y-73074957D01*
X131292837Y-73102582D01*
X131206481Y-73117295D01*
X131192794Y-73118384D01*
X131098368Y-73118224D01*
X131007643Y-73104729D01*
X130921623Y-73078370D01*
X130841312Y-73039617D01*
X130767713Y-72988943D01*
X130701831Y-72926817D01*
X130644669Y-72853711D01*
X130604554Y-72784248D01*
X130570966Y-72700670D01*
X130550558Y-72614111D01*
X130543327Y-72525961D01*
X130544078Y-72514802D01*
X130853930Y-72514802D01*
X130859074Y-72573420D01*
X130876908Y-72630503D01*
X130907435Y-72684352D01*
X130950653Y-72733270D01*
X130954935Y-72737171D01*
X130995631Y-72768492D01*
X131035309Y-72789230D01*
X131040456Y-72791158D01*
X131102442Y-72806636D01*
X131164053Y-72808600D01*
X131223612Y-72797728D01*
X131279439Y-72774692D01*
X131329856Y-72740170D01*
X131373185Y-72694837D01*
X131407747Y-72639367D01*
X131408141Y-72638563D01*
X131416903Y-72619301D01*
X131422550Y-72601893D01*
X131425753Y-72582297D01*
X131427182Y-72556472D01*
X131427509Y-72520377D01*
X131427509Y-72517859D01*
X131427140Y-72482540D01*
X131425633Y-72457237D01*
X131422310Y-72437895D01*
X131416491Y-72420460D01*
X131407498Y-72400878D01*
X131404878Y-72395652D01*
X131369256Y-72340595D01*
X131323845Y-72295908D01*
X131268037Y-72260978D01*
X131242466Y-72248739D01*
X131221638Y-72240627D01*
X131201889Y-72236251D01*
X131178089Y-72234496D01*
X131145106Y-72234246D01*
X131122280Y-72234749D01*
X131071934Y-72240324D01*
X131029251Y-72253286D01*
X130990176Y-72275164D01*
X130950653Y-72307484D01*
X130914652Y-72346700D01*
X130881720Y-72399745D01*
X130861479Y-72456344D01*
X130853930Y-72514802D01*
X130544078Y-72514802D01*
X130549270Y-72437607D01*
X130568385Y-72350436D01*
X130600668Y-72265838D01*
X130646116Y-72185199D01*
X130695505Y-72120899D01*
X130760498Y-72057818D01*
X130834209Y-72005618D01*
X130915570Y-71965038D01*
X131003513Y-71936822D01*
X131043297Y-71929526D01*
X131099975Y-71924160D01*
X131159887Y-71922863D01*
X131217406Y-71925720D01*
X131266903Y-71932816D01*
X131353024Y-71957860D01*
X131434656Y-71995548D01*
X131508950Y-72044447D01*
X131574901Y-72103510D01*
X131631507Y-72171692D01*
X131677762Y-72247948D01*
X131712663Y-72331230D01*
X131735204Y-72420494D01*
X131735302Y-72421055D01*
X131742944Y-72474144D01*
X131745327Y-72517859D01*
X131745476Y-72520594D01*
G37*
G36*
X133177441Y-71024786D02*
G01*
X133177188Y-71124406D01*
X133176884Y-71217076D01*
X133176533Y-71301977D01*
X133176140Y-71378291D01*
X133175708Y-71445199D01*
X133175241Y-71501882D01*
X133174743Y-71547522D01*
X133174218Y-71581300D01*
X133173670Y-71602397D01*
X133173103Y-71609995D01*
X133170860Y-71610664D01*
X133156580Y-71611978D01*
X133131089Y-71613107D01*
X133096497Y-71613989D01*
X133054913Y-71614563D01*
X133008447Y-71614768D01*
X132848563Y-71614768D01*
X132848563Y-71581787D01*
X132848537Y-71576213D01*
X132847425Y-71559090D01*
X132843702Y-71552598D01*
X132836035Y-71553752D01*
X132759901Y-71580492D01*
X132671947Y-71601966D01*
X132589317Y-71611054D01*
X132511223Y-71607886D01*
X132483300Y-71603945D01*
X132392417Y-71582650D01*
X132308549Y-71549030D01*
X132230901Y-71502715D01*
X132158674Y-71443331D01*
X132099467Y-71378527D01*
X132049712Y-71303858D01*
X132012506Y-71222623D01*
X131988156Y-71135503D01*
X131976972Y-71043177D01*
X131975954Y-71004833D01*
X131976522Y-70984503D01*
X132286817Y-70984503D01*
X132286979Y-71042083D01*
X132298565Y-71098261D01*
X132321253Y-71151233D01*
X132354723Y-71199197D01*
X132398654Y-71240348D01*
X132452726Y-71272884D01*
X132473241Y-71281940D01*
X132499399Y-71290692D01*
X132526848Y-71295447D01*
X132562081Y-71297676D01*
X132588492Y-71297624D01*
X132652490Y-71288435D01*
X132710242Y-71266510D01*
X132761107Y-71232240D01*
X132804448Y-71186015D01*
X132839625Y-71128225D01*
X132846771Y-71112701D01*
X132853173Y-71094453D01*
X132856882Y-71074659D01*
X132858621Y-71049064D01*
X132859111Y-71013415D01*
X132859117Y-71010726D01*
X132858821Y-70976528D01*
X132857232Y-70951851D01*
X132853522Y-70932200D01*
X132846868Y-70913078D01*
X132836442Y-70889989D01*
X132825796Y-70869489D01*
X132789697Y-70818794D01*
X132745789Y-70778343D01*
X132695862Y-70748452D01*
X132641706Y-70729432D01*
X132585112Y-70721597D01*
X132527868Y-70725260D01*
X132471766Y-70740735D01*
X132418595Y-70768334D01*
X132370146Y-70808372D01*
X132358078Y-70821389D01*
X132322046Y-70872353D01*
X132298399Y-70927325D01*
X132286817Y-70984503D01*
X131976522Y-70984503D01*
X131977400Y-70953073D01*
X131982182Y-70910736D01*
X132003909Y-70824275D01*
X132039027Y-70739548D01*
X132086038Y-70661805D01*
X132144166Y-70592123D01*
X132212634Y-70531585D01*
X132290667Y-70481270D01*
X132299664Y-70476501D01*
X132377805Y-70443698D01*
X132461569Y-70422392D01*
X132548325Y-70412718D01*
X132635443Y-70414812D01*
X132720291Y-70428812D01*
X132800240Y-70454854D01*
X132848563Y-70475103D01*
X132848563Y-70046260D01*
X132848563Y-69617417D01*
X133013220Y-69617417D01*
X133177876Y-69617417D01*
X133177876Y-70611320D01*
X133177860Y-70692411D01*
X133177781Y-70807970D01*
X133177641Y-70919034D01*
X133177468Y-71010726D01*
X133177441Y-71024786D01*
G37*
G36*
X132376072Y-71947660D02*
G01*
X132376072Y-71987034D01*
X132447661Y-71987034D01*
X132519251Y-71987034D01*
X132519251Y-71947660D01*
X132519251Y-71908286D01*
X132576523Y-71908286D01*
X132633795Y-71908286D01*
X132633795Y-71947660D01*
X132633795Y-71987034D01*
X132701805Y-71987034D01*
X132769815Y-71987034D01*
X132769815Y-71947660D01*
X132769815Y-71908286D01*
X132827087Y-71908286D01*
X132884358Y-71908286D01*
X132884358Y-71947660D01*
X132884358Y-71987034D01*
X132936992Y-71987034D01*
X132952837Y-71987216D01*
X132978540Y-71989189D01*
X132997084Y-71994158D01*
X133013292Y-72003142D01*
X133019201Y-72007264D01*
X133042599Y-72027324D01*
X133057458Y-72049550D01*
X133065746Y-72077912D01*
X133069428Y-72116379D01*
X133072007Y-72173167D01*
X133110925Y-72173167D01*
X133149842Y-72173167D01*
X133147751Y-72228649D01*
X133145660Y-72284131D01*
X133108076Y-72286295D01*
X133070491Y-72288459D01*
X133070491Y-72355721D01*
X133070491Y-72422983D01*
X133108076Y-72425146D01*
X133145660Y-72427310D01*
X133147751Y-72482792D01*
X133149842Y-72538274D01*
X133110167Y-72538274D01*
X133070491Y-72538274D01*
X133070491Y-72609864D01*
X133070491Y-72681454D01*
X133110167Y-72681454D01*
X133149842Y-72681454D01*
X133147751Y-72736936D01*
X133145660Y-72792417D01*
X133108076Y-72794581D01*
X133070491Y-72796745D01*
X133070491Y-72839555D01*
X133069556Y-72861119D01*
X133059969Y-72904816D01*
X133039972Y-72938715D01*
X133009511Y-72962868D01*
X132968532Y-72977323D01*
X132916983Y-72982130D01*
X132884358Y-72982130D01*
X132884358Y-73017925D01*
X132884358Y-73053720D01*
X132827087Y-73053720D01*
X132769815Y-73053720D01*
X132769815Y-73017925D01*
X132769815Y-72982130D01*
X132701805Y-72982130D01*
X132633795Y-72982130D01*
X132633795Y-73017925D01*
X132633795Y-73053720D01*
X132576523Y-73053720D01*
X132519251Y-73053720D01*
X132519251Y-73017925D01*
X132519251Y-72982130D01*
X132447661Y-72982130D01*
X132376072Y-72982130D01*
X132376072Y-73017925D01*
X132376072Y-73053720D01*
X132318800Y-73053720D01*
X132261528Y-73053720D01*
X132261528Y-73017925D01*
X132261528Y-72982130D01*
X132223944Y-72981816D01*
X132208320Y-72981220D01*
X132161486Y-72972396D01*
X132124492Y-72953285D01*
X132097638Y-72924181D01*
X132081225Y-72885375D01*
X132075553Y-72837161D01*
X132075395Y-72795997D01*
X132039601Y-72795997D01*
X132003806Y-72795997D01*
X132003806Y-72738725D01*
X132003806Y-72681454D01*
X132039601Y-72681454D01*
X132075395Y-72681454D01*
X132075395Y-72609864D01*
X132075395Y-72538274D01*
X132039601Y-72538274D01*
X132003806Y-72538274D01*
X132003806Y-72481003D01*
X132003806Y-72423731D01*
X132039601Y-72423731D01*
X132075395Y-72423731D01*
X132075395Y-72355721D01*
X132075395Y-72287711D01*
X132039601Y-72287711D01*
X132003806Y-72287711D01*
X132003806Y-72230439D01*
X132003806Y-72173167D01*
X132039601Y-72173167D01*
X132075395Y-72173167D01*
X132075395Y-72128151D01*
X132075583Y-72117148D01*
X132080043Y-72081974D01*
X132091503Y-72051611D01*
X132098072Y-72039527D01*
X132115605Y-72015717D01*
X132136958Y-72000482D01*
X132165535Y-71991912D01*
X132204740Y-71988097D01*
X132261528Y-71985518D01*
X132261528Y-71946902D01*
X132261528Y-71908286D01*
X132318800Y-71908286D01*
X132376072Y-71908286D01*
X132376072Y-71947660D01*
G37*
G36*
X128653991Y-77850844D02*
G01*
X128653991Y-77929137D01*
X128563336Y-77929137D01*
X128472681Y-77929137D01*
X128472681Y-77850844D01*
X128472681Y-77772550D01*
X128563336Y-77772550D01*
X128653991Y-77772550D01*
X128653991Y-77850844D01*
G37*
G36*
X128653991Y-78403017D02*
G01*
X128653991Y-78778001D01*
X128563336Y-78778001D01*
X128472681Y-78778001D01*
X128472681Y-78403017D01*
X128472681Y-78028034D01*
X128563336Y-78028034D01*
X128653991Y-78028034D01*
X128653991Y-78403017D01*
G37*
G36*
X130704997Y-77834038D02*
G01*
X130723969Y-77839376D01*
X130752614Y-77847037D01*
X130786845Y-77855917D01*
X130863469Y-77875515D01*
X130861018Y-78238163D01*
X130858566Y-78600811D01*
X130832973Y-78645934D01*
X130801076Y-78691261D01*
X130758027Y-78728454D01*
X130704411Y-78754149D01*
X130688764Y-78758884D01*
X130653214Y-78766405D01*
X130621626Y-78769491D01*
X130582479Y-78769760D01*
X130582479Y-78684310D01*
X130582479Y-78598861D01*
X130616654Y-78594277D01*
X130622568Y-78593276D01*
X130648721Y-78584701D01*
X130668163Y-78572372D01*
X130671691Y-78568636D01*
X130676587Y-78561531D01*
X130680166Y-78551616D01*
X130682633Y-78536612D01*
X130684194Y-78514242D01*
X130685055Y-78482225D01*
X130685421Y-78438283D01*
X130685497Y-78380138D01*
X130685497Y-78205224D01*
X130633988Y-78202770D01*
X130582479Y-78200317D01*
X130582479Y-78114568D01*
X130582479Y-78028820D01*
X130633988Y-78026367D01*
X130685497Y-78023913D01*
X130687826Y-77926298D01*
X130688084Y-77916229D01*
X130689730Y-77875464D01*
X130692143Y-77849083D01*
X130695552Y-77835343D01*
X130700188Y-77832501D01*
X130704997Y-77834038D01*
G37*
G36*
X132882514Y-78384814D02*
G01*
X132866192Y-78463624D01*
X132834075Y-78541823D01*
X132818450Y-78569107D01*
X132769944Y-78632019D01*
X132710055Y-78685898D01*
X132641684Y-78728399D01*
X132567731Y-78757176D01*
X132554261Y-78760423D01*
X132504752Y-78766459D01*
X132440915Y-78766934D01*
X132385366Y-78762964D01*
X132326357Y-78751492D01*
X132273235Y-78731287D01*
X132220739Y-78700765D01*
X132177191Y-78671533D01*
X132174737Y-78720646D01*
X132172283Y-78769760D01*
X132086142Y-78769760D01*
X132000000Y-78769760D01*
X132000000Y-78328102D01*
X132204161Y-78328102D01*
X132205981Y-78385676D01*
X132220426Y-78441595D01*
X132247303Y-78493429D01*
X132286422Y-78538748D01*
X132337589Y-78575123D01*
X132377727Y-78591196D01*
X132431402Y-78601302D01*
X132486775Y-78601913D01*
X132537177Y-78592449D01*
X132549504Y-78587755D01*
X132588888Y-78564792D01*
X132627653Y-78532072D01*
X132661156Y-78493927D01*
X132684755Y-78454692D01*
X132699105Y-78409016D01*
X132705095Y-78352607D01*
X132700574Y-78296323D01*
X132685520Y-78246431D01*
X132667668Y-78213681D01*
X132628950Y-78166815D01*
X132581669Y-78131247D01*
X132528307Y-78107633D01*
X132471343Y-78096626D01*
X132413260Y-78098880D01*
X132356537Y-78115048D01*
X132303655Y-78145785D01*
X132276371Y-78169743D01*
X132239164Y-78217706D01*
X132215158Y-78271302D01*
X132204161Y-78328102D01*
X132000000Y-78328102D01*
X132000000Y-78276258D01*
X132000000Y-77782755D01*
X132084475Y-77805279D01*
X132168949Y-77827803D01*
X132171261Y-77927655D01*
X132173573Y-78027507D01*
X132216589Y-78000155D01*
X132234409Y-77989153D01*
X132284424Y-77962943D01*
X132333053Y-77946097D01*
X132386046Y-77936977D01*
X132449157Y-77933946D01*
X132480437Y-77934271D01*
X132544007Y-77939939D01*
X132599639Y-77953748D01*
X132652535Y-77977267D01*
X132707900Y-78012068D01*
X132740398Y-78037101D01*
X132797392Y-78095180D01*
X132840479Y-78160576D01*
X132869279Y-78231705D01*
X132883417Y-78306979D01*
X132882888Y-78352607D01*
X132882514Y-78384814D01*
G37*
G36*
X128377660Y-78353087D02*
G01*
X128372330Y-78417259D01*
X128358703Y-78474639D01*
X128328398Y-78544205D01*
X128282023Y-78614099D01*
X128224097Y-78673278D01*
X128155912Y-78720453D01*
X128078761Y-78754331D01*
X128040189Y-78762943D01*
X127989777Y-78767687D01*
X127934259Y-78768230D01*
X127878934Y-78764724D01*
X127829098Y-78757316D01*
X127790049Y-78746159D01*
X127768335Y-78736620D01*
X127698747Y-78695586D01*
X127638349Y-78643501D01*
X127588349Y-78582389D01*
X127549956Y-78514277D01*
X127524381Y-78441188D01*
X127512833Y-78365149D01*
X127512911Y-78363531D01*
X127698902Y-78363531D01*
X127709513Y-78426078D01*
X127710416Y-78429065D01*
X127731324Y-78473723D01*
X127763654Y-78516849D01*
X127803062Y-78553552D01*
X127845205Y-78578936D01*
X127866606Y-78587146D01*
X127927795Y-78600127D01*
X127986994Y-78598334D01*
X128042302Y-78583025D01*
X128091817Y-78555462D01*
X128133638Y-78516904D01*
X128165865Y-78468610D01*
X128186595Y-78411840D01*
X128193927Y-78347855D01*
X128193783Y-78334218D01*
X128191020Y-78300844D01*
X128183141Y-78271590D01*
X128168066Y-78237584D01*
X128155098Y-78213946D01*
X128116228Y-78164785D01*
X128068038Y-78129166D01*
X128010911Y-78107328D01*
X127945231Y-78099509D01*
X127890369Y-78105051D01*
X127835129Y-78124467D01*
X127787342Y-78155950D01*
X127748417Y-78197550D01*
X127719763Y-78247315D01*
X127702788Y-78303293D01*
X127698902Y-78363531D01*
X127512911Y-78363531D01*
X127516522Y-78288185D01*
X127517006Y-78285088D01*
X127537577Y-78207094D01*
X127572514Y-78135490D01*
X127620486Y-78071748D01*
X127680160Y-78017342D01*
X127750204Y-77973743D01*
X127829287Y-77942426D01*
X127862996Y-77935429D01*
X127910368Y-77930784D01*
X127961931Y-77929596D01*
X128011370Y-77931988D01*
X128052369Y-77938081D01*
X128088089Y-77948337D01*
X128157712Y-77980138D01*
X128222104Y-78024919D01*
X128278713Y-78080378D01*
X128324991Y-78144216D01*
X128358387Y-78214130D01*
X128363457Y-78229845D01*
X128374700Y-78288492D01*
X128377420Y-78347855D01*
X128377660Y-78353087D01*
G37*
G36*
X129674539Y-78353638D02*
G01*
X129665729Y-78436731D01*
X129641536Y-78514095D01*
X129602156Y-78585217D01*
X129547783Y-78649587D01*
X129533238Y-78662940D01*
X129491913Y-78694457D01*
X129445204Y-78723376D01*
X129398597Y-78746494D01*
X129357580Y-78760610D01*
X129349255Y-78762178D01*
X129321199Y-78765381D01*
X129284932Y-78767774D01*
X129246180Y-78768932D01*
X129210065Y-78768322D01*
X129139693Y-78759718D01*
X129076651Y-78740217D01*
X129016613Y-78708685D01*
X128971285Y-78680022D01*
X128968814Y-78724891D01*
X128966342Y-78769760D01*
X128876098Y-78769760D01*
X128785854Y-78769760D01*
X128785854Y-78349448D01*
X128996823Y-78349448D01*
X128998413Y-78380145D01*
X129012530Y-78442059D01*
X129040541Y-78496226D01*
X129081582Y-78541229D01*
X129134790Y-78575650D01*
X129136659Y-78576549D01*
X129194777Y-78596121D01*
X129252393Y-78600804D01*
X129307740Y-78592091D01*
X129359050Y-78571475D01*
X129404557Y-78540447D01*
X129442493Y-78500501D01*
X129471091Y-78453130D01*
X129488584Y-78399825D01*
X129493204Y-78342080D01*
X129483185Y-78281386D01*
X129482345Y-78278546D01*
X129457904Y-78221013D01*
X129424074Y-78174991D01*
X129382827Y-78140204D01*
X129336139Y-78116375D01*
X129285983Y-78103228D01*
X129234334Y-78100486D01*
X129183167Y-78107874D01*
X129134454Y-78125115D01*
X129090172Y-78151933D01*
X129052293Y-78188052D01*
X129022792Y-78233195D01*
X129003644Y-78287086D01*
X128996823Y-78349448D01*
X128785854Y-78349448D01*
X128785854Y-78275276D01*
X128785854Y-78275212D01*
X128785954Y-78186641D01*
X128786242Y-78103167D01*
X128786701Y-78026214D01*
X128787312Y-77957205D01*
X128788059Y-77897563D01*
X128788922Y-77848711D01*
X128789884Y-77812073D01*
X128790928Y-77789071D01*
X128792035Y-77781128D01*
X128797788Y-77782289D01*
X128816957Y-77787030D01*
X128845784Y-77794557D01*
X128880630Y-77803935D01*
X128963044Y-77826405D01*
X128965359Y-77922319D01*
X128967674Y-78018234D01*
X129023049Y-77986344D01*
X129027353Y-77983892D01*
X129095149Y-77952620D01*
X129165474Y-77934794D01*
X129243252Y-77929137D01*
X129326954Y-77936314D01*
X129406850Y-77958201D01*
X129479431Y-77994183D01*
X129543453Y-78043641D01*
X129597673Y-78105954D01*
X129623959Y-78145940D01*
X129650467Y-78199826D01*
X129666360Y-78256005D01*
X129673808Y-78320603D01*
X129674283Y-78342080D01*
X129674539Y-78353638D01*
G37*
G36*
X130322488Y-77930580D02*
G01*
X130341667Y-77935427D01*
X130370477Y-77943140D01*
X130405289Y-77952762D01*
X130487703Y-77975856D01*
X130489991Y-78193557D01*
X130490284Y-78238478D01*
X130490111Y-78300016D01*
X130489306Y-78356463D01*
X130487935Y-78404972D01*
X130486061Y-78442695D01*
X130483751Y-78466787D01*
X130467207Y-78535258D01*
X130436612Y-78600705D01*
X130392022Y-78658687D01*
X130364470Y-78686257D01*
X130328661Y-78715478D01*
X130291088Y-78736917D01*
X130245930Y-78754385D01*
X130226490Y-78760023D01*
X130196185Y-78765477D01*
X130159772Y-78767839D01*
X130112129Y-78767615D01*
X130105110Y-78767438D01*
X130066794Y-78765973D01*
X130038782Y-78763156D01*
X130015705Y-78757805D01*
X129992197Y-78748740D01*
X129962889Y-78734779D01*
X129930877Y-78716939D01*
X129873131Y-78671462D01*
X129827613Y-78615196D01*
X129794820Y-78548834D01*
X129775248Y-78473069D01*
X129774662Y-78468818D01*
X129772666Y-78444739D01*
X129770938Y-78409232D01*
X129769491Y-78364621D01*
X129768335Y-78313233D01*
X129767479Y-78257393D01*
X129766936Y-78199427D01*
X129766716Y-78141661D01*
X129766828Y-78086418D01*
X129767285Y-78036027D01*
X129768096Y-77992811D01*
X129769272Y-77959096D01*
X129770823Y-77937209D01*
X129772762Y-77929474D01*
X129778515Y-77930634D01*
X129797684Y-77935376D01*
X129826511Y-77942905D01*
X129861357Y-77952285D01*
X129943771Y-77974759D01*
X129947891Y-78221854D01*
X129948519Y-78257825D01*
X129949908Y-78324346D01*
X129951437Y-78377068D01*
X129953221Y-78417827D01*
X129955375Y-78448457D01*
X129958014Y-78470793D01*
X129961253Y-78486670D01*
X129965207Y-78497922D01*
X129966297Y-78500263D01*
X129993477Y-78539658D01*
X130030679Y-78568864D01*
X130074734Y-78587376D01*
X130122473Y-78594688D01*
X130170724Y-78590292D01*
X130216320Y-78573684D01*
X130256091Y-78544358D01*
X130256202Y-78544246D01*
X130270342Y-78529411D01*
X130281792Y-78514879D01*
X130290835Y-78498785D01*
X130297753Y-78479263D01*
X130302831Y-78454450D01*
X130306352Y-78422479D01*
X130308597Y-78381486D01*
X130309850Y-78329606D01*
X130310395Y-78264974D01*
X130310513Y-78185724D01*
X130310559Y-78154595D01*
X130310924Y-78093958D01*
X130311616Y-78039930D01*
X130312587Y-77994485D01*
X130313788Y-77959599D01*
X130315173Y-77937247D01*
X130316694Y-77929402D01*
X130322488Y-77930580D01*
G37*
G36*
X135660853Y-78356993D02*
G01*
X135656011Y-78421358D01*
X135636630Y-78499804D01*
X135603449Y-78571094D01*
X135557544Y-78633825D01*
X135499992Y-78686594D01*
X135431869Y-78727998D01*
X135354251Y-78756634D01*
X135289122Y-78768142D01*
X135208405Y-78768013D01*
X135127779Y-78753016D01*
X135050365Y-78723490D01*
X135049863Y-78723244D01*
X135020006Y-78706407D01*
X134988514Y-78685233D01*
X134958540Y-78662288D01*
X134933234Y-78640141D01*
X134915748Y-78621358D01*
X134909233Y-78608507D01*
X134913242Y-78604669D01*
X134929909Y-78595898D01*
X134956539Y-78584390D01*
X134989883Y-78571631D01*
X135070514Y-78542450D01*
X135107254Y-78565673D01*
X135150001Y-78588074D01*
X135201760Y-78601871D01*
X135259635Y-78602832D01*
X135287698Y-78598881D01*
X135342141Y-78581273D01*
X135390710Y-78552649D01*
X135430061Y-78515239D01*
X135456851Y-78471274D01*
X135459304Y-78465235D01*
X135466667Y-78444699D01*
X135469631Y-78432225D01*
X135469052Y-78431533D01*
X135456509Y-78429110D01*
X135427739Y-78426990D01*
X135382943Y-78425177D01*
X135322320Y-78423680D01*
X135246071Y-78422505D01*
X135154397Y-78421659D01*
X134839163Y-78419500D01*
X134836741Y-78369200D01*
X134836291Y-78352492D01*
X134842936Y-78276348D01*
X134845372Y-78267317D01*
X135012407Y-78267317D01*
X135016764Y-78268892D01*
X135036169Y-78271055D01*
X135069671Y-78272825D01*
X135115819Y-78274153D01*
X135173163Y-78274987D01*
X135240251Y-78275276D01*
X135463176Y-78275276D01*
X135457660Y-78252612D01*
X135452910Y-78237292D01*
X135429540Y-78195328D01*
X135393861Y-78157423D01*
X135348953Y-78126420D01*
X135297896Y-78105162D01*
X135240601Y-78096596D01*
X135182875Y-78103842D01*
X135126966Y-78126650D01*
X135074498Y-78164586D01*
X135058830Y-78180285D01*
X135038018Y-78206064D01*
X135021784Y-78231744D01*
X135012467Y-78253451D01*
X135012407Y-78267317D01*
X134845372Y-78267317D01*
X134862814Y-78202668D01*
X134894474Y-78133685D01*
X134936463Y-78071627D01*
X134987331Y-78018727D01*
X135045627Y-77977215D01*
X135109899Y-77949321D01*
X135165706Y-77936239D01*
X135247397Y-77930489D01*
X135327745Y-77940014D01*
X135404607Y-77964287D01*
X135475838Y-78002780D01*
X135539297Y-78054967D01*
X135550200Y-78066205D01*
X135599776Y-78129307D01*
X135634348Y-78197821D01*
X135654508Y-78273224D01*
X135654663Y-78275276D01*
X135660853Y-78356993D01*
G37*
G36*
X134728389Y-78271728D02*
G01*
X134736146Y-78353569D01*
X134731359Y-78417689D01*
X134711821Y-78495703D01*
X134678375Y-78567332D01*
X134632260Y-78630940D01*
X134574714Y-78684893D01*
X134506978Y-78727554D01*
X134430288Y-78757289D01*
X134408050Y-78762444D01*
X134346325Y-78768437D01*
X134278858Y-78765499D01*
X134210902Y-78754363D01*
X134147713Y-78735762D01*
X134094544Y-78710430D01*
X134081127Y-78701500D01*
X134055897Y-78682083D01*
X134030430Y-78659989D01*
X134008083Y-78638358D01*
X133992214Y-78620331D01*
X133986178Y-78609048D01*
X133990063Y-78604558D01*
X134006624Y-78595009D01*
X134033204Y-78583021D01*
X134066532Y-78570177D01*
X134146886Y-78541417D01*
X134171610Y-78560073D01*
X134214982Y-78585076D01*
X134267651Y-78600172D01*
X134322676Y-78602958D01*
X134377226Y-78594217D01*
X134428472Y-78574732D01*
X134473585Y-78545288D01*
X134509734Y-78506668D01*
X134534091Y-78459657D01*
X134545065Y-78427742D01*
X134228535Y-78425585D01*
X133912006Y-78423427D01*
X133912006Y-78362839D01*
X133912814Y-78326916D01*
X133919561Y-78265424D01*
X133920331Y-78262504D01*
X134085075Y-78262504D01*
X134086155Y-78265756D01*
X134091313Y-78268890D01*
X134102351Y-78271264D01*
X134121037Y-78272979D01*
X134149137Y-78274136D01*
X134188418Y-78274837D01*
X134240648Y-78275183D01*
X134307593Y-78275276D01*
X134309695Y-78275275D01*
X134368220Y-78275041D01*
X134420940Y-78274410D01*
X134465720Y-78273441D01*
X134500423Y-78272192D01*
X134522915Y-78270724D01*
X134531060Y-78269095D01*
X134531568Y-78257969D01*
X134523068Y-78226520D01*
X134502296Y-78193313D01*
X134471618Y-78161020D01*
X134433400Y-78132310D01*
X134390007Y-78109854D01*
X134387641Y-78108924D01*
X134348051Y-78100050D01*
X134301672Y-78098848D01*
X134255601Y-78104980D01*
X134216938Y-78118107D01*
X134204536Y-78124894D01*
X134169302Y-78149254D01*
X134136825Y-78178387D01*
X134110018Y-78209101D01*
X134091797Y-78238204D01*
X134085075Y-78262504D01*
X133920331Y-78262504D01*
X133934386Y-78209229D01*
X133958766Y-78151655D01*
X133996459Y-78089089D01*
X134048438Y-78030913D01*
X134109590Y-77985207D01*
X134178316Y-77952710D01*
X134253020Y-77934156D01*
X134332102Y-77930283D01*
X134413964Y-77941827D01*
X134419474Y-77943165D01*
X134495727Y-77970316D01*
X134563798Y-78010715D01*
X134622394Y-78062709D01*
X134670220Y-78124645D01*
X134705983Y-78194869D01*
X134724378Y-78257969D01*
X134728389Y-78271728D01*
G37*
G36*
X133803125Y-78283359D02*
G01*
X133809626Y-78353398D01*
X133806571Y-78420997D01*
X133793332Y-78481311D01*
X133788831Y-78494019D01*
X133753325Y-78567491D01*
X133705463Y-78632283D01*
X133647071Y-78686643D01*
X133579973Y-78728817D01*
X133505997Y-78757055D01*
X133463384Y-78765407D01*
X133393021Y-78768911D01*
X133319961Y-78762130D01*
X133249756Y-78745708D01*
X133187961Y-78720285D01*
X133166850Y-78707100D01*
X133141502Y-78688349D01*
X133115043Y-78666719D01*
X133090338Y-78644758D01*
X133070250Y-78625013D01*
X133057644Y-78610032D01*
X133055383Y-78602361D01*
X133060926Y-78599854D01*
X133079371Y-78592719D01*
X133107388Y-78582378D01*
X133141591Y-78570097D01*
X133224161Y-78540812D01*
X133248729Y-78560423D01*
X133287859Y-78583490D01*
X133335675Y-78599177D01*
X133384714Y-78604932D01*
X133425058Y-78601442D01*
X133477718Y-78586675D01*
X133525669Y-78562171D01*
X133565993Y-78529917D01*
X133595768Y-78491900D01*
X133612078Y-78450110D01*
X133617376Y-78423621D01*
X133304122Y-78423621D01*
X132990868Y-78423621D01*
X132985502Y-78380354D01*
X132984605Y-78371135D01*
X132985661Y-78321399D01*
X132994523Y-78264814D01*
X132996296Y-78258217D01*
X133162038Y-78258217D01*
X133162333Y-78262740D01*
X133164461Y-78266824D01*
X133170257Y-78269909D01*
X133181550Y-78272133D01*
X133200171Y-78273639D01*
X133227951Y-78274566D01*
X133266721Y-78275054D01*
X133318313Y-78275244D01*
X133384556Y-78275276D01*
X133441796Y-78275254D01*
X133495483Y-78275092D01*
X133536073Y-78274653D01*
X133565395Y-78273795D01*
X133585281Y-78272382D01*
X133597561Y-78270273D01*
X133604066Y-78267329D01*
X133606627Y-78263413D01*
X133607074Y-78258384D01*
X133602710Y-78236032D01*
X133584184Y-78202808D01*
X133552124Y-78166951D01*
X133531581Y-78149079D01*
X133478171Y-78116194D01*
X133421751Y-78099221D01*
X133363552Y-78098249D01*
X133304807Y-78113370D01*
X133246747Y-78144672D01*
X133231784Y-78156295D01*
X133206116Y-78181772D01*
X133183782Y-78210138D01*
X133168012Y-78237063D01*
X133162038Y-78258217D01*
X132996296Y-78258217D01*
X133010055Y-78207014D01*
X133031124Y-78153631D01*
X133053706Y-78114833D01*
X133087463Y-78070865D01*
X133126687Y-78029601D01*
X133167394Y-77995190D01*
X133205604Y-77971784D01*
X133250155Y-77953862D01*
X133330267Y-77934507D01*
X133410231Y-77930667D01*
X133488325Y-77941849D01*
X133562826Y-77967559D01*
X133632014Y-78007304D01*
X133694165Y-78060593D01*
X133747558Y-78126930D01*
X133763954Y-78155337D01*
X133787692Y-78215724D01*
X133797426Y-78258384D01*
X133803125Y-78283359D01*
G37*
G36*
X131357496Y-77934081D02*
G01*
X131406508Y-77941980D01*
X131452853Y-77956138D01*
X131513087Y-77986915D01*
X131561875Y-78028617D01*
X131598178Y-78080495D01*
X131601208Y-78086547D01*
X131610165Y-78111082D01*
X131614872Y-78140488D01*
X131616373Y-78180500D01*
X131616377Y-78181186D01*
X131615768Y-78216732D01*
X131612675Y-78241935D01*
X131605811Y-78262796D01*
X131593888Y-78285315D01*
X131592953Y-78286893D01*
X131570832Y-78317336D01*
X131542464Y-78343539D01*
X131505810Y-78366584D01*
X131458830Y-78387552D01*
X131399487Y-78407526D01*
X131325741Y-78427588D01*
X131324460Y-78427909D01*
X131262447Y-78444771D01*
X131215226Y-78460818D01*
X131181228Y-78476976D01*
X131158886Y-78494170D01*
X131146631Y-78513322D01*
X131142895Y-78535359D01*
X131146339Y-78552163D01*
X131162612Y-78577193D01*
X131188881Y-78598788D01*
X131221399Y-78613232D01*
X131235800Y-78616654D01*
X131290944Y-78621702D01*
X131353430Y-78617441D01*
X131418996Y-78604627D01*
X131483379Y-78584016D01*
X131542317Y-78556361D01*
X131584246Y-78532697D01*
X131610153Y-78605439D01*
X131619099Y-78631467D01*
X131627395Y-78660092D01*
X131629681Y-78677477D01*
X131626417Y-78685907D01*
X131618470Y-78691605D01*
X131588836Y-78708015D01*
X131550185Y-78725121D01*
X131507609Y-78740794D01*
X131466200Y-78752905D01*
X131446136Y-78757234D01*
X131391955Y-78764817D01*
X131332193Y-78768715D01*
X131272240Y-78768846D01*
X131217490Y-78765124D01*
X131173333Y-78757466D01*
X131119612Y-78739804D01*
X131061581Y-78709612D01*
X131016878Y-78671687D01*
X131001746Y-78653815D01*
X130976701Y-78613947D01*
X130963123Y-78570728D01*
X130958832Y-78518397D01*
X130958952Y-78507112D01*
X130964836Y-78459388D01*
X130980322Y-78418331D01*
X131006553Y-78382976D01*
X131044673Y-78352355D01*
X131095824Y-78325504D01*
X131161149Y-78301456D01*
X131241792Y-78279246D01*
X131275974Y-78270548D01*
X131315556Y-78259609D01*
X131348717Y-78249521D01*
X131370633Y-78241692D01*
X131394713Y-78228726D01*
X131419847Y-78204440D01*
X131430909Y-78176501D01*
X131427203Y-78147201D01*
X131408030Y-78118832D01*
X131387730Y-78102935D01*
X131345891Y-78085476D01*
X131294602Y-78077896D01*
X131236194Y-78080227D01*
X131172995Y-78092500D01*
X131107335Y-78114746D01*
X131081345Y-78125324D01*
X131060205Y-78133673D01*
X131049621Y-78137522D01*
X131045369Y-78132603D01*
X131036890Y-78116000D01*
X131026159Y-78091701D01*
X131014868Y-78063890D01*
X131004708Y-78036755D01*
X130997371Y-78014481D01*
X130994549Y-78001256D01*
X130999721Y-77994966D01*
X131017471Y-77984561D01*
X131044341Y-77972444D01*
X131076653Y-77960114D01*
X131110730Y-77949068D01*
X131142895Y-77940806D01*
X131179572Y-77934908D01*
X131237528Y-77930516D01*
X131299003Y-77930250D01*
X131357496Y-77934081D01*
G37*
G36*
X136169128Y-77936269D02*
G01*
X136220100Y-77948354D01*
X136281110Y-77973396D01*
X136333382Y-78007367D01*
X136374495Y-78048611D01*
X136402030Y-78095474D01*
X136407925Y-78112455D01*
X136416581Y-78166028D01*
X136413082Y-78221477D01*
X136397595Y-78272120D01*
X136386756Y-78292566D01*
X136366406Y-78319746D01*
X136339575Y-78343326D01*
X136304286Y-78364418D01*
X136258563Y-78384135D01*
X136200429Y-78403589D01*
X136127905Y-78423893D01*
X136090572Y-78434054D01*
X136035189Y-78451287D01*
X135994000Y-78467903D01*
X135965615Y-78484827D01*
X135948645Y-78502983D01*
X135941700Y-78523296D01*
X135943390Y-78546690D01*
X135948307Y-78562279D01*
X135967608Y-78589252D01*
X135999533Y-78608021D01*
X136044822Y-78618935D01*
X136104219Y-78622344D01*
X136183408Y-78616632D01*
X136256408Y-78598975D01*
X136329079Y-78567867D01*
X136330978Y-78566894D01*
X136362116Y-78552226D01*
X136380905Y-78546505D01*
X136388522Y-78549365D01*
X136388685Y-78549836D01*
X136393518Y-78563249D01*
X136402181Y-78586937D01*
X136412918Y-78616094D01*
X136414117Y-78619373D01*
X136423352Y-78647469D01*
X136428740Y-78669195D01*
X136429149Y-78680083D01*
X136420752Y-78688398D01*
X136397453Y-78702411D01*
X136363912Y-78717735D01*
X136323553Y-78732993D01*
X136279802Y-78746806D01*
X136236081Y-78757796D01*
X136227843Y-78759386D01*
X136186702Y-78764150D01*
X136137218Y-78766234D01*
X136084331Y-78765768D01*
X136032983Y-78762882D01*
X135988111Y-78757708D01*
X135954657Y-78750374D01*
X135942892Y-78746425D01*
X135878877Y-78717213D01*
X135828656Y-78679508D01*
X135792476Y-78633605D01*
X135770582Y-78579803D01*
X135763217Y-78518397D01*
X135763753Y-78498781D01*
X135770488Y-78453723D01*
X135785963Y-78415249D01*
X135811467Y-78382259D01*
X135848293Y-78353657D01*
X135897729Y-78328342D01*
X135961068Y-78305218D01*
X136039598Y-78283186D01*
X136065083Y-78276665D01*
X136115305Y-78262969D01*
X136153047Y-78251018D01*
X136180912Y-78239823D01*
X136201503Y-78228398D01*
X136217425Y-78215756D01*
X136217488Y-78215697D01*
X136232949Y-78191244D01*
X136235007Y-78162783D01*
X136224902Y-78133864D01*
X136203870Y-78108035D01*
X136173151Y-78088845D01*
X136137218Y-78079870D01*
X136090469Y-78077111D01*
X136037678Y-78080194D01*
X135983349Y-78088633D01*
X135931986Y-78101941D01*
X135888093Y-78119632D01*
X135879749Y-78123632D01*
X135860490Y-78130745D01*
X135849600Y-78131586D01*
X135848490Y-78130460D01*
X135841605Y-78117674D01*
X135831691Y-78094374D01*
X135820498Y-78064586D01*
X135817447Y-78055996D01*
X135808202Y-78027956D01*
X135805196Y-78008267D01*
X135810298Y-77994183D01*
X135825375Y-77982958D01*
X135852296Y-77971845D01*
X135892929Y-77958098D01*
X135901234Y-77955453D01*
X135964828Y-77940754D01*
X136035448Y-77932280D01*
X136105935Y-77930596D01*
X136169128Y-77936269D01*
G37*
G04 #@! TD*
%LPC*%
G04 #@! TO.C,U4*
G36*
X123059200Y-62737750D02*
G01*
X123922800Y-62737750D01*
X123922800Y-61834150D01*
X123059200Y-61834150D01*
X123059200Y-62737750D01*
G37*
G36*
X123059200Y-65277750D02*
G01*
X123922800Y-65277750D01*
X123922800Y-64374150D01*
X123059200Y-64374150D01*
X123059200Y-65277750D01*
G37*
G36*
X123059200Y-67817750D02*
G01*
X123922800Y-67817750D01*
X123922800Y-66914150D01*
X123059200Y-66914150D01*
X123059200Y-67817750D01*
G37*
G36*
X123059200Y-70357750D02*
G01*
X123922800Y-70357750D01*
X123922800Y-69454150D01*
X123059200Y-69454150D01*
X123059200Y-70357750D01*
G37*
G36*
X123059200Y-72897750D02*
G01*
X123922800Y-72897750D01*
X123922800Y-71994150D01*
X123059200Y-71994150D01*
X123059200Y-72897750D01*
G37*
G36*
X123059200Y-75437750D02*
G01*
X123922800Y-75437750D01*
X123922800Y-74534150D01*
X123059200Y-74534150D01*
X123059200Y-75437750D01*
G37*
G36*
X123059200Y-77977750D02*
G01*
X123922800Y-77977750D01*
X123922800Y-77074150D01*
X123059200Y-77074150D01*
X123059200Y-77977750D01*
G37*
G36*
X140077200Y-62737750D02*
G01*
X140940800Y-62737750D01*
X140940800Y-61834150D01*
X140077200Y-61834150D01*
X140077200Y-62737750D01*
G37*
G36*
X140077200Y-65277750D02*
G01*
X140940800Y-65277750D01*
X140940800Y-64374150D01*
X140077200Y-64374150D01*
X140077200Y-65277750D01*
G37*
G36*
X140077200Y-67817750D02*
G01*
X140940800Y-67817750D01*
X140940800Y-66914150D01*
X140077200Y-66914150D01*
X140077200Y-67817750D01*
G37*
G36*
X140077200Y-70357750D02*
G01*
X140940800Y-70357750D01*
X140940800Y-69454150D01*
X140077200Y-69454150D01*
X140077200Y-70357750D01*
G37*
G36*
X140077200Y-72897750D02*
G01*
X140940800Y-72897750D01*
X140940800Y-71994150D01*
X140077200Y-71994150D01*
X140077200Y-72897750D01*
G37*
G36*
X140077200Y-75437750D02*
G01*
X140940800Y-75437750D01*
X140940800Y-74534150D01*
X140077200Y-74534150D01*
X140077200Y-75437750D01*
G37*
G36*
X140077200Y-77977750D02*
G01*
X140940800Y-77977750D01*
X140940800Y-77074150D01*
X140077200Y-77074150D01*
X140077200Y-77977750D01*
G37*
G36*
X123624629Y-63124681D02*
G01*
X123745178Y-63186105D01*
X123843780Y-63284707D01*
X123922800Y-63527904D01*
X123922800Y-63579948D01*
X123902269Y-63709579D01*
X123840845Y-63830128D01*
X123742243Y-63928730D01*
X123499046Y-64007750D01*
X123059200Y-64007750D01*
X123059200Y-63104150D01*
X123494998Y-63104150D01*
X123624629Y-63124681D01*
G37*
G36*
X123624629Y-65664681D02*
G01*
X123745178Y-65726105D01*
X123843780Y-65824707D01*
X123922800Y-66067904D01*
X123922800Y-66119948D01*
X123902269Y-66249579D01*
X123840845Y-66370128D01*
X123742243Y-66468730D01*
X123499046Y-66547750D01*
X123059200Y-66547750D01*
X123059200Y-65644150D01*
X123494998Y-65644150D01*
X123624629Y-65664681D01*
G37*
G36*
X123624629Y-68204681D02*
G01*
X123745178Y-68266105D01*
X123843780Y-68364707D01*
X123922800Y-68607904D01*
X123922800Y-68659948D01*
X123902269Y-68789579D01*
X123840845Y-68910128D01*
X123742243Y-69008730D01*
X123499046Y-69087750D01*
X123059200Y-69087750D01*
X123059200Y-68184150D01*
X123494998Y-68184150D01*
X123624629Y-68204681D01*
G37*
G36*
X123624629Y-70744681D02*
G01*
X123745178Y-70806105D01*
X123843780Y-70904707D01*
X123922800Y-71147904D01*
X123922800Y-71199948D01*
X123902269Y-71329579D01*
X123840845Y-71450128D01*
X123742243Y-71548730D01*
X123499046Y-71627750D01*
X123059200Y-71627750D01*
X123059200Y-70724150D01*
X123494998Y-70724150D01*
X123624629Y-70744681D01*
G37*
G36*
X123624629Y-73284681D02*
G01*
X123745178Y-73346105D01*
X123843780Y-73444707D01*
X123922800Y-73687904D01*
X123922800Y-73739948D01*
X123902269Y-73869579D01*
X123840845Y-73990128D01*
X123742243Y-74088730D01*
X123499046Y-74167750D01*
X123059200Y-74167750D01*
X123059200Y-73264150D01*
X123494998Y-73264150D01*
X123624629Y-73284681D01*
G37*
G36*
X123624629Y-75824681D02*
G01*
X123745178Y-75886105D01*
X123843780Y-75984707D01*
X123922800Y-76227904D01*
X123922800Y-76279948D01*
X123902269Y-76409579D01*
X123840845Y-76530128D01*
X123742243Y-76628730D01*
X123499046Y-76707750D01*
X123059200Y-76707750D01*
X123059200Y-75804150D01*
X123494998Y-75804150D01*
X123624629Y-75824681D01*
G37*
G36*
X140940800Y-71627750D02*
G01*
X140505002Y-71627750D01*
X140375371Y-71607219D01*
X140254822Y-71545795D01*
X140156220Y-71447193D01*
X140077200Y-71203996D01*
X140077200Y-71151952D01*
X140097731Y-71022321D01*
X140159155Y-70901772D01*
X140257757Y-70803170D01*
X140500954Y-70724150D01*
X140940800Y-70724150D01*
X140940800Y-71627750D01*
G37*
G36*
X140940800Y-74167750D02*
G01*
X140505002Y-74167750D01*
X140375371Y-74147219D01*
X140254822Y-74085795D01*
X140156220Y-73987193D01*
X140077200Y-73743996D01*
X140077200Y-73691952D01*
X140097731Y-73562321D01*
X140159155Y-73441772D01*
X140257757Y-73343170D01*
X140500954Y-73264150D01*
X140940800Y-73264150D01*
X140940800Y-74167750D01*
G37*
G36*
X140940800Y-76707750D02*
G01*
X140505002Y-76707750D01*
X140375371Y-76687219D01*
X140254822Y-76625795D01*
X140156220Y-76527193D01*
X140077200Y-76283996D01*
X140077200Y-76231952D01*
X140097731Y-76102321D01*
X140159155Y-75981772D01*
X140257757Y-75883170D01*
X140500954Y-75804150D01*
X140940800Y-75804150D01*
X140940800Y-76707750D01*
G37*
G04 #@! TD*
D14*
G04 #@! TO.C,J1*
X134920000Y-64530000D03*
X129140000Y-64530000D03*
D15*
X136350000Y-65030000D03*
D16*
X136350000Y-60850000D03*
D15*
X127710000Y-65030000D03*
D16*
X127710000Y-60850000D03*
G04 #@! TD*
D17*
G04 #@! TO.C,U4*
X123110000Y-62285950D03*
D18*
X124380000Y-62285950D03*
D17*
X123110000Y-64825950D03*
D18*
X124380000Y-64825950D03*
D17*
X123110000Y-67365950D03*
D18*
X124380000Y-67365950D03*
D17*
X123110000Y-69905950D03*
D18*
X124380000Y-69905950D03*
D17*
X123110000Y-72445950D03*
D18*
X124380000Y-72445950D03*
D17*
X123110000Y-74985950D03*
D18*
X124380000Y-74985950D03*
D17*
X123110000Y-77525950D03*
D18*
X124380000Y-77525950D03*
X139620000Y-77525950D03*
D17*
X140890000Y-77525950D03*
D18*
X139620000Y-74985950D03*
D17*
X140890000Y-74985950D03*
D18*
X139620000Y-72445950D03*
D17*
X140890000Y-72445950D03*
D18*
X139620000Y-69905950D03*
D17*
X140890000Y-69905950D03*
D18*
X139620000Y-67365950D03*
D17*
X140890000Y-67365950D03*
D18*
X139620000Y-64825950D03*
D17*
X140890000Y-64825950D03*
D18*
X139620000Y-62285950D03*
D17*
X140890000Y-62285950D03*
X123110000Y-63555950D03*
X123110000Y-66095950D03*
X123110000Y-68635950D03*
X123110000Y-71175950D03*
X123110000Y-73715950D03*
X123110000Y-76255950D03*
X140890000Y-76255950D03*
X140890000Y-73715950D03*
X140890000Y-71175950D03*
G04 #@! TD*
D19*
G04 #@! TO.C,TP1*
X133280000Y-61160000D03*
G04 #@! TD*
G04 #@! TO.C,TP8*
X130740000Y-68700000D03*
G04 #@! TD*
D20*
G04 #@! TO.C,TP10*
X133060000Y-75540000D03*
G04 #@! TD*
D19*
G04 #@! TO.C,TP4*
X130740000Y-63700000D03*
G04 #@! TD*
G04 #@! TO.C,TP2*
X130740000Y-61160000D03*
G04 #@! TD*
G04 #@! TO.C,TP5*
X133280000Y-66240000D03*
G04 #@! TD*
G04 #@! TO.C,TP6*
X130740000Y-66240000D03*
G04 #@! TD*
G04 #@! TO.C,TP3*
X133280000Y-63700000D03*
G04 #@! TD*
D21*
G04 #@! TO.C,TP9*
X131060000Y-75560000D03*
G04 #@! TD*
D19*
G04 #@! TO.C,TP7*
X133280000Y-68800000D03*
G04 #@! TD*
%LPD*%
M02*
